<svg width="30" height="25" viewBox="0 0 30 25" fill="none" xmlns="http://www.w3.org/2000/svg">
<path d="M19.3502 5.4347L24.2683 12.478L15.9582 11.7351L19.3502 5.4347Z" fill="#0D8617"/>
<path d="M24.291 12.4905L24.2675 12.4935L15.9339 11.7497L15.9425 11.7305L19.3469 5.41499L19.3581 5.42716L24.291 12.4905ZM15.9781 11.7202L24.2411 12.469L19.353 5.4582L15.9781 11.7202Z" fill="#0D8617"/>
<path d="M24.2682 12.4819L19.3693 19.5299L15.9583 11.7351L24.2682 12.4819Z" fill="#8FFF00"/>
<path d="M19.3717 19.5573L19.3608 19.5373L15.9349 11.7224L24.288 12.467L24.2794 12.4862L19.3717 19.5573ZM15.977 11.7436L19.3659 19.5062L24.2438 12.4965L15.977 11.7436Z" fill="#1DB729"/>
<path d="M19.3687 19.5297L21.7586 20.2242L15.7627 23.4932L19.3687 19.5297Z" fill="#0D8617"/>
<path d="M15.711 23.5185L15.7553 23.4852L19.3733 19.5143L19.3807 19.5264L21.7779 20.2328L21.7583 20.236L15.711 23.5185ZM19.368 19.5493L15.8145 23.4719L21.7355 20.2194L19.368 19.5493Z" fill="#1DB729"/>
<path d="M26.5918 16.8302L21.7588 20.2245L19.3721 19.5457L26.5918 16.8302Z" fill="#0E6115"/>
<path d="M21.7582 20.244L21.747 20.2318L19.353 19.5411L19.365 19.5337L26.6284 16.8004L26.5995 16.8383L21.7582 20.244ZM19.3917 19.5504L21.7598 20.205L26.5555 16.8639L19.3917 19.5504Z" fill="#1DB729"/>
<path d="M24.2708 12.5095L26.5921 16.8302L19.3691 19.53L24.2708 12.5095Z" fill="#1DB729"/>
<path d="M19.3445 19.5563L19.3574 19.5255L24.2721 12.4743L24.2826 12.506L26.6033 16.8384L26.5954 16.842L19.3445 19.5563ZM24.2693 12.5445L19.3933 19.5075L26.5765 16.8256L24.2693 12.5445Z" fill="#1DB729"/>
<path d="M24.2683 12.4779L29.3979 9.66986L26.6305 16.8472L24.2683 12.4779Z" fill="#00750A"/>
<path d="M26.6323 16.8943L24.2528 12.4696L29.3976 9.67L29.4092 9.67438L26.6323 16.8943ZM24.2832 12.4903L26.6322 16.8005L29.3853 9.68513L24.2832 12.4903Z" fill="#1DB729"/>
<path d="M19.3501 5.43481L24.2653 6.47377L24.2708 12.5094L19.3501 5.43481Z" fill="#8FFF00"/>
<path d="M24.2964 12.5534L24.2627 12.5169L19.327 5.42603L24.2737 6.45845L24.2771 6.4703L24.2964 12.5534ZM19.3771 5.44368L24.2493 12.4616L24.2531 6.48496L19.3771 5.44368Z" fill="#1DB729"/>
<path d="M24.2682 12.4779L29.3815 9.68489L24.2653 6.47363L24.2682 12.4779Z" fill="#1DB729"/>
<path d="M29.4044 9.69393L24.2596 12.4935L24.24 6.41821L29.4044 9.69393ZM24.2763 12.4668L29.3583 9.67643L24.2863 6.52947L24.2763 12.4668Z" fill="#1DB729"/>
<path d="M29.3815 9.68485L27.1858 3.03703L24.2652 6.47359L29.3815 9.68485Z" fill="#00750A"/>
<path d="M29.4288 9.7689L29.3694 9.69227L24.2271 6.4487L27.194 3.02574L27.1977 3.0298L29.4288 9.7689ZM24.2954 6.49835L29.334 9.60099L27.1774 3.04851L24.2954 6.49835Z" fill="#1DB729"/>
<path d="M16.4606 3.56766L22.2497 0.294156L19.3499 5.43476L16.4606 3.56766Z" fill="#1DB729"/>
<path d="M19.3571 5.45449L16.4373 3.56662L22.2863 0.260392L19.3571 5.45449ZM16.4841 3.56852L19.3468 5.41892L22.2173 0.324008L16.4841 3.56852Z" fill="#1DB729"/>
<path d="M24.2312 6.44888L19.3501 5.43474L22.2499 0.294137L24.2312 6.44888Z" fill="#0D8617"/>
<path d="M19.3257 5.45711L22.2551 0.25911L24.2426 6.45317L24.2307 6.45659L19.3257 5.45711ZM22.2485 0.325253L19.3781 5.41626L24.2156 6.44426L22.2485 0.325253Z" fill="#1DB729"/>
<path d="M27.1778 3.04492L22.2499 0.294434L24.2312 6.44917L27.1778 3.04492Z" fill="#1DB729"/>
<path d="M24.2226 6.46432L24.2192 6.45246L22.2351 0.270264L22.2619 0.283069L27.2126 3.0501L24.2226 6.46432ZM22.2722 0.318643L24.2395 6.43375L27.1464 3.04352L22.2722 0.318643Z" fill="#1DB729"/>
<path d="M8.74673 5.63886L5.31601 13.6217L13.3067 11.6737L8.74673 5.63886Z" fill="#0D8617"/>
<path d="M5.29654 13.6412L8.73915 5.61547L8.75468 5.63506L13.3224 11.6856L13.3029 11.6894L5.29654 13.6412ZM8.75064 5.66626L5.33572 13.6062L13.2834 11.6659L8.75064 5.66626Z" fill="#1DB729"/>
<path d="M13.3066 11.6737L16.4689 5.25492L8.74659 5.63883L13.3066 11.6737Z" fill="#1DB729"/>
<path d="M13.3068 11.6972L13.2951 11.6815L8.72352 5.62711L8.74694 5.62722L16.4888 5.24339L16.4809 5.26287L13.3068 11.6972ZM8.77025 5.65074L13.3031 11.6503L16.4535 5.27056L8.77025 5.65074Z" fill="#1DB729"/>
<path d="M16.469 5.255L13.5142 3.47391L8.74668 5.63891L16.469 5.255Z" fill="#00EC14"/>
<path d="M16.4924 5.26669L16.4729 5.2666L8.71541 5.65427L8.73893 5.63095L13.5182 3.4582L13.526 3.46994L16.4924 5.26669ZM8.778 5.62331L16.4496 5.24308L13.5142 3.49331L8.778 5.62331Z" fill="#1DB729"/>
<path d="M13.3067 11.6816L10.9348 19.4387L5.31608 13.6217L13.3067 11.6816Z" fill="#1DB729"/>
<path d="M10.9383 19.462L10.9227 19.4463L5.29236 13.6137L5.3119 13.6099L13.3221 11.6659L13.3142 11.6854L10.9383 19.462ZM5.33913 13.6295L10.9267 19.4151L13.2868 11.697L5.33913 13.6295Z" fill="#1DB729"/>
<path d="M5.31616 13.6216L10.9349 19.4386L7.18634 19.7579L5.31616 13.6216Z" fill="#8FFF00"/>
<path d="M7.1744 19.7735L7.17447 19.7578L5.30444 13.5864L5.32776 13.6099L10.9581 19.4426L10.9386 19.4464L7.1744 19.7735ZM5.33146 13.6568L7.19405 19.7423L10.9074 19.4346L5.33146 13.6568Z" fill="#1DB729"/>
<path d="M7.18628 19.758L10.9348 19.4387L13.5365 23.4314L7.18628 19.758Z" fill="#1DB729"/>
<path d="M13.5675 23.4549L7.14326 19.7539L7.18234 19.7423L10.9387 19.4231L10.9425 19.4309L13.5675 23.4549ZM7.22521 19.7581L13.5052 23.4078L10.9268 19.4542L7.22521 19.7581Z" fill="#1DB729"/>
<path d="M10.9346 19.4389L16.9968 19.3404L13.5363 23.4316L10.9346 19.4389Z" fill="#00750A"/>
<path d="M13.5322 23.4509L10.9112 19.4269L10.9307 19.427L17.028 19.3287L17.0006 19.352L13.5322 23.4509ZM10.9579 19.4505L13.5402 23.4158L16.9655 19.3558L10.9579 19.4505Z" fill="#1DB729"/>
<path d="M1.58908 14.3393L5.31593 13.6217L7.18611 19.758L1.58908 14.3393Z" fill="#1DB729"/>
<path d="M7.20157 19.8011L1.56964 14.3314L5.32774 13.6062L5.32769 13.618L7.20157 19.8011ZM1.61249 14.3512L7.17072 19.7151L5.30807 13.6413L1.61249 14.3512Z" fill="#1DB729"/>
<path d="M1.58923 14.3392L2.53846 7.91467L5.31607 13.6217L1.58923 14.3392Z" fill="#008E0C"/>
<path d="M5.3355 13.6296L1.57739 14.3548L1.58136 14.3392L2.53467 7.87564L5.3355 13.6296ZM1.60485 14.3237L5.30045 13.6099L2.54212 7.95764L1.60485 14.3237Z" fill="#1DB729"/>
<path d="M1.58912 14.3393L0.0744689 9.02036L2.53835 7.9148L1.58912 14.3393Z" fill="#1DB729"/>
<path d="M1.60079 14.3433L1.57739 14.3393L0.0627726 9.01251L0.0627897 9.00861L2.5542 7.85632L1.60079 14.3433ZM0.0861402 9.02432L1.61361 14.0896L2.51466 7.97325L0.0861402 9.02432Z" fill="#1DB729"/>
<path d="M2.53828 7.91494L8.7466 5.63914L5.31589 13.6219L2.53828 7.91494Z" fill="#1DB729"/>
<path d="M5.31966 13.653L5.30807 13.6256L2.52269 7.91078L2.53442 7.90692L8.77013 5.61563L8.7583 5.6429L5.31966 13.653ZM2.55387 7.92262L5.31603 13.5905L8.72699 5.66228L2.55387 7.92262Z" fill="#1DB729"/>
<path d="M13.3107 11.6816L16.997 19.3403L10.9348 19.4387L13.3107 11.6816Z" fill="#0D8617"/>
<path d="M17.0202 19.3519L16.9968 19.3518L10.9151 19.4502L10.9191 19.4346L13.2989 11.6541L13.3145 11.6736L17.0202 19.3519ZM10.9503 19.4269L16.9735 19.3322L13.3104 11.7127L10.9503 19.4269Z" fill="#0D8617"/>
<path d="M13.514 3.49343L7.65845 0.0603027L8.74651 5.63892L13.514 3.49343Z" fill="#0D8617"/>
<path d="M8.73886 5.65456L8.73503 5.63893L7.63928 0.032959L13.5376 3.4936L8.73886 5.65456ZM7.67419 0.0838534L8.75461 5.6234L13.4869 3.49338L7.67419 0.0838534Z" fill="#1DB729"/>
<path d="M2.554 7.92246L8.74675 5.63879L2.84452 3.07198L2.554 7.92246Z" fill="#008E0C"/>
<path d="M2.53822 7.93806L2.83279 3.05246L2.84837 3.06034L8.77787 5.63898L8.7505 5.65057L2.53822 7.93806ZM2.85606 3.08769L2.5657 7.90305L8.71152 5.63869L2.85606 3.08769Z" fill="#1DB729"/>
<path d="M7.65871 0.0602803L8.74677 5.63889L2.84454 3.07208L7.65871 0.0602803Z" fill="#1DB729"/>
<path d="M8.76218 5.65856L2.821 3.07207L2.84057 3.06044L7.6665 0.0369792L8.76218 5.65856ZM2.87176 3.06838L8.73114 5.61549L7.6507 0.0798451L2.87176 3.06838Z" fill="#1DB729"/>
<path d="M0.0861276 9.02413L2.84442 3.07199L2.5539 7.92248L0.0861276 9.02413Z" fill="#1DB729"/>
<path d="M0.0626641 9.0475L0.0745096 9.01632L2.86037 3.00576L2.56565 7.92649L2.55783 7.93036L0.0626641 9.0475ZM2.82859 3.13443L0.109724 8.99696L2.53839 7.91075L2.82859 3.13443Z" fill="#1DB729"/>
</svg>
