<svg width="26" height="23" viewBox="0 0 26 23" fill="none" xmlns="http://www.w3.org/2000/svg">
<path d="M8.34326 5.49219L5.07507 13.1893L12.7572 11.281L8.34326 5.49219Z" fill="#D9D9D9"/>
<path d="M5.0564 13.2079L8.33585 5.46948L8.35087 5.48827L12.7723 11.2921L12.7535 11.2959L5.0564 13.2079ZM8.34712 5.51832L5.09396 13.1741L12.7347 11.2733L8.34712 5.51832Z" fill="#7A7A7A"/>
<path d="M12.7572 11.2809L15.7737 5.09009L8.34326 5.49204L12.7572 11.2809Z" fill="#7A7A7A"/>
<path d="M12.7573 11.3034L12.746 11.2884L8.3208 5.48081H8.34334L15.7925 5.07886L15.785 5.09764L12.7573 11.3034ZM8.36588 5.50335L12.7535 11.2584L15.7587 5.10515L8.36588 5.50335Z" fill="#7A7A7A"/>
<path d="M15.7738 5.08989L12.9226 3.38818L8.34338 5.49184L15.7738 5.08989Z" fill="#C7C7C7"/>
<path d="M15.7965 5.1013H15.7777L8.31348 5.507L8.33602 5.48446L12.9265 3.37329L12.934 3.38456L15.7965 5.1013ZM8.37358 5.47695L15.7552 5.07876L12.9227 3.4071L8.37358 5.47695Z" fill="#7A7A7A"/>
<path d="M15.7739 5.09009L20.7776 11.6715L12.7574 11.2809L15.7739 5.09009Z" fill="#D9D9D9"/>
<path d="M20.7999 11.6828L20.7774 11.6865L12.7346 11.2959L12.7421 11.2771L15.7699 5.07129L15.7812 5.08256L20.7999 11.6828ZM12.7759 11.2658L20.7511 11.664L15.7774 5.11261L12.7759 11.2658Z" fill="#D9D9D9"/>
<path d="M20.7776 11.6752L16.3412 18.6436L12.7574 11.2808L20.7776 11.6752Z" fill="#A4A4A4"/>
<path d="M16.3446 18.6699L16.3334 18.6511L12.7346 11.2695L20.7961 11.6602L20.7886 11.679L16.3446 18.6699ZM12.7759 11.2883L16.3371 18.6211L20.7548 11.6903L12.7759 11.2883Z" fill="#7A7A7A"/>
<path d="M12.7572 11.2883L10.507 18.7638L5.07507 13.1891L12.7572 11.2883Z" fill="#7A7A7A"/>
<path d="M10.5106 18.7865L10.4956 18.7715L5.05237 13.1818L5.07115 13.178L12.772 11.2734L12.7645 11.2922L10.5106 18.7865ZM5.09745 13.1968L10.4993 18.7414L12.7382 11.3035L5.09745 13.1968Z" fill="#7A7A7A"/>
<path d="M5.07532 13.189L10.5073 18.7637L6.90099 19.0867L5.07532 13.189Z" fill="#A4A4A4"/>
<path d="M6.88964 19.1019V19.0868L5.06396 13.1553L5.0865 13.1778L10.5297 18.7675L10.5109 18.7713L6.88964 19.1019ZM5.09026 13.2229L6.90842 19.0718L10.4809 18.76L5.09026 13.2229Z" fill="#7A7A7A"/>
<path d="M6.90088 19.0867L10.5071 18.7637L13.0278 22.5953L6.90088 19.0867Z" fill="#7A7A7A"/>
<path d="M13.0578 22.618L6.8595 19.0831L6.89706 19.0718L10.5108 18.7488L10.5146 18.7563L13.0578 22.618ZM6.93838 19.0869L12.9977 22.5729L10.4996 18.7788L6.93838 19.0869Z" fill="#7A7A7A"/>
<path d="M10.5071 18.7638L16.341 18.6436L13.0277 22.5954L10.5071 18.7638Z" fill="#A9A9A9"/>
<path d="M13.0239 22.6142L10.4845 18.7525H10.5033L16.371 18.6323L16.3447 18.6549L13.0239 22.6142ZM10.5296 18.7751L13.0314 22.5804L16.3109 18.6586L10.5296 18.7751Z" fill="#7A7A7A"/>
<path d="M16.3406 18.6436L18.6659 19.2183L13.0273 22.5954L16.3406 18.6436Z" fill="#D9D9D9"/>
<path d="M12.9788 22.6219L13.0201 22.588L16.3446 18.6287L16.3521 18.6399L18.6849 19.226L18.6662 19.2297L12.9788 22.6219ZM16.3409 18.6625L13.0764 22.573L18.6436 19.2147L16.3409 18.6625Z" fill="#7A7A7A"/>
<path d="M23.1815 15.7664L18.6661 19.2186L16.3446 18.6589L23.1815 15.7664Z" fill="#525B53"/>
<path d="M18.6664 19.2374L18.6551 19.2261L16.326 18.6552L16.3373 18.6476L23.2155 15.7363L23.1892 15.7739L18.6664 19.2374ZM16.3636 18.6627L18.6664 19.1999L23.1479 15.8002L16.3636 18.6627Z" fill="#7A7A7A"/>
<path d="M1.49133 13.8954L5.07507 13.1892L6.90074 19.087L1.49133 13.8954Z" fill="#7A7A7A"/>
<path d="M6.91575 19.1284L1.47253 13.8881L5.08632 13.1743V13.1856L6.91575 19.1284ZM1.51386 13.9068L6.8857 19.0458L5.06754 13.2081L1.51386 13.9068Z" fill="#7A7A7A"/>
<path d="M1.49158 13.8953L2.37812 7.70825L5.07531 13.189L1.49158 13.8953Z" fill="#B9B9B9"/>
<path d="M5.09389 13.1965L1.4801 13.9103L1.48386 13.8952L2.37416 7.67065L5.09389 13.1965ZM1.5064 13.8802L5.06008 13.1777L2.38167 7.74954L1.5064 13.8802Z" fill="#7A7A7A"/>
<path d="M1.4913 13.8953L0.0112305 8.78262L2.37785 7.70825L1.4913 13.8953Z" fill="#7A7A7A"/>
<path d="M1.50261 13.899L1.48007 13.8952L0 8.77506V8.7713L2.39291 7.65186L1.50261 13.899ZM0.0225388 8.78633L1.51388 13.6548L2.35534 7.76455L0.0225388 8.78633Z" fill="#7A7A7A"/>
<path d="M2.37781 7.70854L8.34318 5.49219L5.075 13.1893L2.37781 7.70854Z" fill="#7A7A7A"/>
<path d="M5.07876 13.2192L5.0675 13.1929L2.36279 7.70462L2.37406 7.70086L8.36573 5.46948L8.35446 5.49578L5.07876 13.2192ZM2.39284 7.71589L5.07501 13.1591L8.32441 5.51456L2.39284 7.71589Z" fill="#7A7A7A"/>
<path d="M12.7611 11.2883L16.3411 18.6436L10.5072 18.7638L12.7611 11.2883Z" fill="#D9D9D9"/>
<path d="M16.3636 18.6548H16.3411L10.4884 18.775L10.4922 18.76L12.7498 11.262L12.7649 11.2807L16.3636 18.6548ZM10.5222 18.7525L16.3185 18.636L12.7611 11.3183L10.5222 18.7525Z" fill="#D9D9D9"/>
<path d="M20.7813 11.7014L23.1817 15.766L16.3411 18.6435L20.7813 11.7014Z" fill="#7A7A7A"/>
<path d="M16.3185 18.6699L16.3298 18.6398L20.7812 11.6677L20.7925 11.6978L23.1929 15.7736L23.1854 15.7774L16.3185 18.6699ZM20.7812 11.7353L16.3636 18.6211L23.1666 15.7623L20.7812 11.7353Z" fill="#7A7A7A"/>
<path d="M20.7777 11.6713L25.6011 8.77124L23.2195 15.7809L20.7777 11.6713Z" fill="#A9A9A9"/>
<path d="M23.2229 15.8263L20.7623 11.664L25.6007 8.77148L25.612 8.77524L23.2229 15.8263ZM20.7924 11.6828L23.2191 15.7361L25.5895 8.78651L20.7924 11.6828Z" fill="#7A7A7A"/>
<path d="M15.7739 5.09009L20.541 5.89774L20.7814 11.7016L15.7739 5.09009Z" fill="#A4A4A4"/>
<path d="M20.8075 11.7431L20.7737 11.7093L15.7512 5.08276L20.5483 5.8829L20.5521 5.89417L20.8075 11.7431ZM15.8001 5.09779L20.7587 11.6567L20.5295 5.9092L15.8001 5.09779Z" fill="#7A7A7A"/>
<path d="M20.7774 11.6715L25.5858 8.78648L20.5408 5.89771L20.7774 11.6715Z" fill="#7A7A7A"/>
<path d="M25.6083 8.79409L20.7698 11.6866L20.5144 5.84521L25.6083 8.79409ZM20.7849 11.6603L25.5632 8.77907L20.5632 5.9504L20.7849 11.6603Z" fill="#7A7A7A"/>
<path d="M25.5858 8.78646L23.2154 2.47925L20.5408 5.89769L25.5858 8.78646Z" fill="#A9A9A9"/>
<path d="M25.6347 8.86539L25.5746 8.79402L20.5033 5.87519L23.223 2.46802L23.2268 2.47177L25.6347 8.86539ZM20.5709 5.92027L25.537 8.70762L23.208 2.49056L20.5709 5.92027Z" fill="#7A7A7A"/>
<path d="M12.9224 3.40738L7.27258 0.12793L8.34319 5.49226L12.9224 3.40738Z" fill="#D9D9D9"/>
<path d="M8.33579 5.50721L8.33203 5.49219L7.25391 0.101562L12.9451 3.40731L8.33579 5.50721ZM7.28771 0.150397L8.35081 5.47716L12.8962 3.40731L7.28771 0.150397Z" fill="#7A7A7A"/>
<path d="M2.39294 7.71575L8.34329 5.49189L2.65215 3.04639L2.39294 7.71575Z" fill="#B9B9B9"/>
<path d="M2.37793 7.73077L2.64089 3.02759L2.65591 3.0351L8.37335 5.49187L8.34706 5.50314L2.37793 7.73077ZM2.66343 3.0614L2.40423 7.69696L8.30949 5.49187L2.66343 3.0614Z" fill="#7A7A7A"/>
<path d="M7.27276 0.12793L8.34337 5.49226L2.65222 3.04676L7.27276 0.12793Z" fill="#7A7A7A"/>
<path d="M8.35823 5.51087L2.62952 3.04659L2.6483 3.03532L7.2801 0.105225L8.35823 5.51087ZM2.67835 3.04283L8.32818 5.46955L7.26508 0.146546L2.67835 3.04283Z" fill="#7A7A7A"/>
<path d="M0.022583 8.78661L2.65216 3.04663L2.39295 7.716L0.022583 8.78661Z" fill="#7A7A7A"/>
<path d="M0 8.80905L0.0112691 8.77899L2.66714 2.98267L2.40418 7.71965L2.39667 7.72341L0 8.80905ZM2.63708 3.10663L0.0450783 8.76021L2.37788 7.70463L2.63708 3.10663Z" fill="#7A7A7A"/>
<path d="M12.9224 3.4073L18.3618 0.0339355L15.7736 5.09023L12.9224 3.4073Z" fill="#7A7A7A"/>
<path d="M15.7813 5.10888L12.9 3.40718L18.3958 0L15.7813 5.10888ZM12.9451 3.40718L15.77 5.07508L18.332 0.0638615L12.9451 3.40718Z" fill="#7A7A7A"/>
<path d="M20.5072 5.87534L15.7739 5.09023L18.3622 0.0339355L20.5072 5.87534Z" fill="#D9D9D9"/>
<path d="M15.7512 5.11264L18.3658 0L20.5183 5.87897L20.507 5.88273L15.7512 5.11264ZM18.362 0.0638615L15.8001 5.07132L20.492 5.87146L18.362 0.0638615Z" fill="#7A7A7A"/>
<path d="M23.208 2.48695L18.3621 0.0339355L20.507 5.87534L23.208 2.48695Z" fill="#7A7A7A"/>
<path d="M20.4994 5.8902L20.4957 5.87893L18.3469 0.0112305L18.3732 0.0224996L23.2417 2.49054L20.4994 5.8902ZM18.3845 0.0563082L20.5144 5.86015L23.1778 2.48678L18.3845 0.0563082Z" fill="#7A7A7A"/>
</svg>
