<svg width="51" height="45" viewBox="0 0 51 45" fill="none" xmlns="http://www.w3.org/2000/svg">
<path d="M16.5991 10.9265L10.097 26.2399L25.3806 22.4433L16.5991 10.9265Z" fill="#CB1407"/>
<path d="M10.0597 26.2771L16.5842 10.8815L16.6141 10.9188L25.4105 22.4656L25.3732 22.4731L10.0597 26.2771ZM16.6066 10.9786L10.1345 26.2099L25.3358 22.4282L16.6066 10.9786Z" fill="#EF3124"/>
<path d="M25.3805 22.4432L31.3818 10.1267L16.599 10.9264L25.3805 22.4432Z" fill="#EF3124"/>
<path d="M25.3808 22.4883L25.3583 22.4584L16.5544 10.9041H16.5993L31.4194 10.1045L31.4045 10.1418L25.3808 22.4883ZM16.6441 10.949L25.3733 22.3986L31.3522 10.1568L16.6441 10.949Z" fill="#EF3124"/>
<path d="M31.3817 10.1268L25.7093 6.74124L16.5989 10.9265L31.3817 10.1268Z" fill="#AE261D"/>
<path d="M31.4269 10.1491H31.3895L16.5394 10.9563L16.5842 10.9114L25.717 6.71124L25.732 6.73366L31.4269 10.1491ZM16.659 10.8965L31.3446 10.1043L25.7095 6.7785L16.659 10.8965Z" fill="#EF3124"/>
<path d="M31.3823 10.1267L41.3371 23.2205L25.3809 22.4432L31.3823 10.1267Z" fill="#CB1407"/>
<path d="M41.3814 23.2428L41.3366 23.2503L25.3356 22.473L25.3505 22.4357L31.3743 10.0892L31.3967 10.1117L41.3814 23.2428ZM25.4178 22.4132L41.2843 23.2054L31.3892 10.1714L25.4178 22.4132Z" fill="#CB1407"/>
<path d="M41.3371 23.2279L32.5108 37.0915L25.3809 22.4432L41.3371 23.2279Z" fill="#D22B1F"/>
<path d="M32.5177 37.144L32.4953 37.1066L25.3356 22.4209L41.374 23.1982L41.359 23.2356L32.5177 37.144ZM25.4178 22.4583L32.5028 37.0468L41.2918 23.258L25.4178 22.4583Z" fill="#EF3124"/>
<path d="M25.3806 22.4583L20.9039 37.3308L10.0971 26.2399L25.3806 22.4583Z" fill="#EF3124"/>
<path d="M20.9109 37.3755L20.881 37.3456L10.0518 26.2249L10.0891 26.2174L25.4101 22.4283L25.3951 22.4657L20.9109 37.3755ZM10.1414 26.2548L20.8885 37.2858L25.3428 22.4881L10.1414 26.2548Z" fill="#EF3124"/>
<path d="M10.0972 26.2397L20.9041 37.3305L13.7294 37.9733L10.0972 26.2397Z" fill="#D22B1F"/>
<path d="M13.7069 38.0033V37.9734L10.0747 26.1726L10.1195 26.2174L20.9488 37.3382L20.9114 37.3456L13.7069 38.0033ZM10.127 26.3071L13.7442 37.9435L20.8517 37.3232L10.127 26.3071Z" fill="#EF3124"/>
<path d="M13.7294 37.9734L20.9041 37.3307L25.9189 44.9538L13.7294 37.9734Z" fill="#EF3124"/>
<path d="M25.9785 44.9985L13.647 37.9658L13.7218 37.9434L20.9114 37.3007L20.9189 37.3156L25.9785 44.9985ZM13.804 37.9733L25.8589 44.9088L20.889 37.3605L13.804 37.9733Z" fill="#EF3124"/>
<path d="M20.9038 37.3308L32.5103 37.0917L25.9186 44.9539L20.9038 37.3308Z" fill="#AA261D"/>
<path d="M25.911 44.9911L20.8588 37.3082H20.8962L32.57 37.0691L32.5177 37.1139L25.911 44.9911ZM20.9485 37.3531L25.9259 44.9239L32.4504 37.1214L20.9485 37.3531Z" fill="#EF3124"/>
<path d="M32.5097 37.0915L37.1359 38.235L25.918 44.9538L32.5097 37.0915Z" fill="#CB1407"/>
<path d="M25.8212 45.006L25.9034 44.9388L32.5176 37.0616L32.5325 37.084L37.1736 38.2499L37.1362 38.2574L25.8212 45.006ZM32.5101 37.1288L26.0155 44.9089L37.0914 38.2275L32.5101 37.1288Z" fill="#EF3124"/>
<path d="M46.1196 31.3669L37.1363 38.2351L32.5176 37.1215L46.1196 31.3669Z" fill="#B12B22"/>
<path d="M37.1367 38.2725L37.1142 38.2501L32.4806 37.1141L32.503 37.0991L46.1872 31.3071L46.1349 31.3818L37.1367 38.2725ZM32.5553 37.129L37.1367 38.1977L46.0527 31.4341L32.5553 37.129Z" fill="#EF3124"/>
<path d="M2.96712 27.6447L10.097 26.2397L13.7291 37.9733L2.96712 27.6447Z" fill="#EF3124"/>
<path d="M13.759 38.0558L2.92972 27.6301L10.1193 26.2101V26.2325L13.759 38.0558ZM3.01193 27.6674L13.6992 37.8914L10.082 26.2773L3.01193 27.6674Z" fill="#EF3124"/>
<path d="M2.96732 27.6449L4.7311 15.3358L10.0972 26.2399L2.96732 27.6449Z" fill="#D6271B"/>
<path d="M10.1343 26.2547L2.94469 27.6747L2.95217 27.6448L4.72342 15.261L10.1343 26.2547ZM2.99701 27.6149L10.0671 26.2173L4.73836 15.418L2.99701 27.6149Z" fill="#EF3124"/>
<path d="M2.96695 27.6449L0.0223427 17.4733L4.73072 15.3358L2.96695 27.6449Z" fill="#EF3124"/>
<path d="M2.98945 27.6523L2.94461 27.6449L0 17.4583V17.4508L4.7607 15.2237L2.98945 27.6523ZM0.0448411 17.4807L3.01187 27.1665L4.68596 15.4479L0.0448411 17.4807Z" fill="#EF3124"/>
<path d="M4.73062 15.3359L16.5987 10.9265L10.0967 26.2399L4.73062 15.3359Z" fill="#EF3124"/>
<path d="M10.1043 26.2996L10.0819 26.2472L4.70087 15.3283L4.72329 15.3208L16.6437 10.8815L16.6213 10.9338L10.1043 26.2996ZM4.76066 15.3507L10.0968 26.18L16.5615 10.9712L4.76066 15.3507Z" fill="#EF3124"/>
<path d="M25.3881 22.4583L32.5105 37.0916L20.904 37.3308L25.3881 22.4583Z" fill="#CB1407"/>
<path d="M32.5552 37.1138H32.5104L20.8664 37.3529L20.8739 37.323L25.3656 22.4057L25.3955 22.4431L32.5552 37.1138ZM20.9337 37.3081L32.4655 37.0764L25.388 22.5178L20.9337 37.3081Z" fill="#CB1407"/>
<path d="M41.3444 23.2804L46.12 31.3669L32.5106 37.0917L41.3444 23.2804Z" fill="#EF3124"/>
<path d="M32.4656 37.144L32.488 37.0842L41.3442 23.2132L41.3667 23.273L46.1423 31.3818L46.1274 31.3893L32.4656 37.144ZM41.3442 23.3477L32.5553 37.0468L46.09 31.3594L41.3442 23.3477Z" fill="#EF3124"/>
<path d="M41.3371 23.2204L50.9332 17.4507L46.1949 31.3965L41.3371 23.2204Z" fill="#AA261D"/>
<path d="M46.202 31.4864L41.3068 23.2056L50.9328 17.451L50.9552 17.4584L46.202 31.4864ZM41.3666 23.243L46.1945 31.307L50.9104 17.4809L41.3666 23.243Z" fill="#EF3124"/>
<path d="M31.3821 10.1267L40.8661 11.7335L41.3444 23.2803L31.3821 10.1267Z" fill="#D22B1F"/>
<path d="M41.3965 23.3627L41.3293 23.2954L31.3371 10.112L40.8809 11.7038L40.8883 11.7263L41.3965 23.3627ZM31.4342 10.1419L41.2994 23.1908L40.8435 11.7562L31.4342 10.1419Z" fill="#EF3124"/>
<path d="M41.3366 23.2204L50.9028 17.4807L40.8658 11.7335L41.3366 23.2204Z" fill="#EF3124"/>
<path d="M50.9475 17.4958L41.3215 23.2505L40.8133 11.629L50.9475 17.4958ZM41.3514 23.1982L50.8578 17.4659L40.9104 11.8383L41.3514 23.1982Z" fill="#EF3124"/>
<path d="M50.9028 17.4807L46.187 4.9325L40.8658 11.7335L50.9028 17.4807Z" fill="#AA261D"/>
<path d="M51.0001 17.6378L50.8806 17.4958L40.7912 11.6888L46.2021 4.91022L46.2095 4.91769L51.0001 17.6378ZM40.9257 11.7785L50.8058 17.3239L46.1722 4.95506L40.9257 11.7785Z" fill="#EF3124"/>
<path d="M25.709 6.77856L14.4687 0.254089L16.5987 10.9264L25.709 6.77856Z" fill="#CB1407"/>
<path d="M16.5839 10.9564L16.5764 10.9265L14.4315 0.201843L25.754 6.77863L16.5839 10.9564ZM14.4988 0.298999L16.6138 10.8966L25.6569 6.77863L14.4988 0.298999Z" fill="#EF3124"/>
<path d="M4.76074 15.3508L16.599 10.9264L5.27642 6.06107L4.76074 15.3508Z" fill="#D6271B"/>
<path d="M4.73087 15.3806L5.25402 6.02362L5.28391 6.03857L16.6588 10.9263L16.6065 10.9487L4.73087 15.3806ZM5.29886 6.09088L4.78318 15.3133L16.5317 10.9263L5.29886 6.09088Z" fill="#EF3124"/>
<path d="M14.4691 0.254089L16.5991 10.9264L5.27655 6.06109L14.4691 0.254089Z" fill="#EF3124"/>
<path d="M16.6287 10.9637L5.23145 6.06104L5.26882 6.03862L14.4838 0.209198L16.6287 10.9637ZM5.32861 6.05357L16.5689 10.8815L14.4539 0.291406L5.32861 6.05357Z" fill="#EF3124"/>
<path d="M0.0447235 17.4808L5.27626 6.06107L4.76058 15.3508L0.0447235 17.4808Z" fill="#EF3124"/>
<path d="M0 17.5255L0.02242 17.4657L5.30627 5.9339L4.78312 15.3581L4.76817 15.3656L0 17.5255ZM5.24648 6.18053L0.0896832 17.4283L4.7308 15.3282L5.24648 6.18053Z" fill="#EF3124"/>
<path d="M25.709 6.77864L36.5308 0.0673218L31.3815 10.1268L25.709 6.77864Z" fill="#EF3124"/>
<path d="M31.3967 10.164L25.6644 6.77842L36.5983 -0.000152588L31.3967 10.164ZM25.7541 6.77842L31.3743 10.0967L36.4713 0.1269L25.7541 6.77842Z" fill="#EF3124"/>
<path d="M40.7988 11.6888L31.3821 10.1268L36.5314 0.0673218L40.7988 11.6888Z" fill="#CB1407"/>
<path d="M31.3371 10.1714L36.5387 -0.000152588L40.8211 11.6961L40.7987 11.7035L31.3371 10.1714ZM36.5312 0.1269L31.4342 10.0892L40.7688 11.6811L36.5312 0.1269Z" fill="#EF3124"/>
<path d="M46.1723 4.94754L36.5313 0.0672607L40.7987 11.6887L46.1723 4.94754Z" fill="#EF3124"/>
<path d="M40.7836 11.7186L40.7761 11.6962L36.5012 0.0224304L36.5535 0.0448504L46.2393 4.95502L40.7836 11.7186ZM36.5759 0.112113L40.8135 11.6589L46.1123 4.94755L36.5759 0.112113Z" fill="#EF3124"/>
</svg>
