<svg width="58" height="47" viewBox="0 0 58 47" fill="none" xmlns="http://www.w3.org/2000/svg">
<path d="M37.4105 10.4061L46.8273 23.8921L30.9157 22.4697L37.4105 10.4061Z" fill="#CB1407"/>
<path d="M46.8707 23.9162L46.8256 23.9218L30.8691 22.4976L30.8856 22.4609L37.404 10.3684L37.4255 10.3917L46.8707 23.9162ZM30.9537 22.4412L46.7751 23.8749L37.4156 10.4511L30.9537 22.4412Z" fill="#CB1407"/>
<path d="M46.827 23.8995L37.4468 37.3945L30.9156 22.4697L46.827 23.8995Z" fill="#D22B1F"/>
<path d="M37.4517 37.4472L37.4308 37.409L30.8712 22.4456L46.865 23.8713L46.8486 23.908L37.4517 37.4472ZM30.9519 22.4863L37.4407 37.3495L46.7805 23.9277L30.9519 22.4863Z" fill="#EF3124"/>
<path d="M37.4458 37.3945L42.0219 38.7242L30.5413 44.9835L37.4458 37.3945Z" fill="#CB1407"/>
<path d="M30.4424 45.0319L30.5273 44.968L37.4548 37.3649L37.4689 37.3879L42.059 38.7407L42.0214 38.7466L30.4424 45.0319ZM37.4446 37.4318L30.6405 44.9426L41.9778 38.7149L37.4446 37.4318Z" fill="#EF3124"/>
<path d="M51.2762 32.2253L42.0223 38.7244L37.4524 37.4248L51.2762 32.2253Z" fill="#B12B22"/>
<path d="M42.0212 38.7618L41.9997 38.7384L37.4158 37.4159L37.4388 37.4018L51.3462 32.1683L51.2909 32.2409L42.0212 38.7618ZM37.4899 37.4338L42.0242 38.6871L51.2066 32.2898L37.4899 37.4338Z" fill="#EF3124"/>
<path d="M46.8321 23.9523L51.2766 32.2253L37.4466 37.3947L46.8321 23.9523Z" fill="#EF3124"/>
<path d="M37.3996 37.4451L37.4244 37.3863L46.8347 23.885L46.8547 23.9457L51.2983 32.2412L51.283 32.2481L37.3996 37.4451ZM46.8293 24.0195L37.4931 37.3517L51.2469 32.2167L46.8293 24.0195Z" fill="#EF3124"/>
<path d="M46.8273 23.892L56.649 18.5154L51.3503 32.258L46.8273 23.892Z" fill="#AA261D"/>
<path d="M51.3537 32.3481L46.7976 23.876L56.6486 18.5156L56.6707 18.524L51.3537 32.3481ZM46.8558 23.9158L51.3535 32.1686L56.625 18.5446L46.8558 23.9158Z" fill="#EF3124"/>
<path d="M37.4103 10.4061L46.8215 12.3954L46.8322 23.9521L37.4103 10.4061Z" fill="#D22B1F"/>
<path d="M46.8809 24.0366L46.8164 23.9666L37.3659 10.3896L46.8375 12.3664L46.8441 12.3891L46.8809 24.0366ZM37.4618 10.4234L46.7908 23.8609L46.798 12.4172L37.4618 10.4234Z" fill="#EF3124"/>
<path d="M46.8268 23.892L56.6175 18.5441L46.8212 12.3954L46.8268 23.892Z" fill="#EF3124"/>
<path d="M56.6615 18.561L46.8105 23.9214L46.773 12.2889L56.6615 18.561ZM46.8424 23.8703L56.5731 18.5275L46.8616 12.5019L46.8424 23.8703Z" fill="#EF3124"/>
<path d="M56.6175 18.5441L52.4133 5.81532L46.8212 12.3954L56.6175 18.5441Z" fill="#AA261D"/>
<path d="M56.7083 18.705L56.5946 18.5583L46.7485 12.3477L52.4293 5.79368L52.4364 5.80145L56.7083 18.705ZM46.8793 12.4428L56.5269 18.3835L52.3976 5.83728L46.8793 12.4428Z" fill="#EF3124"/>
<path d="M31.8774 6.83121L42.9619 0.563345L37.4097 10.4062L31.8774 6.83121Z" fill="#EF3124"/>
<path d="M37.4234 10.444L31.8328 6.82921L43.0321 0.498668L37.4234 10.444ZM31.9225 6.83284L37.4037 10.3758L42.9 0.620474L31.9225 6.83284Z" fill="#EF3124"/>
<path d="M46.7561 12.348L37.4103 10.4062L42.9625 0.563338L46.7561 12.348Z" fill="#CB1407"/>
<path d="M37.3635 10.449L42.9725 0.496241L46.7781 12.3562L46.7554 12.3627L37.3635 10.449ZM42.9599 0.622887L37.4639 10.3708L46.7264 12.3391L42.9599 0.622887Z" fill="#EF3124"/>
<path d="M52.398 5.82973L42.9624 0.563293L46.756 12.348L52.398 5.82973Z" fill="#EF3124"/>
<path d="M46.7397 12.3772L46.7331 12.3545L42.9341 0.517303L42.9855 0.541822L52.4647 5.83995L46.7397 12.3772ZM43.0052 0.609937L46.772 12.3187L52.338 5.82734L43.0052 0.609937Z" fill="#EF3124"/>
<path d="M17.1076 10.7971L10.5387 26.082L25.8387 22.3522L17.1076 10.7971Z" fill="#CB1407"/>
<path d="M10.5012 26.119L17.0929 10.752L17.1226 10.7895L25.8686 22.3745L25.8312 22.3819L10.5012 26.119ZM17.1149 10.8492L10.5763 26.0521L25.794 22.3369L17.1149 10.8492Z" fill="#EF3124"/>
<path d="M25.8386 22.3521L31.8937 10.0619L17.1075 10.797L25.8386 22.3521Z" fill="#EF3124"/>
<path d="M25.8387 22.3971L25.8164 22.3671L17.063 10.7745L17.1079 10.7747L31.9314 10.0398L31.9163 10.0771L25.8387 22.3971ZM17.1525 10.8198L25.8316 22.3074L31.8639 10.0918L17.1525 10.8198Z" fill="#EF3124"/>
<path d="M31.8936 10.062L26.236 6.65168L17.1074 10.7971L31.8936 10.062Z" fill="#AE261D"/>
<path d="M31.9386 10.0845L31.9013 10.0843L17.0478 10.8266L17.0928 10.7819L26.2439 6.6217L26.2587 6.64418L31.9386 10.0845ZM17.1676 10.7673L31.8566 10.0393L26.2361 6.68893L17.1676 10.7673Z" fill="#EF3124"/>
<path d="M25.8387 22.3671L21.2971 37.2199L10.5388 26.0819L25.8387 22.3671Z" fill="#EF3124"/>
<path d="M21.3039 37.2647L21.2741 37.2347L10.4935 26.0667L10.5309 26.0594L25.8682 22.3372L25.8531 22.3745L21.3039 37.2647ZM10.5831 26.097L21.2818 37.1749L25.8007 22.3967L10.5831 26.097Z" fill="#EF3124"/>
<path d="M10.5389 26.0817L21.2972 37.2197L14.1198 37.8311L10.5389 26.0817Z" fill="#D22B1F"/>
<path d="M14.0971 37.861L14.0973 37.8311L10.5167 26.0145L10.5613 26.0595L21.3419 37.2275L21.3045 37.2348L14.0971 37.861ZM10.5684 26.1493L14.1348 37.8014L21.2448 37.2121L10.5684 26.1493Z" fill="#EF3124"/>
<path d="M14.1198 37.8312L21.2972 37.2198L26.2787 44.8647L14.1198 37.8312Z" fill="#EF3124"/>
<path d="M26.3381 44.9097L14.0375 37.8233L14.1123 37.8012L21.3047 37.1898L21.3121 37.2048L26.3381 44.9097ZM14.1944 37.8314L26.2189 44.8195L21.282 37.2495L14.1944 37.8314Z" fill="#EF3124"/>
<path d="M21.2969 37.22L32.9044 37.0315L26.2784 44.8649L21.2969 37.22Z" fill="#AA261D"/>
<path d="M26.2706 44.9021L21.2521 37.1972L21.2894 37.1974L32.9642 37.0092L32.9117 37.0538L26.2706 44.9021ZM21.3416 37.2424L26.2859 44.8349L32.8444 37.061L21.3416 37.2424Z" fill="#EF3124"/>
<path d="M3.40274 27.4556L10.5386 26.0817L14.1195 37.831L3.40274 27.4556Z" fill="#EF3124"/>
<path d="M14.149 37.9137L3.36539 27.4408L10.5612 26.0522L10.5611 26.0746L14.149 37.9137ZM3.44744 27.4785L14.09 37.749L10.5235 26.1193L3.44744 27.4785Z" fill="#EF3124"/>
<path d="M3.40295 27.4558L5.22048 15.1545L10.5389 26.0819L3.40295 27.4558Z" fill="#D6271B"/>
<path d="M10.5759 26.0969L3.38019 27.4855L3.38779 27.4556L5.21312 15.0797L10.5759 26.0969ZM3.43276 27.4259L10.5088 26.0592L5.22738 15.2367L3.43276 27.4259Z" fill="#EF3124"/>
<path d="M3.40256 27.4557L0.502419 17.2714L5.22009 15.1545L3.40256 27.4557Z" fill="#EF3124"/>
<path d="M3.42503 27.4633L3.38022 27.4556L0.480144 17.2563L0.480177 17.2488L5.25056 15.0425L3.42503 27.4633ZM0.524887 17.2789L3.44957 26.9776L5.17484 15.2664L0.524887 17.2789Z" fill="#EF3124"/>
<path d="M5.21999 15.1546L17.1073 10.7971L10.5384 26.082L5.21999 15.1546Z" fill="#EF3124"/>
<path d="M10.5457 26.1416L10.5235 26.0892L5.19028 15.1468L5.21273 15.1395L17.1524 10.7522L17.1298 10.8045L10.5457 26.1416ZM5.24996 15.1695L10.5388 26.022L17.0698 10.8416L5.24996 15.1695Z" fill="#EF3124"/>
<path d="M25.8462 22.3671L32.9046 37.0314L21.2971 37.2199L25.8462 22.3671Z" fill="#CB1407"/>
<path d="M32.9492 37.0538L32.9043 37.0536L21.2595 37.2419L21.2671 37.212L25.8239 22.3145L25.8536 22.352L32.9492 37.0538ZM21.3269 37.1974L32.8596 37.0161L25.8458 22.4267L21.3269 37.1974Z" fill="#CB1407"/>
<path d="M26.2356 6.68896L15.0239 0.115448L17.1072 10.797L26.2356 6.68896Z" fill="#CB1407"/>
<path d="M17.0923 10.8269L17.0849 10.797L14.9869 0.0630493L26.2806 6.68924L17.0923 10.8269ZM15.0537 0.160498L17.1224 10.7672L26.1834 6.68881L15.0537 0.160498Z" fill="#EF3124"/>
<path d="M5.25005 15.1696L17.1075 10.797L5.80631 5.88223L5.25005 15.1696Z" fill="#D6271B"/>
<path d="M5.22005 15.1993L5.78407 5.84466L5.8139 5.85974L17.1673 10.7971L17.1149 10.8193L5.22005 15.1993ZM5.82862 5.91212L5.27266 15.1322L17.0402 10.7966L5.82862 5.91212Z" fill="#EF3124"/>
<path d="M15.0243 0.115446L17.1076 10.797L5.80645 5.88224L15.0243 0.115446Z" fill="#EF3124"/>
<path d="M17.1371 10.8344L5.76135 5.882L5.79881 5.85975L15.0392 0.0706325L17.1371 10.8344ZM5.85853 5.87495L17.0777 10.752L15.0089 0.152709L5.85853 5.87495Z" fill="#EF3124"/>
<path d="M0.524773 17.279L5.80615 5.88226L5.24989 15.1696L0.524773 17.279Z" fill="#EF3124"/>
<path d="M0.479855 17.3235L0.502536 17.2638L5.83672 5.75521L5.2724 15.1771L5.25741 15.1845L0.479855 17.3235ZM5.77585 6.00157L0.569962 17.2267L5.22021 15.1469L5.77585 6.00157Z" fill="#EF3124"/>
</svg>
