<svg width="40" height="49" viewBox="0 0 40 49" fill="none" xmlns="http://www.w3.org/2000/svg">
<path d="M38.5983 11.5884V11.7179L38.1502 16.674L36.7113 32.5659L35.5663 45.2346C35.5663 45.2346 35.2888 48.3304 23.8062 48.464C11.5568 48.0529 11.3019 45.2346 11.3019 45.2346L11.0552 42.5212L10.7386 39.0267L10.2741 33.8589L9.1887 21.8541L8.71795 16.6411L8.27396 11.7241L8.26367 11.5945L38.5983 11.5884Z" fill="#B8DAF4"/>
<g style="mix-blend-mode:multiply">
<path d="M38.5981 11.5884V11.7179L38.15 16.674C34.1128 17.9567 29.0272 18.7296 23.4976 18.7296C17.9125 18.7296 12.7776 17.9484 8.72186 16.6431L8.27784 11.7261L8.26758 11.5966L38.5981 11.5884Z" fill="#9EDAF2"/>
</g>
<circle cx="16.5" cy="26.5" r="1.5" fill="white"/>
<circle cx="29.5" cy="26.5" r="1.5" fill="white"/>
<path d="M29 27.0012C28.9881 27.8178 28.834 28.5996 28.5652 29.2078C28.2121 30.0229 27.7814 30.6847 27.299 31.1533C26.1534 32.346 24.632 33 22.9994 33C21.3668 33 19.8455 32.346 18.701 31.1533C18.2184 30.6853 17.7877 30.0234 17.4348 29.2078C17.166 28.5996 17.0119 27.8178 17 27.0012C17.0115 26.1844 17.1656 25.4023 17.4348 24.7946C17.7876 23.9781 18.2183 23.3155 18.701 22.8467C19.8455 21.6563 21.368 21 22.9994 21C24.6309 21 26.1534 21.6563 27.299 22.8467C27.7834 23.3133 28.2161 23.9744 28.571 24.7898C28.8386 25.4006 28.9906 26.1842 29 27.0012Z" fill="#45C0FF" stroke="white"/>
<path d="M20 28H19.654V25.6676C19.569 25.7574 19.4656 25.8408 19.346 25.9159C19.2444 25.9883 19.1282 26.0532 19 26.1092V25.7551C19.19 25.6539 19.3533 25.5366 19.4844 25.4071C19.616 25.2806 19.7151 25.1435 19.7785 25H19.9931L20 28Z" fill="white"/>
<path d="M21 27.172L21.3848 27.1394C21.3905 27.2872 21.4603 27.4323 21.5887 27.5636C21.6216 27.6037 21.6751 27.6382 21.7431 27.6631C21.8111 27.6879 21.8909 27.7022 21.9734 27.7043C22.1504 27.7043 22.3005 27.639 22.4275 27.5003C22.5681 27.3317 22.6326 27.1481 22.616 26.964C22.6329 26.7926 22.5694 26.6216 22.4313 26.4663C22.3943 26.4171 22.3315 26.3745 22.2505 26.3434C22.1694 26.3123 22.0733 26.2942 21.9734 26.291C21.914 26.2917 21.8554 26.2987 21.8012 26.3117C21.747 26.3246 21.6983 26.3432 21.6579 26.3664C21.5508 26.4274 21.4717 26.5007 21.4271 26.5806L21.0808 26.5357L21.3732 25H22.8623V25.3508H21.6579L21.4963 26.1543C21.5571 26.1017 21.6402 26.0573 21.7391 26.0247C21.838 25.9921 21.9499 25.9723 22.0658 25.9667C22.3159 25.9667 22.5352 26.0544 22.7199 26.2277C22.9235 26.4475 23.0188 26.6909 22.9969 26.9354C23.0099 27.1933 22.9153 27.4496 22.7199 27.6859C22.5352 27.8899 22.2851 28 21.9734 28C21.8357 27.9978 21.7016 27.9759 21.5852 27.9368C21.4688 27.8977 21.3743 27.8428 21.3116 27.7777C21.1116 27.5933 21.0043 27.3847 21 27.172Z" fill="white"/>
<path d="M24.0038 25.7369C23.9873 25.5515 24.0445 25.3663 24.1716 25.1939C24.2859 25.0698 24.4216 25 24.5859 25C24.7502 25 24.9002 25.064 25.018 25.1939C25.1534 25.3719 25.2132 25.5641 25.193 25.7563C25.2119 25.9472 25.1521 26.138 25.018 26.3148C24.9002 26.4428 24.7573 26.5087 24.593 26.5087C24.4288 26.5087 24.2895 26.4447 24.1752 26.3148C24.0424 26.1311 23.984 25.934 24.0038 25.7369ZM24.5966 25.2463C24.5109 25.2463 24.443 25.2851 24.3859 25.3607C24.3152 25.4895 24.2862 25.624 24.3002 25.7582C24.2862 25.8924 24.3152 26.027 24.3859 26.1558C24.443 26.2295 24.5144 26.2683 24.6037 26.2683C24.693 26.2683 24.7537 26.2295 24.8109 26.1538C24.8795 26.0281 24.9085 25.897 24.8966 25.766C24.9098 25.6318 24.8808 25.4974 24.8109 25.3685C24.7537 25.2851 24.6823 25.2463 24.5966 25.2463ZM24.5966 28L26.1215 25.0058H26.4037L24.8823 28H24.5966ZM25.8037 27.2243C25.7864 27.0387 25.845 26.8532 25.9751 26.6813C26.0858 26.5572 26.2251 26.4874 26.3858 26.4874C26.5465 26.4874 26.7037 26.5494 26.818 26.6813C26.9547 26.8584 27.0158 27.05 26.9965 27.2418C27.0147 27.4335 26.9537 27.6249 26.818 27.8022C26.7001 27.9321 26.5572 27.9961 26.393 27.9961C26.2287 27.9961 26.0894 27.9321 25.9751 27.8022C25.844 27.6196 25.7856 27.4239 25.8037 27.2282V27.2243ZM26.4001 26.7337C26.3144 26.7337 26.243 26.7725 26.1858 26.8481C26.1188 26.9773 26.0911 27.1116 26.1037 27.2456C26.0898 27.3798 26.1188 27.5143 26.1894 27.6432C26.2465 27.7169 26.318 27.7557 26.4073 27.7557C26.4965 27.7557 26.5572 27.7169 26.6144 27.6412C26.6809 27.5153 26.7087 27.3842 26.6965 27.2534C26.7091 27.1225 26.6814 26.9914 26.6144 26.8655C26.5572 26.7763 26.4858 26.7376 26.4001 26.7376V26.7337Z" fill="white"/>
<circle cx="15.5" cy="43.5" r="1.5" fill="white"/>
<circle cx="24.5" cy="38.5" r="1.5" fill="white"/>
<circle cx="14.5" cy="34.5" r="1.5" fill="white"/>
<circle cx="32.5" cy="34.5" r="1.5" fill="white"/>
<circle cx="31.5" cy="43.5" r="1.5" fill="white"/>
<circle cx="35.5" cy="20.5" r="1.5" fill="white"/>
<circle cx="12.5" cy="20.5" r="1.5" fill="white"/>
<g style="mix-blend-mode:multiply">
<path d="M38.5988 11.5881V11.7176L38.1507 16.6737L36.7118 32.5656L35.5668 45.2344C35.5668 45.2344 35.2893 48.3301 23.8066 48.4637C11.5572 48.0526 11.3024 45.2344 11.3024 45.2344L11.0557 42.521C18.1825 44.1531 26.1315 39.9823 29.0731 32.4485C30.3764 29.106 30.5347 25.8047 30.5429 22.1704C30.5429 20.3738 30.3538 14.4187 28.9539 13.9171L37.0674 11.584L38.5988 11.5881Z" fill="#9EDAF2"/>
</g>
<path d="M39.9823 12.5318V13.8659C39.9768 13.946 39.9508 14.0234 39.9069 14.0907C39.863 14.158 39.8026 14.2129 39.7315 14.2503C39.5835 14.6429 32.5225 15.8948 23.6669 15.8948C23.3216 15.8948 22.9762 15.8948 22.6391 15.8948C17.6344 15.8208 12.6451 15.3194 7.72564 14.3962C7.31451 14.3695 7 14.1413 7 13.8679V12.5338C7.00236 12.4439 7.03414 12.3573 7.09046 12.2871C7.16241 12.2023 7.2532 12.1354 7.35562 12.0919V10.8791C7.35595 10.7373 7.38608 10.5973 7.44402 10.4679C7.50219 10.3282 7.59948 10.2083 7.72421 10.1226C7.84893 10.0369 7.99578 9.98908 8.14705 9.98486H38.8332C38.9984 9.99054 39.1577 10.0474 39.2892 10.1476C39.4207 10.2477 39.5178 10.3862 39.5671 10.544C39.6072 10.6526 39.6273 10.7674 39.6267 10.8832V12.096C39.7478 12.1447 39.8516 12.2284 39.9248 12.3365C39.9617 12.395 39.9817 12.4626 39.9823 12.5318Z" fill="#DAECEF"/>
<path d="M39.5508 10.538C35.9925 11.2287 32.1362 11.5144 28.0393 11.6152C26.6682 11.6501 25.2725 11.6624 23.85 11.6624C17.8887 11.6624 12.2522 11.5946 7.44211 10.464H7.42773C7.48648 10.3243 7.5842 10.2045 7.70923 10.1188C7.83426 10.0331 7.9813 9.98529 8.1328 9.98096H38.8169C38.9817 9.98708 39.1405 10.0439 39.2719 10.1435C39.4032 10.2432 39.5006 10.381 39.5508 10.538Z" fill="#A1CAD1"/>
<path d="M38.7699 9.97888C38.7699 10.501 34.5991 10.9471 28.755 11.1156C27.1105 11.165 25.3385 11.1896 23.4885 11.1896C15.0481 11.1896 8.20703 10.647 8.20703 9.97888C8.21081 9.95168 8.22075 9.9257 8.23606 9.9029C8.25138 9.88011 8.27168 9.8611 8.29543 9.84732L9.10122 7.5H38.3741L38.774 9.89049H38.7329C38.7561 9.91414 38.7693 9.94577 38.7699 9.97888Z" fill="#DAECEF"/>
<g style="mix-blend-mode:multiply" opacity="0.5">
<path d="M39.9829 13.8661V12.532C39.9848 12.462 39.967 12.3929 39.9315 12.3326C39.8583 12.2246 39.7545 12.1408 39.6334 12.0921V10.8793C39.634 10.7636 39.6139 10.6487 39.5738 10.5401C39.5245 10.3824 39.4274 10.2439 39.2959 10.1437C39.1644 10.0435 39.0051 9.98668 38.8399 9.98101H38.7783C38.7766 9.94731 38.7618 9.9156 38.7371 9.89262H38.7783L38.3645 7.42383H23.6325C24.8659 7.47727 29.2032 8.15768 29.7788 9.14438C29.9414 9.39258 30.0245 9.68439 30.0172 9.98101C29.972 10.5586 29.4026 10.9122 28.7592 11.1178C28.2754 11.2677 27.7815 11.3824 27.2812 11.4611C27.5416 11.4713 27.7985 11.5241 28.0418 11.6173C28.9565 11.9667 29.6924 12.865 29.0018 13.9936C28.1713 15.3503 26.0232 15.4736 24.7693 15.6278C24.0642 15.7141 23.3529 15.8046 22.6396 15.895H23.6675C32.523 15.895 39.584 14.6431 39.732 14.2505C39.8032 14.2132 39.8636 14.1582 39.9075 14.091C39.9514 14.0237 39.9773 13.9463 39.9829 13.8661Z" fill="#D9D9D9"/>
</g>
<path d="M12.6 7.5L12.6 1L4.1 1L4.1 7.5L2 7.5L8.5 15L15 7.5L12.6 7.5Z" fill="#DE2B35" stroke="#A32C2C"/>
</svg>
