<svg width="30" height="95" viewBox="0 0 30 95" fill="none" xmlns="http://www.w3.org/2000/svg">
<path d="M19.6128 3.03436L12.13 3.00001C11.4833 2.99704 10.9561 3.59863 10.9527 4.34494L10.9316 8.93075L20.7553 8.97584L20.7764 4.39004C20.7798 3.64373 20.2595 3.03733 19.6128 3.03436Z" fill="#28B96E"/>
<path d="M29.0919 57.3944C29.1647 41.524 26.4471 27.683 22.3649 20.4217C21.286 18.5037 20.7232 16.2632 20.7337 13.9768L20.758 8.69729L10.9349 8.6522L10.9107 13.9111C10.9002 16.2018 10.314 18.44 9.21618 20.3495C3.55052 28.3229 2.26747 36.3243 2.23513 43.4058C2.23497 43.4397 2.17168 57.2311 2.17152 57.2663L2.00007 88.38C1.985 91.664 4.27923 94.3371 7.12452 94.3502L23.77 94.4266C26.6153 94.4396 28.934 91.7877 28.9491 88.5037L29.0914 57.4972C29.0916 57.462 29.0917 57.4283 29.0919 57.3944Z" fill="#D7E2F4"/>
<path d="M27.4796 57.7656L27.48 57.6657C27.5146 50.1353 26.9029 42.7651 25.7106 36.3501C24.5874 30.3132 22.998 25.3173 21.1054 21.882L10.4515 21.8331C5.36414 25.0147 1.6287 43.3999 3.78446 49.7619L3.60588 88.6659C3.59553 90.9199 5.17685 92.7624 7.1304 92.7714L23.7766 92.8478C25.7301 92.8568 27.3269 91.0289 27.3372 88.7748L27.471 59.6258L27.4682 59.6258L27.4796 57.7656Z" fill="#5ED887"/>
<path d="M23.7689 94.7048L20.3035 94.6889C21.7818 94.6957 23.1179 93.9833 24.0626 92.8356C25.8851 92.675 27.3287 90.9183 27.3385 88.7746L27.4723 59.6255L27.471 59.6258L27.4813 57.6652C27.5159 50.1349 26.9054 42.7645 25.7118 36.3496C24.5891 30.3125 22.9998 25.3166 21.1068 21.8813L19.5259 21.8741C19.3197 21.4603 19.1105 21.0626 18.897 20.684C17.821 18.766 17.2568 16.5255 17.2673 14.2391L17.2761 12.3157L20.6616 12.3312C20.6887 12.3314 20.7158 12.33 20.7415 12.3272L20.7326 14.255C20.7221 16.5414 21.2849 18.7819 22.3638 20.6999C28.4675 29.6341 29.5707 35.8553 29.1895 43.8123C29.188 43.8452 29.0904 57.7402 29.0903 57.7754L28.9479 88.782C28.9328 92.0659 26.6142 94.7178 23.7689 94.7048Z" fill="#BFC3C7"/>
<path d="M24.0617 92.8359C24.9357 91.7761 25.4746 90.3429 25.4818 88.7663L25.6242 57.76C25.6243 57.7248 25.6245 57.691 25.6246 57.6572C25.6937 42.6169 23.2558 29.3973 19.5247 21.8748L21.1059 21.882C26.7659 26.1349 28.5899 41.6181 27.6691 48.6377C27.6206 49.0079 27.5698 49.3878 27.5167 49.7775L27.48 57.7655L27.4687 59.6258L27.4715 59.6258L27.3377 88.7748C27.3279 90.9186 25.8843 92.6752 24.0617 92.8359Z" fill="#28B96E"/>
<path d="M12.3358 94.6526L9.88423 94.6413C8.31823 94.6341 6.91876 93.821 5.97945 92.5443C6.34017 92.6899 6.72768 92.7696 7.13142 92.7714L8.60343 92.7782C9.53671 93.9271 10.8625 94.6458 12.3358 94.6526Z" fill="#ECF1FA"/>
<path d="M8.60211 92.7778L7.13017 92.771C6.72731 92.7692 6.33914 92.6896 5.97866 92.5439C5.21161 91.5002 4.75106 90.1476 4.75784 88.6709L4.90018 57.6646C4.90034 57.6293 4.90049 57.5955 4.90065 57.5618C4.93862 49.2893 5.73023 41.5758 7.06653 35.0622L9.35202 35.0727C8.17276 42.0278 7.35888 50.3319 7.35172 57.573C7.3515 57.62 7.35134 57.6567 7.35125 57.6758L7.20891 88.6822C7.20164 90.2662 7.73218 91.7086 8.60211 92.7778Z" fill="#CBF8D4"/>
<path d="M9.3526 35.0727L7.06695 35.0622C7.17776 34.5265 7.28983 33.9979 7.40709 33.4785C8.14448 33.5097 8.87926 33.541 9.61664 33.5722C9.52692 34.0656 9.43847 34.5647 9.3526 35.0727Z" fill="#F4FFF6"/>
<path d="M12.8036 21.8434L11.3289 21.8367C11.5411 21.4202 11.7559 21.0216 11.9746 20.6406C13.0734 18.731 13.6587 16.4928 13.6692 14.2022C13.7405 14.6344 13.8461 15.4078 13.8523 16.3718C13.865 18.814 13.2224 20.7814 12.8036 21.8434Z" fill="#ECF1FA"/>
<path d="M11.3577 25.897C10.834 25.7197 10.3102 25.5424 9.7865 25.3666C10.2732 24.0817 10.7888 22.9023 11.3289 21.8367L12.8029 21.8437C12.6849 22.1428 12.5845 22.3702 12.5216 22.5168C12.128 23.4318 11.7373 24.5733 11.3577 25.897Z" fill="#CBF8D4"/>
<path d="M11.0092 27.1651C10.4508 26.9802 9.89246 26.7969 9.33539 26.6123C9.48209 26.1867 9.63269 25.7715 9.78587 25.3667C10.3101 25.5426 10.833 25.7198 11.3572 25.8972C11.2395 26.302 11.1244 26.7262 11.0092 27.1651Z" fill="#F4FFF6"/>
<path d="M9.61612 33.5724C8.87926 33.5411 8.14395 33.5097 7.40709 33.4785C7.97295 30.9801 8.61781 28.6779 9.33539 26.6123C9.89288 26.7971 10.4517 26.9802 11.0092 27.1651C10.5171 29.0466 10.046 31.216 9.61612 33.5724Z" fill="#CBF8D4"/>
<path d="M20.6343 12.3314L11.0131 12.2873C10.4853 12.2849 10.0589 11.7891 10.0617 11.1795L10.0675 9.90547C10.0703 9.29711 10.5012 8.80384 11.0291 8.80626L20.6503 8.85043C21.1795 8.85286 21.6045 9.35006 21.6017 9.95842L21.5959 11.2324C21.5931 11.842 21.1636 12.3339 20.6343 12.3314Z" fill="#D7E2F4"/>
<path d="M20.7404 12.3273L20.7404 12.3244C21.2189 12.2649 21.5933 11.7996 21.5959 11.2324L21.6017 9.95842C21.6043 9.39127 21.2343 8.92053 20.7563 8.8582L20.7563 8.85517C21.2316 8.90445 21.6044 9.36609 21.6018 9.92736L21.5957 11.2631C21.5931 11.8243 21.2161 12.2825 20.7404 12.3273Z" fill="#D1DFE5"/>
<path d="M20.6602 12.3318L17.4721 12.3172L20.6343 12.3314C20.67 12.3316 20.7055 12.3293 20.7398 12.3253L20.7398 12.328C20.7137 12.3307 20.6876 12.332 20.6602 12.3318Z" fill="#9DABB3"/>
<path d="M20.6343 12.3314L17.4725 12.317C17.9851 12.3194 18.4036 11.8409 18.4063 11.2487L18.4124 9.91303C18.4151 9.3209 18.0011 8.83838 17.4884 8.83602L18.1899 8.83924L18.1894 8.96429L20.7553 8.97584L20.7563 8.8582C21.2343 8.92053 21.6043 9.39127 21.6017 9.95842L21.5959 11.2324C21.5933 11.7996 21.2189 12.2649 20.7404 12.3244C20.7059 12.3287 20.6702 12.3316 20.6343 12.3314Z" fill="#B0C6DB"/>
<path d="M11.4614 11.4939C11.2285 11.4929 10.9937 11.3448 10.8642 11.1165C10.6933 10.8188 10.687 10.4192 10.8056 10.0891C10.8574 9.94379 10.9361 9.80464 11.0509 9.72143C11.1535 9.64546 11.2775 9.62101 11.3987 9.60106C11.6708 9.55819 11.9469 9.51099 12.2228 9.51225C12.2766 9.5125 12.3291 9.5157 12.3843 9.5203C12.8834 9.56081 14.2952 9.57319 16.2669 9.58224C16.2884 9.58234 16.3113 9.58245 16.3329 9.58254C15.4747 9.75634 14.6851 9.94676 13.9696 10.1374C12.7662 10.4581 12.5058 10.6171 12.2366 10.9082C12.058 11.1042 11.9035 11.352 11.6715 11.4523C11.6041 11.4814 11.5327 11.4943 11.4614 11.4939Z" fill="#ECF1FA"/>
<path d="M20.7551 8.85568L20.7756 4.39033C20.779 3.64402 20.2587 3.03762 19.612 3.03465L19.6436 3.0348C20.2724 3.03769 20.7791 3.62769 20.7758 4.35372L20.7551 8.85568Z" fill="#D1DFE5"/>
<path d="M20.7559 8.85555C20.7299 8.85258 20.7038 8.85088 20.6763 8.85075L20.6503 8.85043L18.1899 8.83924L18.2105 4.34181C18.2138 3.61578 17.7071 3.02578 17.0783 3.02289L19.6128 3.03436C20.2595 3.03733 20.7798 3.64373 20.7764 4.39004L20.7559 8.85555Z" fill="#1B9E5A"/>
<path d="M20.7552 8.85892C20.721 8.85455 20.6854 8.85154 20.6499 8.85138L20.6759 8.8515C20.7032 8.85162 20.7291 8.85286 20.7551 8.85568L20.7552 8.85892Z" fill="#AB5706"/>
<path d="M20.7553 8.97584L18.1894 8.96429L18.1899 8.83924L20.6503 8.85043C20.686 8.85059 20.7217 8.85393 20.756 8.85852L20.7553 8.97584Z" fill="#90ADC5"/>
<path d="M10.98 49.1995C10.977 49.8548 10.5146 50.3832 9.94686 50.3806C9.37915 50.378 8.92295 49.8454 8.92596 49.1901C8.92897 48.5347 9.39004 48.005 9.95776 48.0076C10.5255 48.0102 10.983 48.5442 10.98 49.1995Z" fill="#CBF8D4"/>
<path d="M23.0512 52.9991C23.0473 53.8294 22.4612 54.4997 21.742 54.4963C21.0229 54.493 20.4429 53.8175 20.4467 52.9872C20.4505 52.1571 21.0367 51.4854 21.7558 51.4887C22.475 51.492 23.055 52.169 23.0512 52.9991Z" fill="#CBF8D4"/>
<path d="M12.5027 68.2122C12.4989 69.0424 11.9132 69.7127 11.1929 69.7094C10.4726 69.7061 9.89317 69.0305 9.89698 68.2003C9.9008 67.3685 10.4865 66.6983 11.2067 66.7016C11.927 66.7049 12.5065 67.3805 12.5027 68.2122Z" fill="#CBF8D4"/>
<path d="M21.9526 69.7571C21.9488 70.5873 21.3625 71.2577 20.6424 71.2544C19.9224 71.2511 19.3436 70.5753 19.3475 69.7451C19.3513 68.9151 19.9362 68.2447 20.6562 68.248C21.3763 68.2513 21.9564 68.927 21.9526 69.7571Z" fill="#CBF8D4"/>
<path d="M12.4259 84.9376C12.4221 85.7693 11.8365 86.4396 11.1162 86.4363C10.3959 86.433 9.81644 85.7574 9.82026 84.9256C9.82407 84.0956 10.4097 83.4252 11.13 83.4285C11.8503 83.4318 12.4298 84.1076 12.4259 84.9376Z" fill="#CBF8D4"/>
<path d="M17.713 57.7619C17.71 58.4173 17.2466 58.9471 16.6786 58.9445C16.1119 58.9419 15.6548 58.4079 15.6578 57.7525C15.6608 57.0973 16.1228 56.5689 16.6895 56.5715C17.2575 56.5741 17.716 57.1067 17.713 57.7619Z" fill="#CBF8D4"/>
<path d="M21.2454 38.5457C21.2424 39.201 20.7787 39.7309 20.2115 39.7283C19.6456 39.7257 19.1868 39.1915 19.1898 38.5362C19.1928 37.881 19.6565 37.3526 20.2224 37.3552C20.7896 37.3578 21.2484 37.8904 21.2454 38.5457Z" fill="#CBF8D4"/>
<path d="M18.9926 80.0994C18.9896 80.7548 18.526 81.2831 17.9585 81.2805C17.391 81.2779 16.9338 80.7453 16.9368 80.0899C16.9398 79.4347 17.4019 78.9063 17.9694 78.9089C18.5369 78.9115 18.9956 79.4441 18.9926 80.0994Z" fill="#CBF8D4"/>
<path d="M2.50417 37.8595C12.3193 40.0176 19.9405 40.9255 29.2883 38.7771L29.0089 59.1637C19.7402 61.7821 12.2307 61.9618 2.09327 59.2544L2.50417 37.8595Z" fill="#40BE5A"/>
<path d="M8.17568 55.5902C8.06947 55.7234 7.97804 55.8667 7.87709 56.0038C7.77614 56.1408 7.6518 56.2596 7.53129 56.3807C7.30843 56.6047 6.79847 57.0696 7.06839 57.4212C7.23846 57.6425 7.5235 57.8482 7.80701 57.8808C7.99591 57.9024 8.12613 57.8248 8.25295 57.6907C8.37285 57.5639 8.37289 57.4054 8.38545 57.2418C8.41334 56.8781 8.38812 56.5165 8.40071 56.1531C8.41082 55.8658 8.48328 55.5812 8.43785 55.2947C8.34275 55.3503 8.23591 55.5147 8.17568 55.5902Z" fill="#FFD43B"/>
<path d="M5.63157 55.4499C5.69304 55.5968 5.75456 55.7532 5.84125 55.8867C5.96968 56.085 6.11693 56.4015 6.40261 56.3643C6.60504 56.338 6.7834 56.2146 6.93873 56.0893C7.09056 55.9668 7.23268 55.8325 7.37708 55.7013C7.51173 55.5787 7.64129 55.4509 7.77165 55.3239C7.90402 55.1951 8.03445 55.073 8.10996 54.9032C8.0783 54.7384 7.61945 54.7465 7.49689 54.7397C7.20275 54.7234 6.91106 54.6904 6.61569 54.6889C6.34046 54.6872 5.83839 54.6399 5.65804 54.9106C5.54744 55.0768 5.5578 55.2725 5.63157 55.4499Z" fill="#FFD43B"/>
<path d="M6.53189 52.9427C6.41702 53.037 6.2984 53.1353 6.21038 53.2563C6.11568 53.3865 6.02981 53.5596 6.07305 53.7261C6.11629 53.8927 6.24975 54.0137 6.39246 54.1002C6.92129 54.4205 7.60236 54.4129 8.20447 54.4823C7.84573 54.0348 7.48164 53.592 7.11874 53.1481C7.00569 53.0096 6.8904 52.8709 6.7795 52.7301C6.68648 52.7481 6.60105 52.8859 6.53189 52.9427Z" fill="#FFD43B"/>
<path d="M10.6726 57.5772C10.6554 57.556 10.6384 57.5338 10.6214 57.5121C10.3572 57.732 10.0991 57.9698 9.7966 58.1357C9.62384 58.2306 9.43913 58.306 9.24236 58.3316C9.034 58.3587 8.82679 58.369 8.61917 58.4034C8.25762 58.4633 7.83466 58.3842 7.50183 58.2337C7.12433 58.0628 6.74123 57.8659 6.4279 57.5909C6.11458 57.3159 5.86075 56.9653 5.62813 56.6221C5.40657 56.2946 5.21923 55.9331 5.15752 55.5381C5.09703 55.1516 5.05933 54.7574 5.19658 54.3846C5.27482 54.1721 5.35903 53.9476 5.4637 53.7468C5.5508 53.5791 5.67334 53.4372 5.7728 53.2778C5.89544 53.0811 6.02236 52.8855 6.16757 52.7045C6.28366 52.5599 6.38724 52.4936 6.5521 52.427C6.54108 52.4112 6.52981 52.3957 6.51901 52.3801C6.46444 52.3007 6.3398 52.0985 6.21922 52.0782C6.21723 52.0826 6.21428 52.0865 6.2106 52.0896C6.20692 52.0927 6.20259 52.0949 6.19794 52.0961C6.19329 52.0973 6.18842 52.0975 6.1837 52.0966C6.17897 52.0957 6.17451 52.0937 6.17063 52.0909C6.16737 52.0893 6.16383 52.0883 6.16019 52.0881C6.15656 52.0878 6.15292 52.0883 6.14948 52.0895C6.14004 52.0946 6.13126 52.1007 6.12331 52.1079C6.11942 52.1114 6.11464 52.1137 6.10951 52.1146C6.10438 52.1154 6.09911 52.1149 6.09428 52.1129C6.01187 52.158 5.89312 52.2507 5.86842 52.2698C5.77415 52.3425 5.69845 52.4312 5.61798 52.5181C5.46196 52.6869 5.30696 52.8504 5.17425 53.039C4.90911 53.4143 4.70097 53.8268 4.5566 54.2631C4.42434 54.666 4.42888 55.146 4.50433 55.5613C4.67681 56.5098 5.30207 57.3213 6.05081 57.8954C6.7188 58.4076 7.50215 58.8919 8.36362 58.9496C8.76855 58.9765 9.17526 58.9183 9.54922 58.7567C9.9977 58.5629 10.3878 58.2756 10.7673 57.9728C10.7686 57.9655 10.7722 57.9589 10.7778 57.9541C10.9158 57.8343 10.7509 57.6781 10.6726 57.5772Z" fill="#FFD43B"/>
<path d="M6.2602 52.7063C6.19426 52.7897 6.13315 52.8761 6.07125 52.9623C5.94818 53.1336 5.8414 53.315 5.71816 53.486C5.57524 53.6842 5.48188 53.892 5.3852 54.1152C5.2986 54.3153 5.18981 54.5398 5.17338 54.7603C5.15734 54.9759 5.18787 55.2206 5.21582 55.4356C5.24314 55.6507 5.30174 55.8607 5.38975 56.0589C5.56462 56.4488 5.82849 56.7817 6.08591 57.1193C6.37116 57.4929 6.736 57.7691 7.15124 57.9845C7.52497 58.1783 7.89201 58.3218 8.31682 58.3482C8.55138 58.3627 8.78533 58.3001 9.01935 58.2828C9.2348 58.2667 9.44368 58.2331 9.63944 58.1374C9.99045 57.9666 10.2795 57.7034 10.5788 57.4578C10.5123 57.3742 10.4455 57.2904 10.3785 57.2065L10.3773 57.2071C10.2868 57.2469 10.2105 57.3258 10.1283 57.3813C10.0642 57.4245 10.0017 57.4701 9.93733 57.5129C9.81899 57.5916 9.68482 57.6842 9.54064 57.7035C9.19799 57.7496 9.0672 57.3379 8.98496 57.079C8.86019 56.6862 8.75273 56.2819 8.7895 55.8647C8.79675 55.7834 8.79531 55.4183 8.89159 55.3441C8.74271 55.1577 8.59417 54.9711 8.44597 54.7843C8.38513 54.7072 8.32369 54.6309 8.26254 54.5539C7.85094 54.5202 7.43127 54.4898 7.02492 54.4105C6.70729 54.3488 6.32306 54.2316 6.1131 53.9649C5.91801 53.7177 5.97937 53.4081 6.17528 53.1784C6.28029 53.0552 6.40756 52.9614 6.52279 52.8494C6.58036 52.7934 6.65018 52.7017 6.73172 52.6678C6.68392 52.6061 6.63638 52.5438 6.59123 52.4809C6.46066 52.5396 6.35353 52.5886 6.2602 52.7063ZM8.49603 55.2483C8.5759 55.5983 8.46994 55.9608 8.47684 56.3151C8.48112 56.5349 8.48457 56.7554 8.47599 56.9754C8.46958 57.1498 8.47431 57.3446 8.43171 57.5147C8.36486 57.782 8.07698 58.0028 7.79919 57.9557C7.52427 57.9096 7.26191 57.7537 7.07603 57.5472C6.73679 57.1703 7.06753 56.7551 7.35115 56.4594C7.52058 56.2826 7.70591 56.1205 7.84821 55.9198C7.95826 55.7646 8.06205 55.6026 8.19296 55.4637C8.26454 55.3877 8.33269 55.2576 8.43632 55.2215C8.44458 55.2185 8.45368 55.2189 8.46169 55.2225C8.46955 55.222 8.47735 55.2243 8.48365 55.229C8.48995 55.2338 8.49434 55.2406 8.49603 55.2483ZM6.67705 54.6135C7.01317 54.6202 7.35255 54.6432 7.68711 54.6784C7.81117 54.6914 8.11095 54.7057 8.16746 54.8578C8.17134 54.8594 8.17488 54.8616 8.17786 54.8645C8.18085 54.8674 8.18322 54.8709 8.18484 54.8748C8.18646 54.8786 8.1873 54.8827 8.1873 54.8869C8.1873 54.8911 8.18647 54.8952 8.18485 54.899C8.15677 54.9765 8.11685 55.0491 8.0665 55.1144C7.83587 55.402 7.54316 55.6445 7.27242 55.8933C7.0962 56.0553 6.9149 56.2251 6.70154 56.3375C6.53492 56.4253 6.32389 56.4891 6.1496 56.3839C6.02213 56.3071 5.95244 56.1816 5.87013 56.0619C5.76717 55.9123 5.69062 55.7608 5.61493 55.5965C5.4974 55.3417 5.41007 54.9736 5.6839 54.7771C5.95905 54.5787 6.35453 54.607 6.67705 54.6135Z" fill="#FFFAD6"/>
<path d="M8.86061 55.9922C8.86338 56.3727 8.94679 56.7259 9.06735 57.085C9.11832 57.2387 9.17402 57.4198 9.28803 57.5392C9.41193 57.6688 9.56328 57.6383 9.70861 57.5615C9.83086 57.4969 9.94108 57.415 10.0552 57.3386C10.1435 57.2793 10.2307 57.186 10.3316 57.1487C10.1241 56.8929 9.91759 56.6366 9.71395 56.3777C9.45609 56.0496 9.195 55.7241 8.93431 55.3982C8.87767 55.405 8.86001 55.918 8.86061 55.9922Z" fill="#FFD43B"/>
<path d="M6.21039 52.0366C6.21692 52.0413 6.2215 52.0482 6.22324 52.056C6.22499 52.0638 6.22377 52.072 6.21984 52.079C6.34041 52.0993 6.46505 52.3015 6.51962 52.3809C6.53042 52.3965 6.5417 52.412 6.55271 52.4278C6.56166 52.4242 6.56999 52.4206 6.5792 52.417C6.61766 52.4021 6.64326 52.4589 6.60509 52.476L6.59113 52.4822C6.63671 52.5453 6.68378 52.6075 6.73162 52.6691C6.74529 52.6633 6.75964 52.6593 6.77434 52.6571C6.8209 52.6511 6.83229 52.7227 6.78553 52.7292L6.77983 52.7306C6.89115 52.8716 7.00602 53.01 7.11907 53.1485C7.48177 53.5929 7.84606 54.0353 8.2048 54.4828C8.22749 54.4853 8.24997 54.488 8.27245 54.4909C8.31387 54.4961 8.30748 54.5588 8.26573 54.5554C8.26464 54.5553 8.26356 54.5553 8.26249 54.5551C8.32379 54.6317 8.38524 54.7081 8.44592 54.7854C8.59367 54.9725 8.74221 55.1591 8.89155 55.3453C8.90073 55.3379 8.91189 55.3334 8.92363 55.3323C8.96652 55.3285 8.97772 55.3936 8.9348 55.3993C9.19548 55.7252 9.45658 56.0508 9.71443 56.3788C9.91808 56.6377 10.1245 56.894 10.3321 57.1498C10.3377 57.1477 10.3432 57.1452 10.3489 57.1434C10.3909 57.1311 10.4198 57.1881 10.3787 57.2077C10.4461 57.2909 10.5129 57.3747 10.579 57.4591C10.587 57.4528 10.5948 57.4461 10.6029 57.4396L10.6107 57.4333C10.6449 57.4053 10.688 57.4584 10.6539 57.4865L10.6215 57.5134C10.6385 57.5352 10.6558 57.5568 10.6727 57.5785C10.751 57.6794 10.9159 57.8357 10.7781 57.9559C10.7726 57.9608 10.7689 57.9674 10.7677 57.9746L10.7833 57.9623C10.8086 57.9422 10.8378 57.9642 10.8393 57.9892C10.9719 57.8579 10.8601 57.7045 10.7638 57.5771C10.5264 57.2624 10.2722 56.9611 10.0264 56.6526C9.51856 56.0151 9.01136 55.377 8.50477 54.7383C7.99634 54.0951 7.4678 53.4683 6.95582 52.8279C6.77607 52.6031 6.61945 52.3519 6.42608 52.1387C6.35094 52.0559 6.24555 51.9797 6.14802 52.0162C6.17049 52.016 6.19238 52.0232 6.21039 52.0366Z" fill="#FFD43B"/>
<path d="M4.38436 54.824C4.3705 55.2109 4.40725 55.6041 4.53236 55.9712C4.67282 56.3834 4.87758 56.7707 5.13905 57.1188C5.41606 57.4846 5.77289 57.7854 6.13897 58.0582C6.77644 58.5321 7.50716 58.9413 8.31076 59.0213C9.28455 59.1183 10.1047 58.6108 10.8273 58.0149C10.8314 58.0117 10.8347 58.0075 10.8368 58.0027C10.8389 57.9979 10.8398 57.9927 10.8394 57.9875C10.8382 57.9631 10.8085 57.9408 10.7834 57.9605L10.7678 57.9729C10.3878 58.2755 9.99816 58.563 9.54968 58.7568C9.17572 58.9184 8.76896 58.9767 8.36407 58.9496C7.50261 58.8919 6.71926 58.4077 6.05127 57.8955C5.30253 57.3213 4.67711 56.5097 4.50479 55.5614C4.42923 55.1461 4.4248 54.6661 4.55706 54.2632C4.70143 53.8269 4.90957 53.4144 5.17471 53.0391C5.30742 52.8505 5.46257 52.6867 5.61844 52.5182C5.69901 52.4313 5.77461 52.3426 5.86888 52.2699C5.89358 52.2508 6.01233 52.1581 6.09474 52.113C6.11203 52.1028 6.13059 52.0949 6.14994 52.0896C6.15338 52.0884 6.15702 52.0879 6.16065 52.0881C6.16428 52.0884 6.16783 52.0893 6.17109 52.091C6.17497 52.0938 6.17943 52.0957 6.18416 52.0967C6.18888 52.0976 6.19375 52.0974 6.1984 52.0962C6.20305 52.095 6.20738 52.0927 6.21106 52.0896C6.21474 52.0865 6.21769 52.0827 6.21968 52.0783C6.22362 52.0713 6.22483 52.0631 6.22309 52.0553C6.22135 52.0475 6.21677 52.0406 6.21024 52.0359C6.19254 52.022 6.1708 52.0144 6.14832 52.014C6.06334 52.0129 5.97507 52.1142 5.90715 52.1571C5.72889 52.2698 5.59093 52.4312 5.44842 52.5843C5.15392 52.901 4.91656 53.2601 4.72539 53.6473C4.54096 54.0193 4.39915 54.4069 4.38436 54.824Z" fill="#FFD43B"/>
<path d="M6.16773 52.705C6.02252 52.886 5.89602 53.0818 5.77296 53.2783C5.67375 53.4372 5.55055 53.5794 5.46386 53.7473C5.3592 53.9481 5.27479 54.173 5.19674 54.3851C5.05934 54.7582 5.09719 55.1521 5.15768 55.5386C5.21939 55.9336 5.40674 56.2951 5.62829 56.6226C5.8605 56.9656 6.11543 57.3174 6.42807 57.5914C6.7407 57.8655 7.12449 58.0633 7.50199 58.2342C7.83482 58.3847 8.25778 58.4638 8.61933 58.4039C8.82695 58.3695 9.03416 58.3592 9.24252 58.3321C9.43929 58.3065 9.62385 58.2314 9.79676 58.1362C10.0994 57.97 10.3575 57.7322 10.6215 57.5126L10.654 57.4857C10.6881 57.4575 10.645 57.4045 10.6107 57.4325L10.6029 57.4388C10.5949 57.4453 10.587 57.4519 10.5791 57.4583C10.28 57.704 9.99068 57.967 9.63967 58.1379C9.44349 58.2334 9.23502 58.2672 9.01957 58.2832C8.78556 58.3006 8.5516 58.3632 8.31705 58.3486C7.89223 58.3222 7.5252 58.1787 7.15147 57.9849C6.73622 57.7695 6.37097 57.4932 6.08614 57.1197C5.82871 56.7822 5.56485 56.4492 5.38998 56.0593C5.30196 55.8611 5.24336 55.6512 5.21604 55.4361C5.1881 55.2211 5.15757 54.9764 5.1736 54.7607C5.19004 54.5403 5.29882 54.3158 5.38543 54.1156C5.4821 53.8924 5.57547 53.6847 5.71839 53.4865C5.84162 53.3154 5.94841 53.134 6.07148 52.9628C6.13348 52.8764 6.19448 52.7901 6.26043 52.7068C6.35376 52.589 6.46097 52.5401 6.59113 52.4822L6.60509 52.476C6.64326 52.4589 6.61766 52.4021 6.5792 52.417C6.56999 52.4206 6.56166 52.4242 6.55271 52.4278C6.38749 52.4941 6.28382 52.5604 6.16773 52.705Z" fill="#FFD43B"/>
<path d="M8.78922 55.8652C8.75245 56.2823 8.85971 56.6871 8.98469 57.0794C9.06672 57.3385 9.19761 57.7502 9.54036 57.704C9.68454 57.6846 9.81856 57.5924 9.93705 57.5134C10.0014 57.4706 10.0639 57.425 10.128 57.3818C10.2102 57.3263 10.2866 57.2474 10.377 57.2076L10.3783 57.2069C10.4193 57.1873 10.3905 57.1302 10.3485 57.1426C10.3427 57.1443 10.3372 57.1466 10.3316 57.1487C10.2307 57.186 10.1435 57.2793 10.0552 57.3386C9.94078 57.4153 9.83086 57.4969 9.70861 57.5615C9.56328 57.6383 9.41193 57.6688 9.28803 57.5392C9.17386 57.4196 9.11841 57.2379 9.06735 57.085C8.94731 56.7261 8.86338 56.3727 8.86061 55.9922C8.86001 55.918 8.87771 55.4053 8.93374 55.3989C8.97645 55.3936 8.96546 55.3281 8.92257 55.3319C8.91083 55.333 8.89967 55.3375 8.89049 55.3449C8.79503 55.4187 8.79647 55.7838 8.78922 55.8652Z" fill="#FFD43B"/>
<path d="M8.43632 55.2215C8.33269 55.2576 8.26454 55.3877 8.19296 55.4637C8.06164 55.6024 7.95804 55.764 7.84821 55.9198C7.70591 56.1205 7.52058 56.2826 7.35115 56.4594C7.06753 56.7551 6.73679 57.1703 7.07603 57.5472C7.26191 57.7537 7.52427 57.9096 7.79919 57.9557C8.07718 58.0024 8.36486 57.782 8.43171 57.5147C8.47473 57.3448 8.46906 57.1496 8.47599 56.9754C8.48457 56.7554 8.48112 56.5349 8.47684 56.3151C8.46994 55.9608 8.5759 55.5983 8.49603 55.2483C8.49434 55.2406 8.48995 55.2338 8.48365 55.229C8.47723 55.2242 8.46913 55.2216 8.46114 55.2222C8.45326 55.2188 8.44439 55.2186 8.43632 55.2215ZM8.40071 56.1531C8.38812 56.5165 8.41334 56.8781 8.38545 57.2418C8.37289 57.4054 8.37285 57.5639 8.25295 57.6907C8.12613 57.8248 7.99591 57.9024 7.80701 57.8808C7.5237 57.8478 7.23846 57.6425 7.06839 57.4212C6.79847 57.0696 7.30843 56.6047 7.53129 56.3807C7.6518 56.2596 7.77537 56.1419 7.87709 56.0038C7.9788 55.8657 8.06947 55.7234 8.17568 55.5902C8.23591 55.5147 8.34275 55.3503 8.43785 55.2947C8.4836 55.5814 8.41124 55.866 8.40071 56.1531Z" fill="#FFD43B"/>
<path d="M5.61432 55.5965C5.69022 55.7609 5.76656 55.9124 5.86952 56.0619C5.95183 56.1816 6.02152 56.3071 6.14899 56.3839C6.32381 56.4893 6.53488 56.4254 6.70093 56.3375C6.91429 56.2251 7.09517 56.0551 7.27181 55.8933C7.54255 55.6445 7.83516 55.4023 8.0659 55.1144C8.11624 55.0492 8.15617 54.9765 8.18424 54.899C8.18586 54.8952 8.18669 54.8911 8.18669 54.8869C8.18669 54.8827 8.18586 54.8786 8.18424 54.8748C8.18262 54.8709 8.18024 54.8675 8.17726 54.8646C8.17427 54.8616 8.17073 54.8594 8.16685 54.8578C8.11092 54.7056 7.81071 54.6911 7.68651 54.6784C7.35194 54.6432 7.01251 54.6203 6.67645 54.6135C6.35392 54.607 5.95845 54.5787 5.68282 54.7768C5.40946 54.9736 5.49679 55.3417 5.61432 55.5965ZM6.61569 54.6889C6.91086 54.6908 7.20275 54.7234 7.49689 54.7397C7.61924 54.7469 8.07872 54.7386 8.10996 54.9032C8.03404 55.0733 7.90402 55.1951 7.77165 55.3239C7.64129 55.4509 7.51173 55.5787 7.37708 55.7013C7.23268 55.8325 7.09056 55.9668 6.93873 56.0893C6.7834 56.2146 6.60504 56.338 6.40261 56.3643C6.11693 56.4015 5.96968 56.085 5.84125 55.8867C5.75456 55.7532 5.69304 55.5968 5.63157 55.4499C5.55733 55.2721 5.54738 55.0771 5.65826 54.9113C5.83812 54.6401 6.34046 54.6872 6.61569 54.6889Z" fill="#FFD43B"/>
<path d="M6.5222 52.8504C6.40677 52.9628 6.2795 53.0565 6.17469 53.1793C5.97878 53.409 5.91742 53.7186 6.11251 53.9658C6.32289 54.2327 6.7067 54.3497 7.02433 54.4115C7.43069 54.4907 7.85009 54.5209 8.26195 54.5548C8.26302 54.555 8.2641 54.5551 8.26518 54.5551C8.30694 54.5585 8.31333 54.4959 8.27191 54.4907C8.24943 54.4877 8.22716 54.4848 8.20447 54.4823C7.60236 54.4129 6.92129 54.4205 6.39246 54.1002C6.24975 54.0137 6.11629 53.8927 6.07305 53.7261C6.02981 53.5596 6.11568 53.3865 6.21038 53.2563C6.2984 53.1353 6.41702 53.037 6.53189 52.9427C6.60105 52.8859 6.68648 52.7481 6.7795 52.7301L6.78499 52.7289C6.83175 52.7225 6.82035 52.6509 6.7738 52.6569C6.7591 52.659 6.74475 52.6631 6.73108 52.6689C6.6496 52.7027 6.57972 52.7945 6.5222 52.8504Z" fill="#FFD43B"/>
<path d="M22.3273 54.5972C22.4731 54.7861 22.598 54.9887 22.7364 55.1828C22.8747 55.3768 23.0462 55.5459 23.2123 55.718C23.5194 56.0364 24.2232 56.6984 23.8377 57.1847C23.5948 57.4909 23.1912 57.7727 22.7936 57.8121C22.5287 57.8383 22.3481 57.7268 22.1734 57.5362C22.0083 57.3561 22.0117 57.1343 21.9977 56.905C21.9666 56.3951 22.0098 55.8895 22 55.3805C21.9921 54.978 21.8969 54.578 21.9667 54.1779C22.0987 54.2578 22.2447 54.4902 22.3273 54.5972Z" fill="#B4C437"/>
<path d="M25.8919 54.4562C25.8027 54.6605 25.7131 54.8782 25.5889 55.0631C25.4048 55.3379 25.1917 55.7779 24.7926 55.7196C24.5098 55.6783 24.2627 55.5016 24.048 55.3229C23.8381 55.1481 23.6421 54.957 23.4428 54.7701C23.2569 54.5956 23.0783 54.4139 22.8986 54.2332C22.7161 54.05 22.5361 53.8762 22.4341 53.6368C22.482 53.4068 23.1242 53.4281 23.296 53.4213C23.7081 53.4048 24.1172 53.365 24.5307 53.3694C24.9161 53.373 25.62 53.3177 25.8666 53.7005C26.0178 53.9357 25.9991 54.2094 25.8919 54.4562Z" fill="#B4C437"/>
<path d="M24.6861 50.9265C24.8449 51.0611 25.0088 51.2013 25.1294 51.3725C25.2591 51.5569 25.3756 51.8012 25.3114 52.0333C25.2472 52.2655 25.0578 52.4321 24.8561 52.5501C24.1088 52.987 23.1555 52.9615 22.311 53.0456C22.823 52.4269 23.3423 51.8149 23.86 51.2013C24.0213 51.0099 24.1858 50.8183 24.3441 50.6235C24.4739 50.6508 24.5905 50.8456 24.6861 50.9265Z" fill="#B4C437"/>
<path d="M18.7883 57.3246C18.8129 57.2953 18.8371 57.2647 18.8615 57.2346C19.2266 57.5483 19.5827 57.8868 20.0026 58.1256C20.2424 58.2622 20.4993 58.3718 20.7742 58.4119C21.0654 58.4544 21.3552 58.4733 21.6451 58.526C22.15 58.6177 22.7439 58.5161 23.2131 58.3127C23.7453 58.0817 24.2859 57.8144 24.7306 57.4362C25.1752 57.058 25.5382 56.5726 25.8713 56.0973C26.1886 55.6436 26.4588 55.1416 26.5538 54.5899C26.6469 54.0501 26.7082 53.4991 26.5242 52.9742C26.4193 52.6749 26.3063 52.3589 26.1641 52.0754C26.0458 51.8388 25.8774 51.6375 25.7416 51.4121C25.5742 51.1341 25.4007 50.8575 25.2014 50.601C25.042 50.396 24.8984 50.3009 24.6691 50.204C24.6849 50.1822 24.701 50.1608 24.7164 50.1391C24.7946 50.0292 24.9735 49.7488 25.1427 49.723C25.1454 49.7292 25.1494 49.7347 25.1545 49.7391C25.1596 49.7435 25.1656 49.7467 25.1721 49.7485C25.1786 49.7503 25.1854 49.7507 25.192 49.7495C25.1987 49.7483 25.205 49.7457 25.2105 49.7418C25.2151 49.7396 25.22 49.7384 25.2251 49.7381C25.2302 49.7378 25.2353 49.7386 25.2401 49.7403C25.2532 49.7476 25.2654 49.7565 25.2763 49.7667C25.2817 49.7716 25.2884 49.7749 25.2955 49.7763C25.3027 49.7776 25.3101 49.7769 25.3169 49.7743C25.4313 49.8392 25.5955 49.9716 25.6297 49.9989C25.76 50.1028 25.8641 50.2285 25.9749 50.352C26.1896 50.5917 26.4031 50.824 26.5847 51.0908C26.9478 51.6221 27.2302 52.2041 27.4228 52.818C27.5992 53.385 27.5824 54.0569 27.4677 54.6367C27.2056 55.9607 26.3126 57.0832 25.2519 57.8707C24.3056 58.5732 23.1983 59.2341 21.991 59.2962C21.4235 59.325 20.8554 59.2348 20.3354 59.0004C19.7117 58.7193 19.1718 58.3086 18.6471 57.8764C18.6455 57.8662 18.6405 57.8569 18.6329 57.8499C18.4422 57.6793 18.6765 57.4642 18.7883 57.3246Z" fill="#B4C437"/>
<path d="M25.0717 50.6015C25.1622 50.7197 25.2459 50.842 25.3306 50.9641C25.4992 51.2065 25.6448 51.4628 25.8136 51.7049C26.0093 51.9855 26.1355 52.2784 26.266 52.593C26.3829 52.8751 26.5303 53.1917 26.5485 53.5007C26.5663 53.803 26.5182 54.1449 26.4744 54.4453C26.4315 54.7458 26.3449 55.0385 26.2173 55.314C25.964 55.8561 25.5874 56.3165 25.2196 56.7834C24.8122 57.3003 24.2954 57.679 23.7094 57.9715C23.1819 58.2347 22.6649 58.4276 22.0696 58.4553C21.7409 58.4706 21.4148 58.3779 21.0875 58.3485C20.7863 58.3213 20.4945 58.2697 20.2226 58.1315C19.7349 57.8847 19.336 57.5099 18.9222 57.1596C19.0172 57.0439 19.1125 56.9281 19.2081 56.8121L19.2098 56.8131C19.3356 56.8708 19.4407 56.9829 19.5547 57.0623C19.6434 57.1242 19.7299 57.1894 19.8191 57.2507C19.9831 57.3635 20.1689 57.4959 20.3703 57.5262C20.849 57.5982 21.0411 57.0246 21.1619 56.664C21.3451 56.1168 21.5043 55.553 21.4619 54.9683C21.4536 54.8542 21.4635 54.3431 21.3303 54.2371C21.5428 53.9795 21.7549 53.7215 21.9664 53.4631C22.0532 53.3565 22.1409 53.251 22.2282 53.1446C22.8052 53.1063 23.3934 53.0729 23.964 52.9708C24.41 52.8913 24.9505 52.7356 25.2502 52.3667C25.5287 52.0249 25.4496 51.5902 25.1803 51.2643C25.036 51.0895 24.8598 50.9555 24.7009 50.7962C24.6216 50.7165 24.5258 50.5866 24.4124 50.5374C24.4807 50.452 24.5486 50.3659 24.6132 50.2787C24.7947 50.3638 24.9436 50.4347 25.0717 50.6015ZM21.8862 54.1117C21.7668 54.5999 21.9072 55.1097 21.8899 55.6056C21.8791 55.9133 21.8695 56.2219 21.8767 56.53C21.8819 56.7743 21.871 57.0469 21.9269 57.286C22.0147 57.6616 22.4129 57.9771 22.8029 57.9172C23.1887 57.8586 23.5595 57.646 23.8242 57.361C24.3073 56.8408 23.8533 56.2523 23.4627 55.8321C23.2293 55.5808 22.9734 55.3499 22.7785 55.0658C22.6279 54.8462 22.4861 54.6171 22.3058 54.4198C22.2073 54.3118 22.1147 54.1282 21.9704 54.0755C21.9589 54.0711 21.9461 54.0714 21.9349 54.0763C21.9239 54.0754 21.9129 54.0784 21.904 54.0849C21.8951 54.0914 21.8888 54.1009 21.8862 54.1117ZM24.4466 53.2625C23.9759 53.2646 23.5003 53.2894 23.0311 53.3314C22.8571 53.347 22.4371 53.3604 22.3547 53.5722C22.3492 53.5742 22.3442 53.5773 22.34 53.5813C22.3358 53.5853 22.3324 53.5901 22.33 53.5955C22.3277 53.6008 22.3264 53.6066 22.3263 53.6124C22.3262 53.6182 22.3273 53.624 22.3295 53.6294C22.3671 53.7385 22.4214 53.8411 22.4905 53.9335C22.8071 54.3412 23.2116 54.687 23.5852 55.0413C23.8284 55.2718 24.0785 55.5135 24.3748 55.6756C24.6061 55.8021 24.9002 55.896 25.1465 55.7525C25.3266 55.6477 25.4269 55.4736 25.5447 55.3078C25.6921 55.1007 25.8026 54.8902 25.9122 54.6618C26.0822 54.3076 26.2125 53.7943 25.8334 53.5132C25.4525 53.2295 24.8983 53.2605 24.4466 53.2625Z" fill="#FFFAD6"/>
<path d="M21.3596 55.145C21.3474 55.6778 21.223 56.1703 21.0464 56.6704C20.9717 56.8845 20.8898 57.1369 20.7275 57.3015C20.5513 57.4803 20.34 57.4342 20.1382 57.3235C19.9685 57.2305 19.816 57.1134 19.6579 57.004C19.5355 56.9191 19.4156 56.7866 19.2751 56.7321C19.5712 56.3785 19.8658 56.0242 20.1565 55.6662C20.5247 55.2125 20.8973 54.7624 21.2693 54.3118C21.3485 54.3226 21.3621 55.0412 21.3596 55.145Z" fill="#B4C437"/>
<path d="M25.1558 49.6649C25.1465 49.6713 25.14 49.6809 25.1374 49.6918C25.1348 49.7027 25.1363 49.7142 25.1416 49.7241C24.9724 49.7499 24.7935 50.0302 24.7154 50.1401C24.6999 50.1618 24.6838 50.1833 24.668 50.2051C24.6556 50.1999 24.644 50.1947 24.6312 50.1894C24.5777 50.1677 24.5406 50.2467 24.5937 50.2714L24.6131 50.2804C24.5479 50.3678 24.4806 50.4538 24.4123 50.5391C24.3933 50.5306 24.3733 50.5247 24.3528 50.5214C24.2877 50.5119 24.2702 50.6119 24.3355 50.622L24.3435 50.624C24.1846 50.819 24.0207 51.0104 23.8595 51.2018C23.342 51.816 22.8224 52.4274 22.3104 53.0461C22.2786 53.0491 22.247 53.0524 22.2155 53.056C22.1574 53.0624 22.165 53.1503 22.2235 53.1464C22.225 53.1464 22.2265 53.1463 22.2281 53.1461C22.1406 53.2521 22.0529 53.3576 21.9662 53.4646C21.7553 53.7233 21.5433 53.9813 21.3302 54.2386C21.3175 54.2281 21.302 54.2215 21.2856 54.2198C21.2256 54.2135 21.2085 54.3044 21.2685 54.3133C20.8964 54.7639 20.5238 55.214 20.1557 55.6677C19.8649 56.0257 19.5703 56.3801 19.2742 56.7336C19.2664 56.7306 19.2587 56.7269 19.2507 56.7243C19.1922 56.7061 19.1506 56.7853 19.2077 56.8137C19.1114 56.9287 19.0161 57.0446 18.9218 57.1613C18.9107 57.1522 18.8999 57.1427 18.8888 57.1334L18.878 57.1244C18.8306 57.0846 18.7692 57.1578 18.8163 57.198L18.8611 57.2364C18.8368 57.2665 18.8122 57.2963 18.788 57.3264C18.6762 57.466 18.4418 57.6811 18.6322 57.8524C18.6398 57.8594 18.6448 57.8687 18.6464 57.8789L18.6247 57.8613C18.5897 57.8325 18.5484 57.8628 18.5457 57.8978C18.363 57.7111 18.5229 57.4988 18.6605 57.3224C18.9997 56.887 19.3621 56.4707 19.713 56.0443C20.4378 55.1628 21.1618 54.2804 21.8849 53.3973C22.6107 52.5078 23.3643 51.642 24.095 50.7565C24.3515 50.4456 24.5763 50.0974 24.8516 49.8032C24.9586 49.6889 25.1078 49.5844 25.2435 49.6377C25.2121 49.637 25.1813 49.6465 25.1558 49.6649Z" fill="#B4C437"/>
<path d="M27.6518 53.6071C27.6628 54.1491 27.6028 54.6987 27.4196 55.21C27.214 55.7838 26.9189 56.3216 26.5453 56.8033C26.1495 57.3094 25.6434 57.7228 25.125 58.0967C24.2222 58.7463 23.1903 59.3032 22.0635 59.3977C20.6981 59.5124 19.5609 58.784 18.5623 57.9341C18.5566 57.9295 18.5521 57.9235 18.5493 57.9168C18.5464 57.91 18.5452 57.9027 18.5459 57.8954C18.5481 57.8613 18.5902 57.8307 18.6249 57.8589L18.6465 57.8765C19.172 58.3084 19.7111 58.7194 20.3348 59.0005C20.8548 59.2349 21.423 59.3253 21.9904 59.2963C23.1977 59.2343 24.305 58.5734 25.2513 57.8708C26.312 57.0833 27.2053 55.9606 27.4671 54.6368C27.582 54.057 27.5986 53.3851 27.4222 52.8181C27.2296 52.2042 26.9472 51.6222 26.5842 51.0909C26.4025 50.8241 26.1888 50.5914 25.9743 50.3521C25.8634 50.2286 25.7595 50.1029 25.6291 49.999C25.5949 49.9717 25.4307 49.8394 25.3163 49.7744C25.2923 49.7598 25.2665 49.7483 25.2395 49.7404C25.2347 49.7387 25.2296 49.738 25.2245 49.7382C25.2194 49.7385 25.2145 49.7397 25.2099 49.7419C25.2044 49.7458 25.1981 49.7485 25.1914 49.7496C25.1848 49.7508 25.178 49.7505 25.1715 49.7486C25.165 49.7469 25.159 49.7436 25.1539 49.7392C25.1488 49.7348 25.1448 49.7293 25.1421 49.7231C25.1367 49.7133 25.1352 49.7018 25.1378 49.6909C25.1404 49.6799 25.147 49.6704 25.1563 49.664C25.1813 49.645 25.2119 49.6347 25.2434 49.6347C25.3624 49.635 25.4838 49.7787 25.5779 49.8402C25.8251 50.002 26.0147 50.2309 26.2109 50.4483C26.6163 50.8982 26.9407 51.4061 27.2 51.9522C27.4501 52.4771 27.6402 53.0228 27.6518 53.6071Z" fill="#B4C437"/>
<path d="M25.2011 50.6017C25.4005 50.8582 25.5733 51.1351 25.7413 51.4128C25.8768 51.6375 26.0461 51.8393 26.1639 52.0761C26.306 52.3596 26.4193 52.6762 26.5239 52.9749C26.7082 53.5002 26.6466 54.0508 26.5535 54.5906C26.4585 55.1422 26.1884 55.6443 25.8711 56.098C25.5385 56.573 25.174 57.06 24.7303 57.4369C24.2867 57.8137 23.745 58.0824 23.2128 58.3134C22.7436 58.5168 22.1497 58.6183 21.6449 58.5267C21.355 58.4739 21.0651 58.4551 20.774 58.4126C20.4991 58.3725 20.2423 58.2633 20.0023 58.1263C19.5822 57.887 19.2261 57.5485 18.8612 57.2353L18.8164 57.1969C18.7693 57.1567 18.8307 57.0834 18.8781 57.1233L18.8889 57.1323C18.9 57.1416 18.9108 57.1511 18.9218 57.1602C19.3352 57.5107 19.7345 57.8852 20.2222 58.132C20.4948 58.27 20.7859 58.3218 21.0872 58.349C21.4144 58.3784 21.7406 58.4711 22.0693 58.4559C22.6646 58.4282 23.1815 58.2352 23.709 57.9721C24.295 57.6795 24.8124 57.3006 25.2193 56.784C25.587 56.317 25.9637 55.8566 26.217 55.3146C26.3445 55.039 26.4311 54.7464 26.474 54.4458C26.5178 54.1455 26.5659 53.8035 26.5481 53.5013C26.5299 53.1922 26.3825 52.8756 26.2656 52.5935C26.1352 52.2789 26.009 51.9861 25.8132 51.7054C25.6444 51.4633 25.4988 51.207 25.3303 50.9646C25.2453 50.8423 25.1618 50.7202 25.0713 50.6021C24.9432 50.4352 24.794 50.3643 24.6131 50.2804L24.5937 50.2714C24.5406 50.2467 24.5777 50.1677 24.6312 50.1894C24.644 50.1947 24.6556 50.1999 24.668 50.2051C24.8979 50.3016 25.0417 50.3967 25.2011 50.6017Z" fill="#B4C437"/>
<path d="M21.4623 54.9688C21.5047 55.5536 21.3457 56.1179 21.1622 56.6645C21.0417 57.0254 20.8495 57.599 20.3707 57.5268C20.1693 57.4965 19.9837 57.3645 19.8195 57.2513C19.7303 57.19 19.6438 57.1248 19.555 57.0629C19.4411 56.9834 19.336 56.8713 19.2102 56.8136L19.2085 56.8126C19.1514 56.7843 19.193 56.705 19.2516 56.7232C19.2596 56.7258 19.2672 56.7295 19.275 56.7325C19.4154 56.7867 19.5353 56.9192 19.6578 57.0045C19.8163 57.1143 19.9684 57.2309 20.1382 57.324C20.3401 57.4346 20.5517 57.4805 20.7275 57.3019C20.8899 57.1371 20.9715 56.8839 21.0463 56.6709C21.2222 56.1711 21.3474 55.6782 21.3595 55.1454C21.362 55.0416 21.3484 54.323 21.2701 54.3129C21.2104 54.3046 21.2273 54.2131 21.2872 54.2194C21.3036 54.2211 21.3192 54.2277 21.3319 54.2382C21.4639 54.3437 21.4539 54.8548 21.4623 54.9688Z" fill="#B4C437"/>
<path d="M21.9704 54.0755C22.1147 54.1282 22.2073 54.3118 22.3058 54.4198C22.4867 54.6168 22.6282 54.8453 22.7785 55.0658C22.9734 55.3499 23.2293 55.5808 23.4627 55.8321C23.8533 56.2523 24.3073 56.8408 23.8242 57.361C23.5595 57.646 23.1887 57.8586 22.8029 57.9172C22.4127 57.9765 22.0147 57.6616 21.9269 57.286C21.8704 57.0471 21.8826 56.774 21.8767 56.53C21.8695 56.2219 21.8791 55.9133 21.8899 55.6056C21.9072 55.1097 21.7663 54.6001 21.8862 54.1117C21.8887 54.1007 21.8952 54.0911 21.9043 54.0845C21.9134 54.0779 21.9245 54.0749 21.9357 54.0759C21.9468 54.0713 21.9592 54.0712 21.9704 54.0755ZM22.0003 55.3808C22.01 55.8898 21.9666 56.3956 21.998 56.9053C22.012 57.1346 22.0089 57.3563 22.1737 57.5365C22.3483 57.7271 22.529 57.8391 22.7939 57.8124C23.1912 57.7724 23.595 57.4912 23.8379 57.185C24.2236 56.6987 23.5197 56.0367 23.2125 55.7183C23.0465 55.5462 22.876 55.3786 22.7366 55.1831C22.5972 54.9875 22.4734 54.7864 22.3276 54.5976C22.2448 54.4902 22.0988 54.2579 21.967 54.1782C21.8967 54.5786 21.9918 54.9786 22.0003 55.3808Z" fill="#B4C437"/>
<path d="M25.9131 54.6619C25.8032 54.8904 25.6931 55.1007 25.5457 55.3078C25.4278 55.4736 25.3275 55.6478 25.1474 55.7526C24.9004 55.8964 24.6063 55.8023 24.3757 55.6756C24.0795 55.5136 23.8299 55.2716 23.5861 55.0413C23.2125 54.687 22.8081 54.3416 22.4914 53.9335C22.4223 53.8411 22.368 53.7385 22.3304 53.6295C22.3282 53.624 22.3271 53.6183 22.3272 53.6124C22.3273 53.6066 22.3286 53.6008 22.3309 53.5955C22.3333 53.5902 22.3367 53.5853 22.3409 53.5813C22.3452 53.5773 22.3502 53.5742 22.3556 53.5722C22.4373 53.3603 22.8579 53.3465 23.032 53.3314C23.5012 53.2895 23.9769 53.2648 24.4475 53.2626C24.8992 53.2605 25.4535 53.2295 25.835 53.5128C26.2134 53.7943 26.0832 54.3077 25.9131 54.6619ZM24.531 53.3698C24.1177 53.366 23.7084 53.4052 23.2962 53.4217C23.1248 53.4291 22.4817 53.4075 22.4344 53.6372C22.5369 53.8771 22.7163 54.0504 22.8988 54.2336C23.0786 54.4143 23.2572 54.596 23.443 54.7705C23.6423 54.9574 23.8384 55.1485 24.0483 55.3233C24.263 55.502 24.51 55.6787 24.7928 55.72C25.192 55.7783 25.405 55.3383 25.5891 55.0635C25.7132 54.8781 25.8027 54.6604 25.8922 54.4566C26 54.2093 26.0181 53.9361 25.8665 53.7017C25.6206 53.318 24.9163 53.3734 24.531 53.3698Z" fill="#B4C437"/>
<path d="M24.7016 50.7974C24.8607 50.9572 25.0369 51.0913 25.1809 51.2655C25.4502 51.5913 25.5294 52.026 25.2509 52.3679C24.9505 52.737 24.4106 52.8924 23.9646 52.972C23.394 53.0741 22.8062 53.1071 22.2288 53.1458C22.2273 53.146 22.2258 53.1461 22.2243 53.1461C22.1658 53.1499 22.1582 53.0621 22.2163 53.0557C22.2478 53.0521 22.2792 53.0486 22.311 53.0456C23.1555 52.9615 24.1088 52.987 24.8561 52.5501C25.0578 52.4321 25.2472 52.2655 25.3114 52.0333C25.3756 51.8012 25.2591 51.5569 25.1294 51.3725C25.0088 51.2013 24.8449 51.0611 24.6861 50.9265C24.5903 50.8451 24.4739 50.6508 24.3441 50.6235L24.3363 50.6216C24.271 50.6116 24.2885 50.5116 24.3535 50.521C24.3741 50.5243 24.3941 50.5303 24.4131 50.5387C24.5264 50.5878 24.6223 50.7179 24.7016 50.7974Z" fill="#B4C437"/>
<path d="M22.1795 46.8639C22.2142 46.9933 22.2351 47.1252 22.2649 47.2557C22.2946 47.3862 22.3469 47.5108 22.3957 47.6359C22.486 47.8673 22.7076 48.3625 22.4027 48.5311C22.2106 48.6372 21.9406 48.696 21.7261 48.6305C21.5831 48.5868 21.5137 48.4899 21.4644 48.3534C21.4178 48.2244 21.4675 48.1102 21.5098 47.9884C21.6039 47.7175 21.7356 47.4648 21.8406 47.199C21.9235 46.9887 21.9606 46.7609 22.0833 46.5686C22.1344 46.6386 22.1598 46.7906 22.1795 46.8639Z" fill="#FFD43B"/>
<path d="M24.057 47.5614C23.9665 47.648 23.8731 47.7414 23.7687 47.8103C23.6139 47.913 23.4084 48.0949 23.2142 47.9784C23.0766 47.8958 22.9868 47.7509 22.9142 47.6118C22.8432 47.4759 22.7829 47.3345 22.7201 47.1945C22.6615 47.064 22.6082 46.9312 22.5542 46.7987C22.4992 46.6643 22.4435 46.5354 22.4424 46.3893C22.517 46.2805 22.8451 46.4304 22.9356 46.464C23.1527 46.5445 23.3733 46.6123 23.5866 46.704C23.7855 46.7892 24.1622 46.9127 24.2072 47.1644C24.2347 47.3189 24.1658 47.4567 24.057 47.5614Z" fill="#FFD43B"/>
<path d="M24.1951 45.4719C24.2482 45.5759 24.3029 45.684 24.3283 45.7988C24.3557 45.9224 24.3632 46.0741 24.2798 46.1805C24.1964 46.287 24.0622 46.3323 23.9322 46.3498C23.4505 46.4147 22.962 46.1953 22.5063 46.0564C22.9053 45.8465 23.3067 45.6417 23.7077 45.4356C23.8326 45.3713 23.9592 45.3076 24.0834 45.2409C24.1447 45.2831 24.163 45.4093 24.1951 45.4719Z" fill="#FFD43B"/>
<path d="M19.7562 47.512C19.7753 47.5021 19.7945 47.4915 19.8136 47.4812C19.9349 47.7227 20.0462 47.9751 20.2122 48.1896C20.3069 48.3122 20.4163 48.4246 20.5501 48.5048C20.6918 48.5897 20.8379 48.6621 20.9767 48.7522C21.2185 48.9088 21.5482 48.9846 21.8353 48.9806C22.161 48.976 22.4989 48.9544 22.811 48.8545C23.1232 48.7547 23.4162 48.5817 23.6916 48.4074C23.9541 48.2409 24.2026 48.0392 24.3711 47.7739C24.536 47.5143 24.6869 47.2421 24.705 46.9303C24.7154 46.7526 24.7251 46.5644 24.7128 46.3868C24.7026 46.2386 24.6589 46.0979 24.6373 45.9517C24.6106 45.7715 24.5805 45.5907 24.5327 45.4147C24.4944 45.274 24.4406 45.1937 24.3427 45.0939C24.3556 45.086 24.3686 45.0784 24.3813 45.0705C24.4455 45.0304 24.5988 44.9239 24.6921 44.9471C24.6922 44.9509 24.6931 44.9546 24.6948 44.958C24.6964 44.9614 24.6989 44.9643 24.7018 44.9667C24.7048 44.969 24.7083 44.9706 24.7119 44.9715C24.7156 44.9723 24.7195 44.9723 24.7231 44.9715C24.726 44.9713 24.7289 44.9717 24.7316 44.9727C24.7342 44.9737 24.7367 44.9752 24.7388 44.9771C24.744 44.9837 24.7484 44.9909 24.7519 44.9986C24.7536 45.0023 24.7564 45.0055 24.7598 45.0077C24.7632 45.01 24.7672 45.0112 24.7713 45.0113C24.8165 45.0697 24.873 45.1738 24.8848 45.1953C24.9299 45.2773 24.9566 45.3649 24.9873 45.4529C25.0468 45.6235 25.1071 45.79 25.1436 45.9676C25.2168 46.3213 25.2373 46.6839 25.2044 47.0437C25.1732 47.3756 25.0193 47.7201 24.8345 47.9957C24.4124 48.6251 23.7071 49.0136 22.9872 49.1924C22.345 49.3518 21.6284 49.4549 20.9894 49.226C20.6891 49.1183 20.4143 48.9487 20.1955 48.7148C19.9331 48.4343 19.7422 48.1048 19.5637 47.7674C19.5651 47.7618 19.5646 47.7559 19.5621 47.7506C19.5002 47.621 19.6681 47.5602 19.7562 47.512Z" fill="#FFD43B"/>
<path d="M24.4654 45.3869C24.4867 45.4677 24.5036 45.5492 24.5212 45.6308C24.5561 45.7928 24.5761 45.9571 24.6112 46.119C24.652 46.3068 24.6541 46.4858 24.6537 46.677C24.6533 46.8484 24.6612 47.0444 24.6038 47.2084C24.5477 47.3689 24.4488 47.5357 24.3612 47.6818C24.274 47.8283 24.1658 47.9612 24.0402 48.0764C23.7918 48.3025 23.497 48.4596 23.2056 48.622C22.8827 48.8018 22.533 48.8863 22.1662 48.9111C21.836 48.9335 21.5264 48.9217 21.2119 48.8073C21.0383 48.7442 20.8894 48.6256 20.7262 48.5396C20.5759 48.4604 20.4359 48.3706 20.3249 48.2402C20.1256 48.0069 19.9999 47.7265 19.8612 47.4555C19.9355 47.4161 20.0099 47.3767 20.0845 47.3372L20.0852 47.3381C20.1379 47.3952 20.1681 47.476 20.21 47.5418C20.2426 47.5931 20.2733 47.6456 20.3063 47.6966C20.3669 47.7905 20.4345 47.8993 20.5323 47.9585C20.7648 48.0993 20.9883 47.8437 21.1289 47.6829C21.3421 47.439 21.5465 47.1813 21.6509 46.8691C21.6713 46.8082 21.7869 46.5456 21.7408 46.4619C21.9066 46.3743 22.0723 46.2864 22.2377 46.1983C22.3058 46.1618 22.374 46.1261 22.4423 46.0899C22.7495 46.1948 23.0615 46.3046 23.3792 46.3751C23.6275 46.4303 23.9412 46.4665 24.1763 46.3401C24.3945 46.2232 24.4474 45.9809 24.3784 45.7538C24.3414 45.6321 24.2791 45.5245 24.2312 45.4076C24.2073 45.3492 24.1858 45.2612 24.1376 45.2112C24.1915 45.1817 24.2453 45.1517 24.2976 45.1206C24.3732 45.2039 24.4351 45.2728 24.4654 45.3869ZM22.056 46.517C21.8885 46.7442 21.8511 47.0387 21.7349 47.2919C21.6628 47.449 21.5911 47.6068 21.5282 47.768C21.4781 47.8957 21.4135 48.0346 21.3908 48.1706C21.3551 48.3842 21.4932 48.6338 21.7082 48.687C21.9208 48.7401 22.1589 48.7101 22.3576 48.6196C22.7204 48.4545 22.6124 48.0515 22.5009 47.7493C22.4343 47.5686 22.3516 47.3936 22.3121 47.2043C22.2815 47.0579 22.2575 46.9086 22.2068 46.7674C22.1791 46.6901 22.1708 46.575 22.1074 46.5165C22.1024 46.5117 22.0957 46.5091 22.0888 46.5092C22.0833 46.5063 22.077 46.5056 22.071 46.507C22.0649 46.5084 22.0596 46.512 22.056 46.517ZM23.5662 46.6306C23.3219 46.5299 23.07 46.4399 22.8179 46.3602C22.7244 46.3307 22.5038 46.2469 22.4154 46.3388C22.4121 46.3386 22.4088 46.3392 22.4058 46.3403C22.4027 46.3415 22.3999 46.3432 22.3975 46.3455C22.3952 46.3477 22.3933 46.3505 22.3919 46.3535C22.3906 46.3565 22.3899 46.3597 22.3899 46.363C22.3858 46.4276 22.3918 46.4925 22.4076 46.5553C22.4835 46.8351 22.6183 47.1017 22.7353 47.366C22.8115 47.538 22.8888 47.7174 23.0073 47.8654C23.0998 47.9809 23.2319 48.0932 23.3905 48.0721C23.5065 48.0567 23.5961 47.9882 23.693 47.9277C23.8142 47.8523 23.9169 47.7671 24.0231 47.6725C24.1878 47.5257 24.3662 47.2879 24.2306 47.0603C24.0946 46.8309 23.8007 46.7271 23.5662 46.6306Z" fill="#FFFAD6"/>
<path d="M21.5596 46.9385C21.4382 47.212 21.2672 47.4403 21.0675 47.6612C20.9826 47.756 20.8855 47.8691 20.7659 47.9193C20.6359 47.9738 20.5364 47.9043 20.4558 47.8033C20.388 47.7184 20.3343 47.6247 20.276 47.5339C20.2309 47.4634 20.1974 47.3688 20.1364 47.3102C20.3663 47.191 20.5955 47.0712 20.8236 46.9485C21.1124 46.793 21.4028 46.6403 21.693 46.4873C21.7317 46.51 21.5834 46.8853 21.5596 46.9385Z" fill="#FFD43B"/>
<path d="M24.7114 44.9198C24.7052 44.9211 24.6998 44.9246 24.6961 44.9297C24.6923 44.9348 24.6906 44.9411 24.6913 44.9474C24.598 44.9241 24.4447 45.0307 24.3805 45.0708C24.3678 45.0787 24.3548 45.0863 24.3419 45.0942C24.3366 45.0888 24.3317 45.0836 24.3262 45.0781C24.3032 45.0553 24.2669 45.0882 24.289 45.1125L24.2971 45.1213C24.2445 45.1525 24.191 45.1826 24.1372 45.212C24.1292 45.2035 24.1201 45.1961 24.1102 45.1899C24.0785 45.171 24.0478 45.219 24.0795 45.2383L24.0834 45.2409C23.9592 45.3076 23.8326 45.3713 23.7077 45.4356C23.3067 45.6417 22.9053 45.8465 22.5063 46.0564C22.4892 46.0511 22.4719 46.0461 22.4548 46.0412C22.4233 46.0319 22.4082 46.0791 22.4394 46.0897C22.4402 46.0901 22.441 46.0903 22.4418 46.0906C22.3736 46.1266 22.3053 46.1623 22.2373 46.199C22.0721 46.2874 21.9064 46.3753 21.7404 46.4625C21.7361 46.4543 21.7295 46.4476 21.7213 46.4431C21.6916 46.4269 21.6631 46.4703 21.6923 46.4879C21.4021 46.6409 21.1117 46.7936 20.8229 46.9491C20.5948 47.0717 20.3655 47.1916 20.1357 47.3108C20.1323 47.3075 20.1291 47.304 20.1255 47.3009C20.0992 47.2788 20.0604 47.3109 20.0839 47.3379C20.0092 47.3767 19.9347 47.4161 19.8606 47.4562C19.8569 47.4491 19.8533 47.4418 19.8495 47.4347L19.8459 47.4277C19.83 47.3968 19.7823 47.4214 19.798 47.4524L19.813 47.482C19.7938 47.4923 19.7746 47.5025 19.7556 47.5128C19.6675 47.561 19.4996 47.6218 19.5611 47.7517C19.5636 47.757 19.5642 47.7629 19.5628 47.7685L19.5554 47.7547C19.5435 47.7322 19.5155 47.739 19.5066 47.7565C19.4523 47.6203 19.581 47.5449 19.6904 47.4832C19.9603 47.331 20.2381 47.1936 20.5121 47.0485C21.0782 46.7484 21.6441 46.4478 22.2097 46.1465C22.7781 45.8426 23.3557 45.5568 23.9258 45.256C24.1259 45.1504 24.3176 45.0186 24.5239 44.9256C24.6041 44.8896 24.704 44.8677 24.7628 44.9246C24.7466 44.9174 24.7286 44.9157 24.7114 44.9198Z" fill="#FFD43B"/>
<path d="M25.1524 47.502C25.0409 47.7852 24.891 48.0571 24.6856 48.2824C24.455 48.5353 24.1858 48.7501 23.8881 48.9189C23.5736 49.0956 23.222 49.2004 22.8725 49.2821C22.2643 49.4234 21.6092 49.4889 21.0049 49.2943C20.2727 49.0585 19.8409 48.4352 19.5073 47.779C19.5053 47.7754 19.5043 47.7713 19.5042 47.7672C19.5042 47.7631 19.5052 47.759 19.5071 47.7554C19.5156 47.7382 19.544 47.7315 19.5559 47.7535L19.5633 47.7673C19.7422 48.1047 19.9327 48.4343 20.1951 48.7148C20.4139 48.9486 20.6887 49.1183 20.989 49.2259C21.628 49.4548 22.3446 49.3517 22.9868 49.1923C23.7066 49.0136 24.4122 48.625 24.8341 47.9957C25.0189 47.72 25.1728 47.3755 25.204 47.0436C25.2369 46.6839 25.2164 46.3212 25.1432 45.9675C25.1067 45.79 25.0463 45.6232 24.9869 45.4528C24.9561 45.3649 24.9295 45.2772 24.8844 45.1953C24.8726 45.1737 24.8161 45.0696 24.7708 45.0113C24.7616 44.9985 24.7507 44.987 24.7384 44.977C24.7363 44.9751 24.7338 44.9736 24.7311 44.9727C24.7284 44.9717 24.7256 44.9713 24.7227 44.9714C24.719 44.9722 24.7152 44.9722 24.7115 44.9714C24.7078 44.9706 24.7044 44.9689 24.7014 44.9666C24.6984 44.9643 24.696 44.9613 24.6943 44.9579C24.6927 44.9545 24.6918 44.9508 24.6917 44.947C24.691 44.9408 24.6927 44.9345 24.6965 44.9294C24.7002 44.9243 24.7056 44.9207 24.7118 44.9194C24.7289 44.915 24.747 44.9163 24.7633 44.9231C24.8249 44.949 24.8567 45.0497 24.8922 45.1019C24.9853 45.2392 25.034 45.3988 25.0887 45.5538C25.2015 45.8746 25.2598 46.2079 25.2761 46.5469C25.2922 46.8729 25.2727 47.1968 25.1524 47.502Z" fill="#FFD43B"/>
<path d="M24.5325 45.4151C24.5803 45.5911 24.61 45.7719 24.6371 45.9521C24.6587 46.0978 24.7028 46.239 24.7126 46.3871C24.725 46.5648 24.7152 46.7533 24.7048 46.9307C24.6867 47.2427 24.5358 47.5147 24.3709 47.7743C24.2024 48.0396 23.9539 48.2413 23.6914 48.4078C23.4164 48.582 23.1222 48.7556 22.8108 48.8549C22.4995 48.9543 22.1608 48.9763 21.8351 48.981C21.548 48.9849 21.2183 48.9092 20.9765 48.7525C20.8377 48.6625 20.6916 48.5901 20.5499 48.5051C20.4162 48.4249 20.3067 48.3128 20.212 48.19C20.046 47.9752 19.9347 47.7228 19.8134 47.4816L19.7984 47.452C19.7827 47.421 19.8304 47.3963 19.8463 47.4272L19.85 47.4342C19.8537 47.4414 19.8575 47.4484 19.8612 47.4555C19.9999 47.7265 20.1256 48.0069 20.3249 48.2402C20.4359 48.3706 20.5759 48.4604 20.7262 48.5396C20.8894 48.6256 21.0383 48.7442 21.2119 48.8073C21.5264 48.9217 21.836 48.9335 22.1662 48.9111C22.533 48.8863 22.8827 48.8018 23.2056 48.622C23.497 48.4596 23.7918 48.3025 24.0402 48.0764C24.1658 47.9612 24.274 47.8283 24.3612 47.6818C24.4488 47.5357 24.5477 47.3689 24.6038 47.2084C24.6612 47.0444 24.6533 46.8484 24.6537 46.677C24.6541 46.4858 24.652 46.3068 24.6112 46.119C24.5761 45.9571 24.5561 45.7928 24.5212 45.6308C24.5036 45.5492 24.4867 45.4677 24.4654 45.3869C24.4351 45.2728 24.3728 45.2039 24.2971 45.1213L24.289 45.1125C24.2669 45.0882 24.3032 45.0553 24.3262 45.0781C24.3317 45.0836 24.3366 45.0888 24.3419 45.0942C24.4402 45.1939 24.4943 45.2744 24.5325 45.4151Z" fill="#FFD43B"/>
<path d="M21.6509 46.8691C21.5465 47.1813 21.3421 47.439 21.1289 47.6829C20.9883 47.8437 20.7648 48.0993 20.5323 47.9585C20.4345 47.8993 20.3669 47.7905 20.3063 47.6966C20.2733 47.6456 20.2426 47.5931 20.21 47.5418C20.1681 47.476 20.1379 47.3952 20.0852 47.3381L20.0845 47.3372C20.0611 47.3102 20.0997 47.2785 20.1261 47.3005C20.1297 47.3036 20.133 47.307 20.1364 47.3102C20.1974 47.3688 20.2309 47.4634 20.276 47.5339C20.3343 47.6247 20.388 47.7184 20.4558 47.8033C20.5364 47.9043 20.6359 47.9738 20.7659 47.9193C20.8857 47.869 20.9827 47.7554 21.0675 47.6612C21.2667 47.4403 21.4382 47.212 21.5596 46.9385C21.5834 46.8853 21.7315 46.5102 21.6931 46.488C21.664 46.4708 21.6925 46.4271 21.7222 46.4433C21.7303 46.4477 21.7369 46.4545 21.7412 46.4627C21.7869 46.5459 21.6713 46.8082 21.6509 46.8691Z" fill="#FFD43B"/>
<path d="M22.1074 46.5165C22.1708 46.575 22.1791 46.6901 22.2068 46.7674C22.2579 46.9086 22.2818 47.0576 22.3121 47.2043C22.3516 47.3936 22.4343 47.5686 22.5009 47.7493C22.6124 48.0515 22.7204 48.4545 22.3576 48.6196C22.1589 48.7101 21.9208 48.7401 21.7082 48.687C21.4932 48.6338 21.3551 48.3842 21.3908 48.1706C21.4132 48.0346 21.4785 47.8957 21.5282 47.768C21.5911 47.6068 21.6628 47.449 21.7349 47.2919C21.8511 47.0387 21.8885 46.7442 22.056 46.517C22.0596 46.512 22.0649 46.5084 22.071 46.507C22.0771 46.5056 22.0838 46.5061 22.0893 46.5091C22.0961 46.5091 22.1025 46.5118 22.1074 46.5165ZM21.8406 47.199C21.7356 47.4648 21.6039 47.7175 21.5098 47.9884C21.4675 48.1102 21.4178 48.2244 21.4644 48.3534C21.5137 48.4899 21.5831 48.5868 21.7261 48.6305C21.9406 48.696 22.2106 48.6372 22.4027 48.5311C22.7076 48.3625 22.486 47.8673 22.3957 47.6359C22.3469 47.5108 22.2948 47.3872 22.2649 47.2557C22.2349 47.1242 22.2142 46.9933 22.1795 46.8639C22.1598 46.7906 22.1344 46.6386 22.0833 46.5686C21.9606 46.7609 21.9235 46.9887 21.8406 47.199Z" fill="#FFD43B"/>
<path d="M24.0235 47.6727C23.9172 47.7673 23.8146 47.8525 23.6935 47.9279C23.5966 47.9883 23.507 48.0569 23.391 48.0723C23.2319 48.0934 23.0998 47.981 23.0078 47.8656C22.8893 47.7176 22.8123 47.5382 22.7358 47.3662C22.6188 47.1019 22.484 46.8354 22.408 46.5555C22.3922 46.4927 22.3863 46.4278 22.3904 46.3632C22.3904 46.3599 22.3911 46.3567 22.3924 46.3537C22.3937 46.3507 22.3956 46.3479 22.398 46.3457C22.4003 46.3434 22.4032 46.3417 22.4062 46.3405C22.4093 46.3394 22.4125 46.3388 22.4158 46.339C22.5039 46.2468 22.7248 46.3306 22.8183 46.3604C23.0705 46.4401 23.3223 46.5302 23.5666 46.6308C23.8011 46.7273 24.095 46.8311 24.2315 47.0604C24.3667 47.2881 24.1882 47.5259 24.0235 47.6727ZM23.5867 46.7044C23.3734 46.6131 23.1528 46.5449 22.9357 46.4643C22.8453 46.4311 22.5167 46.2809 22.4425 46.3897C22.4438 46.5361 22.4993 46.6647 22.5543 46.7991C22.6083 46.9316 22.6616 47.0644 22.7202 47.1949C22.783 47.3349 22.8433 47.4763 22.9143 47.6122C22.9869 47.7512 23.0767 47.8962 23.2143 47.9787C23.4085 48.0952 23.614 47.9133 23.7688 47.8107C23.8732 47.7415 23.9666 47.6481 24.0571 47.5618C24.1664 47.457 24.2348 47.3193 24.207 47.1651C24.1625 46.9131 23.7856 46.7896 23.5867 46.7044Z" fill="#FFD43B"/>
<path d="M24.2313 45.4084C24.2792 45.5256 24.3415 45.6332 24.3785 45.7546C24.4476 45.9816 24.3946 46.224 24.1764 46.3409C23.941 46.4672 23.6276 46.431 23.3793 46.3758C23.0616 46.3054 22.7499 46.1954 22.4424 46.0906C22.4415 46.0904 22.4407 46.0901 22.44 46.0898C22.4088 46.0791 22.4239 46.032 22.4553 46.0412C22.4725 46.0462 22.4895 46.0513 22.5066 46.0566C22.9624 46.1956 23.4508 46.4148 23.9325 46.3501C24.0625 46.3325 24.1968 46.2871 24.2802 46.1808C24.3635 46.0744 24.3561 45.9226 24.3287 45.799C24.3032 45.6842 24.2486 45.5761 24.1954 45.4721C24.1634 45.4092 24.1451 45.2833 24.0837 45.2411L24.08 45.2384C24.0484 45.219 24.0791 45.171 24.1107 45.1899C24.1206 45.1961 24.1297 45.2035 24.1377 45.212C24.1859 45.2619 24.2074 45.35 24.2313 45.4084Z" fill="#FFD43B"/>
<path d="M11.1675 51.1037C11.6046 51.1164 12.0217 51.0792 12.4515 51.0004C12.7179 50.9516 13.5048 50.8122 13.2114 50.3832C13.2081 50.3783 13.2058 50.3728 13.2046 50.367C13.1992 50.3593 13.1934 50.3519 13.187 50.345C13.1149 50.2659 13.04 50.1905 12.9701 50.1095C12.8293 49.9441 12.6791 49.7869 12.5205 49.6385C12.2545 49.3938 11.9827 49.1521 11.7123 48.9123C11.5836 48.7982 11.4181 48.6684 11.2334 48.6955C11.1396 48.7082 11.0496 48.7403 10.969 48.7897C10.8883 48.8392 10.8189 48.9049 10.7652 48.9827C10.5846 49.2437 10.4919 49.5642 10.3778 49.8579C10.2681 50.1402 10.0177 50.7053 10.3289 50.9466C10.5568 51.1233 10.8939 51.0954 11.1675 51.1037Z" fill="#B4C437"/>
<path d="M12.5175 48.264C12.694 48.6277 12.9412 48.9581 13.148 49.3057C13.302 49.5647 13.4799 50.0006 13.7945 50.0806C13.8004 50.082 13.8058 50.0849 13.8103 50.0889C13.8148 50.093 13.8182 50.098 13.8203 50.1037C13.9458 50.0927 14.0648 49.9512 14.1074 49.8329C14.1629 49.6775 14.1954 49.5158 14.2216 49.3527C14.2773 49.0048 14.3111 48.6556 14.3428 48.3054C14.3675 48.0309 14.4258 47.7366 14.3926 47.4616C14.371 47.2837 14.3035 47.1057 14.0846 47.1531C13.9469 47.1827 13.812 47.2097 13.6723 47.2298C13.3009 47.2826 12.8905 47.3401 12.5586 47.5259C12.3639 47.635 12.2623 47.7525 12.3657 47.9732C12.412 48.0717 12.4696 48.1653 12.5175 48.264Z" fill="#B4C437"/>
<path d="M14.6951 50.4534C14.8256 50.5634 14.9605 50.4788 15.1093 50.3852C15.2557 50.2941 15.4097 50.2157 15.5695 50.1508C15.9435 49.9944 16.3088 49.8177 16.6637 49.6217C16.9668 49.4552 17.304 49.1504 17.4027 48.8038C17.469 48.5708 17.3248 48.3726 17.1872 48.1978C17.0625 48.0397 16.9279 47.8729 16.7602 47.7592C16.4862 47.574 16.136 47.2265 15.7719 47.2902C15.5328 47.3322 15.4469 47.5404 15.3506 47.738C15.2672 47.9058 15.1924 48.0778 15.1263 48.2531C14.9942 48.6119 14.8655 48.9842 14.7608 49.3521C14.7074 49.5394 14.6839 49.7239 14.6599 49.9162C14.6366 50.1016 14.6173 50.2829 14.6951 50.4534Z" fill="#B4C437"/>
<path d="M14.4257 54.9378C14.4888 54.6035 14.4892 54.2539 14.4723 53.9154C14.448 53.4262 14.4362 52.6382 13.925 52.3812C13.814 52.4405 13.7139 52.608 13.6382 52.7049C13.5369 52.8364 13.4425 52.973 13.3553 53.1142C13.1669 53.4151 12.9872 53.6915 12.8563 54.0241C12.7951 54.179 12.7223 54.3306 12.6701 54.4888C12.6159 54.6529 12.5334 54.9086 12.6188 55.0771C12.6974 55.2324 12.8895 55.2971 13.0457 55.3481C13.2101 55.4015 13.3826 55.4434 13.5557 55.448C13.737 55.453 13.9175 55.4223 14.0869 55.3576C14.2847 55.2837 14.3872 55.1412 14.4257 54.9378Z" fill="#B4C437"/>
<path d="M12.5719 53.0821C12.7148 52.9748 12.8298 52.8444 12.958 52.7212C13.0744 52.6097 13.1993 52.4959 13.2846 52.3576C13.3826 52.1988 13.4495 51.9465 13.3307 51.7796C13.1915 51.6732 13.0555 51.6145 12.863 51.6087C12.6554 51.6026 12.4517 51.6282 12.2469 51.6579C11.8258 51.7193 11.414 51.7597 11.0012 51.8674C10.6319 51.9639 10.1161 52.0338 10.1081 52.5142C10.1013 52.9229 10.2513 53.2771 10.4076 53.6466C10.5324 53.9414 10.7388 54.2239 11.1017 54.1488C11.5064 54.0653 11.8477 53.76 12.1484 53.4933C12.2957 53.3623 12.4134 53.2012 12.5719 53.0821Z" fill="#B4C437"/>
<path d="M17.0134 50.3267C16.6664 50.4311 16.3248 50.5529 15.99 50.6916C15.7931 50.7723 15.2708 50.9133 15.3619 51.219C15.365 51.2293 15.3641 51.2405 15.3596 51.2503C15.355 51.2601 15.3471 51.2679 15.3372 51.2722C15.383 51.3773 15.5334 51.4726 15.6022 51.4973C15.751 51.5505 15.9033 51.5927 16.0519 51.6473C16.4145 51.7805 16.768 51.9391 17.1334 52.0654C17.3083 52.1262 17.4872 52.1887 17.6722 52.2088C17.8322 52.2265 18.1033 52.245 18.237 52.1292C18.3515 52.0301 18.3647 51.8221 18.3744 51.6802C18.3872 51.5011 18.3722 51.3211 18.3301 51.1465C18.2649 50.8727 18.1373 50.3577 17.8378 50.2453C17.5744 50.147 17.2691 50.2509 17.0134 50.3267Z" fill="#B4C437"/>
<path d="M15.2529 55.9453C15.5281 55.8815 15.8071 55.8207 16.0648 55.7023C16.3225 55.584 16.5612 55.4342 16.819 55.3208C17.0626 55.2138 17.2731 55.1034 17.4678 54.9189C17.681 54.7187 17.8697 54.4939 18.03 54.2494C18.1567 54.0544 18.2689 53.8593 18.4209 53.682C18.5831 53.4931 18.7571 53.3044 18.8483 53.0676C18.9383 52.8336 19.0309 52.5974 19.087 52.3528C19.2043 51.8411 19.1364 51.2962 19.0493 50.7833C18.9503 50.1961 18.7882 49.6213 18.5659 49.0689C18.3547 48.5429 18.1764 47.9491 17.8097 47.5064C17.6404 47.3018 17.4594 47.1037 17.2496 46.9401C17.0463 46.7822 16.8246 46.6668 16.5989 46.5453C16.3731 46.4237 16.1458 46.2933 15.8995 46.2191C15.6275 46.137 15.3425 46.1125 15.0595 46.1208C14.8106 46.1281 14.5623 46.1652 14.3131 46.1578C14.0575 46.1503 13.7903 46.1181 13.539 46.1819C13.2572 46.2534 12.9756 46.3214 12.6872 46.3614C12.5661 46.3782 12.4394 46.3973 12.3089 46.4456C12.0986 46.5248 11.8868 46.5963 11.6867 46.7031C11.4249 46.8432 11.1893 47.0137 10.9601 47.2018C10.521 47.5619 10.0962 47.9633 9.75922 48.4228C9.43725 48.8619 9.24904 49.3737 9.14521 49.9059C9.04914 50.3961 8.97993 50.9292 9.03114 51.4282C9.08552 51.9597 9.26373 52.4638 9.46741 52.9546C9.68397 53.476 9.93043 53.9878 10.2619 54.4478C10.5731 54.8789 10.9293 55.2582 11.402 55.5125C11.8347 55.7454 12.2951 55.8806 12.7784 55.9593C13.3273 56.0487 13.8873 56.1912 14.4456 56.1119C14.7184 56.0727 14.9845 56.0073 15.2529 55.9453ZM17.562 53.5239C17.6056 53.6605 17.6319 53.8198 17.5724 53.9574C17.5079 54.1065 17.3886 54.2029 17.2725 54.3111C17.0098 54.5563 16.7211 54.9334 16.3341 54.9699C16.0329 54.9984 15.8042 54.8082 15.6511 54.5637C15.4215 54.1968 15.2204 53.7898 15.0836 53.38C15.0065 53.1496 14.8958 52.9328 14.8188 52.7027C14.7848 52.6015 14.7397 52.4864 14.7371 52.3786C14.7347 52.278 14.7461 52.1786 14.7425 52.0777C14.7417 52.0694 14.7435 52.0611 14.7478 52.0539C14.752 52.0467 14.7584 52.041 14.766 52.0377L14.8089 52.0205C14.9965 51.8229 15.387 51.959 15.602 52.0301C16.0257 52.1716 16.4235 52.3746 16.7972 52.6185C17.1427 52.8432 17.433 53.1206 17.562 53.5239ZM18.4384 51.2283C18.4792 51.4526 18.4771 51.6826 18.4323 51.9062C18.4078 52.0329 18.3755 52.1462 18.2618 52.2193C17.9342 52.4324 17.4275 52.265 17.0985 52.1492C16.6153 51.9785 16.1477 51.7708 15.6603 51.6111C15.5323 51.5691 15.3739 51.5136 15.31 51.3831C15.2726 51.3066 15.2315 51.2047 15.2709 51.123C15.2955 50.8851 15.6147 50.7441 15.8123 50.6672C16.2362 50.5018 16.6542 50.3352 17.0935 50.2117C17.3414 50.1422 17.7556 50.0177 17.9755 50.2266C18.2435 50.4806 18.3737 50.873 18.4384 51.2283ZM15.1628 47.9298C15.3086 47.6048 15.4696 47.1353 15.9121 47.2019C16.0845 47.229 16.2488 47.2933 16.3938 47.3904C16.5836 47.516 16.7892 47.6487 16.9586 47.8006C17.1251 47.9497 17.3014 48.1549 17.4097 48.3509C17.4918 48.5001 17.5483 48.669 17.4869 48.8364C17.3594 49.1836 17.0705 49.4985 16.7483 49.675C16.5099 49.8053 16.2687 49.9499 16.0195 50.0582C15.7853 50.1599 15.5395 50.242 15.3146 50.364C15.1089 50.4756 14.8834 50.6703 14.6888 50.5538C14.6825 50.5552 14.6759 50.5546 14.6699 50.5522C14.6639 50.5498 14.6588 50.5456 14.6552 50.5403C14.6506 50.5333 14.6466 50.5262 14.6422 50.5191C14.6146 50.4939 14.5901 50.4654 14.5696 50.4342C14.5634 50.4251 14.561 50.4139 14.563 50.4031C14.565 50.3923 14.5712 50.3827 14.5802 50.3764C14.5424 50.2441 14.5496 50.1036 14.567 49.9604C14.5937 49.7424 14.6159 49.5289 14.6797 49.3176C14.8195 48.8547 14.9645 48.3723 15.1628 47.9298ZM12.2449 47.685C12.3178 47.5351 12.4881 47.45 12.6356 47.3891C13.0719 47.209 13.533 47.1973 13.9843 47.0852C14.1219 47.051 14.2541 47.0323 14.364 47.1372C14.4539 47.2234 14.4783 47.376 14.4835 47.4936C14.5011 47.8717 14.4382 48.2631 14.4026 48.6388C14.3796 48.8818 14.3496 49.1238 14.3105 49.3644C14.2804 49.5469 14.2515 49.7434 14.1706 49.912C14.114 50.0289 14.0446 50.1425 13.9073 50.1694C13.7893 50.1925 13.6755 50.1761 13.5974 50.0821C13.5375 50.042 13.4893 49.9856 13.4348 49.9108C13.2787 49.699 13.1455 49.4736 13.0102 49.2478C12.7706 48.8475 12.4978 48.469 12.2989 48.0452C12.2499 47.9427 12.1902 47.7984 12.2449 47.685ZM10.165 50.1916C10.2311 49.9704 10.3218 49.7589 10.4031 49.5432C10.4712 49.3636 10.5341 49.1746 10.6373 49.0105C10.8033 48.7462 11.1332 48.5018 11.4614 48.636C11.6248 48.7033 11.7535 48.82 11.8772 48.9432C12.0524 49.1175 12.2446 49.2701 12.4294 49.4337C12.6149 49.5962 12.7898 49.7702 12.9534 49.9547C13.0408 50.055 13.1303 50.1532 13.2187 50.2523C13.2388 50.2752 13.2563 50.3002 13.271 50.3268C13.273 50.3285 13.2747 50.3304 13.2763 50.3324C13.3168 50.3833 13.3465 50.4418 13.3636 50.5046C13.3699 50.5148 13.3765 50.525 13.3836 50.5348C13.3867 50.5391 13.3889 50.5439 13.39 50.549C13.3911 50.5542 13.391 50.5595 13.3899 50.5646C13.3887 50.5698 13.3865 50.5746 13.3833 50.5788C13.3801 50.5829 13.376 50.5864 13.3714 50.5889C13.3365 51.1076 11.727 51.1985 11.4318 51.1984C11.212 51.1981 10.9879 51.1962 10.7687 51.177C10.6247 51.1646 10.4646 51.1447 10.3401 51.0643C10.0386 50.8702 10.0744 50.4946 10.165 50.1916ZM10.9828 54.2509C10.6922 54.257 10.4767 54.0321 10.3673 53.7827C10.1844 53.3662 9.97847 52.9287 10.02 52.4613C10.0543 52.071 10.3891 51.9323 10.7263 51.8458C11.0109 51.7728 11.2955 51.6877 11.587 51.6459C11.8434 51.6092 12.1036 51.584 12.3615 51.5515C12.5848 51.5233 12.816 51.5004 13.0395 51.5411C13.1787 51.5666 13.2755 51.6232 13.3693 51.707C13.3793 51.7088 13.3882 51.7144 13.3941 51.7225C13.4 51.7301 13.4053 51.7378 13.4107 51.7458C13.4252 51.7599 13.4397 51.7747 13.4545 51.7901C13.4595 51.7954 13.4625 51.8024 13.4628 51.8097C13.4631 51.817 13.4607 51.8242 13.4561 51.83C13.5723 52.1152 13.3523 52.4485 13.161 52.6484C13.0087 52.808 12.8531 52.9853 12.6763 53.1181C12.4841 53.2626 12.3385 53.4524 12.1553 53.6066C11.824 53.8849 11.4427 54.241 10.9828 54.2509ZM13.6034 55.5393C13.4019 55.535 13.2023 55.4988 13.0121 55.4319C12.8745 55.3828 12.6784 55.327 12.5884 55.1996C12.3871 54.9152 12.5597 54.51 12.6782 54.2271C12.7674 54.0131 12.8403 53.7901 12.9499 53.5854C13.038 53.4207 13.1533 53.272 13.2529 53.1144C13.3752 52.9207 13.5016 52.7317 13.6539 52.5594C13.7315 52.4715 13.7909 52.3637 13.9005 52.3136C13.9051 52.3052 13.9128 52.2989 13.922 52.2962C13.9312 52.2934 13.9411 52.2945 13.9495 52.299C14.5584 52.5881 14.5613 53.5326 14.5695 54.0991C14.5746 54.4422 14.6051 54.8876 14.4303 55.1983C14.2797 55.4639 13.8878 55.546 13.6032 55.5388L13.6034 55.5393Z" fill="#FFFAD6"/>
<path d="M15.8073 52.1984C15.5795 52.1106 14.9777 51.8363 14.8257 52.1367L14.8243 52.139C14.8112 52.2158 14.8213 52.3476 14.8245 52.3668C14.8397 52.4694 14.8657 52.5702 14.9021 52.6673C14.9706 52.8526 15.0601 53.0298 15.125 53.2163C15.2496 53.5787 15.4046 53.9298 15.5884 54.266C15.7175 54.5014 15.8885 54.8514 16.1967 54.8783C16.5583 54.9099 16.836 54.6065 17.0726 54.3754C17.1854 54.2654 17.3301 54.1648 17.4224 54.0371C17.5392 53.8757 17.5334 53.6901 17.4615 53.5111C17.3242 53.1678 17.1 52.922 16.792 52.7211C16.4809 52.5178 16.155 52.3324 15.8073 52.1984Z" fill="#B4C437"/>
<path d="M15.1996 56.0457C15.4609 55.9847 15.7266 55.9301 15.9772 55.8328C16.221 55.7387 16.4487 55.6046 16.6797 55.4838C16.9023 55.3667 17.1396 55.2914 17.3435 55.1399C17.7494 54.8384 18.0205 54.4108 18.288 53.9926C18.4051 53.8092 18.563 53.6534 18.6985 53.484C18.8442 53.302 18.9278 53.1017 19.0085 52.8858C19.0872 52.6783 19.1501 52.4651 19.1965 52.2481C19.2467 52.008 19.2288 51.7784 19.2189 51.5363C19.197 51.0009 19.0983 50.4632 18.9572 49.9464C18.8486 49.5484 18.6996 49.1622 18.5409 48.7818C18.3935 48.4283 18.2723 48.0571 18.0707 47.7291C17.889 47.4331 17.6503 47.1714 17.3894 46.9433C17.1158 46.7039 16.7901 46.5495 16.4723 46.3795C16.1617 46.2132 15.8503 46.0919 15.4988 46.0506C15.1053 46.0045 14.7172 46.0779 14.3242 46.0719C14.1595 46.0694 13.9952 46.0571 13.8303 46.0598C13.6378 46.0631 13.4567 46.1147 13.2711 46.16C13.0748 46.2085 12.8762 46.247 12.676 46.2754C12.5998 46.2861 12.5047 46.3062 12.4296 46.3207C12.1684 46.3946 11.8169 46.5422 11.7089 46.5945C11.4781 46.7066 11.2637 46.8493 11.0621 47.0073C10.6476 47.3308 10.2644 47.6925 9.91748 48.0876C9.26857 48.8296 9.02118 49.7512 8.94978 50.7183C8.91429 51.1983 8.94836 51.6537 9.07555 52.119C9.21355 52.6245 9.42626 53.1184 9.65454 53.589C10.0813 54.4685 10.6717 55.2649 11.5695 55.6949C11.993 55.8978 12.4412 55.9905 12.9006 56.0674C13.4183 56.1542 13.9298 56.2634 14.4563 56.1977C14.7078 56.1659 14.9535 56.103 15.1996 56.0457ZM12.7777 55.959C12.2944 55.8802 11.8341 55.745 11.4014 55.5121C10.9286 55.2577 10.5726 54.8788 10.2613 54.4474C9.93 53.9879 9.68353 53.4762 9.46676 52.9542C9.26308 52.4635 9.08486 51.9593 9.03049 51.4279C8.97928 50.9288 9.04977 50.3952 9.14456 49.9055C9.24839 49.3733 9.4367 48.8618 9.75857 48.4224C10.0955 47.963 10.5203 47.5616 10.9594 47.2014C11.1886 47.0134 11.4241 46.8426 11.6861 46.7027C11.8861 46.5959 12.098 46.5245 12.3082 46.4452C12.4389 46.3968 12.5654 46.3778 12.6866 46.3611C12.9749 46.3211 13.2566 46.253 13.5383 46.1815C13.7897 46.1178 14.0568 46.1499 14.3124 46.1575C14.5616 46.1649 14.81 46.1278 15.0589 46.1205C15.3422 46.112 15.627 46.137 15.8988 46.2187C16.1453 46.2929 16.3727 46.4235 16.5982 46.5449C16.8237 46.6663 17.0451 46.7821 17.249 46.9397C17.4592 47.1031 17.6397 47.3015 17.809 47.5061C18.1758 47.948 18.354 48.5425 18.5653 49.0685C18.7876 49.6209 18.9497 50.1957 19.0487 50.7829C19.1354 51.2952 19.2035 51.84 19.0863 52.3524C19.0302 52.597 18.9378 52.8335 18.8477 53.0673C18.7564 53.304 18.5828 53.4921 18.4202 53.6816C18.2682 53.859 18.156 54.0541 18.0294 54.249C17.869 54.4936 17.6803 54.7183 17.4672 54.9186C17.2728 55.1029 17.0625 55.2132 16.8184 55.3204C16.5606 55.4338 16.3202 55.5841 16.0641 55.702C15.808 55.8198 15.5273 55.8812 15.2523 55.9449C14.9839 56.007 14.7178 56.0725 14.4447 56.1112C13.8866 56.1908 13.3269 56.0483 12.7777 55.959Z" fill="#B4C437"/>
<path d="M13.0093 49.2478C13.1443 49.4733 13.2777 49.699 13.4339 49.9108C13.4889 49.9853 13.5371 50.0418 13.5964 50.0821C13.6744 50.1757 13.7883 50.1925 13.9063 50.1694C14.0434 50.142 14.1137 50.0287 14.1697 49.912C14.2499 49.7436 14.2795 49.5469 14.3096 49.3644C14.3493 49.1235 14.3789 48.8823 14.4016 48.6388C14.4373 48.2631 14.5001 47.8716 14.4825 47.4936C14.4769 47.3752 14.4528 47.2234 14.363 47.1372C14.2532 47.0323 14.1208 47.0508 13.9834 47.0852C13.5322 47.1973 13.0709 47.209 12.6347 47.3891C12.4871 47.45 12.3164 47.5353 12.244 47.685C12.1893 47.7985 12.2493 47.9425 12.2977 48.0456C12.4974 48.4693 12.7702 48.8478 13.0093 49.2478ZM12.5582 47.5246C12.8898 47.3389 13.3002 47.2814 13.6718 47.2285C13.8115 47.2084 13.9465 47.1814 14.0841 47.1518C14.3036 47.1049 14.3707 47.2827 14.3921 47.4603C14.4253 47.7353 14.367 48.0295 14.3423 48.304C14.3109 48.6548 14.2771 49.0041 14.2211 49.3514C14.1949 49.5145 14.1631 49.6759 14.1069 49.8316C14.0643 49.9499 13.9453 50.0914 13.8198 50.1024C13.8178 50.0967 13.8143 50.0916 13.8098 50.0876C13.8054 50.0836 13.7999 50.0807 13.7941 50.0793C13.4795 49.9992 13.3016 49.5634 13.1475 49.3044C12.9411 48.9567 12.6937 48.6268 12.5171 48.2627C12.4691 48.164 12.4116 48.0704 12.3652 47.9711C12.2624 47.7515 12.3641 47.6341 12.5588 47.525L12.5582 47.5246Z" fill="#B4C437"/>
<path d="M10.7676 51.1774C10.987 51.1965 11.211 51.1985 11.4307 51.1987C11.726 51.1988 13.3356 51.1084 13.3703 50.5892C13.375 50.5867 13.379 50.5833 13.3822 50.5791C13.3854 50.5749 13.3876 50.5701 13.3888 50.565C13.3899 50.5599 13.39 50.5545 13.3889 50.5494C13.3878 50.5443 13.3856 50.5394 13.3825 50.5352C13.3754 50.5253 13.3688 50.5151 13.3626 50.5049C13.3454 50.4422 13.3157 50.3836 13.2752 50.3328C13.2736 50.3307 13.2719 50.3288 13.2699 50.3271C13.2552 50.3005 13.2377 50.2755 13.2177 50.2526C13.1294 50.1538 13.0402 50.0554 12.9523 49.9551C12.7888 49.7706 12.6138 49.5966 12.4284 49.4341C12.2434 49.2702 12.0513 49.1179 11.8762 48.9435C11.7523 48.8204 11.6236 48.7037 11.4603 48.6364C11.1333 48.502 10.8029 48.7464 10.6362 49.0109C10.533 49.175 10.4699 49.3635 10.402 49.5436C10.3206 49.7589 10.2301 49.9708 10.164 50.1919C10.0733 50.4949 10.0375 50.8705 10.3382 51.0649C10.4635 51.145 10.6236 51.1649 10.7676 51.1774ZM10.3773 49.8576C10.4914 49.5639 10.5841 49.2434 10.7647 48.9824C10.8184 48.9046 10.8878 48.8389 10.9685 48.7894C11.0491 48.74 11.1391 48.7079 11.2329 48.6952C11.4177 48.668 11.5831 48.7979 11.7118 48.912C11.9822 49.1518 12.2542 49.3939 12.52 49.6382C12.6786 49.7866 12.8288 49.9438 12.9696 50.1092C13.0396 50.1902 13.1144 50.2656 13.1866 50.3447C13.1929 50.3516 13.1987 50.359 13.2041 50.3667C13.2053 50.3725 13.2076 50.378 13.2109 50.3829C13.5047 50.8118 12.718 50.951 12.451 51.0001C12.0212 51.0789 11.6043 51.1166 11.167 51.1034C10.8934 51.0951 10.5563 51.1233 10.328 50.946C10.0172 50.705 10.2676 50.1399 10.3773 49.8576Z" fill="#B4C437"/>
<path d="M12.6759 53.1171C12.8526 52.9842 13.0082 52.8069 13.1606 52.6473C13.3517 52.4472 13.5717 52.1138 13.4557 51.8289C13.4602 51.8231 13.4626 51.8159 13.4623 51.8086C13.462 51.8013 13.459 51.7943 13.454 51.789C13.4392 51.7736 13.4247 51.7588 13.4102 51.7447C13.405 51.7369 13.3996 51.7292 13.3936 51.7215C13.3877 51.7133 13.3788 51.7077 13.3688 51.7059C13.275 51.622 13.1782 51.5655 13.039 51.54C12.8156 51.4994 12.5843 51.5222 12.361 51.5505C12.103 51.5833 11.8435 51.6079 11.5865 51.6448C11.295 51.6866 11.0104 51.7717 10.7258 51.8448C10.3886 51.9313 10.0538 52.0699 10.0195 52.4602C9.97837 52.9274 10.1839 53.3652 10.3668 53.7816C10.4762 54.031 10.6918 54.2559 10.9823 54.2498C11.4425 54.2405 11.8238 53.8844 12.1548 53.6055C12.3383 53.4518 12.4838 53.262 12.6759 53.1171ZM11.101 54.1485C10.7384 54.2234 10.5317 53.9405 10.4069 53.6463C10.2506 53.2768 10.1006 52.9226 10.1074 52.5139C10.1155 52.0337 10.6313 51.9638 11.0005 51.8671C11.4138 51.7592 11.8251 51.719 12.2462 51.6575C12.451 51.6278 12.6547 51.6023 12.8623 51.6084C13.0548 51.6142 13.1912 51.6727 13.33 51.7793C13.4486 51.9458 13.3817 52.1981 13.2839 52.3573C13.1987 52.4957 13.0737 52.6095 12.9573 52.7209C12.8291 52.8441 12.714 52.9741 12.5712 53.0817C12.4127 53.2008 12.295 53.362 12.1474 53.4931C11.8479 53.7604 11.5064 54.0653 11.1017 54.1488L11.101 54.1485Z" fill="#B4C437"/>
<path d="M14.5685 54.0988C14.5601 53.5324 14.5572 52.5879 13.9484 52.2988C13.94 52.2942 13.9301 52.2932 13.9209 52.2959C13.9117 52.2987 13.904 52.3049 13.8994 52.3133C13.7899 52.3634 13.7304 52.4713 13.6528 52.5591C13.501 52.7313 13.3746 52.9202 13.2518 53.1142C13.152 53.2719 13.0369 53.4205 12.9488 53.5852C12.8386 53.7902 12.7661 54.013 12.6771 54.2268C12.559 54.5096 12.3864 54.9148 12.5873 55.1994C12.6774 55.3268 12.8734 55.3826 13.011 55.4317C13.2012 55.4986 13.4008 55.5348 13.6024 55.5391C13.8864 55.5465 14.2789 55.4642 14.4284 55.1984C14.604 54.8874 14.5735 54.442 14.5685 54.0988ZM14.0878 55.3576C13.9183 55.4223 13.7378 55.453 13.5565 55.448C13.3829 55.4436 13.2104 55.4017 13.0466 55.3481C12.8903 55.2971 12.6983 55.2324 12.6196 55.0771C12.5339 54.9089 12.6168 54.6529 12.6709 54.4888C12.7233 54.331 12.7962 54.1796 12.8571 54.0241C12.9881 53.6918 13.1677 53.4151 13.3561 53.1142C13.4433 52.973 13.5378 52.8364 13.639 52.7049C13.7146 52.6081 13.8148 52.4405 13.9258 52.3812C14.437 52.6382 14.449 53.4261 14.4732 53.9154C14.49 54.2539 14.4894 54.6031 14.4265 54.9378C14.3873 55.141 14.2847 55.2836 14.0876 55.3572L14.0878 55.3576Z" fill="#B4C437"/>
<path d="M15.6012 52.0293C15.3868 51.9576 14.9958 51.8221 14.8082 52.0197L14.7653 52.0368C14.7576 52.0402 14.7512 52.0459 14.747 52.0531C14.7428 52.0603 14.741 52.0686 14.7418 52.0769C14.7452 52.1774 14.7337 52.2766 14.7364 52.3778C14.739 52.4856 14.7846 52.6005 14.8181 52.7019C14.8955 52.9318 15.0058 53.1488 15.0829 53.3792C15.2205 53.7894 15.4208 54.196 15.6504 54.5629C15.8035 54.8074 16.0322 54.9976 16.3334 54.9691C16.7204 54.9326 17.0091 54.5555 17.2718 54.3103C17.3879 54.2021 17.5072 54.1058 17.5717 53.9566C17.6313 53.8192 17.605 53.6599 17.5613 53.5231C17.4322 53.1198 17.142 52.8425 16.7962 52.6169C16.4228 52.3739 16.025 52.1708 15.6012 52.0293ZM17.4223 54.0377C17.3299 54.1654 17.1853 54.266 17.0725 54.3761C16.8361 54.607 16.5584 54.9104 16.1966 54.8789C15.8883 54.8521 15.7177 54.5019 15.5883 54.2666C15.4045 53.9304 15.2494 53.5793 15.1248 53.2169C15.0599 53.0304 14.9704 52.8533 14.902 52.6679C14.8656 52.5708 14.8396 52.47 14.8244 52.3674C14.8215 52.3481 14.8107 52.2166 14.8241 52.1396L14.8256 52.1373C14.9775 51.8369 15.5793 52.1112 15.8072 52.199C16.1549 52.333 16.4801 52.5186 16.7916 52.7217C17.0995 52.9225 17.3237 53.1684 17.4611 53.5117C17.5329 53.6902 17.5388 53.8758 17.4223 54.0377Z" fill="#B4C437"/>
<path d="M14.5668 49.9615C14.5494 50.1047 14.5423 50.2453 14.58 50.3775C14.571 50.3838 14.5648 50.3934 14.5628 50.4042C14.5608 50.415 14.5632 50.4262 14.5694 50.4353C14.59 50.4665 14.6144 50.4951 14.642 50.5203C14.6464 50.5274 14.6504 50.5344 14.655 50.5414C14.6586 50.5468 14.6637 50.5509 14.6697 50.5533C14.6757 50.5558 14.6823 50.5563 14.6886 50.5549C14.8832 50.6714 15.1087 50.4768 15.3144 50.3652C15.5393 50.2431 15.7851 50.161 16.0193 50.0594C16.2685 49.9511 16.5099 49.8068 16.7481 49.6761C17.0698 49.4995 17.3591 49.1844 17.4867 48.8375C17.5481 48.6701 17.4916 48.5012 17.4095 48.3521C17.3012 48.156 17.1247 47.9502 16.9584 47.8017C16.789 47.6499 16.584 47.5169 16.3936 47.3915C16.2486 47.2944 16.0843 47.2301 15.9119 47.203C15.4694 47.1365 15.3084 47.606 15.1626 47.931C14.9643 48.3734 14.8193 48.8558 14.6793 49.3199C14.6157 49.53 14.5935 49.7435 14.5668 49.9615ZM15.1263 48.2531C15.1923 48.0776 15.2674 47.9054 15.3508 47.7373C15.4471 47.5397 15.5336 47.3313 15.7721 47.2896C16.1362 47.2259 16.4869 47.5731 16.7605 47.7585C16.9281 47.8723 17.0628 48.0391 17.1874 48.1971C17.325 48.3719 17.4692 48.5701 17.403 48.8031C17.3042 49.1497 16.9668 49.4543 16.6639 49.621C16.309 49.817 15.9438 49.9937 15.5697 50.1502C15.4099 50.215 15.256 50.2934 15.1095 50.3845C14.9609 50.4786 14.8263 50.5638 14.6954 50.4527C14.6176 50.2822 14.6368 50.1009 14.6601 49.9155C14.6842 49.7232 14.7077 49.5387 14.761 49.3514C14.8658 48.9841 14.9942 48.6119 15.1263 48.2531Z" fill="#B4C437"/>
<path d="M17.0935 50.2117C16.6548 50.3355 16.2362 50.5018 15.8123 50.6672C15.6147 50.7441 15.2955 50.8851 15.2709 51.123C15.2312 51.2041 15.2725 51.3066 15.31 51.3831C15.3739 51.5136 15.5323 51.5691 15.6603 51.6111C16.1477 51.7708 16.6149 51.9787 17.0985 52.1492C17.4277 52.2654 17.9345 52.4332 18.2618 52.2193C18.375 52.1457 18.4072 52.0324 18.4323 51.9062C18.4771 51.6826 18.4792 51.4526 18.4384 51.2283C18.3737 50.873 18.2438 50.4808 17.9762 50.2268C17.7561 50.0174 17.3414 50.1422 17.0935 50.2117ZM18.3295 51.1467C18.3716 51.3213 18.3865 51.5013 18.3738 51.6804C18.3638 51.8224 18.3509 52.0303 18.2364 52.1295C18.1026 52.2453 17.8315 52.2267 17.6716 52.209C17.4869 52.1884 17.3077 52.1265 17.1328 52.0657C16.768 51.9391 16.4145 51.7805 16.0513 51.6475C15.9026 51.5929 15.7504 51.5507 15.6015 51.4976C15.5327 51.4729 15.3823 51.3775 15.3365 51.2725C15.3466 51.2682 15.3549 51.2601 15.3596 51.2503C15.3641 51.2405 15.365 51.2293 15.3619 51.219C15.2708 50.9133 15.7931 50.7723 15.99 50.6916C16.3248 50.5529 16.6664 50.4311 17.0134 50.3267C17.2691 50.2509 17.5745 50.1471 17.8372 50.2457C18.1366 50.3579 18.2643 50.8729 18.3295 51.1467Z" fill="#B4C437"/>
<path d="M8.12172 0.706631L6.94245 0L6.71782 1.35617C6.36029 3.49759 4.89743 5.48738 3.28388 6.88567C0.125098 9.62422 -0.566557 12.6005 0.411494 15.0573C1.34743 17.4084 3.72283 19.0182 6.1338 19.2868L6.69162 19.3486C5.31205 18.5053 4.42665 16.5352 4.73551 15.0629C5.04063 13.616 6.08139 12.2607 8.08054 11.0103L9.08854 10.3814L9.46479 11.5092C9.68661 12.1756 10.0703 12.7109 10.4606 13.2547C10.6478 13.5168 10.8378 13.7816 11.0119 14.0634C11.6137 15.0414 11.7728 16.129 11.3844 17.2081C11.0306 18.189 10.4475 18.9602 9.64355 19.3879L10.5514 19.2868C12.8145 19.035 14.4758 18.261 15.5549 16.9666C16.6247 15.6835 17 14.0315 17 12.2729C17 10.635 16.3271 8.9466 15.5334 7.54176C14.6031 5.89639 13.3892 4.52992 12.0639 3.20558C11.8346 3.66418 11.8524 3.8495 11.3806 4.58608C10.7681 2.95939 9.61832 1.59069 8.12172 0.706631Z" fill="#C32C2C"/>
<path d="M8.25523 5.47381L7.49217 5L7.34683 5.90934C7.11548 7.34521 6.16892 8.67941 5.12486 9.61699C3.08095 11.4532 2.6334 13.4489 3.26626 15.0963C3.87187 16.6727 5.40889 17.7521 6.96893 17.9322L7.32987 17.9736C6.43721 17.4082 5.86431 16.0872 6.06415 15.1C6.26158 14.1298 6.93501 13.2211 8.22859 12.3827L8.88082 11.9609L9.12428 12.7172C9.2678 13.164 9.5161 13.523 9.76864 13.8876C9.88976 14.0633 10.0127 14.2409 10.1253 14.4298C10.5147 15.0856 10.6177 15.8148 10.3664 16.5384C10.1375 17.1961 9.76016 17.7132 9.23995 18L9.82738 17.9322C11.2917 17.7634 12.3667 17.2444 13.0649 16.3765C13.7572 15.5161 14 14.4084 14 13.2293C14 12.131 13.5646 10.9989 13.051 10.0569C12.449 8.95366 11.6636 8.03741 10.806 7.14941C10.6577 7.45692 10.6692 7.58117 10.3639 8.07507C9.96759 6.98433 9.22362 6.06659 8.25523 5.47381Z" fill="#FFA840"/>
</svg>
