<svg width="47" height="93" viewBox="0 0 47 93" fill="none" xmlns="http://www.w3.org/2000/svg">
<rect x="5.83887" y="7.67773" width="38.9835" height="85.3223" fill="#BC0E25"/>
<path d="M4 23.8595L5.83884 8.04541V23.8595H4Z" fill="#6A010A"/>
<path d="M46.6611 23.8595L44.8223 8.04541V23.8595H46.6611Z" fill="#6A010A"/>
<path d="M40.8143 7.58473C40.7214 7.62075 40.6199 7.63907 40.5174 7.63839H31.4934C31.3916 7.63905 31.2909 7.62072 31.1986 7.58473C31.0754 7.53533 30.9751 7.45347 30.9132 7.3518C30.8513 7.25013 30.8312 7.1343 30.8561 7.02218L30.9516 6.44232L31.1986 4.94854L31.2526 4.61621C31.2801 4.46047 31.3641 4.31549 31.4934 4.20078C31.5938 4.11185 31.7217 4.04776 31.863 4.01558C31.9125 4.00523 31.9634 3.99999 32.0145 4H40.0732H40.1479C40.2849 4.01672 40.4132 4.066 40.5174 4.14194L40.5403 4.15751L40.561 4.17482L40.5777 4.18867C40.5926 4.20053 40.6064 4.21325 40.6192 4.22675L40.6316 4.23887C40.6549 4.26313 40.6764 4.28856 40.696 4.31503L40.7105 4.33407L40.7396 4.37907C40.7569 4.41065 40.7722 4.44301 40.7852 4.476C40.7852 4.48466 40.7852 4.49158 40.7852 4.50024V4.51581V4.52619C40.7852 4.52619 40.7852 4.53832 40.7852 4.54351V4.56775C40.7852 4.58159 40.7852 4.59544 40.7852 4.60929L41.1319 7.01525C41.1571 7.12595 41.14 7.24044 41.083 7.34261C41.026 7.44477 40.9321 7.52946 40.8143 7.58473Z" fill="#D7D7D7"/>
<path d="M31.494 4.20068V7.63829C31.3922 7.63895 31.2915 7.62062 31.1992 7.58463V4.94844L31.2532 4.61611C31.2807 4.46037 31.3647 4.31539 31.494 4.20068Z" fill="white"/>
<path d="M32.1601 4V7.63492H31.8633V4.01558C31.9128 4.00523 31.9637 3.99999 32.0148 4H32.1601Z" fill="white"/>
<path d="M32.826 4H32.5312V7.63839H32.826V4Z" fill="white"/>
<path d="M33.4922 4H33.1953V7.63839H33.4922V4Z" fill="white"/>
<path d="M34.1582 4H33.8613V7.63839H34.1582V4Z" fill="white"/>
<path d="M34.8242 4H34.5273V7.63839H34.8242V4Z" fill="white"/>
<path d="M35.4902 4H35.1934V7.63839H35.4902V4Z" fill="white"/>
<path d="M36.1562 4H35.8594V7.63839H36.1562V4Z" fill="white"/>
<path d="M36.8182 4H36.5234V7.63839H36.8182V4Z" fill="white"/>
<path d="M37.4844 4H37.1875V7.63839H37.4844V4Z" fill="white"/>
<path d="M38.1523 4H37.8555V7.63839H38.1523V4Z" fill="white"/>
<path d="M38.8203 4H38.5234V7.63839H38.8203V4Z" fill="white"/>
<path d="M39.4824 4H39.1855V7.63839H39.4824V4Z" fill="white"/>
<path d="M40.1463 4.00342V7.63834H39.8516V4.00342H40.0716H40.1463Z" fill="white"/>
<path d="M40.8125 4.57477V7.58484C40.7195 7.62085 40.6181 7.63918 40.5156 7.63849V4.14551C40.6711 4.25567 40.7761 4.40736 40.8125 4.57477Z" fill="white"/>
<g style="mix-blend-mode:multiply">
<path d="M40.8143 7.58485C40.7214 7.62087 40.6199 7.63919 40.5174 7.63851H31.4934C31.3916 7.63917 31.2909 7.62084 31.1986 7.58485C31.0754 7.53545 30.9751 7.45359 30.9132 7.35192C30.8513 7.25025 30.8312 7.13442 30.8561 7.0223L30.9516 6.44244H31.4934C31.6325 6.44244 31.7571 6.44244 31.863 6.44244H31.9958L32.1598 6.45109L32.5293 6.46494L32.8262 6.47359H33.1209H33.1957H33.4905H33.8621H34.1568C34.2793 6.47359 34.4039 6.47359 34.5263 6.46321L34.8232 6.45282L35.1927 6.43205L35.4875 6.40955C35.6121 6.40955 35.7345 6.39051 35.8591 6.3784L36.1539 6.34551H36.2286L36.5234 6.30743L36.8202 6.26243C36.9448 6.24339 37.0673 6.22089 37.1897 6.19838L37.4845 6.14126L37.8561 6.06857L38.1509 6.00452C38.2734 5.97683 38.3979 5.94567 38.5204 5.91451L38.8173 5.8297C38.9418 5.79162 39.0664 5.7518 39.1868 5.7068C39.3072 5.6618 39.3944 5.63064 39.4836 5.58737C39.6113 5.53205 39.7347 5.4702 39.8532 5.40216C39.9562 5.34279 40.0547 5.27804 40.1479 5.2083C40.2636 5.12085 40.3687 5.02402 40.4614 4.91924C40.4801 4.89673 40.4988 4.87596 40.5174 4.85173C40.6177 4.73101 40.7072 4.60431 40.7852 4.47266C40.7852 4.48131 40.7852 4.48824 40.7852 4.49689V4.5142C40.7843 4.51762 40.7843 4.52117 40.7852 4.52459C40.7841 4.5309 40.7841 4.53732 40.7852 4.54363V4.56787C40.7852 4.58171 40.7852 4.59556 40.7852 4.60941L41.1319 7.01537C41.1571 7.12607 41.14 7.24056 41.083 7.34273C41.026 7.44489 40.9321 7.52958 40.8143 7.58485Z" fill="#C4C4C4"/>
</g>
<g style="mix-blend-mode:color-dodge" opacity="0.4">
<path d="M36.2276 4H33.1221V7.63839H36.2276V4Z" fill="white"/>
</g>
<mask id="mask0_247_3232" style="mask-type:alpha" maskUnits="userSpaceOnUse" x="5" y="7" width="40" height="86">
<rect x="5.83887" y="7.67773" width="38.9835" height="85.3223" fill="#BC0E25"/>
</mask>
<g mask="url(#mask0_247_3232)">
<path d="M41.1194 13.562C29.8383 13.562 25.6935 29.718 25.6935 29.718C25.6935 29.718 21.6053 13.562 10.247 13.562C1.71027 13.562 -8.02102 23.0435 -4.42714 44.5969C-0.833254 66.1503 25.7244 93 25.7244 93C25.7244 93 52.1842 66.1503 55.7833 44.5969C59.3771 23.0435 50.3461 13.562 41.1194 13.562Z" fill="#D81429"/>
<path d="M39.6509 17.9751C29.4443 17.9751 25.6942 32.4856 25.6942 32.4856C25.6942 32.4856 21.9954 17.9751 11.7188 17.9751C3.99507 17.9751 -4.80943 26.4909 -1.55782 45.849C1.69379 65.2072 25.7221 89.3222 25.7221 89.3222C25.7221 89.3222 49.662 65.2072 52.9183 45.849C56.1699 26.4909 47.9989 17.9751 39.6509 17.9751Z" fill="#EA1B2B"/>
<path d="M38.1815 22.3882C29.0492 22.3882 25.6939 35.2532 25.6939 35.2532C25.6939 35.2532 22.3844 22.3882 13.1896 22.3882C6.27889 22.3882 -1.59881 29.9382 1.31052 47.1011C4.21985 64.264 25.7189 85.6444 25.7189 85.6444C25.7189 85.6444 47.1388 64.264 50.0523 47.1011C52.9616 29.9382 45.6508 22.3882 38.1815 22.3882Z" fill="#9A0024"/>
</g>
<path d="M7.5 4.4L1 4.4L1 12.9L7.5 12.9L7.5 15L15 8.5L7.5 2L7.5 4.4Z" fill="#3D8DFF" stroke="#1F59AD"/>
</svg>
