<svg width="72" height="93" viewBox="0 0 72 93" fill="none" xmlns="http://www.w3.org/2000/svg">
<path d="M71.9212 84.2048L68.4081 74.2933V30.7852L71.9212 20.1753L8 20.1753L11.512 30.7852L11.512 74.2933L8 84.2048" fill="#012A65"/>
<path d="M71.9212 84.2046H8V92.8321H71.9212V84.2046Z" fill="#010438"/>
<path d="M8 8L8 20.1759L71.9218 20.1759V8L8 8ZM54.6731 15.5434L25.2459 15.5434C24.6609 15.5434 24.1876 14.8924 24.1876 14.0872C24.1876 13.2843 24.6609 12.6333 25.2459 12.6333L54.6731 12.6333C55.2587 12.6333 55.732 13.2851 55.732 14.0872C55.7325 14.8916 55.2592 15.5434 54.6731 15.5434Z" fill="#010438"/>
<path opacity="0.3" d="M18.9081 52.788C18.9081 65.4188 16.5469 75.6566 14.6574 75.6566C12.7673 75.6566 14.6574 65.418 14.6574 52.788C14.6574 40.1573 12.7673 29.9194 14.6574 29.9194C16.5464 29.9194 18.9081 40.1573 18.9081 52.788Z" fill="white"/>
<path opacity="0.3" d="M61.1299 52.788C61.1299 40.1573 63.4911 29.9194 65.3817 29.9194C67.2712 29.9194 65.3817 40.158 65.3817 52.788C65.3817 65.4188 67.2712 75.6566 65.3817 75.6566C63.4911 75.6573 61.1299 65.4188 61.1299 52.788Z" fill="white"/>
<circle cx="40.2958" cy="37.4916" r="13.6962" fill="#FDE200"/>
<path d="M51.5116 31.3233C52.4852 35.3548 54.4096 44.7722 46.7296 43.8625C39.6032 44.327 33.9218 41.839 29.5987 44.7224C25.6396 37.8743 28.1848 29.4419 37.2242 32.1203C38.9676 32.6369 40.7609 33.1792 42.5555 32.886C47.9965 31.9968 51.5116 28.935 51.5116 31.3233Z" fill="#C32C2C"/>
<rect x="31.0234" y="36.3857" width="18.5452" height="2.89237" rx="0.621394" fill="white"/>
<path d="M59.0964 72.4552C59.0416 78.3404 56.248 81.1278 50.4193 78.6653C50.4193 78.6653 38.6797 72.7882 38.6797 68.3719C40.093 64.8281 46.5043 63.3403 50.9297 62.417C56.8496 62.417 59.0964 68.0388 59.0964 72.4552Z" fill="#FBD523"/>
<path d="M33.491 64.8867C34.0902 59.6057 36.8515 57.3623 41.839 60.117C41.839 60.117 51.7985 66.4896 51.3857 70.4564C49.7894 73.5078 43.911 74.247 39.8633 74.664C34.5641 74.1125 33.0782 68.8536 33.491 64.8867Z" fill="#FDA421"/>
<path d="M8.12172 0.706631L6.94245 0L6.71782 1.35617C6.36029 3.49759 4.89743 5.48738 3.28388 6.88567C0.125098 9.62422 -0.566557 12.6005 0.411494 15.0573C1.34743 17.4084 3.72283 19.0182 6.1338 19.2868L6.69162 19.3486C5.31205 18.5053 4.42665 16.5352 4.73551 15.0629C5.04063 13.616 6.08139 12.2607 8.08054 11.0103L9.08854 10.3814L9.46479 11.5092C9.68661 12.1756 10.0703 12.7109 10.4606 13.2547C10.6478 13.5168 10.8378 13.7816 11.0119 14.0634C11.6137 15.0414 11.7728 16.129 11.3844 17.2081C11.0306 18.189 10.4475 18.9602 9.64355 19.3879L10.5514 19.2868C12.8145 19.035 14.4758 18.261 15.5549 16.9666C16.6247 15.6835 17 14.0315 17 12.2729C17 10.635 16.3271 8.9466 15.5334 7.54176C14.6031 5.89639 13.3892 4.52992 12.0639 3.20558C11.8346 3.66418 11.8524 3.8495 11.3806 4.58608C10.7681 2.95939 9.61832 1.59069 8.12172 0.706631Z" fill="#C32C2C"/>
<path d="M8.25523 5.47381L7.49217 5L7.34683 5.90934C7.11548 7.34521 6.16892 8.67941 5.12486 9.61699C3.08095 11.4532 2.6334 13.4489 3.26626 15.0963C3.87187 16.6727 5.40889 17.7521 6.96893 17.9322L7.32987 17.9736C6.43721 17.4082 5.86431 16.0872 6.06415 15.1C6.26158 14.1298 6.93501 13.2211 8.22859 12.3827L8.88082 11.9609L9.12428 12.7172C9.2678 13.164 9.5161 13.523 9.76864 13.8876C9.88976 14.0633 10.0127 14.2409 10.1253 14.4298C10.5147 15.0856 10.6177 15.8148 10.3664 16.5384C10.1375 17.1961 9.76016 17.7132 9.23995 18L9.82738 17.9322C11.2917 17.7634 12.3667 17.2444 13.0649 16.3765C13.7572 15.5161 14 14.4084 14 13.2293C14 12.131 13.5646 10.9989 13.051 10.0569C12.449 8.95366 11.6636 8.03741 10.806 7.14941C10.6577 7.45692 10.6692 7.58117 10.3639 8.07507C9.96759 6.98433 9.22362 6.06659 8.25523 5.47381Z" fill="#FFA840"/>
</svg>
