<svg width="1118" height="4" viewBox="0 0 1118 4" fill="none" xmlns="http://www.w3.org/2000/svg">
<rect width="2" height="4" fill="#D9D9D9"/>
<rect x="62" width="2" height="4" fill="#D9D9D9"/>
<rect x="124" width="2" height="4" fill="#D9D9D9"/>
<rect x="186" width="2" height="4" fill="#D9D9D9"/>
<rect x="248" width="2" height="4" fill="#D9D9D9"/>
<rect x="310" width="2" height="4" fill="#D9D9D9"/>
<rect x="372" width="2" height="4" fill="#D9D9D9"/>
<rect x="434" width="2" height="4" fill="#D9D9D9"/>
<rect x="496" width="2" height="4" fill="#D9D9D9"/>
<rect x="558" width="2" height="4" fill="#D9D9D9"/>
<rect x="558" width="2" height="4" fill="#D9D9D9"/>
<rect x="620" width="2" height="4" fill="#D9D9D9"/>
<rect x="682" width="2" height="4" fill="#D9D9D9"/>
<rect x="744" width="2" height="4" fill="#D9D9D9"/>
<rect x="806" width="2" height="4" fill="#D9D9D9"/>
<rect x="868" width="2" height="4" fill="#D9D9D9"/>
<rect x="930" width="2" height="4" fill="#D9D9D9"/>
<rect x="992" width="2" height="4" fill="#D9D9D9"/>
<rect x="1054" width="2" height="4" fill="#D9D9D9"/>
<rect x="1116" width="2" height="4" fill="#D9D9D9"/>
</svg>
