<svg width="38" height="92" viewBox="0 0 38 92" fill="none" xmlns="http://www.w3.org/2000/svg">
<path d="M35.3587 11.3998C35.3595 11.6617 35.3087 11.9211 35.2092 12.1633C35.1097 12.4055 34.9635 12.6257 34.7789 12.8114C34.5943 12.9971 34.3749 13.1446 34.1333 13.2456C33.8917 13.3465 33.6326 13.3988 33.3707 13.3996H10.8962C10.6344 13.3988 10.3752 13.3465 10.1336 13.2456C9.89201 13.1446 9.67264 12.9971 9.48804 12.8114C9.30344 12.6257 9.15722 12.4055 9.05773 12.1633C8.95825 11.9211 8.90744 11.6617 8.90821 11.3998V6.99976C8.90744 6.73792 8.95825 6.4785 9.05773 6.23629C9.15722 5.99409 9.30344 5.77385 9.48804 5.58815C9.67264 5.40246 9.89201 5.25494 10.1336 5.15403C10.3752 5.05311 10.6344 5.00077 10.8962 5H33.3707C33.6326 5.00077 33.8917 5.05311 34.1333 5.15403C34.3749 5.25494 34.5943 5.40246 34.7789 5.58815C34.9635 5.77385 35.1097 5.99409 35.2092 6.23629C35.3087 6.4785 35.3595 6.73792 35.3587 6.99976V11.3998Z" fill="#E4E9ED"/>
<path d="M8.95554 10.0923L7.00879 18.4948H37.3115L35.3972 10.0923H8.95554Z" fill="#B0BDC6"/>
<path d="M37.3115 18.4004H7.00879V91.9999H37.3115V18.4004Z" fill="#EDF3F7"/>
<path d="M7.00038 18L7.00038 33C7.95962 32.1019 8.8785 30.8825 9.84961 30.6245C10.9822 30.3252 12.0293 31.0407 13.1191 30.5539C14.3039 30.0282 14.6696 28.8575 15.04 27.5627C16.0134 24.1869 17.0748 24.1699 19.8908 24.6567C21.0875 24.866 21.6074 24.8416 22.5809 24.0117C23.476 23.2499 24.2073 22.1133 25.3945 22.583C26.9972 23.2207 27.3106 26.5015 28.5263 27.845C30.3332 29.8433 32.4915 29.079 34.4408 27.6844C34.8326 27.4045 36.1621 26.3555 37.2852 25.3576L37.2852 18L7.00038 18Z" fill="#45C0FF"/>
<path d="M34.4405 80.3268C34.8323 80.0469 36.5 77.2991 37.2848 74.7301L37.2852 67.885C36.1621 68.8829 34.8326 69.9319 34.4408 70.2118C32.4915 71.6064 30.3332 72.3707 28.5263 70.3724C27.3106 69.0289 26.9972 65.7481 25.3945 65.1104C24.2073 64.6406 23.476 65.7773 22.5809 66.5391C21.6074 67.369 21.0875 67.3934 19.8908 67.1841C17.0748 66.6973 16.0134 66.7143 15.04 70.0901C14.6696 71.3849 14.3039 72.5556 13.1191 73.0813C12.0293 73.5681 10.9822 72.8526 9.84961 73.1519C8.8785 73.4099 7.95962 74.6293 7.00038 75.5274L7.00007 85.6424C7.95931 84.7443 8.87818 83.5249 9.8493 83.2669C10.9819 82.9676 12.029 83.6831 13.1188 83.1963C14.3036 82.6706 14.6692 81.4999 15.0396 80.2051C16.0131 76.8293 17.0745 76.8123 19.8905 77.2991C21.0871 77.5084 21.6071 77.484 22.5806 76.6541C23.4757 75.8923 24.207 74.7556 25.3942 75.2254C26.9969 75.8631 27.3103 79.1439 28.526 80.4874C30.3329 82.4856 32.4912 81.7214 34.4405 80.3268Z" fill="#45C0FF"/>
<path d="M22.1585 15.9676C24.9712 15.9676 27.2478 15.1666 27.2478 14.1799V10.7871H17.0693V14.1799C17.0693 15.1666 19.3489 15.9676 22.1585 15.9676Z" fill="#808A8E"/>
<path d="M27.2537 10.8844C27.2537 11.871 24.9771 12.6721 22.1644 12.6721C19.3518 12.6721 17.0752 11.871 17.0752 10.8844C17.0752 9.89775 19.3548 9.09961 22.1644 9.09961C24.9741 9.09961 27.2537 9.88891 27.2537 10.8844Z" fill="#95A0A3"/>
<path d="M27.0271 10.8842C27.0263 10.9397 27.0153 10.9946 26.9947 11.0462C26.3703 10.3069 24.4206 9.76796 22.1146 9.76796C19.8851 9.76796 17.9913 10.2716 17.3022 10.9725C17.2977 10.9432 17.2977 10.9135 17.3022 10.8842C17.3022 10.1449 19.3019 9.32324 22.1705 9.32324C25.0391 9.32324 27.0271 10.1361 27.0271 10.8842Z" fill="#808A8E"/>
<path d="M27.2038 11.544C26.4557 12.4276 24.2586 12.887 22.1587 12.887C19.9823 12.887 17.691 12.3834 17.0312 11.441C17.0698 11.2576 17.1645 11.0909 17.3022 10.9639C17.9913 10.2629 19.8851 9.75928 22.1146 9.75928C24.4207 9.75928 26.3703 10.2982 26.9947 11.0375C27.1234 11.1755 27.1976 11.3555 27.2038 11.544Z" fill="#95A0A3"/>
<path d="M22.1587 8.8667C19.5817 8.8667 16.8574 9.57059 16.8574 10.8753C16.8588 11.0785 16.9237 11.2762 17.043 11.4408C17.7027 12.3832 19.9881 12.8868 22.1705 12.8868C24.2645 12.8868 26.4675 12.4186 27.2156 11.5439C27.3842 11.3617 27.4797 11.1236 27.4836 10.8753C27.4718 9.57059 24.7357 8.8667 22.1587 8.8667ZM22.1587 12.4392C19.402 12.4392 17.4465 11.6793 17.3021 10.9666C17.2977 10.9373 17.2977 10.9075 17.3021 10.8782C17.3021 10.139 19.3019 9.31731 22.1705 9.31731C25.0391 9.31731 27.0389 10.139 27.0389 10.8782C27.0381 10.9338 27.0271 10.9887 27.0065 11.0402C26.7326 11.7294 24.8211 12.4392 22.1587 12.4392Z" fill="#D2EEF7"/>
<path d="M22.1582 25.8013C25.748 25.8013 28.6581 24.5922 28.6581 23.1006C28.6581 21.6091 25.748 20.3999 22.1582 20.3999C18.5683 20.3999 15.6582 21.6091 15.6582 23.1006C15.6582 24.5922 18.5683 25.8013 22.1582 25.8013Z" fill="#ADE0A4"/>
<path d="M27.2123 86.9022C27.2123 88.0596 24.9504 89.0021 22.1584 89.0021C19.3664 89.0021 17.1016 88.0596 17.1016 86.9022C17.1016 85.7447 19.3664 84.7993 22.1584 84.7993C24.9504 84.7993 27.2123 85.7418 27.2123 86.9022Z" fill="#ADE0A4"/>
<path d="M20.8569 44.7362V52.641C20.8569 52.9355 20.7597 53.0592 20.4387 53.0592H19.8114C19.4933 53.0592 19.3932 52.9473 19.3932 52.641V48.8771C19.4007 48.0519 19.4995 47.2302 19.6877 46.4267H19.5994C19.3389 47.2097 19.0005 47.9645 18.5891 48.6798L17.3846 50.8091C17.3462 50.9028 17.2789 50.9818 17.1926 51.0348C17.1063 51.0877 17.0054 51.1118 16.9045 51.1036H16.5099C16.408 51.1193 16.3038 51.0983 16.2159 51.0443C16.128 50.9904 16.0621 50.9071 16.0298 50.8091L14.7987 48.668C14.3844 47.9664 14.0654 47.2127 13.8504 46.4267H13.765C13.9394 47.2358 14.0263 48.0612 14.0242 48.8889V52.6322C14.0242 52.9267 13.924 53.0504 13.606 53.0504H13.0169C12.6959 53.0504 12.5869 52.9385 12.5869 52.6322V44.7362C12.5869 44.4417 12.6959 44.318 13.0169 44.318H13.5588C13.9034 44.318 14.0153 44.3798 14.1479 44.639L16.7072 49.2187L19.2666 44.6508C19.3055 44.5363 19.3844 44.4397 19.4888 44.3786C19.5932 44.3175 19.7161 44.296 19.835 44.318H20.424C20.7745 44.318 20.8569 44.4299 20.8569 44.7362Z" fill="#45C0FF"/>
<path d="M23.9341 45.0482V45.1572C23.9341 45.7227 23.7515 45.9082 23.1831 45.9082H23.0977C22.5322 45.9082 22.3467 45.7227 22.3467 45.1572V45.0482C22.3467 44.4798 22.5322 44.309 23.0977 44.309H23.1831C23.7515 44.2943 23.9341 44.4592 23.9341 45.0482ZM23.8605 47.0657V52.6909C23.8605 52.9854 23.7633 53.0738 23.4806 53.0738H22.8032C22.5087 53.0738 22.4321 52.9737 22.4321 52.6909V47.0509C22.4321 46.7564 22.5205 46.6828 22.8032 46.6828H23.4806C23.7633 46.6828 23.8605 46.7682 23.8605 47.0509V47.0657Z" fill="#45C0FF"/>
<path d="M26.3698 53.0591H25.7071C25.4126 53.0591 25.3242 52.959 25.3242 52.6762V44.3296C25.3242 44.0351 25.4096 43.9497 25.7071 43.9497H26.3698C26.6643 43.9497 26.7526 44.0469 26.7526 44.3296V52.6762C26.7409 52.959 26.6437 53.0591 26.3698 53.0591Z" fill="#45C0FF"/>
<path d="M33.4003 53.0591H32.773C32.343 53.0591 32.2547 53.009 32.1192 52.7145L31.3564 51.077C31.2848 50.88 31.1485 50.7132 30.9699 50.6035C30.7912 50.4939 30.5808 50.448 30.3727 50.4732H29.6335V52.6644C29.6335 52.9589 29.5481 53.0591 29.2388 53.0591H28.6115C28.317 53.0591 28.2051 52.9589 28.2051 52.6644V44.3414C28.2051 44.0469 28.3052 43.9497 28.6115 43.9497H29.2388C29.5333 43.9497 29.6335 44.0469 29.6335 44.3414V49.145H30.2755L31.9484 46.9656C32.1457 46.671 32.2429 46.671 32.6876 46.671H33.2766C33.6595 46.671 33.7449 46.8301 33.5241 47.1128L31.6656 49.4159C32.0666 49.6477 32.3778 50.0077 32.5492 50.4379L33.6212 52.5908C33.8068 52.9354 33.7567 53.0591 33.4003 53.0591Z" fill="#45C0FF"/>
<g style="mix-blend-mode:multiply" opacity="0.7">
<path d="M37.3086 71.6399V91.9998H7.00586V66.5801C7.38873 66.8824 7.78733 67.177 8.20161 67.4636C16.8162 73.4364 27.8105 74.6557 37.3086 71.6399Z" fill="#4A8FCA"/>
</g>
<path d="M12.6 7.5L12.6 1L4.1 1L4.1 7.5L2 7.5L8.5 15L15 7.5L12.6 7.5Z" fill="#DE2B35" stroke="#A32C2C"/>
</svg>
