<svg width="28" height="82" viewBox="0 0 28 82" fill="none" xmlns="http://www.w3.org/2000/svg">
<path d="M23.6366 13.0371H8.82812V20.1702H23.6366V13.0371Z" fill="#CAD8E5"/>
<path d="M23.6366 15.2095H8.82812V15.8719H23.6366V15.2095Z" fill="#ADA1A6"/>
<path d="M24.589 14.7123C24.589 14.9802 24.427 15.1951 24.2288 15.1951H8.23052C8.03223 15.1951 7.87031 14.9802 7.87031 14.7123C7.86708 14.5926 7.90388 14.4747 7.97605 14.3737C8.00295 14.334 8.04006 14.3004 8.08428 14.2759C8.12851 14.2513 8.1786 14.2364 8.23052 14.2324H24.2288C24.427 14.2324 24.589 14.4473 24.589 14.7123Z" fill="#CAD8E5"/>
<path d="M25.5272 43.4919C24.4333 53.3569 26.6508 62.4183 27.0044 67.5849C27.467 74.3559 26.6739 77.341 25.2661 79.2281C23.8583 81.1151 16.9811 81.4301 16.3433 81.4301C15.7055 81.4301 8.60692 81.1151 7.18588 79.2281C5.76485 77.341 5.02789 73.879 5.44759 67.5849C5.44759 67.3994 5.47403 67.2139 5.49055 67.0196C5.49055 66.9725 5.49055 66.9225 5.49055 66.8754L5.53021 66.4544V66.3631C5.53021 66.3425 5.53021 66.3249 5.53021 66.3043C5.53021 66.2042 5.55003 66.1041 5.56325 66.0099C5.56163 65.9913 5.56163 65.9726 5.56325 65.9539L5.59298 65.6978C5.59136 65.6792 5.59136 65.6605 5.59298 65.6419L5.62271 65.3828C5.62434 65.3603 5.62434 65.3377 5.62271 65.3151C5.66237 65.0207 5.69875 64.7263 5.74171 64.3996V64.3201C5.78468 64.008 5.82761 63.6871 5.87387 63.3603C5.91022 63.0836 5.94991 62.7981 5.98957 62.5125C5.98957 62.4477 6.00938 62.3859 6.01599 62.3212C6.22419 60.8227 6.45223 59.1859 6.65052 57.446C6.65052 57.3754 6.6505 57.3047 6.67363 57.2311C6.69677 57.1575 6.67362 57.0721 6.70006 56.9897C6.70006 56.8484 6.7298 56.6953 6.74633 56.5658C6.76616 56.3509 6.78931 56.133 6.80914 55.9181C6.82566 55.768 6.83888 55.6237 6.8521 55.4677C6.86532 55.3117 6.88184 55.1733 6.89176 55.0144C6.91819 54.7465 6.93801 54.4756 6.96114 54.2018C6.96114 54.14 6.96114 54.0782 6.96114 54.0164C6.96114 53.9074 6.97765 53.8015 6.98426 53.6925C7.01731 53.2068 7.04706 52.7152 7.07349 52.2206C7.11315 51.4022 7.13962 50.572 7.14623 49.7271C7.18779 47.0333 7.00994 44.3404 6.61413 41.6696C6.42245 40.4037 6.16691 39.128 5.84745 37.8425C5.69874 37.2537 5.56984 36.6649 5.46409 36.0968C5.37156 35.611 5.29556 35.1341 5.23277 34.669C5.06565 33.456 4.98835 32.2346 5.00142 31.0126C5.00142 30.9537 5.00142 30.8978 5.00142 30.8419V30.5063V30.3002C5.00142 30.2472 5.00142 30.1942 5.00142 30.1412C5.00142 30.0882 5.00142 29.9881 5.00142 29.9116C5.00142 29.788 5.00144 29.6643 5.02788 29.5407L5.04769 29.3287C5.04769 29.2551 5.04771 29.1815 5.06754 29.1109C5.06592 29.0922 5.06592 29.0735 5.06754 29.0549C5.06754 28.9931 5.06751 28.9313 5.08734 28.8695C5.10717 28.8076 5.10389 28.7223 5.1105 28.6516C5.11711 28.581 5.11048 28.5397 5.13361 28.4838C5.15675 28.4279 5.13361 28.4073 5.13361 28.366C5.13361 28.3248 5.13364 28.2512 5.15677 28.1924L5.1865 27.9981L5.20635 27.8774C5.2427 27.6536 5.28235 27.4328 5.32531 27.2179L5.38478 26.9235C5.43765 26.688 5.49053 26.4584 5.54671 26.2347C5.54671 26.1758 5.57645 26.1169 5.59298 26.058C5.71195 25.6076 5.84085 25.1748 5.97965 24.7804C6.11844 24.3859 6.31011 23.9207 6.46212 23.538C6.98485 22.2409 7.73312 21.0249 8.67959 19.9347L8.70275 19.9111H23.5245L23.5509 19.9435L23.5708 19.9612L23.6534 20.0583L23.6963 20.1084L23.736 20.1555L23.7955 20.2261C24.2924 20.8521 24.7259 21.5161 25.0909 22.2103C25.1141 22.2486 25.1339 22.2898 25.157 22.3281C25.1802 22.3663 25.2 22.4105 25.2198 22.4547C25.2396 22.4988 25.2628 22.5371 25.2859 22.5813V22.6019C25.3222 22.6784 25.3619 22.755 25.3983 22.8344C25.5305 23.1082 25.6626 23.4026 25.7915 23.7176L25.9006 23.9884C25.9204 24.0355 25.9369 24.0826 25.9568 24.1327L25.9964 24.2357C26.0361 24.3476 26.079 24.4595 26.1187 24.5743L26.1683 24.7185C26.2806 25.0512 26.3897 25.4015 26.4987 25.7695L26.5483 25.955L26.5979 26.1434C27.3257 28.9024 27.5168 31.7523 27.163 34.5689C27.1068 34.9987 27.0374 35.452 26.9581 35.8848L26.9185 36.085V36.1498L26.8788 36.3558C26.8788 36.4265 26.8491 36.4942 26.8358 36.5649C26.8226 36.6355 26.8061 36.7032 26.7929 36.7739C26.7796 36.8445 26.7598 36.9152 26.7466 36.9829L26.7069 37.1595L26.6871 37.2478C26.6871 37.2979 26.664 37.345 26.6507 37.395C26.6177 37.5422 26.5814 37.6894 26.545 37.8366C26.2806 38.8886 26.0603 39.9356 25.8841 40.9778C25.7365 41.8237 25.6175 42.6617 25.5272 43.4919Z" fill="#CAD8E5"/>
<path d="M25.2658 79.2283C23.8447 81.1153 16.9808 81.4303 16.343 81.4303C15.7052 81.4303 8.60662 81.1153 7.18558 79.2283C5.76455 77.3412 5.02759 73.8792 5.44729 67.5851C5.63896 64.7177 6.40894 60.6492 6.8683 55.9125C6.98397 54.7172 7.08314 53.4838 7.14593 52.2149C8.19785 52.1072 9.21723 51.8224 10.1499 51.3759C13.1242 49.9452 13.9173 47.5694 15.2293 45.0818C16.6768 42.3381 18.7918 41.5697 21.9842 41.4637C23.3788 41.4166 24.628 41.4637 25.8672 40.9839C25.7262 41.8258 25.6161 42.6619 25.5368 43.4921C24.4429 53.3572 26.6604 62.4185 27.014 67.5851C27.4668 74.3502 26.6868 77.3412 25.2658 79.2283Z" fill="#F78797"/>
<g style="mix-blend-mode:color-dodge" opacity="0.8">
<path d="M11.2995 20.2789C10.3117 21.0154 9.56129 21.9724 9.12502 23.0521C8.66567 24.0502 8.46898 25.1287 8.55 26.205C8.55337 26.3754 8.63059 26.5379 8.76551 26.6586C8.90042 26.7794 9.08254 26.8489 9.27372 26.8527C9.46628 26.8519 9.6507 26.7834 9.78686 26.6621C9.92302 26.5408 9.99988 26.3766 10.0007 26.205C9.98093 25.9965 9.97433 25.7872 9.98094 25.578C9.98094 25.4661 9.98092 25.3572 10.0041 25.2453L10.0239 25.0775C10.0239 25.001 10.0239 25.001 10.0239 25.0775L10.0437 24.9627C10.1334 24.4673 10.2785 23.9811 10.4767 23.5113C10.4998 23.4525 10.5262 23.3965 10.5527 23.3376C10.6353 23.1492 10.4965 23.4525 10.5857 23.264C10.6419 23.1522 10.7047 23.0403 10.7642 22.9314C10.8994 22.6933 11.0518 22.4632 11.2202 22.2425L11.3359 22.0924C11.3359 22.0924 11.478 21.9275 11.3855 22.0305C11.4846 21.9187 11.587 21.8127 11.6928 21.7097C11.8881 21.5228 12.1004 21.3505 12.3273 21.1945C12.4635 21.073 12.5401 20.9084 12.5401 20.7367C12.5401 20.565 12.4635 20.4004 12.3273 20.2789C12.1891 20.1619 12.0057 20.0967 11.8151 20.0967C11.6244 20.0967 11.441 20.1619 11.3028 20.2789H11.2995Z" fill="white"/>
</g>
<g style="mix-blend-mode:multiply" opacity="0.6">
<path d="M25.5269 43.4914C24.433 53.3565 26.6505 62.4179 27.0041 67.5844C27.4667 74.3554 26.6736 77.3405 25.2658 79.2276C23.858 81.1146 16.9808 81.4296 16.343 81.4296C15.7052 81.4296 8.60662 81.1146 7.18558 79.2276C5.76455 77.3405 5.02759 73.8785 5.44729 67.5844C5.54313 66.1125 5.77773 64.3461 6.07516 62.3148C11.8122 62.7799 17.4996 59.1001 19.5122 54.3662C21.5885 49.3674 22.7814 44.1118 23.0483 38.7871C23.3226 33.5999 23.9703 27.4618 21.505 22.7368C20.989 21.8492 20.4118 20.9908 19.7766 20.1668C19.7171 20.0814 19.6543 19.9931 19.5982 19.9048C18.9214 18.9739 18.6532 17.8536 18.8447 16.7577C18.9008 16.4398 19.0033 15.8746 19.1256 15.1945C19.1785 14.9001 19.2347 14.5704 19.2908 14.2319C19.3569 13.8462 19.4197 13.4429 19.4825 13.0337H23.6266V14.2319H24.2215C24.4198 14.2319 24.5817 14.4468 24.5817 14.7117C24.5817 14.9767 24.4198 15.1945 24.2215 15.1945H23.6266V19.9048H23.663C23.663 19.9048 25.7053 21.9891 26.7628 26.1577C27.4335 28.9204 27.5688 31.765 27.1627 34.5684C27.1065 34.9982 27.0371 35.4516 26.9578 35.8843C26.8421 36.5143 26.7033 37.1679 26.5348 37.8362C26.2704 38.8881 26.0501 39.9352 25.8738 40.9773C25.7328 41.8232 25.6172 42.6612 25.5269 43.4914Z" fill="#A0808E"/>
</g>
<path d="M23.8743 14.0969C23.7263 14.1581 23.5649 14.1893 23.4017 14.1881H9.03603C8.87392 14.1892 8.71357 14.1581 8.56674 14.0969C8.37054 14.0128 8.21085 13.8736 8.1123 13.7007C8.01375 13.5278 7.98182 13.3308 8.02145 13.1401L8.1735 12.1539L8.56674 9.61326L8.65267 9.04803C8.69641 8.78316 8.8302 8.53657 9.03603 8.34149C9.1958 8.19023 9.39938 8.08124 9.62428 8.0265C9.70317 8.00889 9.78419 7.99998 9.86552 8H22.6945H22.8135C23.0315 8.02844 23.2357 8.11226 23.4017 8.2414L23.4381 8.26789L23.4711 8.29734L23.4976 8.32089C23.5213 8.34106 23.5434 8.36269 23.5636 8.38565L23.5835 8.40626C23.6206 8.44752 23.6548 8.49078 23.6859 8.53579L23.7091 8.56817L23.7553 8.64472C23.7829 8.69843 23.8072 8.75347 23.828 8.80958C23.828 8.8243 23.828 8.83608 23.828 8.8508V8.87728V8.89494C23.828 8.89494 23.828 8.91556 23.828 8.92439V8.96561C23.828 8.98916 23.828 9.01271 23.828 9.03626L24.3799 13.1283C24.42 13.3166 24.3928 13.5113 24.3021 13.6851C24.2114 13.8588 24.0618 14.0029 23.8743 14.0969Z" fill="#F78697"/>
<path d="M9.03667 8.34131V14.1879C8.87456 14.1891 8.71421 14.1579 8.56738 14.0967V9.61308L8.65331 9.04786C8.69705 8.78298 8.83084 8.53639 9.03667 8.34131Z" fill="#EF2E65"/>
<path d="M10.0976 8V14.1822H9.625V8.0265C9.70389 8.00889 9.78491 7.99998 9.86624 8H10.0976Z" fill="#EF2E65"/>
<path d="M11.1587 8H10.6895V14.1881H11.1587V8Z" fill="#EF2E65"/>
<path d="M12.2187 8H11.7461V14.1881H12.2187V8Z" fill="#EF2E65"/>
<path d="M13.2802 8H12.8076V14.1881H13.2802V8Z" fill="#EF2E65"/>
<path d="M14.3407 8H13.8682V14.1881H14.3407V8Z" fill="#EF2E65"/>
<path d="M15.3974 8H14.9248V14.1881H15.3974V8Z" fill="#EF2E65"/>
<path d="M16.4589 8H15.9863V14.1881H16.4589V8Z" fill="#EF2E65"/>
<path d="M17.5162 8H17.0469V14.1881H17.5162V8Z" fill="#EF2E65"/>
<path d="M18.5771 8H18.1045V14.1881H18.5771V8Z" fill="#EF2E65"/>
<path d="M19.6376 8H19.165V14.1881H19.6376V8Z" fill="#EF2E65"/>
<path d="M20.6992 8H20.2266V14.1881H20.6992V8Z" fill="#EF2E65"/>
<path d="M21.7558 8H21.2832V14.1881H21.7558V8Z" fill="#EF2E65"/>
<path d="M22.814 8.00586V14.1881H22.3447V8.00586H22.695H22.814Z" fill="#EF2E65"/>
<ellipse cx="16.5" cy="30.716" rx="8.5" ry="7.57194" fill="#F68897"/>
<path d="M23.8749 8.97764V14.0971C23.727 14.1584 23.5655 14.1895 23.4023 14.1884V8.24756C23.6499 8.43492 23.8169 8.69292 23.8749 8.97764Z" fill="#EF2E65"/>
<g style="mix-blend-mode:multiply">
<path d="M23.8743 14.0969C23.7263 14.1581 23.5649 14.1893 23.4017 14.1881H9.03603C8.87392 14.1893 8.71357 14.1581 8.56674 14.0969C8.37054 14.0129 8.21085 13.8736 8.1123 13.7007C8.01375 13.5278 7.98182 13.3308 8.02145 13.1401L8.1735 12.1539H9.03603C9.25745 12.1539 9.45574 12.1539 9.62428 12.1539H9.83575L10.0968 12.1686L10.6851 12.1922L11.1576 12.2069H11.6269H11.7459H12.2152H12.8067H13.276C13.471 12.2069 13.6693 12.2069 13.8642 12.1892L14.3368 12.1715L14.9251 12.1362L15.3943 12.098C15.5926 12.098 15.7876 12.0656 15.9859 12.045L16.4551 11.989H16.5741L17.0434 11.9243L17.516 11.8477C17.7143 11.8153 17.9092 11.7771 18.1042 11.7388L18.5735 11.6416L19.1651 11.518L19.6343 11.4091C19.8293 11.362 20.0276 11.309 20.2226 11.256L20.6951 11.1117C20.8934 11.047 21.0917 10.9793 21.2834 10.9027C21.475 10.8262 21.6139 10.7732 21.756 10.6996C21.9591 10.6055 22.1556 10.5003 22.3442 10.3846C22.5083 10.2836 22.665 10.1735 22.8135 10.0549C22.9977 9.90615 23.1649 9.74146 23.3125 9.56325C23.3422 9.52497 23.372 9.48964 23.4017 9.44843C23.5613 9.24311 23.7038 9.02762 23.828 8.80371C23.828 8.81843 23.828 8.83021 23.828 8.84493V8.87436C23.8266 8.88018 23.8266 8.88622 23.828 8.89204C23.8262 8.90277 23.8262 8.91369 23.828 8.92442V8.96564C23.828 8.98919 23.828 9.01274 23.828 9.03629L24.3799 13.1283C24.42 13.3166 24.3928 13.5113 24.3021 13.6851C24.2114 13.8588 24.0618 14.0029 23.8743 14.0969Z" fill="#FAA4A8"/>
</g>
<g style="mix-blend-mode:color-dodge" opacity="0.4">
<path d="M16.5747 8H11.6309V14.1881H16.5747V8Z" fill="#EF2E65"/>
</g>
<g style="mix-blend-mode:color-dodge" opacity="0.3">
<path d="M21.2341 32.5991C21.2341 34.3271 20.4244 35.9433 19.0133 37.3093C18.6315 37.6803 18.2195 38.0257 17.7806 38.3426C15.1368 40.2738 11.1711 41.5368 6.69323 41.6516C6.50156 40.3857 6.24597 39.11 5.92651 37.8245C5.7778 37.2357 5.6489 36.6469 5.54315 36.0788C5.45062 35.593 5.37462 35.1161 5.31183 34.651C5.14472 33.438 5.06745 32.2166 5.08052 30.9946C5.08052 30.9357 5.08052 30.8798 5.08052 30.8239V30.4883V30.2822C5.08052 30.2292 5.08052 30.1762 5.08052 30.1232C5.08052 30.0702 5.08052 29.9701 5.08052 29.8936C5.08052 29.77 5.0805 29.6463 5.10694 29.5227L5.12675 29.3107C5.12675 29.2371 5.12677 29.1635 5.1466 29.0929C5.14498 29.0742 5.14498 29.0555 5.1466 29.0369C5.1466 28.9751 5.14658 28.9133 5.1664 28.8515C5.18623 28.7896 5.18295 28.7043 5.18956 28.6336C5.19617 28.563 5.18954 28.5217 5.21268 28.4658C5.23581 28.4099 5.21268 28.3893 5.21268 28.348C5.21268 28.3068 5.2127 28.2332 5.23583 28.1744L5.26556 27.9801L5.28541 27.8594C5.32176 27.6356 5.36141 27.4148 5.40438 27.1999L5.46384 26.9055C5.51671 26.67 5.56959 26.4404 5.62577 26.2167C5.62577 26.1578 5.65552 26.0989 5.67204 26.04C5.79101 25.5896 5.91991 25.1568 6.05871 24.7624C6.19751 24.3679 6.38917 23.9027 6.54119 23.52C7.36156 23.537 8.18024 23.595 8.99332 23.6937C9.68401 23.7761 10.3549 23.888 11.0092 24.0234C14.7898 24.8183 17.8896 26.4787 19.6312 28.6071C19.8331 28.8522 20.0186 29.1078 20.1865 29.3725C20.3338 29.6031 20.4662 29.8409 20.583 30.085C20.6425 30.2086 20.6987 30.3352 20.7482 30.4618C20.844 30.6976 20.9235 30.9385 20.9862 31.183C21.0862 31.5698 21.1459 31.964 21.1646 32.3606C21.2307 32.4401 21.2341 32.5078 21.2341 32.5991Z" fill="white"/>
</g>
<g style="mix-blend-mode:color-dodge" opacity="0.3">
<path d="M9.9152 76.4135C9.10884 73.6521 9.16502 70.7759 9.4988 67.9321C9.66404 66.5131 9.89534 65.153 10.1366 63.7341C10.4202 62.2623 10.6067 60.777 10.6951 59.2858C10.7513 57.752 10.6654 56.2153 10.6951 54.6815C10.6942 54.5004 10.6133 54.3268 10.4698 54.1984C10.3263 54.07 10.1318 53.9972 9.92839 53.9956C9.72497 53.9979 9.53062 54.0709 9.38677 54.199C9.24292 54.3272 9.16097 54.5003 9.1584 54.6815C9.11213 56.1535 9.18484 57.6255 9.1584 59.0974C9.08853 60.5256 8.91743 61.9483 8.64615 63.3572C8.16366 66.2393 7.65476 69.1361 7.72416 72.0595C7.75112 73.6487 7.98738 75.2296 8.42807 76.7697C8.48436 76.9435 8.6148 77.0907 8.79146 77.1799C8.96812 77.269 9.17696 77.293 9.37322 77.2466C9.56878 77.1971 9.73456 77.0811 9.83476 76.9235C9.93495 76.7659 9.96149 76.5795 9.90858 76.4047L9.9152 76.4135Z" fill="white"/>
</g>
<path d="M7.5 4.4L1 4.4L1 12.9L7.5 12.9L7.5 15L15 8.5L7.5 2L7.5 4.4Z" fill="#3D8DFF" stroke="#1F59AD"/>
</svg>
