<svg width="50" height="50" viewBox="0 0 50 50" fill="none" xmlns="http://www.w3.org/2000/svg">
<g clip-path="url(#clip0_2021_36)">
<rect width="50" height="50" rx="5" fill="#0056D1"/>
<path d="M30.68 23.4832C36.7762 26.485 41.7625 31.7114 42.9286 38.287C44.8841 49.2876 37.095 62.3214 25.1621 64.2821C24.3401 64.4162 23.5114 64.5059 22.6798 64.5508C14.767 64.9853 7.38109 60.9979 1.31784 56.5278C-2.65178 53.6008 -6.42303 50.0793 -8.02678 45.5481C-9.32857 41.8697 -9.05632 37.7439 -7.48068 34.1661C-2.51444 22.8983 13.5054 18.5537 25.0978 21.4388C27.0257 21.92 28.8969 22.6053 30.68 23.4832Z" fill="#FCE4B1"/>
<path d="M50.3392 16.6724C52.0996 16.5668 53.8068 17.9137 54.6921 19.676C56.0883 22.465 56.3859 26.3155 54.9021 29.022C53.0931 32.3174 49.0768 32.3033 46.8498 29.2191C43.9756 25.24 45.1278 16.9855 50.3392 16.6724Z" fill="#FCE4B1"/>
<path d="M46.2056 6.2418C45.6519 6.51834 44.9401 6.38583 44.4446 6.02288C43.6598 5.44675 43.1004 4.42765 43.254 3.47321C43.4403 2.31008 44.7353 1.7506 45.8222 2.2896C47.2241 2.98671 47.8438 5.42499 46.2056 6.2418Z" fill="#FCE4B1"/>
<path d="M-1.93805 -11.0768C1.40519 -12.5723 6.04877 -12.4942 8.82796 -9.91405C15.1904 -4.00728 8.35535 4.85271 2.16004 7.14543C-0.877613 8.27048 -4.49286 7.933 -6.90177 5.74756C-12.3947 0.754397 -7.44543 -8.61216 -1.93805 -11.0768Z" fill="#FCE4B1"/>
<path d="M7.816 15.144C6.888 15.144 6.112 14.836 5.488 14.22C4.872 13.604 4.564 12.808 4.564 11.832C4.564 10.912 4.856 10.132 5.44 9.492C6.024 8.852 6.764 8.532 7.66 8.532C8.62 8.532 9.364 8.86 9.892 9.516C10.428 10.164 10.696 10.972 10.696 11.94C10.696 12.116 10.688 12.252 10.672 12.348H6.016C6.096 12.852 6.3 13.248 6.628 13.536C6.956 13.816 7.36 13.956 7.84 13.956C8.464 13.956 9.036 13.704 9.556 13.2L10.408 13.956C9.752 14.748 8.888 15.144 7.816 15.144ZM6.004 11.388H9.256C9.208 10.9 9.044 10.5 8.764 10.188C8.484 9.876 8.112 9.72 7.648 9.72C7.208 9.72 6.84 9.876 6.544 10.188C6.248 10.492 6.068 10.892 6.004 11.388ZM16.2222 15.144C15.0062 15.144 13.9902 14.728 13.1742 13.896C12.3582 13.056 11.9502 12.024 11.9502 10.8C11.9502 9.584 12.3582 8.556 13.1742 7.716C13.9902 6.876 15.0262 6.456 16.2822 6.456C17.0102 6.456 17.6262 6.568 18.1302 6.792C18.6422 7.016 19.1222 7.34 19.5702 7.764L18.6222 8.856C17.8702 8.16 17.0862 7.812 16.2702 7.812C15.4702 7.812 14.8062 8.1 14.2782 8.676C13.7582 9.252 13.4982 9.96 13.4982 10.8C13.4982 11.632 13.7622 12.34 14.2902 12.924C14.8182 13.5 15.4782 13.788 16.2702 13.788C16.7502 13.788 17.1742 13.7 17.5422 13.524C17.9102 13.34 18.2902 13.064 18.6822 12.696L19.6302 13.656C19.1582 14.152 18.6582 14.524 18.1302 14.772C17.6022 15.02 16.9662 15.144 16.2222 15.144ZM23.9084 15.144C22.9484 15.144 22.1484 14.824 21.5084 14.184C20.8684 13.544 20.5484 12.764 20.5484 11.844C20.5484 10.924 20.8724 10.144 21.5204 9.504C22.1684 8.856 22.9724 8.532 23.9324 8.532C24.8924 8.532 25.6924 8.852 26.3324 9.492C26.9804 10.132 27.3044 10.916 27.3044 11.844C27.3044 12.756 26.9804 13.536 26.3324 14.184C25.6844 14.824 24.8764 15.144 23.9084 15.144ZM23.9324 13.884C24.5084 13.884 24.9724 13.688 25.3244 13.296C25.6764 12.904 25.8524 12.42 25.8524 11.844C25.8524 11.276 25.6684 10.796 25.3004 10.404C24.9324 10.004 24.4684 9.804 23.9084 9.804C23.3404 9.804 22.8804 10 22.5284 10.392C22.1764 10.784 22.0004 11.268 22.0004 11.844C22.0004 12.404 22.1844 12.884 22.5524 13.284C22.9204 13.684 23.3804 13.884 23.9324 13.884ZM28.7831 15V8.664H30.2351V9.624C30.7631 8.896 31.4071 8.532 32.1671 8.532C33.0471 8.532 33.6751 8.904 34.0511 9.648C34.6191 8.904 35.3351 8.532 36.1991 8.532C36.8951 8.532 37.4391 8.744 37.8311 9.168C38.2231 9.592 38.4191 10.188 38.4191 10.956V15H36.9671V11.4C36.9671 10.896 36.8551 10.512 36.6311 10.248C36.4071 9.984 36.0911 9.852 35.6831 9.852C35.2751 9.852 34.9471 9.992 34.6991 10.272C34.4511 10.544 34.3271 10.928 34.3271 11.424V15H32.8751V11.388C32.8751 10.9 32.7631 10.524 32.5391 10.26C32.3151 9.988 31.9991 9.852 31.5911 9.852C31.1831 9.852 30.8551 9.996 30.6071 10.284C30.3591 10.564 30.2351 10.948 30.2351 11.436V15H28.7831Z" fill="white"/>
<path d="M37.1295 57.4876H12.8222C11.5702 57.4872 10.3588 57.0428 9.40341 56.2336C8.44802 55.4243 7.81048 54.3025 7.60411 53.0676C6.61474 47.1874 5.12325 40.721 3.33496 33.905H46.6407C44.8268 40.4679 43.3502 46.8741 42.3485 53.0643C42.1457 54.3013 41.5092 55.4258 40.5529 56.2363C39.5967 57.0468 38.3831 57.4904 37.1295 57.4876Z" fill="#D52B2B"/>
<path d="M46.85 32.5521H3.1493C1.72881 32.5521 1.72634 36.7188 3.1493 36.7188H46.85C48.2705 36.7188 48.273 32.5521 46.85 32.5521Z" fill="#9E1313"/>
<path d="M26.6022 34.2248C27.358 33.4372 27.3322 32.186 26.5446 31.4303L20.1839 25.3268C19.3963 24.571 18.1451 24.5969 17.3894 25.3845V25.3845C16.6336 26.1721 16.6594 27.4233 17.447 28.1791L23.8077 34.2825C24.5953 35.0383 25.8465 35.0125 26.6022 34.2248V34.2248Z" fill="#3F3F3F"/>
<path d="M21.6863 52.5834L29.4988 53.3647L29.8894 38.5417H20.3125L21.6863 52.5834Z" fill="#9B1919"/>
<path d="M31.3799 52.5834H39.8434L42.8381 38.5417H32.9424L31.3799 52.5834Z" fill="#9B1919"/>
<path d="M18.6198 54.0157L17.0573 38.5417H6.98926C7.21929 39.4586 10.2072 53.1368 10.4166 54.0157H18.6198Z" fill="#9B1919"/>
<path d="M37.4703 40.0623L36.9072 43.3989H41.3347C41.5793 42.2996 41.8387 41.1874 42.113 40.0623H37.4703Z" fill="#9B1919"/>
<path d="M14.3647 51.3303L13.8016 47.9945H9.5498C9.77846 49.1405 9.98814 50.2525 10.1789 51.3303H14.3647Z" fill="#9B1919"/>
<path d="M13.6964 47.3646L13.1332 44.028H8.71484C8.96713 45.1723 9.20322 46.2845 9.42308 47.3646H13.6964Z" fill="#9B1919"/>
<path d="M8.57836 43.3989H13.0305L12.4674 40.0623H7.80664C8.07707 41.205 8.33432 42.3172 8.57836 43.3989Z" fill="#9B1919"/>
</g>
<defs>
<clipPath id="clip0_2021_36">
<rect width="50" height="50" rx="5" fill="white"/>
</clipPath>
</defs>
</svg>
