<svg width="341" height="331" viewBox="0 0 341 331" fill="none" xmlns="http://www.w3.org/2000/svg">
<g opacity="0.6">
<path d="M170.301 331C167.246 330.839 96.5129 327.463 42.8199 253.997C-10.5517 180.852 0.862134 10.9315 1.34441 3.85818L1.66592 0H339.257L339.578 3.85818C340.061 11.0923 351.475 181.013 298.103 253.997C244.088 327.463 173.516 330.839 170.301 331ZM9.38229 8.19864C7.93547 34.4021 2.30895 184.228 49.5717 249.014C99.5673 317.336 166.603 322.319 170.301 322.641C173.998 322.48 241.034 317.496 291.03 249.014C338.292 184.389 332.666 34.2414 331.219 8.19864H9.38229Z" fill="white"/>
<path d="M237.657 75.556L237.818 75.3952C245.534 54.336 261.449 37.2957 274.47 37.2957C287.492 37.2957 291.029 54.1752 283.312 75.2345L283.151 75.3952C275.435 96.4545 259.52 113.495 246.499 113.495C233.477 113.495 229.941 96.6152 237.657 75.556ZM271.095 75.556L271.255 75.3952C275.114 64.7852 274.149 55.622 267.719 55.622C261.288 55.622 253.733 64.6245 249.875 75.2345L249.714 75.3952C245.856 86.0052 246.981 95.1684 253.411 95.1684C259.681 95.1684 267.236 86.166 271.095 75.556Z" fill="white"/>
<path d="M145.704 131.66H156.797L160.333 170.403L174.48 131.66H186.215L159.529 204.966H149.08L145.383 164.776L130.754 204.966H119.019L145.704 131.66Z" fill="white"/>
<path d="M55.0371 172.975V131.66H73.2027V172.493C73.2027 183.103 78.0255 188.086 85.0988 188.086C92.3329 188.086 97.1556 183.264 97.1556 172.975V131.66H115.321V172.332C115.321 195.963 103.425 206.413 84.938 206.413C66.6117 206.413 55.0371 195.803 55.0371 172.975Z" fill="white"/>
<path d="M195.861 131.66H232.675C266.434 131.66 286.207 146.772 286.207 167.831V167.992C286.207 189.212 266.273 204.805 232.193 204.805H196.022V131.66H195.861ZM222.226 149.665V187.122H232.996C248.911 187.122 259.361 180.37 259.361 168.635V168.474C259.361 156.739 248.911 149.826 232.996 149.826L222.226 149.665Z" fill="white"/>
<path d="M92.8154 253.354V224.9H117.251V253.193C117.251 260.427 123.52 263.964 133.326 263.964C143.133 263.964 149.563 260.588 149.563 253.515V224.9H173.998V253.032C173.998 269.43 157.922 276.664 133.166 276.664C108.409 276.503 92.8154 269.108 92.8154 253.354Z" fill="white"/>
<path d="M222.869 65.7498C222.869 57.712 219.332 50.4779 213.705 45.0121C209.365 40.9932 202.774 38.5818 193.932 38.5818H163.228V111.887H181.232V98.7051C181.232 98.7051 188.306 97.2583 192.968 95.9723L202.452 111.887H223.19L209.847 89.7027C217.724 84.237 222.869 75.5561 222.869 65.7498ZM194.093 79.4142C188.466 82.1471 181.072 83.2724 181.072 83.2724V73.7877V70.0903V56.1044H192.968C198.916 56.1044 202.774 58.998 202.774 64.946V65.1068C202.774 65.4283 202.774 65.7498 202.774 66.0714C202.292 73.3054 199.88 76.6814 194.093 79.4142Z" fill="white"/>
<path d="M249.716 242.905C249.716 231.491 238.302 224.739 220.619 224.739H190.396V276.503H209.848V268.948C209.848 268.948 220.137 266.858 228.818 263.643C237.498 260.427 238.945 258.981 241.517 257.534C243.929 255.926 246.501 252.872 247.787 250.46C249.073 248.21 249.877 245.798 249.716 242.905ZM210.009 256.248V255.122V250.46V249.496V236.796H219.172C224.477 236.796 228.335 238.243 229.782 240.815C229.943 241.137 230.747 242.905 230.586 244.995C230.586 245.155 230.586 245.316 230.425 245.477C230.425 245.638 230.425 245.638 230.264 245.798C230.104 246.281 229.943 246.924 229.461 247.406C227.371 250.46 223.673 252.872 218.529 254.64C213.385 256.409 210.009 256.248 210.009 256.248Z" fill="white"/>
<path d="M146.509 77.8066V73.9484V73.6269H133.005H108.57V73.9484V75.556V81.8256V84.7192H123.521H124.646C123.36 86.9698 121.752 88.7381 119.984 90.3457C117.894 92.2748 115.483 93.5609 113.232 94.5254C111.625 95.1684 110.178 95.8115 109.052 96.133C108.892 96.2937 108.57 96.2937 108.249 96.2937C107.927 96.4545 107.445 96.4545 107.284 96.6153C107.123 96.6153 107.123 96.6153 106.963 96.776C106.32 96.9368 105.998 96.9368 105.998 96.9368C104.069 97.2583 102.14 97.4191 100.211 97.4191C97.9602 97.4191 95.8703 97.2583 93.9412 96.776C88.9577 96.133 84.7781 94.2039 81.4021 91.1495C77.3832 87.6128 75.2934 83.1116 74.8111 77.4851C75.1326 67.0359 86.5464 58.6765 100.693 58.6765C107.606 58.6765 113.714 60.6055 118.376 63.8207L136.864 50.1563C136.864 50.1563 133.648 46.7804 124.967 43.2437C124.807 43.2437 124.807 43.2437 124.807 43.083C124.646 43.083 124.485 42.9222 124.324 42.9222C123.681 42.7614 123.038 42.4399 122.395 42.1184C121.431 41.7969 120.627 41.4754 119.662 41.1539C119.019 40.9931 118.376 40.6716 117.573 40.5108C117.412 40.5108 117.412 40.5108 117.412 40.5108C111.303 38.9033 104.39 37.9387 96.9956 37.9387C81.4021 37.9387 68.7023 41.6361 59.2176 48.8702C49.7329 56.1043 44.9102 65.2675 44.9102 76.199C44.9102 86.9698 49.7329 95.9722 59.5391 103.367C67.8985 109.637 78.0262 113.173 89.9223 114.138C92.8159 114.299 113.554 114.942 124.807 102.563V113.013H127.54H133.005H146.509V88.8989V86.3268V83.1116V82.4686V82.3078V77.8066Z" fill="white"/>
</g>
</svg>
