<svg width="24" height="35" viewBox="0 0 24 35" fill="none" xmlns="http://www.w3.org/2000/svg">
<path d="M19.952 10.8192V7.54032C19.952 3.38257 16.5692 0 12.4119 0H11.0931C8.24401 0 5.75956 1.5889 4.47732 3.92617C4.47732 3.92796 4.47554 3.92955 4.47434 3.93133C4.41873 4.03316 4.36544 4.1365 4.31446 4.24137L4.30552 4.25845C4.25627 4.35954 4.21019 4.46242 4.1655 4.5661C4.16133 4.57563 4.15657 4.58477 4.15259 4.5943C4.11029 4.69361 4.07077 4.7943 4.03343 4.8956C4.02806 4.9101 4.0219 4.9242 4.01654 4.9387C3.98059 5.03602 3.94762 5.13453 3.91584 5.23383C3.90949 5.25369 3.90234 5.27157 3.89598 5.29064C3.86659 5.38498 3.84037 5.48031 3.81436 5.57604C3.8076 5.60087 3.79966 5.6253 3.7933 5.65032C3.76927 5.74268 3.74861 5.83623 3.72796 5.92997C3.7218 5.95877 3.71405 5.98737 3.7081 6.01656C3.68963 6.10614 3.67433 6.19671 3.65944 6.28747C3.65348 6.32163 3.64633 6.355 3.64097 6.38936C3.62746 6.47834 3.61713 6.56811 3.60661 6.65828C3.60224 6.69483 3.59647 6.73097 3.5925 6.76772C3.58277 6.86206 3.57682 6.95719 3.57066 7.05253C3.56867 7.0855 3.5649 7.11827 3.56311 7.15183C3.55662 7.28053 3.55338 7.4101 3.55338 7.54052V10.8192C1.51859 11.2859 4.39433e-06 13.106 4.39433e-06 15.2818V29.6252C-0.00106982 30.3988 0.194821 31.16 0.569226 31.837C0.593854 31.8817 0.619477 31.9263 0.645892 31.97C0.661583 31.9965 0.677669 32.0225 0.693955 32.0485C0.710241 32.0745 0.730103 32.1057 0.748772 32.1339C0.765058 32.1587 0.781344 32.1837 0.798226 32.2084C0.829077 32.2537 0.86079 32.2983 0.893363 32.3424C0.91084 32.3661 0.928515 32.3889 0.94639 32.4122C0.967642 32.44 0.989291 32.4672 1.01114 32.4946C1.02941 32.5172 1.04788 32.5401 1.06655 32.5625C1.1021 32.605 1.13825 32.6471 1.17559 32.6882C1.19327 32.7081 1.21174 32.7279 1.23021 32.7478C1.25543 32.7752 1.28125 32.8022 1.30727 32.8288C1.32713 32.8487 1.34699 32.8686 1.36686 32.8884C1.4036 32.9248 1.44133 32.9603 1.47947 32.9957C1.49933 33.0141 1.51919 33.0324 1.54064 33.0505C1.57163 33.0781 1.6032 33.1055 1.63498 33.1323C1.65484 33.1494 1.6747 33.1661 1.69595 33.1828C1.73329 33.2132 1.77143 33.2423 1.80976 33.2721C1.82962 33.2876 1.85087 33.3029 1.87133 33.3182C1.91105 33.3472 1.95077 33.3756 1.9905 33.4034L2.05008 33.4431C2.0898 33.4694 2.12953 33.4954 2.17104 33.5206C2.18514 33.5291 2.19864 33.5383 2.21294 33.5468C2.26498 33.5782 2.31794 33.6086 2.37183 33.638L2.43003 33.6694C2.47293 33.6921 2.51616 33.7143 2.55972 33.7357C2.57501 33.7433 2.59031 33.7512 2.6058 33.7585C2.6622 33.7856 2.71941 33.8112 2.77681 33.836C2.79448 33.8435 2.81255 33.8509 2.83063 33.8582C2.8773 33.8781 2.92398 33.896 2.97145 33.9139C2.98753 33.9198 3.00362 33.9262 3.01991 33.9319C3.08002 33.9539 3.14086 33.9745 3.20243 33.9937C3.21812 33.9987 3.23401 34.0032 3.2499 34.008C3.30048 34.0235 3.35139 34.038 3.40263 34.0515L3.45328 34.065C3.51723 34.081 3.58158 34.0959 3.64633 34.1095L3.68446 34.1168C3.73968 34.1278 3.79509 34.1367 3.8511 34.1464L3.90413 34.1548C3.97106 34.1647 4.03819 34.1734 4.10592 34.1806L4.12975 34.1826C4.19112 34.1885 4.25289 34.1931 4.31466 34.1967L4.36948 34.1995C4.43919 34.2026 4.50851 34.2048 4.57921 34.2048H18.9228C21.4523 34.2048 23.503 32.1544 23.503 29.6248V15.2818C23.5042 13.106 21.9864 11.2859 19.952 10.8192ZM6.21657 7.54032C6.21657 7.45412 6.21889 7.36845 6.22352 7.28331C6.22352 7.27398 6.22491 7.26465 6.22551 7.25511C6.23008 7.17865 6.23584 7.10238 6.24378 7.0271C6.24378 7.02472 6.24378 7.02234 6.24478 7.01995C6.26239 6.85467 6.28851 6.69039 6.32303 6.52779C6.79056 4.3232 8.75166 2.66359 11.0933 2.66359H12.4121C15.1011 2.66359 17.2886 4.85131 17.2886 7.54032V10.702H6.21657V7.54032Z" fill="white"/>
<path d="M12.4116 0H11.0928C9.02588 0 7.15138 0.836555 5.7879 2.18831C5.77598 2.19983 5.76466 2.21214 5.75314 2.22406C5.70707 2.27014 5.66139 2.31681 5.6167 2.36408C5.59684 2.38394 5.57936 2.40381 5.56069 2.42367C5.51991 2.46763 5.47985 2.51185 5.44053 2.55634C5.42067 2.57918 5.40081 2.60222 5.38094 2.62506C5.34361 2.66836 5.3068 2.71205 5.27052 2.75614C5.25065 2.78057 5.23079 2.8052 5.21093 2.82983C5.17598 2.87372 5.14142 2.91781 5.10706 2.9625C5.0872 2.98792 5.06734 3.01335 5.04887 3.03917C5.0151 3.08445 4.98213 3.12993 4.94956 3.17581C4.93109 3.20163 4.91262 3.22725 4.89454 3.25327C4.86157 3.30094 4.8294 3.3492 4.79742 3.39746C4.78094 3.42249 4.76406 3.44731 4.74797 3.47254C4.71381 3.52537 4.68104 3.57919 4.64866 3.63302C4.63556 3.65427 4.62225 3.67512 4.60894 3.69657C4.56405 3.77205 4.52029 3.84838 4.47766 3.92557C4.47766 3.92736 4.47587 3.92895 4.47468 3.93074C4.41887 4.03263 4.36584 4.1361 4.31479 4.24077L4.30586 4.25785C4.2566 4.35895 4.21052 4.46183 4.16584 4.5655C4.16166 4.57504 4.1569 4.58417 4.15293 4.59371C4.11062 4.69301 4.0711 4.79371 4.03376 4.895C4.0284 4.9095 4.02224 4.9236 4.01688 4.9381C3.98093 5.03542 3.94796 5.13393 3.91618 5.23324C3.90982 5.2531 3.90267 5.27097 3.89632 5.29024C3.86692 5.38418 3.84071 5.47971 3.81469 5.57545C3.80794 5.60027 3.79999 5.6247 3.79364 5.64973C3.7696 5.74208 3.74895 5.83563 3.72829 5.92937C3.72214 5.95837 3.71439 5.98677 3.70843 6.01597C3.68996 6.10554 3.67467 6.19611 3.65977 6.28688C3.65381 6.32104 3.64666 6.3544 3.6413 6.38876C3.6278 6.47774 3.61747 6.56751 3.60694 6.65768C3.60257 6.69423 3.59681 6.73038 3.59284 6.76712C3.5831 6.86146 3.57715 6.9566 3.57099 7.05193C3.56901 7.0849 3.56523 7.11767 3.56344 7.15124C3.55695 7.27994 3.55371 7.4095 3.55371 7.53992V10.8192C3.89067 10.7415 4.23534 10.7022 4.58113 10.702H6.21631V7.54032C6.21631 7.45412 6.21863 7.36845 6.22326 7.28331C6.22326 7.27398 6.22465 7.26464 6.22525 7.25511C6.22981 7.17865 6.23557 7.10258 6.24352 7.02691C6.24352 7.02472 6.24352 7.02234 6.24451 7.01995C6.26213 6.85466 6.28824 6.69039 6.32277 6.52779C6.7903 4.3232 8.7514 2.66359 11.093 2.66359H12.4118C15.1008 2.66359 17.2884 4.85131 17.2884 7.54032V10.702H18.9239C19.2699 10.7022 19.6148 10.7415 19.9519 10.8192V7.54032C19.9517 3.38257 16.569 0 12.4116 0Z" fill="white"/>
<path d="M11.7521 17.4746C11.4225 17.4746 11.0961 17.5395 10.7916 17.6656C10.4871 17.7917 10.2104 17.9766 9.97732 18.2096C9.74426 18.4426 9.55938 18.7193 9.43324 19.0238C9.30711 19.3283 9.24219 19.6547 9.24219 19.9843C9.24204 20.4207 9.35575 20.8496 9.57209 21.2286C9.78843 21.6076 10.0999 21.9236 10.4758 22.1454V26.1573C10.4758 26.4959 10.6102 26.8205 10.8496 27.0599C11.0889 27.2993 11.4135 27.4338 11.7521 27.4338C12.0906 27.4338 12.4153 27.2993 12.6547 27.06C12.8941 26.8206 13.0287 26.4959 13.0287 26.1573V22.1454C13.4045 21.9236 13.716 21.6075 13.9323 21.2285C14.1486 20.8495 14.2623 20.4207 14.2621 19.9843C14.2621 19.6547 14.1971 19.3283 14.071 19.0238C13.9448 18.7193 13.7599 18.4426 13.5269 18.2096C13.2938 17.9765 13.0171 17.7917 12.7126 17.6656C12.408 17.5395 12.0817 17.4746 11.7521 17.4746Z" fill="#0056D1"/>
</svg>
