<svg width="343" height="118" viewBox="0 0 343 118" fill="none" xmlns="http://www.w3.org/2000/svg">
<rect width="343" height="118" rx="10" fill="#C32C2C"/>
<mask id="mask0_290_19814" style="mask-type:alpha" maskUnits="userSpaceOnUse" x="0" y="0" width="343" height="118">
<rect width="343" height="118" rx="10" fill="#C32C2C"/>
</mask>
<g mask="url(#mask0_290_19814)">
<path d="M343 0H0V118H343V0Z" fill="url(#paint0_linear_290_19814)"/>
<path d="M51.5241 68.9683C80.8721 68.7309 103.8 59.9485 118.016 46.8935C133.148 32.8891 134.982 16.511 148.281 2.50656C149.138 1.61882 150.046 0.785672 151 0H0V64.5984C16.9668 66.2244 33.5071 69.3481 51.5241 68.9683Z" fill="url(#paint1_linear_290_19814)"/>
<path d="M326.689 6.74016C310.214 16.8882 308.841 30.8122 307.468 43.5562C305.637 58.1882 301.061 71.6402 285.501 84.1482C269.025 97.6002 244.312 109.164 216.396 116.008C213.277 116.746 210.146 117.41 207 118H343V0H342.725C336.645 1.73665 331.214 4.01919 326.689 6.74016Z" fill="url(#paint2_linear_290_19814)"/>
<rect x="143" y="16.9998" width="170" height="108" rx="5" fill="#072244"/>
<rect x="148" y="25.9998" width="161" height="99" rx="3" fill="#043E91"/>
<path d="M212.692 71.1445H293.229C293.491 71.1445 293.746 71.1175 294.001 71.1059C289.451 70.9089 285.152 68.9632 282.001 65.6743C278.85 62.3853 277.091 58.0072 277.089 53.4526V49.6918C277.092 45.1378 278.852 40.7606 282.002 37.4726C285.153 34.1845 289.451 32.2392 294.001 32.0423C293.742 32.0423 293.487 32.0037 293.229 32.0037H212.692C208 32.0037 203.501 33.8671 200.183 37.1841C196.865 40.5012 195.001 45.0002 195 49.6918V53.4564C195.002 58.1476 196.867 62.6461 200.184 65.9629C203.502 69.2798 208.001 71.1435 212.692 71.1445Z" fill="#E1E7FF"/>
<path d="M314.543 31.9998H210.017C212.34 31.9998 214.641 32.4574 216.787 33.3465C218.934 34.2356 220.884 35.5388 222.527 37.1816C224.17 38.8245 225.473 40.7748 226.362 42.9213C227.251 45.0678 227.709 47.3684 227.709 49.6917V174.308C227.708 176.631 228.165 178.932 229.054 181.079C229.943 183.226 231.246 185.176 232.889 186.819C234.532 188.462 236.483 189.765 238.63 190.654C240.776 191.543 243.077 192 245.401 192H332.223V49.6917C332.223 45.0015 330.361 40.5033 327.046 37.1857C323.73 33.8682 319.233 32.0028 314.543 31.9998Z" fill="white"/>
<g style="mix-blend-mode:multiply" opacity="0.5">
<path d="M332.223 186.428V192H245.4C243.077 192 240.776 191.543 238.629 190.654C236.483 189.765 234.532 188.462 232.889 186.819C231.246 185.176 229.943 183.225 229.054 181.079C228.165 178.932 227.708 176.631 227.708 174.308V49.6917C227.707 48.7463 227.631 47.8025 227.48 46.8691L332.223 186.428Z" fill="#E1E7FF"/>
</g>
<path d="M318.033 42.9998H243.674C240.555 42.9998 238.025 45.5289 238.025 48.6487V78.2756C238.025 81.3954 240.555 83.9245 243.674 83.9245H318.033C321.153 83.9245 323.682 81.3954 323.682 78.2756V48.6487C323.682 45.5289 321.153 42.9998 318.033 42.9998Z" fill="#EBEBEB"/>
<path d="M287.661 63.46C287.661 66.2856 288.499 69.0477 290.069 71.3971C291.639 73.7465 293.87 75.5776 296.48 76.6589C299.091 77.7402 301.963 78.0231 304.735 77.4719C307.506 76.9206 310.052 75.56 312.05 73.562C314.048 71.564 315.408 69.0184 315.959 66.2471C316.511 63.4758 316.228 60.6033 315.146 57.9928C314.065 55.3823 312.234 53.1511 309.885 51.5813C307.535 50.0115 304.773 49.1736 301.948 49.1736C298.159 49.1736 294.525 50.6787 291.846 53.358C289.166 56.0372 287.661 59.671 287.661 63.46ZM293.924 63.46C293.924 61.8746 294.394 60.3248 295.275 59.0066C296.156 57.6884 297.408 56.661 298.872 56.0543C300.337 55.4476 301.949 55.2889 303.504 55.5982C305.059 55.9075 306.487 56.6709 307.608 57.7919C308.729 58.913 309.492 60.3412 309.802 61.8962C310.111 63.4511 309.952 65.0628 309.345 66.5275C308.739 67.9922 307.711 69.2441 306.393 70.1249C305.075 71.0057 303.525 71.4758 301.94 71.4758C299.814 71.4758 297.775 70.6313 296.272 69.128C294.768 67.6248 293.924 65.5859 293.924 63.46Z" fill="#D52B2B"/>
<path d="M301.939 71.4759C304.023 71.4649 306.021 70.6422 307.509 69.1824C308.996 67.7226 309.856 65.7407 309.907 63.6572C309.957 61.5737 309.193 59.5526 307.778 58.0228C306.362 56.4931 304.407 55.575 302.326 55.4635L303.631 49.2856C305.607 49.5119 307.515 50.1485 309.231 51.1546C310.947 52.1608 312.435 53.5143 313.598 55.1285C314.761 56.7427 315.573 58.5821 315.984 60.5287C316.395 62.4753 316.395 64.4863 315.984 66.4328C315.573 68.3793 314.759 70.2185 313.596 71.8325C312.433 73.4465 310.945 74.7997 309.229 75.8056C307.512 76.8114 305.604 77.4476 303.628 77.6734C301.651 77.8993 299.649 77.7098 297.75 77.1171L299.055 70.9392C299.975 71.2956 300.953 71.4776 301.939 71.4759Z" fill="#EB4444"/>
<g style="mix-blend-mode:multiply" opacity="0.6">
<path d="M247.485 79.7312H278.68V48.5444C278.68 48.4102 278.733 48.2816 278.828 48.1867C278.923 48.0919 279.052 48.0386 279.186 48.0386C279.32 48.0386 279.448 48.0919 279.543 48.1867C279.638 48.2816 279.691 48.4102 279.691 48.5444V80.2447C279.691 80.3789 279.638 80.5076 279.543 80.6024C279.448 80.6973 279.32 80.7506 279.186 80.7506H247.485C247.351 80.7506 247.222 80.6973 247.128 80.6024C247.033 80.5076 246.979 80.3789 246.979 80.2447C246.979 80.1106 247.033 79.982 247.128 79.8871C247.222 79.7922 247.351 79.7389 247.485 79.7389V79.7312Z" fill="#EB4444"/>
</g>
<path d="M249.853 57.0854V63.1204H247.173C247.154 63.1214 247.137 63.1296 247.124 63.1432C247.111 63.1569 247.103 63.175 247.104 63.1938C247.104 63.2122 247.111 63.2299 247.124 63.2429C247.137 63.256 247.155 63.2633 247.173 63.2633H249.853V69.3022H247.173C247.155 69.3022 247.137 69.3095 247.124 69.3226C247.111 69.3356 247.104 69.3533 247.104 69.3717C247.104 69.3901 247.111 69.4078 247.124 69.4208C247.137 69.4339 247.155 69.4412 247.173 69.4412H249.853V75.4801H247.173C247.155 75.4801 247.137 75.4874 247.124 75.5005C247.111 75.5135 247.104 75.5312 247.104 75.5496C247.103 75.5684 247.111 75.5865 247.124 75.6001C247.137 75.6138 247.154 75.622 247.173 75.623H249.853V78.3026C249.854 78.3214 249.862 78.3391 249.875 78.352C249.889 78.365 249.907 78.3722 249.926 78.3721C249.944 78.3721 249.962 78.3648 249.975 78.3518C249.988 78.3387 249.996 78.3211 249.996 78.3026V75.623H256.034V78.3026C256.034 78.3211 256.042 78.3387 256.055 78.3518C256.068 78.3648 256.086 78.3721 256.104 78.3721C256.122 78.3721 256.14 78.3648 256.153 78.3518C256.166 78.3387 256.173 78.3211 256.173 78.3026V75.623H262.212V78.3026C262.212 78.3211 262.22 78.3387 262.233 78.3518C262.246 78.3648 262.263 78.3721 262.282 78.3721C262.3 78.3721 262.318 78.3648 262.331 78.3518C262.344 78.3387 262.351 78.3211 262.351 78.3026V75.623H268.39V78.3026C268.39 78.3121 268.392 78.3215 268.396 78.3302C268.4 78.3388 268.405 78.3467 268.412 78.3532C268.419 78.3597 268.427 78.3647 268.436 78.368C268.445 78.3712 268.454 78.3727 268.464 78.3721C268.482 78.3721 268.5 78.3648 268.513 78.3518C268.526 78.3387 268.533 78.3211 268.533 78.3026V75.623H274.572V78.3026C274.572 78.3211 274.579 78.3387 274.592 78.3518C274.605 78.3648 274.623 78.3721 274.642 78.3721C274.66 78.3721 274.678 78.3648 274.691 78.3518C274.704 78.3387 274.711 78.3211 274.711 78.3026V75.623H277.391C277.4 75.623 277.41 75.6211 277.419 75.6174C277.428 75.6137 277.436 75.6083 277.443 75.6015C277.449 75.5947 277.455 75.5866 277.458 75.5777C277.462 75.5688 277.464 75.5592 277.464 75.5496C277.464 75.5401 277.462 75.5308 277.458 75.5221C277.455 75.5134 277.449 75.5055 277.442 75.499C277.435 75.4925 277.427 75.4875 277.418 75.4842C277.41 75.481 277.4 75.4796 277.391 75.4801H274.711V69.4412H277.391C277.409 69.4412 277.427 69.4339 277.44 69.4208C277.453 69.4078 277.46 69.3901 277.46 69.3717C277.46 69.3533 277.453 69.3356 277.44 69.3226C277.427 69.3095 277.409 69.3022 277.391 69.3022H274.711V63.2633H277.391C277.4 63.2638 277.41 63.2624 277.418 63.2591C277.427 63.2559 277.435 63.2508 277.442 63.2443C277.449 63.2378 277.455 63.23 277.458 63.2213C277.462 63.2126 277.464 63.2032 277.464 63.1938C277.464 63.1842 277.462 63.1746 277.458 63.1657C277.455 63.1568 277.449 63.1487 277.443 63.1419C277.436 63.1351 277.428 63.1297 277.419 63.126C277.41 63.1223 277.4 63.1204 277.391 63.1204H274.711V57.0854H277.391C277.4 57.0854 277.41 57.0835 277.419 57.0798C277.428 57.0761 277.436 57.0707 277.443 57.0639C277.449 57.0571 277.455 57.049 277.458 57.0401C277.462 57.0312 277.464 57.0217 277.464 57.012C277.464 57.0026 277.462 56.9932 277.458 56.9845C277.455 56.9758 277.449 56.968 277.442 56.9615C277.435 56.955 277.427 56.9499 277.418 56.9467C277.41 56.9434 277.4 56.942 277.391 56.9425H274.711V50.9036H277.391C277.409 50.9036 277.427 50.8963 277.44 50.8833C277.453 50.8702 277.46 50.8525 277.46 50.8341C277.46 50.8157 277.453 50.798 277.44 50.785C277.427 50.7719 277.409 50.7646 277.391 50.7646H274.711V48.085C274.711 48.0665 274.704 48.0488 274.691 48.0358C274.678 48.0228 274.66 48.0155 274.642 48.0155C274.623 48.0155 274.605 48.0228 274.592 48.0358C274.579 48.0488 274.572 48.0665 274.572 48.085V50.7646H268.533V48.085C268.534 48.0755 268.532 48.066 268.529 48.0572C268.526 48.0483 268.521 48.0402 268.514 48.0333C268.508 48.0264 268.5 48.021 268.491 48.0172C268.482 48.0135 268.473 48.0116 268.464 48.0116C268.454 48.011 268.444 48.0126 268.435 48.016C268.426 48.0195 268.417 48.0249 268.411 48.0318C268.404 48.0388 268.398 48.0471 268.395 48.0562C268.391 48.0654 268.39 48.0752 268.39 48.085V50.7646H262.351V48.085C262.351 48.0758 262.35 48.0668 262.346 48.0583C262.343 48.0499 262.337 48.0423 262.331 48.0358C262.325 48.0294 262.317 48.0242 262.308 48.0207C262.3 48.0172 262.291 48.0155 262.282 48.0155C262.273 48.0155 262.264 48.0172 262.255 48.0207C262.247 48.0242 262.239 48.0294 262.233 48.0358C262.226 48.0423 262.221 48.0499 262.218 48.0583C262.214 48.0668 262.212 48.0758 262.212 48.085V50.7646H256.173V48.085C256.173 48.0665 256.166 48.0488 256.153 48.0358C256.14 48.0228 256.122 48.0155 256.104 48.0155C256.086 48.0155 256.068 48.0228 256.055 48.0358C256.042 48.0488 256.034 48.0665 256.034 48.085V50.7646H249.996V48.085C249.996 48.0755 249.995 48.066 249.991 48.0572C249.988 48.0483 249.983 48.0402 249.977 48.0333C249.97 48.0264 249.962 48.021 249.954 48.0172C249.945 48.0135 249.936 48.0116 249.926 48.0116C249.907 48.0116 249.888 48.0193 249.874 48.0331C249.86 48.0468 249.853 48.0655 249.853 48.085V50.7646H247.173C247.155 50.7646 247.137 50.7719 247.124 50.785C247.111 50.798 247.104 50.8157 247.104 50.8341C247.104 50.8525 247.111 50.8702 247.124 50.8833C247.137 50.8963 247.155 50.9036 247.173 50.9036H249.853V56.9425H247.173C247.155 56.9425 247.137 56.9498 247.124 56.9629C247.111 56.9759 247.104 56.9936 247.104 57.012C247.103 57.0308 247.111 57.0489 247.124 57.0626C247.137 57.0762 247.154 57.0844 247.173 57.0854H249.853ZM256.031 50.9075V56.9464H249.996V50.9036L256.031 50.9075ZM262.208 50.9075V56.9464H256.173V50.9036L262.208 50.9075ZM268.386 63.2633V69.3022H262.351V63.2633H268.386ZM262.347 63.1204V57.0854H268.386V63.1204H262.347ZM262.208 69.2983H256.173V63.2633H262.212L262.208 69.2983ZM256.17 63.1204V57.0854H262.208V63.1204H256.17ZM268.386 50.9036V56.9425H262.351V50.9036H268.386ZM274.564 56.9425H268.533V50.9036H274.572L274.564 56.9425ZM274.564 63.1204H268.533V57.0854H274.572L274.564 63.1204ZM274.564 69.2983H268.533V63.2633H274.572L274.564 69.2983ZM268.525 75.4762V69.4412H274.564V75.4801L268.525 75.4762ZM262.347 75.4762V69.4412H268.386V75.4801L262.347 75.4762ZM256.17 75.4762V69.4412H262.208V75.4801L256.17 75.4762ZM249.992 69.4373H256.031V75.4762H249.996L249.992 69.4373ZM249.992 63.2594H256.031V69.2983H249.996L249.992 63.2594ZM249.992 57.0815H256.031V63.1166H249.996L249.992 57.0815Z" fill="white"/>
<path d="M277.615 78.9089C277.678 78.9096 277.74 78.8877 277.788 78.8471C277.846 78.8021 277.883 78.7365 277.892 78.6643C277.902 78.5921 277.882 78.5191 277.839 78.4609L269.753 68.0821C269.721 68.0409 269.678 68.0094 269.629 67.991C269.58 67.9726 269.527 67.9681 269.475 67.9778L262.243 69.3949L256.838 60.4832C256.803 60.4278 256.75 60.3859 256.689 60.3641C256.627 60.3424 256.56 60.3422 256.498 60.3635L250.922 62.4023L247.532 52.4442C247.508 52.3731 247.457 52.3144 247.389 52.2811C247.322 52.2478 247.244 52.2426 247.173 52.2666C247.102 52.2907 247.043 52.342 247.01 52.4094C246.977 52.4767 246.971 52.5546 246.995 52.6257L250.47 62.8579C250.482 62.893 250.501 62.9254 250.526 62.9532C250.55 62.981 250.58 63.0037 250.613 63.02C250.648 63.0352 250.685 63.0431 250.723 63.0431C250.761 63.0431 250.799 63.0352 250.833 63.02L256.463 60.962L261.849 69.8428C261.879 69.8919 261.923 69.9309 261.976 69.9543C262.028 69.9778 262.086 69.9847 262.143 69.9741L269.394 68.5724L277.379 78.8085C277.408 78.8421 277.444 78.8687 277.485 78.8861C277.526 78.9035 277.57 78.9113 277.615 78.9089Z" fill="#D52B2B"/>
<path d="M277.819 107.306H268.482V135.423H277.819V107.306Z" fill="#0056D1"/>
<path d="M262.413 99.1045H253.08V135.423H262.413V99.1045Z" fill="#0056D1"/>
<path d="M247.011 88.9998H237.675V135.423H247.011V88.9998Z" fill="#0056D1"/>
<path d="M295 101.5C295 103.972 295.733 106.389 297.107 108.444C298.48 110.5 300.432 112.102 302.716 113.048C305.001 113.994 307.514 114.242 309.939 113.76C312.363 113.277 314.591 112.087 316.339 110.339C318.087 108.59 319.277 106.363 319.76 103.938C320.242 101.514 319.995 99.0003 319.048 96.7162C318.102 94.4321 316.5 92.4799 314.445 91.1064C312.389 89.7329 309.972 88.9998 307.5 88.9998C304.185 88.9998 301.005 90.3167 298.661 92.6609C296.317 95.0051 295 98.1845 295 101.5Z" fill="#BBD2FE"/>
<path d="M295.017 102.077C295.017 101.885 295 101.692 295 101.5C294.999 99.7386 295.37 97.9971 296.09 96.3899C296.81 94.7827 297.862 93.3462 299.178 92.1749C300.493 91.0036 302.041 90.1242 303.721 89.5944C305.4 89.0646 307.173 88.8965 308.922 89.1011L307.493 101.506L295.017 102.077Z" fill="#D5E6FF"/>
<path d="M307.493 101.5L298.415 110.077C296.359 107.905 295.152 105.066 295.017 102.077L307.493 101.5Z" fill="#0056D1"/>
<path d="M76.7461 77.0046C79.4631 83.3345 80.242 90.328 78.9844 97.1006C77.7268 103.873 74.4891 110.121 69.6808 115.053C64.8724 119.986 58.7094 123.382 51.9711 124.812C45.2327 126.241 38.2217 125.641 31.8246 123.086C25.4274 120.532 19.9315 116.137 16.0318 110.459C12.1321 104.781 10.0038 98.0737 9.91602 91.1859C9.82821 84.2981 11.7848 77.5389 15.5385 71.7631C19.2922 65.9873 24.6742 61.4543 31.0042 58.7373C39.4923 55.094 49.0801 54.9717 57.6584 58.3975C66.2367 61.8233 73.1027 68.5165 76.7461 77.0046Z" fill="#BBD2FE"/>
<path d="M77.3348 78.5036C77.1232 78.0105 76.9548 77.4989 76.7432 77.0059C74.8114 72.4951 71.9463 68.4446 68.3363 65.1208C64.7264 61.7971 60.4535 59.2755 55.7989 57.722C51.1443 56.1685 46.2135 55.6184 41.3309 56.1077C36.4483 56.5971 31.7248 58.1148 27.471 60.5612L44.7633 90.753L77.3348 78.5036Z" fill="#D5E6FF"/>
<path d="M44.7591 90.7343L77.4281 102.72C80.307 94.8985 80.275 86.302 77.338 78.502L44.7591 90.7343Z" fill="#0056D1"/>
<path d="M96.8161 -12.8826L113.896 18.849C112.788 19.306 111.712 19.8367 110.674 20.4374C109.636 21.0398 108.641 21.7123 107.695 22.4502L90.6146 -9.28136C90.137 -10.1037 90.0057 -11.0822 90.2495 -12.0013C90.4934 -12.9205 91.0923 -13.7052 91.9147 -14.1828C92.7371 -14.6603 93.7155 -14.7916 94.6347 -14.5478C95.5539 -14.304 96.3386 -13.705 96.8161 -12.8826Z" fill="#D52B2B"/>
<path style="mix-blend-mode:multiply" opacity="0.3" d="M104.318 9.52053L107.63 7.74752L96.9283 -12.836C96.6919 -13.2431 96.3775 -13.5995 96.0032 -13.885C95.6289 -14.1705 95.2019 -14.3794 94.7468 -14.4997C94.2917 -14.62 93.8173 -14.6494 93.3508 -14.5863C92.8843 -14.5231 92.4348 -14.3685 92.0281 -14.1314L104.318 9.52053Z" fill="#D52B2B"/>
<path d="M108.521 16.7552C103.238 19.8283 98.9854 24.3988 96.3001 29.889C93.6148 35.3791 92.6178 41.5422 93.4351 47.599C94.2523 53.6558 96.8473 59.3342 100.892 63.9162C104.936 68.4982 110.248 71.7781 116.157 73.3411C122.065 74.904 128.305 74.6799 134.086 72.697C139.867 70.7141 144.93 67.0615 148.635 62.2011C152.34 57.3407 154.521 51.4907 154.902 45.3909C155.282 39.2911 153.846 33.2154 150.773 27.9321C148.733 24.4237 146.022 21.3515 142.794 18.891C139.567 16.4306 135.886 14.63 131.962 13.5921C128.039 12.5542 123.949 12.2993 119.927 12.842C115.905 13.3848 112.029 14.7144 108.521 16.7552ZM147.082 30.079C149.731 34.6331 150.97 39.8705 150.642 45.1287C150.314 50.3869 148.434 55.4299 145.24 59.6197C142.046 63.8096 137.682 66.9582 132.698 68.6673C127.715 70.3764 122.336 70.5693 117.243 69.2215C112.15 67.8738 107.571 65.0459 104.085 61.0956C100.599 57.1453 98.3628 52.2499 97.6593 47.0287C96.9557 41.8074 97.8162 36.4948 100.132 31.7626C102.448 27.0305 106.115 23.0914 110.67 20.4436C116.776 16.8936 124.043 15.9144 130.871 17.7214C137.699 19.5283 143.53 23.9734 147.082 30.079Z" fill="#D52B2B" stroke="#D52B2B" stroke-width="2"/>
<path style="mix-blend-mode:screen" opacity="0.8" d="M147.082 30.0788C144.432 25.5258 140.491 21.861 135.758 19.5477C131.025 17.2345 125.712 16.3767 120.492 17.0829C115.271 17.789 110.377 20.0274 106.428 23.515C102.48 27.0026 99.6544 31.5827 98.3089 36.6761C96.9635 41.7696 97.1586 47.1476 98.8697 52.1302C100.581 57.1128 103.731 61.476 107.922 64.6683C112.113 67.8605 117.156 69.7383 122.414 70.0642C127.672 70.3902 132.909 69.1496 137.462 66.4994C140.485 64.74 143.132 62.4023 145.252 59.6197C147.372 56.837 148.923 53.6641 149.816 50.282C150.71 46.8999 150.928 43.3749 150.459 39.9084C149.99 36.4419 148.843 33.1018 147.082 30.0788Z" fill="url(#paint3_linear_290_19814)"/>
<path d="M130.065 61.8308C129.49 61.2682 128.761 60.8886 127.97 60.7402C127.179 60.5918 126.362 60.6811 125.622 60.997C124.882 61.3128 124.252 61.841 123.812 62.5147C123.372 63.1883 123.141 63.9774 123.15 64.782C123.158 65.5866 123.405 66.3707 123.859 67.0351C124.312 67.6996 124.953 68.2146 125.699 68.5151C126.446 68.8156 127.265 68.8881 128.052 68.7234C128.84 68.5587 129.561 68.1642 130.124 67.5898C130.499 67.2081 130.795 66.7563 130.995 66.26C131.195 65.7638 131.295 65.233 131.29 64.698C131.284 64.163 131.173 63.6343 130.963 63.1423C130.753 62.6503 130.448 62.2046 130.065 61.8308Z" fill="white"/>
<path d="M120.181 61.5966C119.85 61.2725 119.431 61.0537 118.977 60.9678C118.522 60.882 118.052 60.9329 117.626 61.1142C117.2 61.2955 116.838 61.5991 116.585 61.9864C116.331 62.3737 116.199 62.8275 116.203 63.2902C116.208 63.753 116.35 64.204 116.611 64.5861C116.872 64.9682 117.241 65.2643 117.67 65.4369C118.099 65.6095 118.57 65.6509 119.023 65.5558C119.476 65.4607 119.891 65.2334 120.214 64.9026C120.648 64.4596 120.888 63.8625 120.882 63.2427C120.875 62.6228 120.623 62.0307 120.181 61.5966Z" fill="white"/>
<path d="M108.969 6.82112C108.809 6.54699 108.548 6.34716 108.242 6.26543C107.936 6.18371 107.609 6.22677 107.335 6.38517L100.1 10.5899C99.8264 10.7502 99.6274 11.0121 99.5463 11.3184C99.4652 11.6248 99.5085 11.9508 99.6668 12.2253C99.827 12.4987 100.089 12.6976 100.395 12.7788C100.702 12.8599 101.028 12.8166 101.302 12.6583L108.537 8.45352C108.673 8.37467 108.791 8.2699 108.886 8.14518C108.981 8.02046 109.051 7.87824 109.091 7.72665C109.131 7.57506 109.141 7.41708 109.12 7.2617C109.099 7.10633 109.047 6.95662 108.969 6.82112Z" fill="#C32C2C"/>
<path style="mix-blend-mode:multiply" d="M145.429 59.3712C145.93 53.5979 144.535 47.8186 141.455 42.9099C138.375 38.0012 133.778 34.2308 128.361 32.1707C122.945 30.1106 117.004 29.8731 111.441 31.4943C105.877 33.1154 100.994 36.5068 97.5318 41.1539C97.8899 37.0515 99.1943 33.0881 101.343 29.575C103.491 26.0618 106.425 23.0947 109.914 20.9068C113.402 18.7189 117.351 17.3698 121.449 16.9655C125.547 16.5611 129.683 17.1126 133.532 18.5765C137.381 20.0404 140.838 22.3769 143.631 25.4025C146.425 28.428 148.479 32.0601 149.632 36.0134C150.785 39.9667 151.005 44.1334 150.276 48.1863C149.547 52.2392 147.887 56.0678 145.429 59.3712Z" fill="url(#paint4_linear_290_19814)"/>
</g>
<defs>
<linearGradient id="paint0_linear_290_19814" x1="79.9236" y1="98.8746" x2="184.991" y2="-72.9307" gradientUnits="userSpaceOnUse">
<stop stop-color="#053579"/>
<stop offset="1" stop-color="#0056D1"/>
</linearGradient>
<linearGradient id="paint1_linear_290_19814" x1="0.949227" y1="50.8693" x2="106.772" y2="-121.639" gradientUnits="userSpaceOnUse">
<stop stop-color="#0056D1"/>
<stop offset="1" stop-color="#053579"/>
</linearGradient>
<linearGradient id="paint2_linear_290_19814" x1="150.7" y1="142.242" x2="255.738" y2="-29.6304" gradientUnits="userSpaceOnUse">
<stop stop-color="#0056D1"/>
<stop offset="1" stop-color="#053579"/>
</linearGradient>
<linearGradient id="paint3_linear_290_19814" x1="129.228" y1="60.919" x2="120.391" y2="31.0859" gradientUnits="userSpaceOnUse">
<stop stop-color="white"/>
<stop offset="1" stop-color="#8FB3FF"/>
</linearGradient>
<linearGradient id="paint4_linear_290_19814" x1="103.818" y1="53.9032" x2="145.531" y2="29.4964" gradientUnits="userSpaceOnUse">
<stop stop-color="#8FB3FF"/>
<stop offset="1" stop-color="#E1E7FF" stop-opacity="0"/>
</linearGradient>
</defs>
</svg>
