<svg width="343" height="118" viewBox="0 0 343 118" fill="none" xmlns="http://www.w3.org/2000/svg">
<rect width="343" height="118" rx="10" fill="#C32C2C"/>
<mask id="mask0_290_19863" style="mask-type:alpha" maskUnits="userSpaceOnUse" x="0" y="0" width="343" height="118">
<rect width="343" height="118" rx="10" fill="#C32C2C"/>
</mask>
<g mask="url(#mask0_290_19863)">
<path d="M343 0H0V118H343V0Z" fill="#B82222"/>
<path d="M51.5241 68.9683C80.8721 68.7309 103.8 59.9485 118.016 46.8935C133.148 32.8891 134.982 16.511 148.281 2.50656C149.138 1.61882 150.046 0.785672 151 0H0V64.5984C16.9668 66.2244 33.5071 69.3481 51.5241 68.9683Z" fill="#C32C2C"/>
<path d="M326.689 6.74016C310.214 16.8882 308.841 30.8122 307.468 43.5562C305.637 58.1882 301.061 71.6402 285.501 84.1482C269.025 97.6002 244.312 109.164 216.396 116.008C213.277 116.746 210.146 117.41 207 118H343V0H342.725C336.645 1.73665 331.214 4.01919 326.689 6.74016Z" fill="#D52B2B"/>
<path d="M178.048 45.7412H155.793C155.671 45.7412 155.551 45.7171 155.439 45.6705C155.326 45.6239 155.225 45.5556 155.139 45.4695C155.053 45.3833 154.985 45.2811 154.939 45.1687C154.893 45.0563 154.87 44.9359 154.87 44.8144V29.0209C154.87 28.8221 154.908 28.6252 154.984 28.4414C155.06 28.2576 155.171 28.0906 155.311 27.9499C155.451 27.8091 155.618 27.6975 155.802 27.6213C155.985 27.5451 156.182 27.5059 156.381 27.5059H178.048C178.17 27.5059 178.291 27.5299 178.403 27.5764C178.515 27.623 178.618 27.6913 178.704 27.7773C178.79 27.8634 178.858 27.9655 178.905 28.078C178.951 28.1904 178.975 28.3109 178.975 28.4326V44.8144C178.975 45.0602 178.877 45.2959 178.704 45.4697C178.53 45.6435 178.294 45.7412 178.048 45.7412Z" fill="white"/>
<path d="M216.885 56H190.11C189.964 56 189.819 55.9763 189.684 55.9303C189.549 55.8842 189.426 55.8168 189.323 55.7318C189.22 55.6468 189.139 55.5459 189.083 55.435C189.028 55.324 188.999 55.2051 189 55.0852V39.4955C188.999 39.2993 189.046 39.1049 189.137 38.9235C189.228 38.7421 189.362 38.5772 189.531 38.4383C189.699 38.2994 189.9 38.1891 190.121 38.1139C190.342 38.0387 190.578 38 190.818 38H216.885C217.031 38 217.176 38.0237 217.312 38.0697C217.447 38.1156 217.57 38.183 217.673 38.268C217.777 38.3529 217.859 38.4537 217.915 38.5647C217.971 38.6757 218 38.7947 218 38.9148V55.0852C218 55.3278 217.883 55.5605 217.673 55.7321C217.464 55.9036 217.181 56 216.885 56Z" fill="white"/>
<path d="M170.936 27.6203V45.7625C170.944 45.8269 170.975 45.8861 171.024 45.929C171.072 45.9719 171.135 45.9956 171.2 45.9956C171.265 45.9956 171.328 45.9719 171.376 45.929C171.425 45.8861 171.456 45.8269 171.465 45.7625V27.6203C171.456 27.5559 171.425 27.4967 171.376 27.4538C171.328 27.4109 171.265 27.3872 171.2 27.3872C171.135 27.3872 171.072 27.4109 171.024 27.4538C170.975 27.4967 170.944 27.5559 170.936 27.6203Z" fill="#A1C7FF"/>
<path d="M210.065 38.2331V56.3753C210.074 56.4397 210.105 56.4989 210.154 56.5418C210.202 56.5847 210.265 56.6084 210.33 56.6084C210.395 56.6084 210.458 56.5847 210.506 56.5418C210.555 56.4989 210.586 56.4397 210.594 56.3753V38.2331C210.586 38.1687 210.555 38.1095 210.506 38.0666C210.458 38.0237 210.395 38 210.33 38C210.265 38 210.202 38.0237 210.154 38.0666C210.105 38.1095 210.074 38.1687 210.065 38.2331Z" fill="#A1C7FF"/>
<path d="M164.605 27.5059H161.249V30.8618H164.605V27.5059Z" fill="white"/>
<path d="M177.287 42.385H173.931V45.7409H177.287V42.385Z" fill="white"/>
<path d="M154.888 45.4576V28.2084C154.887 28.1093 154.906 28.0111 154.944 27.9195C154.982 27.8278 155.037 27.7445 155.107 27.6745C155.177 27.6044 155.26 27.549 155.352 27.5113C155.444 27.4736 155.542 27.4545 155.641 27.4551L178.993 27.5059" stroke="#A1C7FF" stroke-miterlimit="10"/>
<path d="M214.515 76H154.485C154.092 76 153.716 75.8956 153.437 75.7095C153.159 75.5235 153.002 75.2711 153 75.0074V45.6255C153 45.4117 153.063 45.1999 153.185 45.0024C153.307 44.8049 153.486 44.6255 153.711 44.4745C153.937 44.3235 154.204 44.2038 154.499 44.1224C154.793 44.041 155.109 43.9994 155.427 44H214.515C214.908 44 215.284 44.1044 215.563 44.2904C215.841 44.4765 215.998 44.7289 216 44.9926V75.0074C215.998 75.2711 215.841 75.5235 215.563 75.7095C215.284 75.8956 214.908 76 214.515 76Z" fill="white"/>
<path d="M179 44.2481V75.7519C179.015 75.8204 179.075 75.8834 179.167 75.9291C179.259 75.9748 179.377 76 179.5 76C179.623 76 179.741 75.9748 179.833 75.9291C179.925 75.8834 179.985 75.8204 180 75.7519V44.2481C179.985 44.1796 179.925 44.1166 179.833 44.0709C179.741 44.0252 179.623 44 179.5 44C179.377 44 179.259 44.0252 179.167 44.0709C179.075 44.1166 179.015 44.1796 179 44.2481Z" fill="#A1C7FF"/>
<path d="M168.612 46.1304H163.136V51.6065H168.612V46.1304Z" fill="white"/>
<path d="M189.297 70.4004H183.821V75.8765H189.297V70.4004Z" fill="white"/>
<path d="M153.034 75L153 45.3128C152.998 45.1398 153.028 44.968 153.09 44.8076C153.151 44.6473 153.242 44.5016 153.358 44.3792C153.473 44.2569 153.611 44.1603 153.762 44.0952C153.913 44.03 154.076 43.9977 154.239 44.0001L215 44.0001" stroke="#A1C7FF" stroke-miterlimit="10"/>
<path d="M185.396 105.597H147.923C147.678 105.597 147.443 105.5 147.27 105.327C147.097 105.154 147 104.919 147 104.675V77.3703C146.999 77.1715 147.038 76.9746 147.114 76.7908C147.189 76.607 147.301 76.44 147.441 76.2992C147.581 76.1585 147.748 76.0468 147.932 75.9706C148.115 75.8944 148.312 75.8552 148.511 75.8552H185.396C185.64 75.8563 185.874 75.9539 186.047 76.1267C186.22 76.2994 186.318 76.5334 186.319 76.7778V104.675C186.318 104.919 186.22 105.153 186.047 105.326C185.874 105.498 185.64 105.596 185.396 105.597Z" fill="white"/>
<path d="M173.369 76.0417V105.635C173.377 105.7 173.409 105.759 173.457 105.802C173.506 105.845 173.569 105.868 173.634 105.868C173.699 105.868 173.761 105.845 173.81 105.802C173.859 105.759 173.89 105.7 173.898 105.635V76.0417C173.89 75.9773 173.859 75.9181 173.81 75.8752C173.761 75.8323 173.699 75.8086 173.634 75.8086C173.569 75.8086 173.506 75.8323 173.457 75.8752C173.409 75.9181 173.377 75.9773 173.369 76.0417Z" fill="#0056D1"/>
<path d="M162.883 75.8552H157.407V81.3313H162.883V75.8552Z" fill="white"/>
<path d="M183.568 100.125H178.092V105.602H183.568V100.125Z" fill="white"/>
<path d="M147.03 105.136L147 76.9977C147 76.6723 147.129 76.3601 147.359 76.13C147.59 75.8998 147.902 75.7705 148.227 75.7705L186.314 75.8551" stroke="#A1C7FF" stroke-miterlimit="10"/>
<path d="M284.736 -35.4523C271.931 -38.9732 257.132 -33.0274 250.314 -21.6309C243.496 -10.2343 245.27 5.61837 254.432 15.2333" stroke="#0056D1" stroke-width="3" stroke-linecap="round" stroke-linejoin="round" stroke-dasharray="10 20"/>
<path d="M332.916 23.1202C349.413 6.62334 349.413 -20.1234 332.916 -36.6202C316.42 -53.1171 289.673 -53.1171 273.176 -36.6202C256.679 -20.1234 256.679 6.62337 273.176 23.1202C289.673 39.6171 316.42 39.6171 332.916 23.1202Z" fill="#0056D1"/>
<path d="M302.061 -49.0156C294.867 -48.3258 288.032 -45.6301 282.594 -40.8184C278.145 -36.8175 274.651 -31.8686 272.37 -26.3368C268.862 -18.0254 268.286 -8.71095 269.662 0.13797C270.969 8.54677 274.059 16.8582 279.514 23.4727C284.634 29.6767 291.989 34.2302 300.043 35.2078C301.045 35.3305 302.054 35.3941 303.064 35.3982C303.129 35.3901 303.188 35.3587 303.231 35.31C303.274 35.2613 303.297 35.1986 303.297 35.1337C303.297 35.0688 303.274 35.0061 303.231 34.9575C303.188 34.9088 303.129 34.8774 303.064 34.8692C295.002 34.81 287.338 30.9463 281.786 25.2247C275.925 19.1816 272.425 11.1833 270.72 3.02414C268.93 -5.54971 268.959 -14.6779 271.702 -23.0444C273.618 -28.9472 276.866 -34.3305 281.194 -38.7787C286.037 -43.666 292.284 -46.9206 299.065 -48.0889C300.06 -48.2624 301.058 -48.3936 302.061 -48.512C302.4 -48.5417 302.4 -49.0707 302.061 -49.041V-49.0156Z" fill="#F5F5F5"/>
<path d="M301.93 -48.9776C296.759 -46.0152 292.62 -41.1485 289.467 -36.1676C287.843 -33.6582 286.503 -30.9755 285.472 -28.1693C284.344 -24.847 283.582 -21.4115 283.2 -17.9238C282.773 -14.2341 282.59 -10.5204 282.65 -6.80659C282.684 -3.12059 282.84 0.569618 283.175 4.23869C283.481 7.88016 284.07 11.4924 284.935 15.0428C285.739 18.2252 286.767 21.4499 288.49 24.2641C291.49 29.1731 296.302 32.6348 301.494 34.9369C302.141 35.2191 302.792 35.4885 303.45 35.7452C303.767 35.868 303.907 35.3559 303.589 35.2374C298.333 33.1892 293.297 30.0956 289.933 25.4744C288.067 22.9099 286.916 19.9941 286.014 16.9725C285.011 13.5137 284.313 9.97356 283.928 6.39274C283.505 2.83793 283.323 -0.74226 283.225 -4.31822C283.105 -7.90111 283.177 -11.4879 283.441 -15.063C283.707 -18.6986 284.325 -22.2999 285.286 -25.8163C286.099 -28.6348 287.25 -31.3446 288.714 -33.8866C291.676 -39.0664 295.608 -44.0432 300.538 -47.471C301.077 -47.8434 301.63 -48.1932 302.197 -48.5205C302.249 -48.56 302.284 -48.6169 302.297 -48.6807C302.309 -48.7444 302.298 -48.8106 302.265 -48.8668C302.233 -48.9229 302.181 -48.9651 302.119 -48.9855C302.057 -49.0059 301.99 -49.0031 301.93 -48.9776Z" fill="#F5F5F5"/>
<path d="M303.78 35.1275C302.71 24.315 302.088 13.4559 301.762 2.59685C301.432 -8.46535 301.423 -19.536 301.677 -30.5982C301.813 -36.6527 302.028 -42.7029 302.325 -48.7489C302.325 -49.0917 301.813 -49.0874 301.796 -48.7489C301.271 -37.8898 300.997 -27.0279 300.975 -16.1632C300.975 -5.101 301.22 5.96545 301.851 17.0107C302.198 23.0539 302.665 29.0872 303.251 35.1106C303.285 35.4449 303.814 35.4492 303.78 35.1106V35.1275Z" fill="#F5F5F5"/>
<path d="M303.709 35.6777C309.277 31.3532 314.059 26.104 317.848 20.1593C321.583 14.3082 324.043 7.73576 325.068 0.870304C325.515 -2.57809 325.628 -6.06154 325.406 -9.53171C325.234 -12.9089 324.809 -16.2685 324.137 -19.5825C322.901 -25.6299 320.751 -31.563 317.277 -36.7048C314.069 -41.5657 309.648 -45.5044 304.45 -48.1309C303.801 -48.4469 303.145 -48.7432 302.482 -49.0196C302.169 -49.1551 302.029 -48.643 302.338 -48.5118C307.691 -46.2468 312.337 -42.5856 315.791 -37.9109C319.397 -33.0653 321.746 -27.3904 323.163 -21.5503C323.928 -18.3504 324.446 -15.0963 324.712 -11.8169C325.038 -8.38109 325.068 -4.92359 324.801 -1.48264C324.135 5.36168 322.004 11.9824 318.551 17.9291C315.084 23.9008 310.607 29.2248 305.317 33.6634C304.666 34.2276 304.003 34.7693 303.328 35.2884C303.058 35.4958 303.434 35.8682 303.701 35.6608L303.709 35.6777Z" fill="#F5F5F5"/>
<path d="M302.417 -48.4863C305.684 -48.4863 308.917 -47.6103 311.938 -46.4296C315.331 -45.0813 318.55 -43.3324 321.528 -41.2201C324.423 -39.2335 327.038 -36.8664 329.302 -34.1825C331.697 -31.2624 333.331 -27.7584 334.495 -24.1825C337.131 -16.0826 337.22 -7.25484 335.798 1.08624C335.104 5.30167 333.917 9.42082 332.26 13.3588C330.656 17.0913 328.574 20.7392 325.845 23.7608C323.252 26.5742 320.22 28.9494 316.869 30.7942C313.538 32.6977 309.93 34.0658 306.175 34.8484C305.294 35.0233 304.41 35.1545 303.521 35.242C303.187 35.2758 303.183 35.8048 303.521 35.771C307.283 35.3448 310.947 34.2891 314.359 32.6478C317.957 30.9938 321.281 28.7988 324.215 26.1391C330.351 20.5065 333.885 12.3643 335.688 4.35752C337.575 -4.02165 337.905 -12.9933 335.849 -21.3725C334.884 -25.2955 333.39 -29.265 331.122 -32.6294C329.137 -35.4518 326.733 -37.9536 323.991 -40.0479C321.059 -42.3681 317.866 -44.338 314.478 -45.9176C311.399 -47.4126 308.105 -48.4124 304.715 -48.8799C303.952 -48.9729 303.185 -49.0195 302.417 -49.0195C302.352 -49.0114 302.293 -48.98 302.25 -48.9313C302.207 -48.8826 302.184 -48.8199 302.184 -48.755C302.184 -48.6901 302.207 -48.6275 302.25 -48.5788C302.293 -48.5301 302.352 -48.4987 302.417 -48.4905V-48.4863Z" fill="#F5F5F5"/>
<path d="M270.586 19.0629H335.52C335.584 19.0548 335.644 19.0234 335.687 18.9747C335.729 18.926 335.753 18.8633 335.753 18.7984C335.753 18.7335 335.729 18.6708 335.687 18.6221C335.644 18.5734 335.584 18.5421 335.52 18.5339H270.586C270.521 18.5421 270.462 18.5734 270.419 18.6221C270.376 18.6708 270.353 18.7335 270.353 18.7984C270.353 18.8633 270.376 18.926 270.419 18.9747C270.462 19.0234 270.521 19.0548 270.586 19.0629Z" fill="#F5F5F5"/>
<path d="M194.411 74.0769H164.764C164.64 74.077 164.517 74.0521 164.402 74.0037C164.287 73.9554 164.183 73.8845 164.095 73.7953C164.008 73.706 163.938 73.6 163.891 73.4835C163.844 73.3669 163.82 73.2421 163.82 73.1161V51.4682C163.82 51.2621 163.859 51.058 163.937 50.8674C164.014 50.6769 164.128 50.5037 164.271 50.3578C164.415 50.2119 164.586 50.0961 164.773 50.0171C164.961 49.9381 165.163 49.8975 165.366 49.8975H194.411C194.662 49.8975 194.903 49.9987 195.081 50.1789C195.259 50.3591 195.359 50.6035 195.359 50.8583V73.1161C195.359 73.3709 195.259 73.6153 195.081 73.7955C194.903 73.9757 194.662 74.0769 194.411 74.0769Z" fill="url(#paint0_linear_290_19863)"/>
<path d="M176.741 49.5242H172.45V53.8153H176.741V49.5242Z" fill="#DDDDDD"/>
<path d="M192.963 68.5554H188.672V72.8466H192.963V68.5554Z" fill="#DDDDDD"/>
<path d="M222.811 74.0768H194.169C193.927 74.0756 193.695 73.9694 193.524 73.7815C193.353 73.5936 193.257 73.3393 193.257 73.0742V50.4852C193.257 50.27 193.296 50.0568 193.371 49.858C193.446 49.6591 193.557 49.4784 193.696 49.3262C193.835 49.174 194 49.0533 194.182 48.971C194.363 48.8886 194.558 48.8462 194.755 48.8462H222.828C223.071 48.8462 223.304 48.9518 223.476 49.1398C223.647 49.3279 223.744 49.5829 223.744 49.8488V73.0742C223.744 73.2074 223.72 73.3393 223.673 73.4621C223.626 73.585 223.557 73.6963 223.47 73.7897C223.383 73.883 223.28 73.9565 223.167 74.0058C223.054 74.0551 222.933 74.0792 222.811 74.0768Z" fill="#092348"/>
<path d="M205.26 48.2578H200.969V52.549H205.26V48.2578Z" fill="#DDDDDD"/>
<path d="M221.482 68.2888H217.19V72.58H221.482V68.2888Z" fill="white"/>
<path d="M193.75 96.2786H164.77C164.648 96.2786 164.527 96.2546 164.415 96.208C164.302 96.1615 164.2 96.0932 164.114 96.0071C164.028 95.9211 163.96 95.8189 163.913 95.7065C163.867 95.594 163.843 95.4735 163.843 95.3518V74.4716C163.843 74.2726 163.882 74.0756 163.958 73.8918C164.034 73.708 164.146 73.541 164.287 73.4003C164.427 73.2596 164.594 73.148 164.778 73.0719C164.962 72.9957 165.159 72.9565 165.358 72.9565H193.75C193.995 72.9577 194.229 73.0558 194.402 73.2295C194.575 73.4032 194.672 73.6383 194.672 73.8833V95.3518C194.672 95.5969 194.575 95.832 194.402 96.0056C194.229 96.1793 193.995 96.2775 193.75 96.2786Z" fill="#D52B2B"/>
<path d="M176.294 72.9565H172.003V77.2477H176.294V72.9565Z" fill="#DDDDDD"/>
<path d="M192.515 91.9875H188.224V96.2787H192.515V91.9875Z" fill="#DDDDDD"/>
<path d="M222.722 96.2786H193.75C193.628 96.2786 193.508 96.2546 193.395 96.208C193.283 96.1615 193.181 96.0932 193.095 96.0071C193.009 95.9211 192.94 95.8189 192.894 95.7065C192.847 95.594 192.823 95.4735 192.823 95.3518V74.4716C192.823 74.0698 192.983 73.6844 193.267 73.4003C193.551 73.1161 193.936 72.9565 194.338 72.9565H222.73C222.975 72.9577 223.21 73.0558 223.383 73.2295C223.556 73.4032 223.653 73.6383 223.653 73.8833V95.3518C223.653 95.4739 223.629 95.5947 223.582 95.7074C223.535 95.8202 223.466 95.9225 223.38 96.0086C223.293 96.0948 223.191 96.1629 223.078 96.2093C222.965 96.2556 222.844 96.2791 222.722 96.2786Z" fill="#979797"/>
<path d="M205.265 72.9565H200.974V77.2477H205.265V72.9565Z" fill="#DDDDDD"/>
<path d="M221.486 91.9875H217.195V96.2787H221.486V91.9875Z" fill="#DDDDDD"/>
<path d="M224.83 97.8443H161.681C161.477 97.8443 161.281 97.7631 161.137 97.6187C160.992 97.4743 160.911 97.2784 160.911 97.0741C160.912 96.8705 160.994 96.6757 161.138 96.5322C161.283 96.3887 161.478 96.3081 161.681 96.3081H224.83C225.033 96.3081 225.228 96.3888 225.371 96.5325C225.515 96.6761 225.596 96.8709 225.596 97.0741C225.596 97.175 225.577 97.2751 225.539 97.3685C225.501 97.4619 225.444 97.5469 225.373 97.6184C225.302 97.69 225.217 97.7468 225.124 97.7856C225.031 97.8243 224.931 97.8443 224.83 97.8443Z" fill="#26244A"/>
<path d="M225.075 106.667H161.443C161.238 106.667 161.041 106.501 160.896 106.206C160.75 105.912 160.668 105.512 160.667 105.094C160.668 104.675 160.75 104.274 160.896 103.978C161.041 103.682 161.238 103.515 161.443 103.513H225.075C225.28 103.515 225.476 103.683 225.621 103.979C225.765 104.275 225.846 104.676 225.846 105.094C225.846 105.511 225.765 105.911 225.62 106.206C225.476 106.501 225.279 106.667 225.075 106.667Z" fill="#26244A"/>
<path d="M169.844 97.4043H161.973V103.985H169.844V97.4043Z" fill="#26244A"/>
<path d="M197.322 97.4043H189.45V103.985H197.322V97.4043Z" fill="#26244A"/>
<path d="M224.799 97.4043H216.928V103.985H224.799V97.4043Z" fill="#26244A"/>
<path d="M276.492 91.4076C276.492 95.94 274.655 101.704 271.934 104.527C270.665 105.847 266.809 105.695 263.826 105.695C256.835 105.695 251.164 99.2916 251.164 91.3907C251.164 83.4897 256.835 77.0826 263.826 77.0826C264.359 77.0826 268.849 77.0149 269.361 77.0826C275.616 77.9797 276.492 84.116 276.492 91.4076Z" fill="#26244A"/>
<path d="M269.366 105.716C276.359 105.716 282.028 99.3116 282.028 91.4118C282.028 83.512 276.359 77.1079 269.366 77.1079C262.373 77.1079 256.704 83.512 256.704 91.4118C256.704 99.3116 262.373 105.716 269.366 105.716Z" fill="#072244"/>
<path d="M269.366 97.8275C272.423 97.8275 274.902 94.9551 274.902 91.4119C274.902 87.8687 272.423 84.9963 269.366 84.9963C266.309 84.9963 263.831 87.8687 263.831 91.4119C263.831 94.9551 266.309 97.8275 269.366 97.8275Z" fill="#0056D1"/>
<path d="M289.327 91.5598H234.405V95.8298H289.327V91.5598Z" fill="#26244A"/>
<path d="M425.207 67.2053H223.929V92.4783H425.207V67.2053Z" fill="#26244A"/>
<path d="M256.609 7.64575H214.172V90.5404H256.609V7.64575Z" fill="#0060EA"/>
<path d="M256.611 88.4959V7.6665H372.269C373.67 7.6665 375.014 8.22281 376.005 9.21315C376.997 10.2035 377.554 11.5468 377.555 12.9479V88.4959H321.474V86.6551C321.474 84.7209 321.093 82.8058 320.352 81.019C319.612 79.2321 318.527 77.6087 317.159 76.2415C315.791 74.8742 314.167 73.7899 312.379 73.0505C310.592 72.3111 308.677 71.9312 306.743 71.9323H297.885C291.986 71.9323 288.537 75.8806 287.83 81.7418L285.549 88.5129L256.611 88.4959Z" fill="white"/>
<path d="M253.179 13.1025H217.436V85.641H253.179V13.1025Z" fill="url(#paint1_linear_290_19863)"/>
<path d="M255.958 81.7212C255.958 81.871 255.914 82.0174 255.831 82.142C255.747 82.2666 255.629 82.3637 255.491 82.421C255.352 82.4783 255.2 82.4933 255.053 82.4641C254.906 82.4349 254.771 82.3627 254.665 82.2568C254.559 82.1508 254.487 82.0159 254.458 81.8689C254.429 81.722 254.444 81.5697 254.501 81.4312C254.558 81.2928 254.655 81.1745 254.78 81.0913C254.905 81.0081 255.051 80.9636 255.201 80.9636C255.3 80.9636 255.399 80.9832 255.491 81.0213C255.583 81.0594 255.666 81.1152 255.737 81.1855C255.807 81.2558 255.863 81.3393 255.901 81.4312C255.939 81.5231 255.958 81.6217 255.958 81.7212Z" fill="#0056D1"/>
<path d="M255.958 83.9636C255.958 84.1134 255.914 84.2599 255.831 84.3844C255.747 84.509 255.629 84.6061 255.491 84.6634C255.352 84.7208 255.2 84.7358 255.053 84.7065C254.906 84.6773 254.771 84.6051 254.665 84.4992C254.559 84.3933 254.487 84.2583 254.458 84.1114C254.429 83.9644 254.444 83.8121 254.501 83.6737C254.558 83.5353 254.655 83.417 254.78 83.3337C254.905 83.2505 255.051 83.2061 255.201 83.2061C255.3 83.2061 255.399 83.2257 255.491 83.2637C255.583 83.3018 255.666 83.3576 255.737 83.4279C255.807 83.4983 255.863 83.5818 255.901 83.6737C255.939 83.7656 255.958 83.8641 255.958 83.9636Z" fill="#0056D1"/>
<path d="M255.958 86.2067C255.958 86.3565 255.914 86.503 255.831 86.6276C255.747 86.7521 255.629 86.8492 255.491 86.9066C255.352 86.9639 255.2 86.9789 255.053 86.9497C254.906 86.9205 254.771 86.8483 254.665 86.7424C254.559 86.6364 254.487 86.5014 254.458 86.3545C254.429 86.2075 254.444 86.0553 254.501 85.9168C254.558 85.7784 254.655 85.6601 254.78 85.5769C254.905 85.4936 255.051 85.4492 255.201 85.4492C255.3 85.4492 255.399 85.4688 255.491 85.5069C255.583 85.5449 255.666 85.6007 255.737 85.6711C255.807 85.7414 255.863 85.8249 255.901 85.9168C255.939 86.0087 255.958 86.1072 255.958 86.2067Z" fill="#0056D1"/>
<path d="M216.682 81.7212C216.682 81.871 216.638 82.0174 216.554 82.142C216.471 82.2666 216.353 82.3637 216.214 82.421C216.076 82.4783 215.924 82.4933 215.777 82.4641C215.63 82.4349 215.495 82.3627 215.389 82.2568C215.283 82.1508 215.211 82.0159 215.182 81.8689C215.152 81.722 215.167 81.5697 215.225 81.4312C215.282 81.2928 215.379 81.1745 215.504 81.0913C215.628 81.0081 215.775 80.9636 215.924 80.9636C216.125 80.9636 216.318 81.0434 216.46 81.1855C216.602 81.3276 216.682 81.5202 216.682 81.7212Z" fill="#0056D1"/>
<path d="M216.682 83.9636C216.682 84.1134 216.638 84.2599 216.554 84.3844C216.471 84.509 216.353 84.6061 216.214 84.6634C216.076 84.7208 215.924 84.7358 215.777 84.7065C215.63 84.6773 215.495 84.6051 215.389 84.4992C215.283 84.3933 215.211 84.2583 215.182 84.1114C215.152 83.9644 215.167 83.8121 215.225 83.6737C215.282 83.5353 215.379 83.417 215.504 83.3337C215.628 83.2505 215.775 83.2061 215.924 83.2061C216.125 83.2061 216.318 83.2859 216.46 83.4279C216.602 83.57 216.682 83.7627 216.682 83.9636Z" fill="#0056D1"/>
<path d="M216.682 86.2067C216.682 86.3565 216.638 86.503 216.554 86.6276C216.471 86.7521 216.353 86.8492 216.214 86.9066C216.076 86.9639 215.924 86.9789 215.777 86.9497C215.63 86.9205 215.495 86.8483 215.389 86.7424C215.283 86.6364 215.211 86.5014 215.182 86.3545C215.152 86.2075 215.167 86.0553 215.225 85.9168C215.282 85.7784 215.379 85.6601 215.504 85.5769C215.628 85.4936 215.775 85.4492 215.924 85.4492C216.125 85.4492 216.318 85.529 216.46 85.6711C216.602 85.8131 216.682 86.0058 216.682 86.2067Z" fill="#0056D1"/>
<path d="M253.475 85.4492H216.641V87.9799H253.475V85.4492Z" fill="white"/>
<path d="M313.407 91.1622C313.407 95.6945 311.574 101.463 308.853 104.281C307.584 105.606 303.724 105.453 300.745 105.453C293.75 105.453 288.083 99.0462 288.083 91.1452C288.083 83.2442 293.75 76.8414 300.745 76.8414C301.278 76.8414 305.764 76.7737 306.28 76.8414C312.531 77.7343 313.407 83.8621 313.407 91.1622Z" fill="#26244A"/>
<path d="M306.284 105.47C313.277 105.47 318.946 99.0664 318.946 91.1666C318.946 83.2669 313.277 76.8628 306.284 76.8628C299.291 76.8628 293.622 83.2669 293.622 91.1666C293.622 99.0664 299.291 105.47 306.284 105.47Z" fill="#072244"/>
<path d="M306.284 97.5819C309.341 97.5819 311.82 94.7095 311.82 91.1663C311.82 87.6231 309.341 84.7507 306.284 84.7507C303.227 84.7507 300.749 87.6231 300.749 91.1663C300.749 94.7095 303.227 97.5819 306.284 97.5819Z" fill="#0056D1"/>
<path d="M249.882 85.4192H220.902C220.66 85.4159 220.428 85.3174 220.257 85.1448C220.086 84.9723 219.989 84.7396 219.988 84.4967V63.6122C219.988 63.2104 220.148 62.825 220.432 62.5409C220.716 62.2568 221.101 62.0972 221.503 62.0972H249.895C250.14 62.0983 250.375 62.1964 250.548 62.3701C250.721 62.5438 250.818 62.7789 250.818 63.024V84.4967C250.817 84.6187 250.793 84.7395 250.745 84.852C250.698 84.9645 250.629 85.0666 250.542 85.1523C250.455 85.238 250.352 85.3057 250.239 85.3515C250.126 85.3973 250.005 85.4203 249.882 85.4192Z" fill="#D52B2B"/>
<path d="M232.426 62.1016H228.135V66.3927H232.426V62.1016Z" fill="#DDDDDD"/>
<path d="M248.647 81.1284H244.355V85.4196H248.647V81.1284Z" fill="#DDDDDD"/>
<path d="M213.107 91.243C216.281 91.1415 219.455 91.243 222.65 91.243C228.938 91.2712 235.228 91.3093 241.52 91.3573L261.706 91.4969C266.29 91.5308 270.875 91.5618 275.46 91.59C277.53 91.6608 279.601 91.519 281.642 91.1668C284.419 90.604 286.911 89.1821 288.413 86.736C289.683 84.6878 290.106 82.0809 291.041 80.0242C291.998 77.9083 293.377 76.0335 295.603 75.1152C298.143 74.0615 301.075 74.1207 303.771 74.0869C306.467 74.053 309.361 74.0869 311.812 75.3226C312.866 75.8466 313.818 76.5561 314.622 77.4174C315.378 78.3173 315.981 79.3352 316.408 80.4305C316.408 80.4559 316.564 80.7944 316.458 80.5405C316.492 80.6252 316.53 80.7056 316.56 80.7902C316.632 80.9722 316.704 81.1499 316.771 81.3319C316.932 81.7551 317.08 82.2164 317.233 82.6607C317.444 83.2701 317.656 83.8753 317.901 84.472C318.496 85.9566 319.357 87.3204 320.441 88.4965C321.076 89.1947 321.847 89.7551 322.708 90.1431C323.568 90.5311 324.499 90.7384 325.443 90.7521C325.98 90.7521 326.518 90.7521 327.059 90.7521L342.396 90.6421L362.662 90.5024L375.531 90.4136H376.183C378.663 90.4136 378.667 86.5414 376.183 86.5583L366.907 86.626L347.292 86.7614L329.691 86.8841C328.27 86.8841 326.848 86.9222 325.426 86.9138H325.362H325.087C324.778 86.9138 325.362 86.9815 325.087 86.9138C324.89 86.8697 324.695 86.8146 324.503 86.7487C324.833 86.863 324.22 86.5964 324.114 86.5287C324.008 86.461 323.602 86.1605 323.873 86.3805C323.699 86.2367 323.53 86.0801 323.369 85.9193C323.208 85.7585 323.098 85.6273 322.946 85.4961C322.891 85.4326 322.836 85.3691 322.785 85.3014C323.043 85.6188 322.713 85.2041 322.683 85.1618C322.268 84.5633 321.904 83.9304 321.596 83.2701C321.537 83.1474 321.486 83.0204 321.422 82.8977C321.283 82.6142 321.592 83.3759 321.486 83.0416C321.448 82.9231 321.393 82.8004 321.35 82.6819C320.593 80.5913 319.967 78.378 318.773 76.4821C317.236 74.139 314.996 72.3434 312.374 71.3531C309.577 70.2358 306.45 70.1766 303.487 70.2231C300.525 70.2697 297.508 70.3078 294.753 71.3234C292.146 72.2923 289.953 74.1308 288.545 76.5287C287.224 78.725 286.721 81.1838 285.764 83.5282C285.391 84.519 284.775 85.4006 283.974 86.0928C283.056 86.7558 282 87.2029 280.885 87.4005C279.581 87.6597 278.253 87.776 276.924 87.7475C273.28 87.7475 269.636 87.7051 265.993 87.6797L246.585 87.5443C239.941 87.4964 233.297 87.4526 226.653 87.4131C222.489 87.4131 218.325 87.3539 214.165 87.3751C213.813 87.3751 213.466 87.3751 213.119 87.3751C210.644 87.4512 210.631 91.3065 213.119 91.2303L213.107 91.243Z" fill="#0056D1"/>
<path d="M358.135 76.9895H339.222C338.977 76.9884 338.743 76.8903 338.57 76.7166C338.397 76.5429 338.3 76.3078 338.3 76.0627V62.7999C338.299 62.6012 338.338 62.4043 338.414 62.2205C338.489 62.0367 338.6 61.8697 338.741 61.7289C338.881 61.5882 339.048 61.4765 339.231 61.4003C339.415 61.3241 339.612 61.2849 339.811 61.2849H358.135C358.38 61.286 358.614 61.3842 358.787 61.5579C358.96 61.7315 359.057 61.9666 359.057 62.2117V76.0754C359.054 76.3183 358.955 76.5501 358.783 76.7211C358.61 76.892 358.378 76.9884 358.135 76.9895Z" fill="#0056D1"/>
<path d="M367.507 105.631H331.777C331.532 105.631 331.296 105.533 331.122 105.36C330.948 105.186 330.851 104.95 330.851 104.704V78.7161C330.852 78.3151 331.012 77.9308 331.296 77.6476C331.58 77.3644 331.965 77.2053 332.366 77.2053H367.49C367.612 77.2048 367.732 77.2282 367.845 77.2743C367.957 77.3205 368.059 77.3883 368.146 77.474C368.232 77.5598 368.3 77.6617 368.347 77.7739C368.393 77.8861 368.417 78.0064 368.417 78.1279V104.704C368.417 104.947 368.322 105.18 368.152 105.354C367.982 105.527 367.75 105.627 367.507 105.631Z" fill="#0056D1"/>
<path d="M346.031 77.2053H340.801V82.436H346.031V77.2053Z" fill="white"/>
<path d="M114.321 61.5593C111.902 60.6155 109.236 60.5126 106.751 61.2672C104.267 62.0217 102.108 63.5898 100.622 65.7193C99.1673 67.7482 98.3736 70.1765 98.3496 72.673C98.3557 73.2487 98.4123 73.8226 98.5185 74.3884L100.373 85.1876C100.438 85.588 100.595 85.9681 100.829 86.2991C101.064 86.6301 101.371 86.9033 101.727 87.098C102.083 87.2927 102.479 87.4038 102.884 87.4228C103.289 87.4418 103.693 87.3683 104.066 87.2078L111.245 84.1297C111.909 83.8053 113.213 83.2446 114.367 82.6902C116.553 81.6793 118.377 80.0238 119.594 77.946L119.64 77.9233C122.973 71.8285 120.648 64.1951 114.321 61.5593ZM108.451 76.9456C107.397 76.6779 106.459 76.0724 105.78 75.2214C105.102 74.3705 104.721 73.3208 104.695 72.2329C104.669 71.145 105 70.0786 105.638 69.1966C106.275 68.3145 107.184 67.6653 108.225 67.3482C109.266 67.0311 110.382 67.0634 111.403 67.4403C112.424 67.8172 113.293 68.5178 113.878 69.4353C114.464 70.3527 114.733 71.4366 114.644 72.5212C114.555 73.6058 114.114 74.6315 113.388 75.4418C112.785 76.1283 112.004 76.6331 111.13 76.8994C110.257 77.1657 109.327 77.183 108.444 76.9493L108.451 76.9456Z" fill="white"/>
<path d="M68.2205 35.2364C66.4001 35.9421 64.8696 37.2392 63.8749 38.9192C62.8801 40.5993 62.4789 42.5649 62.7355 44.5004C62.9625 46.3648 63.7554 48.1149 65.0074 49.5149C65.3024 49.8298 65.6245 50.1181 65.97 50.3764L72.4848 55.4298C72.725 55.6102 73.0026 55.7344 73.2971 55.7933C73.5917 55.8523 73.8957 55.8444 74.1868 55.7703C74.4779 55.6962 74.7486 55.5578 74.9792 55.3652C75.2097 55.1727 75.3941 54.9309 75.5188 54.6576L77.9382 49.3024C78.1772 48.8045 78.5731 47.8315 78.9345 46.9307C79.6335 45.2605 79.806 43.4167 79.429 41.6459C79.1806 40.4508 78.6813 39.322 77.964 38.3344C77.2467 37.3468 76.3279 36.5227 75.2683 35.9168C74.2087 35.3109 73.0325 34.9369 71.8175 34.8196C70.6025 34.7023 69.3765 34.8444 68.2205 35.2364ZM72.7743 46.7617C72.052 47.1501 71.2225 47.2913 70.4124 47.1637C69.6024 47.0361 68.8564 46.6468 68.2885 46.0552C67.7206 45.4636 67.362 44.7023 67.2676 43.8877C67.1732 43.0731 67.3481 42.25 67.7657 41.5443C68.1832 40.8385 68.8204 40.2888 69.5798 39.9794C70.3392 39.6699 71.1791 39.6176 71.971 39.8305C72.7629 40.0434 73.4634 40.5098 73.9652 41.1583C74.4671 41.8069 74.7428 42.6019 74.7501 43.4219C74.7644 44.1074 74.587 44.7832 74.2379 45.3733C73.8888 45.9633 73.3819 46.4442 72.7743 46.7617Z" fill="white"/>
<path d="M138.265 28.3641C139.07 27.2852 138.491 25.5462 137.287 24.9545C136.083 24.3628 134.542 24.7492 133.555 25.667C134.441 24.7291 133.978 23.0263 132.863 22.3782C131.748 21.7301 130.295 21.9756 129.2 22.6559C128.105 23.3362 127.296 24.3748 126.511 25.3933C126.499 25.0232 126.349 24.671 126.089 24.407C125.829 24.1429 125.48 23.9863 125.11 23.9682C124.741 23.9735 124.377 24.0603 124.045 24.2225C123.713 24.3846 123.421 24.6181 123.19 24.9062C122.255 25.9777 121.514 27.2036 121 28.5291L138.265 28.3641Z" fill="white"/>
<path d="M89.2653 17.3641C90.0704 16.2852 89.4947 14.5462 88.2871 13.9545C87.0794 13.3627 85.5457 13.7492 84.5595 14.667C85.4411 13.7291 84.962 12.0263 83.8671 11.3782C82.7722 10.7301 81.2988 10.9756 80.2039 11.6559C79.109 12.3362 78.2999 13.3748 77.5149 14.3933C77.5022 14.0228 77.3507 13.6706 77.0905 13.4067C76.8302 13.1427 76.4803 12.9862 76.11 12.9682C75.7403 12.974 75.3764 13.0614 75.0445 13.2243C74.7125 13.3871 74.4207 13.6213 74.1899 13.9102C73.2574 14.9832 72.5166 16.2088 72 17.5331L89.2653 17.3641Z" fill="#F5F5F5"/>
<path d="M118.269 49.3641C119.074 48.2852 118.495 46.5462 117.291 45.9545C116.087 45.3627 114.546 45.7492 113.559 46.667C114.441 45.7291 113.962 44.0263 112.867 43.3782C111.772 42.7301 110.299 42.9756 109.204 43.6559C108.109 44.3362 107.3 45.3748 106.515 46.3933C106.503 46.0225 106.352 45.6698 106.091 45.4056C105.831 45.1415 105.481 44.9853 105.11 44.9682C104.741 44.9743 104.377 45.0615 104.046 45.2236C103.714 45.3857 103.422 45.6187 103.19 45.9062C102.258 46.9799 101.518 48.2053 101 49.5291L118.269 49.3641Z" fill="#F5F5F5"/>
<path d="M44.2693 47.3641C45.0744 46.2852 44.4947 44.5462 43.2911 43.9545C42.0875 43.3627 40.5457 43.7492 39.5595 44.667C40.441 43.7291 39.962 42.0263 38.8671 41.3782C37.7722 40.7301 36.2988 40.9756 35.2039 41.6559C34.109 42.3362 33.2998 43.3748 32.5149 44.3933C32.5031 44.0225 32.3519 43.6698 32.0915 43.4056C31.8311 43.1415 31.4806 42.9853 31.11 42.9682C30.7408 42.9743 30.3774 43.0615 30.0456 43.2236C29.7138 43.3857 29.4216 43.6187 29.1899 43.9062C28.2584 44.9799 27.5177 46.2053 27 47.5291L44.2693 47.3641Z" fill="#F5F5F5"/>
<path d="M29.2653 23.3586C30.0704 22.2798 29.4907 20.5407 28.2871 19.953C27.0834 19.3653 25.5457 19.7437 24.5595 20.6615C25.4411 19.7276 24.962 18.0208 23.8671 17.3767C22.7722 16.7326 21.2988 16.9742 20.2039 17.6505C19.109 18.3267 18.2999 19.3693 17.5149 20.3878C17.5013 20.0176 17.3495 19.666 17.0894 19.4022C16.8294 19.1384 16.4799 18.9816 16.11 18.9627C15.7404 18.9691 15.3767 19.0567 15.0449 19.2195C14.713 19.3824 14.4211 19.6163 14.1899 19.9047C13.256 20.9768 12.5151 22.2025 12 23.5276L29.2653 23.3586Z" fill="#0056D1"/>
<path d="M27.1259 66.0445C21.6084 69.3647 19.1078 76.4907 21.2025 82.9C22.1594 85.871 24 88.4755 26.4741 90.359C27.0524 90.7846 27.6675 91.1566 28.3119 91.4706L40.4642 97.6608C40.9086 97.8882 41.3979 98.0117 41.8957 98.022C42.3934 98.0324 42.8868 97.9294 43.3389 97.7206C43.7911 97.5118 44.1903 97.2027 44.5069 96.8163C44.8235 96.4299 45.0493 95.9763 45.1675 95.4891L47.38 85.9784C47.5896 85.0836 47.9506 83.352 48.2382 81.7909C48.8397 78.8419 48.5271 75.7753 47.3429 73.0062L47.3316 72.9394C43.7576 65.0002 34.4182 61.6538 27.1259 66.0445ZM38.1742 83.4204C34.6401 86.1364 29.5761 84.0866 28.5885 79.5451C28.3444 78.4321 28.4142 77.2732 28.7902 76.1998C29.1661 75.1265 29.8331 74.1816 30.7155 73.4723C34.2496 70.7563 39.3214 72.8116 40.3078 77.3465C40.5486 78.4585 40.4761 79.6155 40.0987 80.6864C39.7212 81.7574 39.0538 82.6998 38.172 83.4071L38.1742 83.4204Z" fill="#4092E2"/>
</g>
<defs>
<linearGradient id="paint0_linear_290_19863" x1="164.019" y1="67.7235" x2="205.601" y2="27.321" gradientUnits="userSpaceOnUse">
<stop stop-color="#0056D1"/>
<stop offset="1" stop-color="#053579"/>
</linearGradient>
<linearGradient id="paint1_linear_290_19863" x1="217.66" y1="66.5805" x2="298.399" y2="36.9448" gradientUnits="userSpaceOnUse">
<stop stop-color="#0056D1"/>
<stop offset="1" stop-color="#053579"/>
</linearGradient>
</defs>
</svg>
