<svg width="167" height="184" viewBox="0 0 167 184" fill="none" xmlns="http://www.w3.org/2000/svg">
<rect width="167" height="184" rx="10" fill="url(#paint0_linear_290_19984)"/>
<mask id="mask0_290_19984" style="mask-type:alpha" maskUnits="userSpaceOnUse" x="0" y="0" width="167" height="184">
<rect width="167" height="184" rx="10" fill="url(#paint1_linear_290_19984)"/>
</mask>
<g mask="url(#mask0_290_19984)">
<path d="M175 -3H-9V187H175V-3Z" fill="url(#paint2_linear_290_19984)"/>
<path d="M173 130C114.183 166.673 73.3174 125.263 -6 156.055V184.479C69.0299 156.055 116.934 237.825 173 184.479V130Z" fill="url(#paint3_linear_290_19984)"/>
<path d="M-4 147C54.8167 183.673 95.6826 142.263 175 173.055V201.479C99.9701 173.055 52.0662 254.825 -4 201.479V147Z" fill="url(#paint4_linear_290_19984)"/>
<path d="M18.6387 108.949C34.3817 108.563 46.6809 94.3077 54.3064 73.117C62.4238 50.3851 63.4078 23.8004 70.5413 1.06861C71.0013 -0.372354 71.4884 -1.72471 72 -3H-9V101.855C0.101399 104.495 8.97404 109.565 18.6387 108.949Z" fill="url(#paint5_linear_290_19984)"/>
<path d="M113.247 128.229C113.281 129.074 112.715 129.781 111.983 129.811C111.251 129.84 110.633 129.18 110.599 128.335C110.564 127.491 111.128 126.781 111.86 126.752C112.592 126.722 113.213 127.384 113.247 128.229Z" fill="#5E4842"/>
<path d="M129.027 132.428C129.07 133.498 128.353 134.396 127.426 134.433C126.499 134.471 125.712 133.633 125.669 132.563C125.626 131.493 126.342 130.593 127.27 130.556C128.197 130.518 128.984 131.357 129.027 132.428Z" fill="#5E4842"/>
<path d="M116.311 152.648C116.354 153.718 115.638 154.616 114.709 154.653C113.78 154.691 112.994 153.854 112.951 152.783C112.908 151.711 113.624 150.813 114.553 150.776C115.481 150.738 116.267 151.575 116.311 152.648Z" fill="#5E4842"/>
<path d="M128.581 154.091C128.625 155.162 127.908 156.06 126.979 156.097C126.051 156.135 125.266 155.297 125.223 154.227C125.179 153.157 125.895 152.259 126.823 152.221C127.751 152.184 128.538 153.021 128.581 154.091Z" fill="#5E4842"/>
<path d="M122.421 138.876C122.455 139.721 121.888 140.43 121.156 140.46C120.426 140.489 119.805 139.827 119.771 138.982C119.737 138.138 120.302 137.43 121.033 137.4C121.765 137.371 122.387 138.031 122.421 138.876Z" fill="#5E4842"/>
<path d="M125.862 113.902C125.896 114.747 125.329 115.457 124.598 115.486C123.868 115.516 123.246 114.854 123.212 114.009C123.178 113.164 123.745 112.456 124.474 112.427C125.206 112.397 125.828 113.057 125.862 113.902Z" fill="#5E4842"/>
<path d="M125.364 167.595C125.398 168.44 124.831 169.148 124.1 169.177C123.368 169.207 122.748 168.546 122.714 167.702C122.68 166.857 123.245 166.149 123.976 166.119C124.708 166.09 125.33 166.75 125.364 167.595Z" fill="#5E4842"/>
<path d="M94.1623 89.2366L91.8933 84.4479L97.8088 81.6451L103.724 78.8422L105.993 83.6309C112.581 86.3731 125.921 93.3668 126.574 99.4041L141.523 130.953C142.081 130.919 143.945 133.737 146.936 145.29C149.926 156.842 154.663 171.062 155.39 174.052L144.122 179.391L132.855 184.73C131.001 182.274 122.997 169.602 115.95 159.971C108.903 150.341 107.903 147.113 108.283 146.703L93.3348 115.153C89.0761 110.825 92.112 96.0718 94.1623 89.2366Z" fill="#D7E2F4"/>
<path d="M109.299 146.221L94.351 114.672C90.7436 111.005 92.2052 100.191 93.9978 92.7008L109.267 86.011C116.13 89.3828 125.086 94.9376 125.618 99.8573L140.567 131.406C141.125 131.372 142.99 134.191 145.98 145.743C148.97 157.296 153.707 171.516 154.434 174.506L144.122 179.392L133.871 184.249C132.017 181.793 124.013 169.121 116.966 159.49C109.92 149.86 108.919 146.632 109.299 146.221Z" fill="#1B1B23"/>
<path d="M105.573 83.8663L102.793 85.1655C103.244 84.9548 103.299 84.1197 102.917 83.3013L102.054 81.455C101.671 80.6366 100.995 80.1433 100.544 80.354L101.161 80.0657L101.242 80.2385L103.498 79.184L103.905 78.78L104.596 80.3206L105.419 82.0815L106.132 83.5849C106.132 83.5849 105.604 83.8516 105.573 83.8663Z" fill="#B0C6DB"/>
<path d="M105.756 86.9289C106.026 86.7988 106.218 86.4963 106.243 86.1585C106.277 85.7169 106.064 85.2477 105.743 84.9286C105.602 84.7878 105.433 84.6691 105.253 84.6356C105.092 84.6039 104.934 84.644 104.781 84.6878C104.441 84.7883 104.093 84.8861 103.772 85.0402C103.709 85.0702 103.65 85.103 103.588 85.1389C103.028 85.4623 101.39 86.2578 99.0963 87.3591C99.0713 87.3712 99.0447 87.384 99.0196 87.396C100.116 87.1238 101.142 86.9089 102.081 86.7353C103.662 86.4434 104.053 86.4846 104.528 86.675C104.845 86.8047 105.162 87.008 105.488 86.9967C105.582 86.9932 105.673 86.9687 105.756 86.9289Z" fill="#ECF1FA"/>
<path d="M110.811 120.066C111.169 120.832 110.921 121.703 110.257 122.013C109.594 122.324 108.768 121.954 108.41 121.188C108.052 120.422 108.297 119.55 108.961 119.24C109.624 118.929 110.453 119.3 110.811 120.066Z" fill="#5E4842"/>
<path d="M126.987 117.838C127.44 118.809 127.127 119.914 126.286 120.307C125.445 120.699 124.396 120.231 123.942 119.261C123.489 118.291 123.802 117.184 124.643 116.791C125.483 116.398 126.533 116.868 126.987 117.838Z" fill="#5E4842"/>
<path d="M123.077 141.402C123.531 142.372 123.217 143.477 122.375 143.871C121.534 144.264 120.485 143.796 120.031 142.825C119.577 141.853 119.89 140.748 120.732 140.355C121.574 139.961 122.623 140.43 123.077 141.402Z" fill="#5E4842"/>
<path d="M134.951 137.99C135.405 138.961 135.091 140.066 134.249 140.46C133.408 140.853 132.36 140.384 131.906 139.414C131.453 138.443 131.765 137.339 132.607 136.945C133.448 136.552 134.498 137.02 134.951 137.99Z" fill="#5E4842"/>
<path d="M132.215 160.952C132.669 161.925 132.356 163.029 131.514 163.423C130.672 163.816 129.624 163.348 129.169 162.376C128.716 161.406 129.029 160.301 129.871 159.907C130.713 159.514 131.761 159.982 132.215 160.952Z" fill="#5E4842"/>
<path d="M123.388 126.338C123.747 127.104 123.498 127.978 122.834 128.288C122.172 128.598 121.344 128.227 120.986 127.461C120.628 126.695 120.875 125.824 121.538 125.515C122.202 125.204 123.03 125.572 123.388 126.338Z" fill="#5E4842"/>
<path d="M116.906 101.975C117.264 102.741 117.016 103.615 116.353 103.925C115.691 104.234 114.862 103.864 114.504 103.098C114.146 102.332 114.395 101.46 115.056 101.151C115.719 100.841 116.548 101.209 116.906 101.975Z" fill="#5E4842"/>
<path d="M108.03 94.3776C108.388 95.1436 108.139 96.0176 107.476 96.3275C106.815 96.6367 105.985 96.2667 105.627 95.5007C105.269 94.7348 105.518 93.8627 106.179 93.5535C106.842 93.2436 107.671 93.6117 108.03 94.3776Z" fill="#5E4842"/>
<path d="M137.204 151.687C137.562 152.453 137.313 153.325 136.65 153.635C135.987 153.945 135.159 153.576 134.801 152.81C134.443 152.044 134.691 151.173 135.354 150.863C136.018 150.553 136.846 150.921 137.204 151.687Z" fill="#5E4842"/>
<path d="M146.053 168.803C146.411 169.569 146.162 170.441 145.499 170.751C144.835 171.061 144.008 170.692 143.65 169.926C143.292 169.16 143.539 168.289 144.203 167.979C144.866 167.668 145.695 168.037 146.053 168.803Z" fill="#5E4842"/>
<path d="M110.537 145.635L95.5885 114.085C92.0331 110.471 93.5621 99.5917 95.3571 92.1197L96.9366 91.3712C95.1416 98.8433 93.6127 109.723 97.1681 113.337L112.117 144.886C111.736 145.296 112.737 148.524 119.783 158.155C126.83 167.786 134.835 180.457 136.688 182.913L135.109 183.662C133.255 181.206 125.25 168.534 118.204 158.903C111.157 149.273 110.157 146.045 110.537 145.635Z" fill="#694338"/>
<path d="M96.4165 88.1692L94.1476 83.3805L95.7271 82.6321L97.9961 87.4208C97.6576 88.5494 97.2921 89.894 96.9371 91.3718L95.3576 92.1202C95.7126 90.6424 96.078 89.2979 96.4165 88.1692Z" fill="#ECF1FA"/>
<path d="M139.329 131.993L124.381 100.443C123.845 95.4898 114.768 89.8923 107.888 86.5277L106.212 87.3215C112.82 90.8151 121.139 96.7721 121.675 101.726L136.623 133.275C137.181 133.24 139.328 135.926 142.318 147.478C145.308 159.031 150.327 173.117 151.054 176.107L153.197 175.092C152.47 172.102 147.733 157.882 144.743 146.329C141.752 134.777 139.888 131.958 139.329 131.993Z" fill="#402821"/>
<path d="M93.4655 115.307C106.59 111.967 116.539 107.353 126.882 99.6201L137.045 121.364C127.04 129.56 117.43 134.119 103.629 137.051L93.4655 115.307Z" fill="url(#paint6_linear_290_19984)"/>
<path d="M97.6126 124.205C110.747 120.86 120.711 116.234 131.064 108.497L141.875 131.414C131.86 139.613 122.234 144.184 108.424 147.121L97.6126 124.205Z" fill="#053579"/>
<path d="M99.6753 72.5473L89.3871 77.3659C88.4979 77.7824 88.1062 78.8264 88.5131 79.6992L91.0137 85.062L104.52 78.7359L102.02 73.3731C101.613 72.5003 100.564 72.1308 99.6753 72.5473Z" fill="#053579"/>
<path d="M104.455 78.595C104.418 78.6085 104.381 78.6234 104.344 78.6411L104.308 78.6579L100.925 80.2423L98.4724 74.9828C98.0765 74.1337 97.0557 73.7745 96.1911 74.1794L99.6759 72.5473C100.565 72.1308 101.614 72.5003 102.021 73.3731L104.455 78.595Z" fill="#072244"/>
<path d="M172 159C113.183 195.673 72.3174 154.263 -7 185.055V213.479C68.0299 185.055 115.934 266.825 172 213.479V159Z" fill="url(#paint7_linear_290_19984)"/>
</g>
<path d="M16 34.7271V2C16 0.89543 16.8954 0 18 0H80C81.1046 0 82 0.895432 82 2V34.7451C82 35.9444 80.9526 36.8734 79.7606 36.7419C59.3732 34.4912 36.3417 34.6245 18.2532 36.7249C17.0557 36.8639 16 35.9327 16 34.7271Z" fill="#D52B2B"/>
<path d="M28.716 31V20.452H24.72V18.4H34.944V20.452H30.948V31H28.716ZM41.5579 31.216C40.1179 31.216 38.9179 30.736 37.9579 29.776C36.9979 28.816 36.5179 27.646 36.5179 26.266C36.5179 24.886 37.0039 23.716 37.9759 22.756C38.9479 21.784 40.1539 21.298 41.5939 21.298C43.0339 21.298 44.2339 21.778 45.1939 22.738C46.1659 23.698 46.6519 24.874 46.6519 26.266C46.6519 27.634 46.1659 28.804 45.1939 29.776C44.2219 30.736 43.0099 31.216 41.5579 31.216ZM41.5939 29.326C42.4579 29.326 43.1539 29.032 43.6819 28.444C44.2099 27.856 44.4739 27.13 44.4739 26.266C44.4739 25.414 44.1979 24.694 43.6459 24.106C43.0939 23.506 42.3979 23.206 41.5579 23.206C40.7059 23.206 40.0159 23.5 39.4879 24.088C38.9599 24.676 38.6959 25.402 38.6959 26.266C38.6959 27.106 38.9719 27.826 39.5239 28.426C40.0759 29.026 40.7659 29.326 41.5939 29.326ZM48.348 33.61L48.114 32.692C49.146 32.488 49.662 31.99 49.662 31.198C49.662 31.174 49.656 31.138 49.644 31.09C49.644 31.054 49.644 31.024 49.644 31H48.726V28.534H51.12V30.622C51.12 31.594 50.892 32.314 50.436 32.782C49.98 33.262 49.284 33.538 48.348 33.61ZM31.146 48V44.454C30.21 44.934 29.268 45.174 28.32 45.174C27.348 45.174 26.562 44.916 25.962 44.4C25.374 43.872 25.08 43.134 25.08 42.186V38.496H27.258V41.664C27.258 42.12 27.402 42.51 27.69 42.834C27.978 43.158 28.356 43.32 28.824 43.32C29.64 43.32 30.414 43.11 31.146 42.69V38.496H33.324V48H31.146ZM38.0895 48V40.368H35.0295V38.496H43.3455V40.368H40.2855V48H38.0895ZM49.5911 48.216C48.1511 48.216 46.9511 47.736 45.9911 46.776C45.0311 45.816 44.5511 44.646 44.5511 43.266C44.5511 41.886 45.0371 40.716 46.0091 39.756C46.9811 38.784 48.1871 38.298 49.6271 38.298C51.0671 38.298 52.2671 38.778 53.2271 39.738C54.1991 40.698 54.6851 41.874 54.6851 43.266C54.6851 44.634 54.1991 45.804 53.2271 46.776C52.2551 47.736 51.0431 48.216 49.5911 48.216ZM49.6271 46.326C50.4911 46.326 51.1871 46.032 51.7151 45.444C52.2431 44.856 52.5071 44.13 52.5071 43.266C52.5071 42.414 52.2311 41.694 51.6791 41.106C51.1271 40.506 50.4311 40.206 49.5911 40.206C48.7391 40.206 48.0491 40.5 47.5211 41.088C46.9931 41.676 46.7291 42.402 46.7291 43.266C46.7291 44.106 47.0051 44.826 47.5571 45.426C48.1091 46.026 48.7991 46.326 49.6271 46.326ZM25.368 65L25.368 55.496H27.546V59.348H31.74V55.496H33.918L33.918 65H31.74V61.166H27.546L27.546 65H25.368ZM44.6272 65H42.4672L42.4672 63.83C41.6992 64.742 40.6732 65.198 39.3892 65.198C38.4412 65.198 37.6372 64.94 36.9772 64.424C36.3292 63.896 36.0052 63.164 36.0052 62.228C36.0052 61.208 36.3592 60.434 37.0672 59.906C37.7752 59.378 38.7052 59.114 39.8572 59.114C40.7812 59.114 41.6572 59.246 42.4852 59.51V59.33C42.4852 58.67 42.2812 58.166 41.8732 57.818C41.4772 57.47 40.9012 57.296 40.1452 57.296C39.2812 57.296 38.3752 57.494 37.4272 57.89L36.8332 56.144C38.0092 55.616 39.2152 55.352 40.4512 55.352C41.8312 55.352 42.8692 55.7 43.5652 56.396C44.2732 57.092 44.6272 58.082 44.6272 59.366L44.6272 65ZM42.5212 61.562V61.022C41.8732 60.77 41.1472 60.644 40.3432 60.644C39.6592 60.644 39.1252 60.776 38.7412 61.04C38.3572 61.304 38.1652 61.676 38.1652 62.156C38.1652 62.588 38.3392 62.93 38.6872 63.182C39.0352 63.434 39.4732 63.56 40.0012 63.56C40.7332 63.56 41.3332 63.374 41.8012 63.002C42.2812 62.63 42.5212 62.15 42.5212 61.562ZM46.1196 67.286L46.1196 63.128H47.1456C47.8536 61.712 48.2076 59.558 48.2076 56.666V55.496H55.5696V63.128L56.9196 63.128L56.6316 67.286H54.8136V65H48.1536L47.9376 67.286H46.1196ZM49.3776 63.128H53.3916V57.368H50.2596V58.628C50.2596 60.392 49.9656 61.892 49.3776 63.128ZM63.2493 65.216C61.8093 65.216 60.6093 64.736 59.6493 63.776C58.6893 62.816 58.2093 61.646 58.2093 60.266C58.2093 58.886 58.6953 57.716 59.6673 56.756C60.6393 55.784 61.8453 55.298 63.2853 55.298C64.7253 55.298 65.9253 55.778 66.8853 56.738C67.8573 57.698 68.3433 58.874 68.3433 60.266C68.3433 61.634 67.8573 62.804 66.8853 63.776C65.9133 64.736 64.7013 65.216 63.2493 65.216ZM63.2853 63.326C64.1493 63.326 64.8453 63.032 65.3733 62.444C65.9013 61.856 66.1653 61.13 66.1653 60.266C66.1653 59.414 65.8893 58.694 65.3373 58.106C64.7853 57.506 64.0893 57.206 63.2493 57.206C62.3973 57.206 61.7073 57.5 61.1793 58.088C60.6513 58.676 60.3873 59.402 60.3873 60.266C60.3873 61.106 60.6633 61.826 61.2153 62.426C61.7673 63.026 62.4573 63.326 63.2853 63.326ZM71.3174 61.022L70.6334 53.03V52.4H73.1894V53.03L72.5234 61.022H71.3174ZM70.7234 65V62.534H73.1174V65H70.7234Z" fill="white"/>
<defs>
<linearGradient id="paint0_linear_290_19984" x1="177.5" y1="-15.5" x2="-37" y2="256.5" gradientUnits="userSpaceOnUse">
<stop stop-color="#D37818"/>
<stop offset="0.475" stop-color="#FDDF67"/>
<stop offset="1" stop-color="#D37818"/>
</linearGradient>
<linearGradient id="paint1_linear_290_19984" x1="200.5" y1="-38" x2="-41.5" y2="260" gradientUnits="userSpaceOnUse">
<stop stop-color="#140B03"/>
<stop offset="0.475" stop-color="#CAA504"/>
<stop offset="1" stop-color="#271502"/>
</linearGradient>
<linearGradient id="paint2_linear_290_19984" x1="30.5" y1="184" x2="211.718" y2="84.6809" gradientUnits="userSpaceOnUse">
<stop stop-color="#053579"/>
<stop offset="1" stop-color="#1E77F7"/>
</linearGradient>
<linearGradient id="paint3_linear_290_19984" x1="173" y1="180.5" x2="-18" y2="152" gradientUnits="userSpaceOnUse">
<stop stop-color="#694338"/>
<stop offset="1" stop-color="#1B1B23"/>
</linearGradient>
<linearGradient id="paint4_linear_290_19984" x1="-4" y1="197.5" x2="187" y2="169" gradientUnits="userSpaceOnUse">
<stop stop-color="#694338"/>
<stop offset="1" stop-color="#1B1B23"/>
</linearGradient>
<linearGradient id="paint5_linear_290_19984" x1="-8.49081" y1="79.5705" x2="152.424" y2="-7.11892" gradientUnits="userSpaceOnUse">
<stop stop-color="#696E74"/>
<stop offset="1" stop-color="#053579"/>
</linearGradient>
<linearGradient id="paint6_linear_290_19984" x1="131.943" y1="110.447" x2="97.861" y2="123.306" gradientUnits="userSpaceOnUse">
<stop stop-color="#DE2B35"/>
<stop offset="0.485" stop-color="#D0646B"/>
<stop offset="1" stop-color="#F50F2B"/>
</linearGradient>
<linearGradient id="paint7_linear_290_19984" x1="172" y1="209.5" x2="-19" y2="181" gradientUnits="userSpaceOnUse">
<stop stop-color="#694338"/>
<stop offset="1" stop-color="#1B1B23"/>
</linearGradient>
</defs>
</svg>
