<svg width="149" height="91" viewBox="0 0 149 91" fill="none" xmlns="http://www.w3.org/2000/svg">
<path fill-rule="evenodd" clip-rule="evenodd" d="M98 77C100.761 77 103 79.2385 103 82V89C103 89.5523 103.448 90 104 90H148C148.552 90 149 89.5523 149 89V1.00001C149 0.447723 148.552 7.62939e-06 148 7.62939e-06H104C103.448 7.62939e-06 103 0.447723 103 1.00001V26C103 28.7614 100.761 31 98 31H28.3366C12.297 31 -1.52588e-05 40.5568 -1.52588e-05 55.6467V89.5C-1.52588e-05 90.0523 0.447708 90.5 0.999985 90.5H45C45.5523 90.5 46 90.0523 46 89.5V82C46 79.2385 48.2386 77 51 77H98Z" fill="#092348"/>
<rect width="14" height="3" rx="1" transform="matrix(0 -1 -1 0 127 86)" fill="white"/>
<rect width="14" height="3" rx="1" transform="matrix(0 -1 -1 0 24 88)" fill="white"/>
<rect width="14" height="3" rx="1" transform="matrix(1 0 0 -1 89 57)" fill="white"/>
<rect width="14" height="3" rx="1" transform="matrix(1 0 0 -1 71 57)" fill="white"/>
<rect width="14" height="3" rx="1" transform="matrix(1 0 0 -1 53 57)" fill="white"/>
<rect width="14" height="3" rx="1" transform="matrix(1 0 0 -1 35 57)" fill="white"/>
<rect width="14" height="3" rx="1" transform="matrix(0 -1 -1 0 127 15)" fill="white"/>
<rect width="14" height="3" rx="1" transform="matrix(0 -1 -1 0 127 33)" fill="white"/>
</svg>
