<svg width="80" height="120" viewBox="0 0 80 120" fill="none" xmlns="http://www.w3.org/2000/svg">
<path fill-rule="evenodd" clip-rule="evenodd" d="M0 75L0 120L79 120V74H46V46L79.5 46V3.8147e-05L24.5 3.8147e-05H0L0 31.3367L0 74L0 75Z" fill="#092348"/>
<rect x="24" y="34" width="14" height="3" transform="rotate(90 24 34)" fill="white"/>
<rect x="24" y="52" width="14" height="3" transform="rotate(90 24 52)" fill="white"/>
<rect x="24" y="70" width="14" height="3" transform="rotate(90 24 70)" fill="white"/>
<rect width="14" height="3" transform="matrix(-1 0 0 1 74 21)" fill="white"/>
<rect width="14" height="3" transform="matrix(-1 0 0 1 56 21)" fill="white"/>
<rect width="14" height="3" transform="matrix(-1 0 0 1 74 95)" fill="white"/>
<rect width="14" height="3" transform="matrix(-1 0 0 1 56 95)" fill="white"/>
</svg>
