<svg width="110" height="149" viewBox="0 0 110 149" fill="none" xmlns="http://www.w3.org/2000/svg">
<path fill-rule="evenodd" clip-rule="evenodd" d="M110 1C110 0.447715 109.552 0 109 0H1C0.447716 0 0 0.447715 0 1V45C0 45.5523 0.447716 46 1 46H27.9993C30.7608 46 32.9993 48.2386 32.9993 51V98C32.9993 100.761 30.7608 103 27.9993 103L0.999352 103C0.44706 103 -0.000656128 103.448 -0.000648499 104L-1.52588e-05 148C-7.62939e-06 148.552 0.447708 149 0.999985 149H54.5C69.5899 149 79.1467 136.703 79.1467 120.663L79.1461 51C79.1461 48.2386 81.3847 46 84.1461 46H109C109.552 46 110 45.5523 110 45V1Z" fill="#092348"/>
<rect width="14" height="3" rx="1" transform="matrix(-1 0 0 1 104 21)" fill="white"/>
<rect width="14" height="3" rx="1" transform="matrix(-1 0 0 1 86 21)" fill="white"/>
<rect width="14" height="3" rx="1" transform="matrix(-1 0 0 1 37 124)" fill="white"/>
<rect width="14" height="3" rx="1" transform="matrix(-1 0 0 1 19 124)" fill="white"/>
<rect width="14" height="3" rx="1" transform="matrix(0 -1 -1 0 57 66)" fill="white"/>
<rect width="14" height="3" rx="1" transform="matrix(0 -1 -1 0 57 84)" fill="white"/>
<rect width="14" height="3" rx="1" transform="matrix(0 -1 -1 0 57 102)" fill="white"/>
<rect width="14" height="3" rx="1" transform="matrix(0 -1 -1 0 57 120)" fill="white"/>
<rect width="14" height="3" rx="1" transform="matrix(-1 0 0 1 21 21)" fill="white"/>
<rect width="14" height="3" rx="1" transform="matrix(-1 0 0 1 39 21)" fill="white"/>
</svg>
