<svg width="80" height="84" viewBox="0 0 80 84" fill="none" xmlns="http://www.w3.org/2000/svg">
<path d="M79.146 6.4373e-06L79.1465 55.1633L79.146 83.4999H54.4998L-0.000259399 83.4999L-0.000923157 37.4999L32.9991 37.4999L32.9993 0L79.146 6.4373e-06Z" fill="#092348"/>
<rect width="14" height="3" transform="matrix(-1 0 0 1 37 58.5)" fill="white"/>
<rect width="14" height="3" transform="matrix(-1 0 0 1 19 58.5)" fill="white"/>
<rect width="14" height="3" transform="matrix(0 -1 -1 0 57 18.5)" fill="white"/>
<rect width="14" height="3" transform="matrix(0 -1 -1 0 57 36.5)" fill="white"/>
<rect width="14" height="3" transform="matrix(0 -1 -1 0 57 54.5)" fill="white"/>
</svg>
