<svg width="112" height="61" viewBox="0 0 112 61" fill="none" xmlns="http://www.w3.org/2000/svg">
<path d="M100.998 55.9403C100.998 56.4612 100.599 56.8948 100.079 56.9371L50.1602 61.0001V8.68518L99.9172 4.63536C100.5 4.58796 100.998 5.04779 100.998 5.63206V55.9403Z" fill="#845630"/>
<path d="M96.6179 50.7737C88.9563 51.1531 81.6617 47.9007 75.6927 43.2979C73.1657 41.3497 70.7152 39.2209 68.729 36.7096C66.9599 34.4716 65.459 32.0231 64.2302 29.4477C61.2185 23.1327 59.2382 14.7734 61.1047 7.79395L50.1641 8.68468V60.9996L100.083 56.9366C100.602 56.8943 101.002 56.4607 101.002 55.9399V50.1283C99.5693 50.4781 98.1051 50.6992 96.6179 50.7737Z" fill="#704525"/>
<path d="M83.757 47.4538C83.7531 47.5827 83.6001 47.6494 83.5039 47.5585C82.676 46.7632 81.4144 47.7821 80.5453 47.1824C80.5283 47.2524 80.5119 47.3224 80.5008 47.395C80.4864 47.4872 80.3569 47.533 80.2837 47.4833C79.9508 47.257 79.9652 47.5343 79.718 47.5474C79.5244 47.5578 79.3563 47.4859 79.1882 47.3995C78.3773 46.983 78.5297 47.6775 78.0496 47.8828C77.8306 47.9764 77.5631 47.8188 77.4473 47.635C77.3244 47.4408 77.2544 47.2125 77.1236 47.0248C76.8064 46.5664 76.6122 47.1635 76.5775 47.344C76.4912 47.8024 76.3617 48.406 75.7463 48.1366C75.1642 47.8809 74.9079 47.3211 74.6934 46.7449V59.004L84.742 58.1852V46.5396C84.381 46.775 83.7721 47.0222 83.757 47.4538Z" fill="#EAC48F"/>
<path d="M11.7383 46.1169C11.7383 46.5356 11.9991 46.91 12.3919 47.055L50.1617 61.0001V8.68518L13.9524 4.7858C12.7699 4.65846 11.7383 5.58499 11.7383 6.77431V46.1169Z" fill="#936037"/>
<path d="M36.8621 44.1531C27.2281 49.7186 18.4456 40.1382 17.0585 38.8328C14.9533 36.8519 13.1162 27.97 11.7383 25.4364V46.1168C11.7383 46.5355 11.9991 46.9098 12.3919 47.0549L50.1617 61V8.68506C48.7301 10.065 50.1617 36.4687 36.8621 44.1531Z" fill="#83512C"/>
<path d="M58.4571 0L99.6035 4.04983C100.828 4.17037 100.796 5.96671 99.5676 6.04309L52.0196 9L12.4343 6.60713C11.2059 6.53288 11.1705 4.73659 12.3949 4.61394L58.4571 0Z" fill="#A0683C"/>
<path d="M42.4964 2.10352L84.7437 5.86986L74.6951 6.68866L34.4883 2.7392L42.4964 2.10352Z" fill="#F7DAA2"/>
<path d="M74.8045 17.4597C75.1099 17.1007 75.5533 17.1301 75.9399 16.8554C75.9425 16.8502 75.9425 16.843 75.9451 16.8378C76.1838 16.4414 76.2682 16.4983 76.6834 16.7318C76.8325 16.7632 76.9836 16.7815 77.1321 16.8057C77.2943 16.7377 77.5474 16.8168 77.6998 16.8136C78.1451 16.8037 78.6055 16.72 79.047 16.7952C79.4466 16.8639 79.3413 16.8234 79.7441 16.6344C79.9011 16.5598 79.9194 16.5631 80.094 16.6115C80.5119 16.7266 80.6257 16.7514 81.06 16.6226C81.23 16.5716 81.4583 16.584 81.6355 16.569C82.2502 16.5186 82.865 16.4885 83.4451 16.7279C83.6786 16.824 83.9251 16.6854 84.1841 16.7946C84.379 16.8763 84.5654 16.9823 84.7439 17.1039V5.86963L74.6953 6.68843V17.3963C74.7319 17.4172 74.7672 17.4388 74.8045 17.4597Z" fill="#EAC48F"/>
</svg>
