<svg width="112" height="61" viewBox="0 0 112 61" fill="none" xmlns="http://www.w3.org/2000/svg">
<path d="M11.0017 55.9403C11.0017 56.4612 11.4014 56.8948 11.9206 56.9371L61.8398 61.0001V8.68518L12.0828 4.63536C11.5005 4.58796 11.0017 5.04779 11.0017 5.63206V55.9403Z" fill="#845630"/>
<path d="M15.3821 50.7737C23.0437 51.1531 30.3383 47.9007 36.3073 43.2979C38.8343 41.3497 41.2848 39.2209 43.271 36.7096C45.0401 34.4716 46.541 32.0231 47.7698 29.4477C50.7815 23.1327 52.7618 14.7734 50.8953 7.79395L61.8359 8.68468V60.9996L11.9173 56.9366C11.3982 56.8943 10.9984 56.4607 10.9984 55.9399V50.1283C12.4307 50.4781 13.8949 50.6992 15.3821 50.7737Z" fill="#704525"/>
<path d="M28.243 47.4538C28.2469 47.5827 28.3999 47.6494 28.4961 47.5585C29.324 46.7632 30.5856 47.7821 31.4547 47.1824C31.4717 47.2524 31.4881 47.3224 31.4992 47.395C31.5136 47.4872 31.6431 47.533 31.7163 47.4833C32.0492 47.257 32.0348 47.5343 32.282 47.5474C32.4756 47.5578 32.6437 47.4859 32.8118 47.3995C33.6227 46.983 33.4703 47.6775 33.9504 47.8828C34.1694 47.9764 34.4369 47.8188 34.5527 47.635C34.6756 47.4408 34.7456 47.2125 34.8764 47.0248C35.1936 46.5664 35.3878 47.1635 35.4225 47.344C35.5088 47.8024 35.6383 48.406 36.2537 48.1366C36.8358 47.8809 37.0921 47.3211 37.3066 46.7449V59.004L27.258 58.1852V46.5396C27.619 46.775 28.2279 47.0222 28.243 47.4538Z" fill="#EAC48F"/>
<path d="M100.262 46.1169C100.262 46.5356 100.001 46.91 99.6081 47.055L61.8383 61.0001V8.68518L98.0476 4.7858C99.2301 4.65846 100.262 5.58499 100.262 6.77431V46.1169Z" fill="#936037"/>
<path d="M75.1379 44.1531C84.7719 49.7186 93.5544 40.1382 94.9415 38.8328C97.0467 36.8519 98.8838 27.97 100.262 25.4364V46.1168C100.262 46.5355 100.001 46.9098 99.6081 47.0549L61.8383 61V8.68506C63.2699 10.065 61.8383 36.4687 75.1379 44.1531Z" fill="#83512C"/>
<path d="M53.5429 0L12.3965 4.04983C11.1718 4.17037 11.2042 5.96671 12.4324 6.04309L59.9804 9L99.5657 6.60713C100.794 6.53288 100.83 4.73659 99.6051 4.61394L53.5429 0Z" fill="#A0683C"/>
<path d="M69.5036 2.10352L27.2563 5.86986L37.3049 6.68866L77.5117 2.7392L69.5036 2.10352Z" fill="#F7DAA2"/>
<path d="M37.1955 17.4597C36.8901 17.1007 36.4467 17.1301 36.0601 16.8554C36.0575 16.8502 36.0575 16.843 36.0549 16.8378C35.8162 16.4414 35.7318 16.4983 35.3166 16.7318C35.1675 16.7632 35.0164 16.7815 34.8679 16.8057C34.7057 16.7377 34.4526 16.8168 34.3002 16.8136C33.8549 16.8037 33.3945 16.72 32.953 16.7952C32.5534 16.8639 32.6587 16.8234 32.2559 16.6344C32.0989 16.5598 32.0806 16.5631 31.906 16.6115C31.4881 16.7266 31.3743 16.7514 30.94 16.6226C30.77 16.5716 30.5417 16.584 30.3645 16.569C29.7498 16.5186 29.135 16.4885 28.5549 16.7279C28.3214 16.824 28.0749 16.6854 27.8159 16.7946C27.621 16.8763 27.4346 16.9823 27.2561 17.1039V5.86963L37.3047 6.68843V17.3963C37.2681 17.4172 37.2328 17.4388 37.1955 17.4597Z" fill="#EAC48F"/>
</svg>
