<svg width="105" height="68" viewBox="0 0 105 68" fill="none" xmlns="http://www.w3.org/2000/svg">
<path d="M2.45117 50.2605C2.45117 51.8326 1.90164 53.1061 1.22597 53.1061C0.547735 53.1061 -0.000522375 51.8326 -0.000522375 50.2605C-0.000522375 48.6898 0.547735 47.415 1.22597 47.415C1.90228 47.415 2.45117 48.6891 2.45117 50.2605Z" fill="#F39200"/>
<path d="M4.59303 0.0123584L64.5488 0.384084C65.6534 0.390933 66.5433 1.29191 66.5364 2.39648L66.27 45.368C66.2632 46.4726 65.3622 47.3625 64.2576 47.3556L4.30181 46.9839C3.19724 46.977 2.30736 46.0761 2.31421 44.9715L2.58063 1.99996C2.58748 0.895389 3.48846 0.00551006 4.59303 0.0123584Z" fill="#D52B2B"/>
<path d="M1.98883 54.2861H76.3711V60.2332H1.98883V54.2861Z" fill="#AAAAA9"/>
<path d="M1.51572 46.1655H75.4707V54.325H1.51572V46.1655Z" fill="#CECECE"/>
<path d="M104.228 56.9678C104.228 58.6994 102.812 60.1164 101.08 60.1164H71.9556C70.2239 60.1164 68.8057 58.7001 68.8057 56.9678V18.5581C68.8057 17.4966 69.2276 16.4787 69.9784 15.7285L70.7842 14.9234C71.5343 14.1739 72.5512 13.7529 73.6115 13.7529H86.3578C87.0758 13.7529 87.7806 13.9462 88.3981 14.3124L91.1696 15.956C91.7871 16.3222 92.2946 16.8478 92.639 17.4776L101.389 33.4818C101.589 33.8479 101.743 34.2377 101.846 34.642L103.046 39.3335C103.149 39.7382 103.202 40.1543 103.202 40.572V52.7047L104.229 53.538L104.228 56.9678Z" fill="#FDFDFD"/>
<path d="M70.8989 34.2186C70.8989 35.9502 72.3158 37.3672 74.0475 37.3672H91.6443C93.3753 37.3672 97.2742 31.0893 96.4441 29.57L90.8741 19.3823C90.0427 17.8643 87.9468 16.6211 86.2165 16.6211H74.0481C72.3171 16.6211 70.8995 18.0374 70.8995 19.7684L70.8989 34.2186Z" fill="#A1D2D9"/>
<path d="M72.5412 36.9795C78.294 35.0529 83.377 30.6688 85.0346 24.665C85.7553 22.0583 86.1832 19.3299 86.3184 16.6291C86.2849 16.6278 86.2495 16.6201 86.216 16.6201H74.0477C72.3167 16.6201 70.8991 18.0365 70.8991 19.7674V34.2183C70.8991 35.4062 71.5657 36.4441 72.5412 36.9795Z" fill="#87BEC9"/>
<path d="M79.0781 41.0528C79.0781 41.7162 78.5389 42.2555 77.8754 42.2555H73.1548C72.4907 42.2555 71.9528 41.7162 71.9528 41.0528C71.9528 40.3894 72.4907 39.8501 73.1548 39.8501H77.8754C78.5389 39.8501 79.0781 40.3894 79.0781 41.0528Z" fill="#082246"/>
<path d="M1.04109 47.0684H1.99023V53.5386H1.04109V47.0684Z" fill="#AAAAA9"/>
<path d="M105 53.7722L103.824 52.5303H86.5164V57.0559L83.2584 57.7889V60.3126H105V53.7722Z" fill="#082246"/>
<path d="M84.9684 60.2332C85.0611 59.6412 85.1074 59.0331 85.1074 58.4147C85.1074 51.873 79.8038 46.5693 73.2614 46.5693C66.7197 46.5693 61.4167 51.873 61.4167 58.4147C61.4167 59.0331 61.4637 59.6412 61.5551 60.2332H84.9684Z" fill="#082246"/>
<path d="M83.0307 60.2332C83.1072 59.7377 83.1465 59.2313 83.1465 58.7159C83.1465 53.2578 78.7212 48.8325 73.2625 48.8325C67.8044 48.8325 63.3791 53.2578 63.3791 58.7159C63.3791 59.2313 63.4197 59.7377 63.4956 60.2332H83.0307Z" fill="#1F191E"/>
<path d="M82.2891 58.7349C82.2891 63.7206 78.2473 67.7637 73.2609 67.7637C68.2745 67.7637 64.2321 63.7206 64.2321 58.7349C64.2321 53.7491 68.2745 49.7061 73.2609 49.7061C78.2473 49.7061 82.2891 53.7491 82.2891 58.7349Z" fill="#082246"/>
<path d="M67.7826 58.8189C67.7427 55.7934 70.1632 53.3084 73.1891 53.2684C76.2149 53.2285 78.7002 55.6487 78.7402 58.6742C78.7801 61.6997 76.3596 64.1847 73.3337 64.2247C70.3079 64.2646 67.8226 61.8444 67.7826 58.8189Z" fill="#C6C6C6"/>
<path d="M77.043 58.7349C77.043 60.8224 75.3499 62.5154 73.2612 62.5154C71.1731 62.5154 69.48 60.8224 69.48 58.7349C69.48 56.6474 71.1731 54.9531 73.2612 54.9531C75.3499 54.9531 77.043 56.6474 77.043 58.7349Z" fill="#DADADA"/>
<path d="M28.3825 60.2332C28.4739 59.6412 28.5215 59.0331 28.5215 58.4147C28.5215 51.873 23.2178 46.5693 16.6761 46.5693C10.1338 46.5693 4.83012 51.873 4.83012 58.4147C4.83012 59.0331 4.87774 59.6412 4.96847 60.2332H28.3825Z" fill="#082246"/>
<path d="M26.4441 60.2332C26.5207 59.7377 26.5605 59.2313 26.5605 58.7159C26.5605 53.2578 22.1359 48.8325 16.6772 48.8325C11.2185 48.8325 6.79319 53.2578 6.79319 58.7159C6.79319 59.2313 6.83244 59.7377 6.90901 60.2332H26.4441Z" fill="#1F191E"/>
<path d="M25.7051 58.7354C25.7051 63.7211 21.6633 67.7641 16.6769 67.7641C11.6899 67.7641 7.64812 63.7211 7.64812 58.7354C7.64812 53.7496 11.6899 49.7065 16.6769 49.7065C21.6633 49.7059 25.7051 53.7496 25.7051 58.7354Z" fill="#082246"/>
<path d="M22.1543 58.735C22.1543 61.7601 19.702 64.2137 16.6756 64.2137C13.6487 64.2137 11.1963 61.7601 11.1963 58.735C11.1963 55.7087 13.6487 53.2563 16.6756 53.2563C19.702 53.2563 22.1543 55.708 22.1543 58.735Z" fill="#C6C6C6"/>
<path d="M20.457 58.7354C20.457 60.8229 18.764 62.5159 16.6759 62.5159C14.5865 62.5159 12.8935 60.8229 12.8935 58.7354C12.8935 56.6479 14.5865 54.9536 16.6759 54.9536C18.764 54.9536 20.457 56.6479 20.457 58.7354Z" fill="#DADADA"/>
<path d="M97.0996 46.5405H101.094V52.5308H97.0996V46.5405Z" fill="#F59D16"/>
<path d="M101.694 48.2695H103.824V52.5301H101.694V48.2695Z" fill="#DADADA"/>
<path d="M97.3236 48.2695C97.3236 48.8982 97.8326 49.4085 98.4613 49.4085C99.09 49.4085 99.5996 48.8982 99.5996 48.2695C99.5996 47.6421 99.09 47.1318 98.4613 47.1318C97.8326 47.1318 97.3236 47.6421 97.3236 48.2695Z" fill="#B41F1C"/>
<path d="M32.0523 56.9678H57.2559V62.5153H32.0523V56.9678Z" fill="#CECECE"/>
<path d="M33.5511 43C33.2005 42.9815 25.08 42.594 18.9159 34.1598C12.7886 25.7625 14.099 6.25498 14.1543 5.44293L14.1913 5H52.9479L52.9848 5.44293C53.0402 6.27343 54.3506 25.781 48.2233 34.1598C42.0222 42.594 33.9202 42.9815 33.5511 43ZM15.0771 5.94123C14.911 8.94949 14.2651 26.1501 19.691 33.5877C25.4307 41.4313 33.1267 42.0034 33.5511 42.0403C33.9756 42.0219 41.6716 41.4497 47.4113 33.5877C52.8372 26.1685 52.1913 8.93103 52.0252 5.94123H15.0771Z" fill="white"/>
<path d="M41.2844 13.6742L41.3029 13.6557C42.1888 11.238 44.0159 9.28174 45.5108 9.28174C47.0057 9.28174 47.4117 11.2196 46.5258 13.6373L46.5074 13.6557C45.6215 16.0734 43.7944 18.0297 42.2995 18.0297C40.8046 18.0297 40.3986 16.0918 41.2844 13.6742ZM45.1232 13.6742L45.1416 13.6557C45.5846 12.4376 45.4738 11.3857 44.7356 11.3857C43.9974 11.3857 43.13 12.4192 42.6871 13.6373L42.6686 13.6557C42.2257 14.8738 42.3549 15.9257 43.0931 15.9257C43.8128 15.9257 44.6803 14.8922 45.1232 13.6742Z" fill="white"/>
<path d="M30.7277 20.1152H32.0011L32.4071 24.563L34.0312 20.1152H35.3785L32.3149 28.531H31.1153L30.6908 23.9171L29.0113 28.531H27.6641L30.7277 20.1152Z" fill="white"/>
<path d="M20.3184 24.8583V20.1152H22.4038V24.8029C22.4038 26.021 22.9575 26.5931 23.7695 26.5931C24.6 26.5931 25.1537 26.0395 25.1537 24.8583V20.1152H27.2392V24.7845C27.2392 27.4975 25.8735 28.6971 23.7511 28.6971C21.6472 28.6971 20.3184 27.479 20.3184 24.8583Z" fill="white"/>
<path d="M36.4863 20.1152H40.7127C44.5883 20.1152 46.8584 21.8501 46.8584 24.2677V24.2862C46.8584 26.7223 44.5699 28.5125 40.6573 28.5125H36.5048V20.1152H36.4863ZM39.513 22.1823V26.4824H40.7496C42.5767 26.4824 43.7763 25.7073 43.7763 24.36V24.3416C43.7763 22.9943 42.5767 22.2007 40.7496 22.2007L39.513 22.1823Z" fill="white"/>
<path d="M24.6562 34.086V30.8193H27.4615V34.0675C27.4615 34.898 28.1813 35.304 29.3071 35.304C30.4328 35.304 31.1711 34.9165 31.1711 34.1044V30.8193H33.9763V34.0491C33.9763 35.9315 32.1308 36.762 29.2886 36.762C26.4464 36.7436 24.6562 35.8946 24.6562 34.086Z" fill="white"/>
<path d="M39.5853 12.5482C39.5853 11.6254 39.1793 10.7949 38.5333 10.1674C38.035 9.70603 37.2783 9.4292 36.2633 9.4292H32.7383V17.8449H34.8053V16.3316C34.8053 16.3316 35.6173 16.1655 36.1526 16.0178L37.2414 17.8449H39.6222L38.0904 15.2981C38.9947 14.6706 39.5853 13.674 39.5853 12.5482ZM36.2817 14.1169C35.6358 14.4307 34.7868 14.5598 34.7868 14.5598V13.471V13.0465V11.4409H36.1526C36.8354 11.4409 37.2783 11.7731 37.2783 12.4559V12.4744C37.2783 12.5113 37.2783 12.5482 37.2783 12.5851C37.223 13.4156 36.9461 13.8032 36.2817 14.1169Z" fill="white"/>
<path d="M42.6675 32.8863C42.6675 31.5759 41.3572 30.8008 39.3271 30.8008H35.8574V36.7435H38.0905V35.8761C38.0905 35.8761 39.2717 35.6361 40.2683 35.267C41.2649 34.8979 41.431 34.7318 41.7263 34.5657C42.0031 34.3812 42.2984 34.0305 42.4461 33.7537C42.5937 33.4953 42.686 33.2185 42.6675 32.8863ZM38.109 34.4181V34.2889V33.7537V33.6429V32.1849H39.161C39.77 32.1849 40.2129 32.351 40.379 32.6463C40.3975 32.6832 40.4898 32.8863 40.4713 33.1262C40.4713 33.1446 40.4713 33.1631 40.4529 33.1815C40.4529 33.2 40.4529 33.2 40.4344 33.2185C40.4159 33.2738 40.3975 33.3476 40.3421 33.403C40.1022 33.7537 39.6777 34.0305 39.0871 34.2335C38.4966 34.4365 38.109 34.4181 38.109 34.4181Z" fill="white"/>
<path d="M30.8202 13.9324V13.4895V13.4526H29.2699H26.4647V13.4895V13.6741V14.3938V14.726H28.181H28.3102C28.1626 14.9844 27.978 15.1874 27.775 15.372C27.5351 15.5934 27.2582 15.7411 26.9999 15.8518C26.8153 15.9256 26.6492 15.9995 26.52 16.0364C26.5016 16.0548 26.4647 16.0548 26.4277 16.0548C26.3908 16.0733 26.3355 16.0733 26.317 16.0917C26.2986 16.0917 26.2986 16.0917 26.2801 16.1102C26.2063 16.1287 26.1694 16.1287 26.1694 16.1287C25.9479 16.1656 25.7264 16.184 25.505 16.184C25.2466 16.184 25.0067 16.1656 24.7852 16.1102C24.2131 16.0364 23.7332 15.8149 23.3457 15.4643C22.8843 15.0582 22.6444 14.5415 22.589 13.8955C22.6259 12.6959 23.9362 11.7362 25.5603 11.7362C26.3539 11.7362 27.0552 11.9577 27.5904 12.3268L29.7128 10.7581C29.7128 10.7581 29.3437 10.3705 28.3471 9.9645C28.3287 9.9645 28.3287 9.9645 28.3287 9.94605C28.3102 9.94605 28.2918 9.92759 28.2733 9.92759C28.1995 9.90914 28.1257 9.87222 28.0518 9.83531C27.9411 9.7984 27.8488 9.76149 27.7381 9.72458C27.6643 9.70612 27.5904 9.66921 27.4982 9.65076C27.4797 9.65076 27.4797 9.65076 27.4797 9.65076C26.7784 9.4662 25.9848 9.35547 25.1359 9.35547C23.3457 9.35547 21.8877 9.77995 20.7988 10.6104C19.7099 11.4409 19.1562 12.4929 19.1562 13.7479C19.1562 14.9844 19.7099 16.0179 20.8357 16.8669C21.7954 17.5866 22.9581 17.9927 24.3238 18.1034C24.656 18.1219 27.0368 18.1957 28.3287 16.7746V17.9742H28.6424H29.2699H30.8202V15.2059V14.9106V14.5415V14.4677V14.4492V13.9324Z" fill="white"/>
</svg>
