<svg width="36" height="47" viewBox="0 0 36 47" fill="none" xmlns="http://www.w3.org/2000/svg">
<path fill-rule="evenodd" clip-rule="evenodd" d="M16.9779 41.429C16.9779 41.429 2 28.8443 2 16.4613C2 12.0955 3.73839 7.9085 6.83274 4.8214C9.92709 1.73431 14.1239 0 18.5 0C22.8761 0 27.0729 1.73431 30.1673 4.8214C33.2616 7.9085 35 12.0955 35 16.4613C35 28.8443 20.0221 41.429 20.0221 41.429C19.1889 42.1944 17.8173 42.1862 16.9779 41.429ZM18.5 23.6631C19.448 23.6631 20.3867 23.4768 21.2625 23.1149C22.1383 22.753 22.9341 22.2225 23.6044 21.5538C24.2747 20.885 24.8065 20.0911 25.1693 19.2173C25.532 18.3436 25.7188 17.4071 25.7188 16.4613C25.7188 15.5155 25.532 14.5791 25.1693 13.7053C24.8065 12.8315 24.2747 12.0376 23.6044 11.3688C22.9341 10.7001 22.1383 10.1696 21.2625 9.80769C20.3867 9.44577 19.448 9.25948 18.5 9.25948C16.5855 9.25948 14.7494 10.0182 13.3956 11.3688C12.0418 12.7195 11.2812 14.5513 11.2812 16.4613C11.2812 18.3713 12.0418 20.2032 13.3956 21.5538C14.7494 22.9044 16.5855 23.6631 18.5 23.6631Z" fill="white"/>
<path d="M34.5 41.5C34.5 41.5448 34.4656 41.877 33.7071 42.4249C32.9831 42.948 31.8387 43.4812 30.2896 43.9546C27.21 44.8956 22.8646 45.5 18 45.5C13.1354 45.5 8.79004 44.8956 5.71041 43.9546C4.16131 43.4812 3.01694 42.948 2.29292 42.4249C1.53443 41.877 1.5 41.5448 1.5 41.5C1.5 41.4552 1.53443 41.123 2.29292 40.5751C3.01694 40.052 4.16131 39.5188 5.71041 39.0454C8.79004 38.1044 13.1354 37.5 18 37.5C22.8646 37.5 27.21 38.1044 30.2896 39.0454C31.8387 39.5188 32.9831 40.052 33.7071 40.5751C34.4656 41.123 34.5 41.4552 34.5 41.5Z" stroke="white" stroke-width="3"/>
</svg>
