<svg width="72" height="72" viewBox="0 0 72 72" fill="none" xmlns="http://www.w3.org/2000/svg">
<g clip-path="url(#clip0_174_738)">
<path d="M72 0H0V72H72V0Z" fill="#FF0032"/>
<path d="M21.9069 5.53809L16.6145 16.5252L11.3239 5.53809H5.54358V22.1526H9.59435V10.2625L14.7684 20.3066H18.4605L23.6364 10.2625V22.1526H27.6872V5.53809H21.9069Z" fill="white"/>
<path d="M47.9685 5.53809V8.84607H55.2035L55.1871 22.149H59.2378L59.2561 8.84607H66.4928V5.53809H47.9685Z" fill="white"/>
<path d="M62.4311 60.9218C62.3292 61.5845 62.0634 62.1289 61.6374 62.5385C61.235 62.9263 60.6888 63.2012 60.0134 63.3559C59.3453 63.5107 58.3676 63.5981 57.3317 63.5981C56.2958 63.5981 55.3072 63.4597 54.5062 63.1848C53.7288 62.919 53.1134 62.4547 52.6765 61.8048C52.2377 61.1512 52.0156 60.2082 52.0156 58.9993V57.3007C52.0156 56.0918 52.2377 55.1488 52.6765 54.4952C53.1116 53.8471 53.727 53.3828 54.5044 53.1152C55.3054 52.8421 56.2557 52.7019 57.3299 52.7019C58.404 52.7019 59.3434 52.7911 60.0116 52.9441C60.6852 53.0988 61.2332 53.3755 61.6355 53.7615C62.0616 54.1729 62.3274 54.7173 62.4293 55.38H66.4819C66.3709 54.0091 65.903 52.8403 65.0928 51.9063C64.3518 51.0525 63.3269 50.428 62.0488 50.0475C60.8072 49.678 59.1759 49.4832 57.3299 49.4832C55.3892 49.4832 53.7033 49.7617 52.3215 50.3133C50.9178 50.8723 49.8291 51.8044 49.0827 53.0842C48.3672 54.3113 47.9922 55.9498 47.9685 57.9561V58.1418V58.3402C47.994 60.3483 48.369 61.985 49.0827 63.2121C49.8291 64.492 50.9178 65.4241 52.3215 65.983C53.7033 66.5328 55.3892 66.8132 57.3299 66.8132C59.2706 66.8132 60.8072 66.6184 62.0488 66.2488C63.3269 65.8683 64.3518 65.2439 65.0928 64.39C65.903 63.456 66.3709 62.2872 66.4819 60.9164H62.4275L62.4311 60.9218Z" fill="white"/>
</g>
<defs>
<clipPath id="clip0_174_738">
<rect width="72" height="72" fill="white"/>
</clipPath>
</defs>
</svg>
