<svg width="30" height="54" viewBox="0 0 30 54" fill="none" xmlns="http://www.w3.org/2000/svg">
<path d="M13.5313 37.6528L10.43 39.9672L10.5896 46.521L13.6909 44.2066L13.5313 37.6528Z" fill="#181717"/>
<path d="M13.6909 44.2067L10.5896 46.5211L10.6685 49.7614L13.7718 47.5295L13.6909 44.2067Z" fill="#181717"/>
<path d="M7.2663 44.3621L10.5894 46.5208L10.6683 49.7611L7.34725 47.6857L7.2663 44.3621Z" fill="#2A2929"/>
<path d="M10.3225 35.5739L13.5882 37.6927L10.4295 39.9674L7.16382 37.8492L10.3225 35.5739Z" fill="#8FFF00"/>
<path d="M7.10645 37.8092L10.4295 39.9671L10.5891 46.5209L7.26607 44.363L7.10645 37.8092Z" fill="#2A2929"/>
<path d="M18.7943 40.7949L15.693 43.1093L15.8526 49.6631L18.9539 47.3487L18.7943 40.7949Z" fill="#181717"/>
<path d="M18.954 47.3486L15.8526 49.663L15.9315 52.9034L19.0349 50.6715L18.954 47.3486Z" fill="#181717"/>
<path d="M12.5306 47.5044L15.8537 49.6631L15.9326 52.9034L12.6115 50.828L12.5306 47.5044Z" fill="#2A2929"/>
<path d="M15.5863 38.7161L18.852 40.8349L15.6933 43.1096L12.4276 40.9914L15.5863 38.7161Z" fill="#8FFF00"/>
<path d="M12.3709 40.9514L15.694 43.1094L15.8536 49.6631L12.5305 47.5052L12.3709 40.9514Z" fill="#2A2929"/>
<path d="M2.89124 26.8076L17.3864 36.2097L17.6389 46.5789L3.14379 37.1768L2.89124 26.8076Z" fill="#8FFF00"/>
<path d="M27.4199 29.0862L17.3885 36.2662L17.6397 46.5791L27.6724 39.4554L27.4199 29.0862Z" fill="#74CA08"/>
<path d="M14.3673 4.85308L28.8625 14.2577L14.8422 24.3543L0.347088 14.9522L14.3673 4.85308Z" fill="#2A2929"/>
<path d="M27.2047 34.1469L24.1033 36.4613L24.2629 43.015L27.3643 40.7006L27.2047 34.1469Z" fill="#74CA08"/>
<path d="M27.3643 40.7004L24.263 43.0149L24.3419 46.2552L27.4453 44.0233L27.3643 40.7004Z" fill="#D3BA92"/>
<path d="M20.9395 40.8561L24.2625 43.0148L24.3415 46.2551L21.0204 44.1797L20.9395 40.8561Z" fill="#ECD1A7"/>
<path d="M23.9406 32.0842L27.2063 34.2031L24.0476 36.4778L20.7819 34.3595L23.9406 32.0842Z" fill="#8FFF00"/>
<path d="M20.7795 34.3031L24.1026 36.461L24.2622 43.0148L20.9392 40.8569L20.7795 34.3031Z" fill="#8FFF00"/>
<path d="M0.347656 14.9521L14.8428 24.3542L15.1914 38.6683L0.696293 29.2662L0.347656 14.9521Z" fill="#F9E2BF"/>
<path d="M28.8621 14.2578L14.8419 24.3544L15.1905 38.6685L29.2108 28.5719L28.8621 14.2578Z" fill="#E7D1AF"/>
<path d="M14.8424 24.3543L28.8627 14.2577L28.9299 17.0191L14.9097 27.1157L14.8424 24.3543Z" fill="#181717"/>
<path d="M14.8424 24.3543L0.34729 14.9522L0.414547 17.7136L14.9097 27.1157L14.8424 24.3543Z" fill="#2A2929"/>
<path d="M28.8633 14.2577L22.3796 18.9267L22.7283 33.2407L29.212 28.5718L28.8633 14.2577Z" fill="#181717"/>
<path d="M3.48102 23.2213L5.65812 24.6322L5.76249 28.9173L3.58539 27.5065L3.48102 23.2213Z" fill="#F7FFFD"/>
<path d="M7.94592 25.9863L10.123 27.3972L10.2274 31.6823L8.05029 30.2715L7.94592 25.9863Z" fill="#F7FFFD"/>
<path d="M4.39783 23.8149L5.65821 24.6301L5.76258 28.9152L4.5022 28.1001L4.39783 23.8149Z" fill="black"/>
<path d="M7.94641 25.9879L9.2068 26.803L9.31117 31.0882L8.05078 30.2731L7.94641 25.9879Z" fill="black"/>
<path d="M2.20935 26.5929L4.50158 28.1001L4.53079 29.2994L2.24059 27.8755L2.20935 26.5929Z" fill="#FE34C6"/>
<path d="M9.31122 31.0881L11.6034 32.5953L11.6327 33.7946L9.34246 32.3707L9.31122 31.0881Z" fill="#FE34C6"/>
</svg>
