<svg width="35" height="47" viewBox="0 0 35 47" fill="none" xmlns="http://www.w3.org/2000/svg">
<g clip-path="url(#clip0_2005_1053)">
<mask id="mask0_2005_1053" style="mask-type:alpha" maskUnits="userSpaceOnUse" x="0" y="0" width="35" height="47">
<path d="M35 0H0V47H35V0Z" fill="#D9D9D9"/>
</mask>
<g mask="url(#mask0_2005_1053)">
<path d="M15.0638 26.2167L10.8318 29.2173V38.0061L15.0638 35.0055V26.2167Z" fill="#74CA08"/>
<path d="M15.0638 35.0055L10.8318 38.0061V42.3514L15.0638 39.4615V35.0055Z" fill="#74CA08"/>
<path d="M6.44824 35.0044L10.8315 38.006V42.3514L6.44824 39.4614V35.0044Z" fill="#8FFF00"/>
<path d="M6.4483 26.2167L10.8315 29.2173V38.0061L6.4483 35.0055V26.2167Z" fill="#8FFF00"/>
<path d="M23.9901 30.6798L19.758 33.6804V42.4692L23.9901 39.4686V30.6798Z" fill="#74CA08"/>
<path d="M23.9901 39.4685L19.758 42.4691V46.8145L23.9901 43.9245V39.4685Z" fill="#74CA08"/>
<path d="M15.375 39.4675L19.7582 42.4691V46.8145L15.375 43.9245V39.4675Z" fill="#8FFF00"/>
<path d="M15.3749 30.6798L19.7582 33.6804V42.4692L15.3749 39.4686V30.6798Z" fill="#8FFF00"/>
<path d="M9.34368 27.5781L13.6513 30.5244L9.34368 33.4699L5.03604 30.5244L9.34368 27.5781Z" fill="#8FFF00"/>
<path d="M3.75936 23.9331C5.2554 24.7969 6.46818 24.0967 6.46818 22.3692C6.46818 20.6417 5.2554 18.5411 3.75936 17.6774C2.26332 16.8136 1.05054 17.5138 1.05054 19.2413C1.05054 20.9688 2.26332 23.0694 3.75936 23.9331Z" fill="white"/>
<path d="M5.86592 22.0219C5.86592 22.7629 5.76014 23.3636 5.59535 23.7378C5.51277 23.9252 5.41872 24.0482 5.32297 24.1083C5.22764 24.168 5.14194 24.1596 5.06935 24.1177C4.99676 24.0758 4.91105 23.9853 4.81573 23.8154C4.71997 23.6448 4.62592 23.4132 4.54335 23.1304C4.37856 22.566 4.27277 21.8431 4.27277 21.1021C4.27277 20.361 4.37856 19.7603 4.54335 19.3861C4.62592 19.1987 4.71997 19.0757 4.81573 19.0157C4.91105 18.9559 4.99676 18.9643 5.06935 19.0062C5.14194 19.0481 5.22764 19.1387 5.32297 19.3085C5.41872 19.4791 5.51277 19.7107 5.59535 19.9935C5.76014 20.5579 5.86592 21.2808 5.86592 22.0219Z" stroke="black" stroke-width="0.391866"/>
<path d="M0 9.28778L17.4348 19.1405V38.1183L0 28.2656V9.28778Z" fill="#FE34C6"/>
<path d="M34.653 9.28778L17.4344 19.1405V38.1183L34.653 28.2656V9.28778Z" fill="#C91C99"/>
<path d="M17.3265 0.182274L34.6531 9.28775L17.3265 21.3639L0.0387878 9.32659L17.3265 0.182274Z" fill="#3A3838"/>
<path d="M7.17484 19.9955C7.36341 19.4358 8.14915 19.9458 8.26892 20.7056L9.21654 26.7172C9.29475 27.2134 9.00041 27.4631 8.62481 27.2194L6.18529 25.6361C5.80969 25.3923 5.55981 24.7893 5.68294 24.4238L7.17484 19.9955Z" fill="#8FFF00"/>
<path d="M7.17484 19.9955C7.36341 19.4358 8.14915 19.9458 8.26892 20.7056L9.21654 26.7172C9.29475 27.2134 9.00041 27.4631 8.62481 27.2194L6.18529 25.6361C5.80969 25.3923 5.55981 24.7893 5.68294 24.4238L7.17484 19.9955Z" fill="#8FFF00"/>
<path d="M3.13415 22.0546C4.32505 22.675 5.23807 22.0822 5.17344 20.7305C5.10881 19.3789 4.09101 17.7801 2.90012 17.1597C1.70923 16.5392 0.796209 17.132 0.860835 18.4837C0.925461 19.8354 1.94326 21.4341 3.13415 22.0546Z" fill="white"/>
<path d="M12.8506 27.3721C14.0415 27.9925 14.9545 27.3998 14.8899 26.0481C14.8253 24.6964 13.8075 23.0977 12.6166 22.4772C11.4257 21.8568 10.5127 22.4496 10.5773 23.8013C10.6419 25.1529 11.6597 26.7517 12.8506 27.3721Z" fill="white"/>
<path d="M4.6561 20.461C4.68363 21.0369 4.62442 21.5056 4.51267 21.7996C4.45664 21.947 4.39034 22.0426 4.32259 22.0902C4.25521 22.1375 4.19769 22.1308 4.15428 22.1082C4.11087 22.0855 4.05107 22.0312 3.9756 21.9094C3.89972 21.787 3.82066 21.6156 3.74731 21.4008C3.60103 20.9725 3.49282 20.4165 3.46529 19.8406C3.43775 19.2647 3.49696 18.7959 3.60871 18.502C3.66475 18.3546 3.73104 18.259 3.79879 18.2114C3.86617 18.164 3.92369 18.1708 3.96711 18.1934C4.01052 18.216 4.07032 18.2704 4.14579 18.3922C4.22166 18.5146 4.30072 18.6859 4.37407 18.9007C4.52035 19.3291 4.62856 19.8851 4.6561 20.461Z" stroke="black" stroke-width="0.391866"/>
<path d="M14.3721 25.7785C14.3996 26.3544 14.3404 26.8232 14.2287 27.1171C14.1726 27.2645 14.1063 27.3601 14.0386 27.4077C13.9712 27.455 13.9137 27.4483 13.8703 27.4257C13.8269 27.4031 13.7671 27.3487 13.6916 27.2269C13.6157 27.1045 13.5367 26.9331 13.4633 26.7183C13.317 26.29 13.2088 25.734 13.1813 25.1581C13.1537 24.5822 13.213 24.1134 13.3247 23.8195C13.3807 23.6721 13.447 23.5765 13.5148 23.5289C13.5822 23.4816 13.6397 23.4883 13.6831 23.5109C13.7265 23.5335 13.7863 23.5879 13.8618 23.7097C13.9377 23.8321 14.0167 24.0035 14.0901 24.2183C14.2363 24.6466 14.3446 25.2026 14.3721 25.7785Z" stroke="black" stroke-width="0.391866"/>
</g>
<path d="M6.74807 29.7027C6.38989 29.4903 6.14188 29.2046 6.01954 28.9329C5.89658 28.6599 5.91278 28.4394 6.00039 28.2917C6.088 28.144 6.27368 28.024 6.57224 28.001C6.8693 27.9781 7.23895 28.0587 7.59713 28.2711C7.95531 28.4835 8.20332 28.7692 8.32566 29.0409C8.44862 29.3139 8.43243 29.5344 8.34482 29.6821C8.25721 29.8298 8.07152 29.9498 7.77296 29.9728C7.47591 29.9957 7.10625 29.9151 6.74807 29.7027Z" fill="white" stroke="white" stroke-width="0.84055"/>
</g>
<defs>
<clipPath id="clip0_2005_1053">
<rect width="35" height="47" fill="white"/>
</clipPath>
</defs>
</svg>
