<svg width="35" height="47" viewBox="0 0 35 47" fill="none" xmlns="http://www.w3.org/2000/svg">
<path d="M15.0638 26.2167L10.8318 29.2173V38.0061L15.0638 35.0055V26.2167Z" fill="#74CA08"/>
<path d="M15.0638 35.0055L10.8318 38.0061V42.3514L15.0638 39.4615V35.0055Z" fill="#74CA08"/>
<path d="M6.44826 35.0044L10.8315 38.006V42.3514L6.44826 39.4614V35.0044Z" fill="#8FFF00"/>
<path d="M6.44831 26.2167L10.8315 29.2173V38.0061L6.44831 35.0055V26.2167Z" fill="#8FFF00"/>
<path d="M23.9901 30.6798L19.758 33.6804V42.4692L23.9901 39.4686V30.6798Z" fill="#74CA08"/>
<path d="M23.9901 39.4685L19.758 42.4692V46.8145L23.9901 43.9245V39.4685Z" fill="#74CA08"/>
<path d="M15.375 39.4675L19.7582 42.4692V46.8145L15.375 43.9245V39.4675Z" fill="#8FFF00"/>
<path d="M15.3749 30.6798L19.7582 33.6804V42.4692L15.3749 39.4686V30.6798Z" fill="#8FFF00"/>
<path d="M9.3437 27.5781L13.6513 30.5244L9.3437 33.4699L5.03605 30.5244L9.3437 27.5781Z" fill="#8FFF00"/>
<path d="M3.75936 23.9331C5.2554 24.7969 6.46818 24.0967 6.46818 22.3692C6.46818 20.6417 5.2554 18.5411 3.75936 17.6774C2.26332 16.8136 1.05054 17.5138 1.05054 19.2413C1.05054 20.9688 2.26332 23.0694 3.75936 23.9331Z" fill="white"/>
<path d="M5.86591 22.0219C5.86591 22.7629 5.76013 23.3636 5.59534 23.7378C5.51277 23.9252 5.41871 24.0482 5.32296 24.1083C5.22763 24.168 5.14193 24.1596 5.06934 24.1177C4.99675 24.0758 4.91104 23.9853 4.81572 23.8154C4.71996 23.6448 4.62591 23.4132 4.54334 23.1304C4.37855 22.566 4.27276 21.8431 4.27276 21.1021C4.27276 20.361 4.37855 19.7603 4.54334 19.3861C4.62591 19.1987 4.71996 19.0757 4.81572 19.0157C4.91104 18.9559 4.99675 18.9643 5.06934 19.0062C5.14193 19.0481 5.22763 19.1387 5.32296 19.3085C5.41871 19.4791 5.51277 19.7107 5.59534 19.9935C5.76013 20.5579 5.86591 21.2808 5.86591 22.0219Z" stroke="black" stroke-width="0.391866"/>
<path d="M0 9.28778L17.4348 19.1405V38.1183L0 28.2656V9.28778Z" fill="#FE34C6"/>
<path d="M34.653 9.28778L17.4344 19.1405V38.1183L34.653 28.2656V9.28778Z" fill="#C91C99"/>
<path d="M17.3265 0.182272L34.6531 9.28775L17.3265 21.3639L0.0387796 9.32659L17.3265 0.182272Z" fill="#3A3838"/>
<path d="M7.17482 19.9955C7.36339 19.4358 8.14913 19.9458 8.26891 20.7056L9.21653 26.7172C9.29473 27.2134 9.0004 27.4631 8.62479 27.2194L6.18528 25.6361C5.80967 25.3923 5.55979 24.7893 5.68292 24.4238L7.17482 19.9955Z" fill="#8FFF00"/>
<path d="M7.17482 19.9955C7.36339 19.4358 8.14913 19.9458 8.26891 20.7056L9.21653 26.7172C9.29473 27.2134 9.0004 27.4631 8.62479 27.2194L6.18528 25.6361C5.80967 25.3923 5.55979 24.7893 5.68292 24.4238L7.17482 19.9955Z" fill="#8FFF00"/>
<path d="M3.13415 22.0546C4.32504 22.675 5.23806 22.0822 5.17344 20.7305C5.10881 19.3789 4.09101 17.7801 2.90012 17.1597C1.70922 16.5393 0.796202 17.132 0.860828 18.4837C0.925454 19.8354 1.94325 21.4341 3.13415 22.0546Z" fill="white"/>
<path d="M12.8506 27.3721C14.0415 27.9925 14.9545 27.3998 14.8899 26.0481C14.8253 24.6964 13.8075 23.0977 12.6166 22.4772C11.4257 21.8568 10.5126 22.4496 10.5773 23.8013C10.6419 25.1529 11.6597 26.7516 12.8506 27.3721Z" fill="white"/>
<path d="M4.65608 20.461C4.68362 21.0369 4.62441 21.5056 4.51266 21.7996C4.45662 21.947 4.39033 22.0426 4.32258 22.0902C4.2552 22.1375 4.19768 22.1308 4.15426 22.1082C4.11085 22.0855 4.05105 22.0312 3.97558 21.9094C3.89971 21.787 3.82065 21.6156 3.7473 21.4008C3.60101 20.9725 3.49281 20.4165 3.46527 19.8406C3.43774 19.2647 3.49695 18.7959 3.6087 18.502C3.66473 18.3546 3.73103 18.259 3.79878 18.2114C3.86616 18.164 3.92368 18.1708 3.96709 18.1934C4.0105 18.216 4.0703 18.2704 4.14577 18.3922C4.22165 18.5146 4.30071 18.6859 4.37406 18.9007C4.52034 19.3291 4.62855 19.8851 4.65608 20.461Z" stroke="black" stroke-width="0.391866"/>
<path d="M14.3721 25.7785C14.3996 26.3544 14.3404 26.8232 14.2286 27.1171C14.1726 27.2645 14.1063 27.3601 14.0386 27.4077C13.9712 27.455 13.9137 27.4483 13.8703 27.4257C13.8268 27.4031 13.767 27.3487 13.6916 27.2269C13.6157 27.1045 13.5366 26.9331 13.4633 26.7183C13.317 26.29 13.2088 25.734 13.1813 25.1581C13.1537 24.5822 13.2129 24.1134 13.3247 23.8195C13.3807 23.6721 13.447 23.5765 13.5148 23.5289C13.5821 23.4816 13.6397 23.4883 13.6831 23.5109C13.7265 23.5335 13.7863 23.5879 13.8618 23.7097C13.9376 23.8321 14.0167 24.0035 14.0901 24.2183C14.2363 24.6466 14.3445 25.2026 14.3721 25.7785Z" stroke="black" stroke-width="0.391866"/>
<path d="M3.47308 25.4729C4.31129 27.9876 7.76446 30.9659 10.9115 29.1922" stroke="white" stroke-width="1.14702" stroke-linecap="round"/>
</svg>
