<svg width="34" height="54" viewBox="0 0 34 54" fill="none" xmlns="http://www.w3.org/2000/svg">
<mask id="mask0_2001_1017" style="mask-type:alpha" maskUnits="userSpaceOnUse" x="0" y="0" width="34" height="54">
<rect width="34" height="54" fill="#D9D9D9"/>
</mask>
<g mask="url(#mask0_2001_1017)">
<path d="M14.7646 32.5267L10.6179 35.4668V44.0783L14.7646 41.1382V32.5267Z" fill="#74CA08"/>
<path d="M14.7646 41.1382L10.6179 44.0783V48.336L14.7646 45.5043V41.1382Z" fill="#74CA08"/>
<path d="M6.32306 41.1372L10.6179 44.0783V48.3361L6.32306 45.5044V41.1372Z" fill="#8FFF00"/>
<path d="M6.32263 32.5267L10.6175 35.4668V44.0783L6.32263 41.1382V32.5267Z" fill="#8FFF00"/>
<path d="M23.5116 36.9L19.3649 39.8401V48.4516L23.5116 45.5115V36.9Z" fill="#74CA08"/>
<path d="M23.5116 45.5115L19.3648 48.4516V52.7094L23.5116 49.8777V45.5115Z" fill="#74CA08"/>
<path d="M15.0695 45.5105L19.3644 48.4517V52.7094L15.0695 49.8777V45.5105Z" fill="#8FFF00"/>
<path d="M15.0692 36.9L19.364 39.8401V48.4516L15.0692 45.5115V36.9Z" fill="#8FFF00"/>
<path d="M9.15948 33.8606L13.3803 36.7475L9.15948 39.6336L4.93868 36.7475L9.15948 33.8606Z" fill="#8FFF00"/>
<path d="M3.68589 30.2893C5.15178 31.1356 6.34011 30.4495 6.34011 28.7569C6.34011 27.0642 5.15178 25.006 3.68589 24.1597C2.22001 23.3133 1.03168 23.9994 1.03168 25.6921C1.03168 27.3847 2.22001 29.443 3.68589 30.2893Z" fill="white"/>
<path d="M5.74964 28.4164C5.74964 29.1425 5.64598 29.7311 5.48451 30.0977C5.40361 30.2814 5.31145 30.4019 5.21763 30.4608C5.12422 30.5193 5.04025 30.5111 4.96912 30.47C4.89799 30.429 4.81401 30.3402 4.72061 30.1738C4.62679 30.0066 4.53463 29.7797 4.45372 29.5026C4.29225 28.9496 4.1886 28.2413 4.1886 27.5152C4.1886 26.7891 4.29225 26.2004 4.45372 25.8338C4.53463 25.6501 4.62679 25.5297 4.72061 25.4708C4.81401 25.4122 4.89799 25.4205 4.96912 25.4615C5.04025 25.5026 5.12422 25.5913 5.21763 25.7578C5.31145 25.925 5.40361 26.1518 5.48451 26.429C5.64598 26.982 5.74964 27.6903 5.74964 28.4164Z" stroke="black" stroke-width="0.383967"/>
<path d="M0.00408936 15.9392L17.0873 25.5932V44.1883L0.00408936 34.5343V15.9392Z" fill="#EF3124"/>
<path d="M33.9564 15.9392L17.0851 25.5932V44.1883L33.9564 34.5343V15.9392Z" fill="#D22B1F"/>
<path d="M16.8875 6.19591L33.9565 15.9391L17.0836 25.5967L0.0402166 15.9772L16.8875 6.19591Z" fill="black"/>
<path d="M7.03167 26.4312C7.21644 25.8827 7.98634 26.3824 8.1037 27.1269L9.03222 33.0173C9.10885 33.5035 8.82044 33.7482 8.45241 33.5094L6.06207 31.958C5.69404 31.7191 5.4492 31.1283 5.56985 30.7702L7.03167 26.4312Z" fill="#FE34C6"/>
<path d="M7.03167 26.4312C7.21644 25.8827 7.98634 26.3824 8.1037 27.1269L9.03222 33.0173C9.10885 33.5035 8.82044 33.7482 8.45241 33.5094L6.06207 31.958C5.69404 31.7191 5.4492 31.1283 5.56985 30.7702L7.03167 26.4312Z" fill="#8FFF00"/>
<path d="M3.07562 28.449C4.24257 29.0569 5.13723 28.4761 5.07391 27.1516C5.01058 25.8271 4.01324 24.2605 2.84629 23.6525C1.67934 23.0445 0.784674 23.6254 0.848001 24.9499C0.911327 26.2744 1.90867 27.841 3.07562 28.449Z" fill="white"/>
<path d="M12.5936 33.6591C13.7606 34.2671 14.6552 33.6862 14.5919 32.3617C14.5286 31.0372 13.5312 29.4707 12.3643 28.8627C11.1973 28.2547 10.3027 28.8356 10.366 30.1601C10.4293 31.4846 11.4267 33.0512 12.5936 33.6591Z" fill="white"/>
<path d="M3.50144 26.5953C3.52842 27.1596 3.4704 27.619 3.3609 27.907C3.30599 28.0514 3.24102 28.1451 3.17464 28.1917C3.10861 28.2381 3.05224 28.2315 3.0097 28.2094C2.96716 28.1872 2.90856 28.1339 2.83461 28.0146C2.76025 27.8946 2.68279 27.7267 2.61091 27.5162C2.46756 27.0965 2.36153 26.5517 2.33455 25.9874C2.30757 25.423 2.36559 24.9637 2.47509 24.6757C2.53 24.5313 2.59497 24.4376 2.66135 24.3909C2.72738 24.3445 2.78375 24.3511 2.82629 24.3733C2.86883 24.3955 2.92743 24.4487 3.00138 24.5681C3.07574 24.6881 3.15321 24.8559 3.22509 25.0664C3.36843 25.4862 3.47446 26.031 3.50144 26.5953Z" stroke="black" stroke-width="0.383967"/>
<path d="M13.0555 31.7596C13.0825 32.3239 13.0245 32.7832 12.915 33.0713C12.8601 33.2157 12.7951 33.3094 12.7287 33.356C12.6627 33.4024 12.6063 33.3958 12.5638 33.3736C12.5212 33.3515 12.4626 33.2982 12.3887 33.1789C12.3143 33.0589 12.2369 32.891 12.165 32.6805C12.0216 32.2608 11.9156 31.716 11.8886 31.1516C11.8616 30.5873 11.9197 30.128 12.0292 29.84C12.0841 29.6955 12.149 29.6018 12.2154 29.5552C12.2815 29.5088 12.3378 29.5154 12.3804 29.5376C12.4229 29.5597 12.4815 29.613 12.5555 29.7323C12.6298 29.8523 12.7073 30.0202 12.7792 30.2307C12.9225 30.6504 13.0285 31.1952 13.0555 31.7596Z" stroke="black" stroke-width="0.383967"/>
<path d="M-1.21403e-07 16.3645C-5.43542e-08 13.321 2.13668 12.0874 4.7724 13.6091L12.3106 17.9613C14.9463 19.4831 17.083 23.1839 17.083 26.2274L17.083 28.153L-1.63826e-07 18.2901L-1.21403e-07 16.3645Z" fill="#2A2929"/>
<rect width="0.991508" height="7.43631" transform="matrix(0.866025 0.5 -2.20305e-08 1 4.7226 13.5805)" fill="#8FFF00"/>
<rect width="0.991508" height="7.43631" transform="matrix(0.866025 0.5 -2.20305e-08 1 8.32904 15.6626)" fill="#8FFF00"/>
<rect width="0.991508" height="7.43631" transform="matrix(0.866025 0.5 -2.20305e-08 1 6.52606 14.6216)" fill="#8FFF00"/>
<rect width="0.991508" height="7.43631" transform="matrix(0.866025 0.5 -2.20305e-08 1 10.1325 16.7037)" fill="#8FFF00"/>
<rect width="0.991508" height="7.43631" transform="matrix(0.866025 0.5 -2.20305e-08 1 11.9354 17.7447)" fill="#8FFF00"/>
<path d="M16.7853 6.72589C16.7853 3.68242 18.922 2.44881 21.5577 3.97054L29.0959 8.32273C31.7316 9.84446 33.8683 13.5453 33.8683 16.5888L33.8683 18.5144L16.7853 8.65151L16.7853 6.72589Z" fill="#2A2929"/>
<rect width="0.991508" height="7.43631" transform="matrix(0.866025 0.5 -2.20305e-08 1 21.508 3.94184)" fill="#8FFF00"/>
<rect width="0.991508" height="7.43631" transform="matrix(0.866025 0.5 -2.20305e-08 1 25.114 6.02397)" fill="#8FFF00"/>
<rect width="0.991508" height="7.43631" transform="matrix(0.866025 0.5 -2.20305e-08 1 23.311 4.98296)" fill="#8FFF00"/>
<rect width="0.991508" height="7.43631" transform="matrix(0.866025 0.5 -2.20305e-08 1 26.9176 7.0651)" fill="#8FFF00"/>
<rect width="0.991508" height="7.43631" transform="matrix(0.866025 0.5 -2.20305e-08 1 28.7206 8.10611)" fill="#8FFF00"/>
<path d="M17.0887 28.1391C17.4455 22.1697 14.2025 19.326 12.8126 18.2823L29.5761 8.60124C33.5806 11.349 34.1717 14.0968 33.964 18.5007L17.0887 28.1391Z" fill="url(#paint0_linear_2001_1017)"/>
<rect width="9.37324" height="19.363" transform="matrix(0.866025 0.5 -0.866025 0.5 21.4649 3.91378)" fill="#2A2929"/>
<path d="M28.7202 8.08464L29.579 8.58044L12.7942 18.2711L11.9354 17.7753L28.7202 8.08464Z" fill="#8FFF00"/>
<path d="M26.9172 7.04314L27.776 7.53894L10.9909 17.2298L10.1322 16.734L26.9172 7.04314Z" fill="#8FFF00"/>
<path d="M25.1136 6.00299L25.9723 6.49879L9.18726 16.1897L8.32852 15.6939L25.1136 6.00299Z" fill="#8FFF00"/>
<path d="M23.3111 4.96113L24.1698 5.45693L7.38478 15.1478L6.52603 14.652L23.3111 4.96113Z" fill="#8FFF00"/>
<path d="M21.5071 3.92037L22.3659 4.41617L5.58082 14.107L4.72207 13.6112L21.5071 3.92037Z" fill="#8FFF00"/>
<path d="M18.0575 3.70744L1.35254 13.3033C2.40159 13.0637 3.97605 13.0974 4.72867 13.5962L21.4922 3.9098C20.5055 3.38693 18.7052 3.62263 18.0765 3.70495L18.0575 3.70744Z" fill="#2A2929"/>
<path d="M6.22525 36.7027C5.86707 36.4903 5.61906 36.2046 5.49672 35.9329C5.37376 35.6599 5.38995 35.4394 5.47756 35.2917C5.56517 35.144 5.75086 35.024 6.04941 35.001C6.34647 34.9781 6.71613 35.0587 7.07431 35.2711C7.43249 35.4835 7.68049 35.7692 7.80284 36.0409C7.9258 36.3139 7.9096 36.5344 7.82199 36.6821C7.73438 36.8298 7.5487 36.9498 7.25014 36.9728C6.95308 36.9957 6.58343 36.9151 6.22525 36.7027Z" fill="#151414" stroke="black" stroke-width="0.84055"/>
</g>
<defs>
<linearGradient id="paint0_linear_2001_1017" x1="22.3073" y1="13.1223" x2="30.1566" y2="24.976" gradientUnits="userSpaceOnUse">
<stop offset="0.02" stop-color="#2A2929"/>
<stop offset="1"/>
</linearGradient>
</defs>
</svg>
