<svg width="34" height="54" viewBox="0 0 34 54" fill="none" xmlns="http://www.w3.org/2000/svg">
<path d="M14.7646 33.5267L10.6179 36.4668V45.0783L14.7646 42.1382V33.5267Z" fill="#74CA08"/>
<path d="M14.7646 42.1382L10.6179 45.0783V49.336L14.7646 46.5043V42.1382Z" fill="#74CA08"/>
<path d="M6.32306 42.1372L10.6179 45.0783V49.3361L6.32306 46.5044V42.1372Z" fill="#8FFF00"/>
<path d="M6.32263 33.5267L10.6175 36.4668V45.0783L6.32263 42.1382V33.5267Z" fill="#8FFF00"/>
<path d="M23.5116 37.9L19.3649 40.8401V49.4516L23.5116 46.5115V37.9Z" fill="#74CA08"/>
<path d="M23.5116 46.5115L19.3648 49.4516V53.7094L23.5116 50.8777V46.5115Z" fill="#74CA08"/>
<path d="M15.0695 46.5105L19.3644 49.4517V53.7094L15.0695 50.8777V46.5105Z" fill="#8FFF00"/>
<path d="M15.0692 37.9L19.364 40.8401V49.4516L15.0692 46.5115V37.9Z" fill="#8FFF00"/>
<path d="M9.15952 34.8606L13.3803 37.7475L9.15952 40.6336L4.93871 37.7475L9.15952 34.8606Z" fill="#8FFF00"/>
<path d="M3.68663 31.2893C5.15251 32.1356 6.34084 31.4495 6.34084 29.7569C6.34084 28.0642 5.15251 26.006 3.68663 25.1597C2.22074 24.3133 1.03241 24.9994 1.03241 26.6921C1.03241 28.3847 2.22074 30.443 3.68663 31.2893Z" fill="white"/>
<path d="M5.7504 29.4164C5.7504 30.1425 5.64675 30.7311 5.48528 31.0977C5.40437 31.2814 5.31221 31.4019 5.21839 31.4608C5.12499 31.5193 5.04101 31.5111 4.96988 31.47C4.89875 31.429 4.81478 31.3402 4.72137 31.1738C4.62755 31.0066 4.53539 30.7797 4.45449 30.5026C4.29302 29.9496 4.18936 29.2413 4.18936 28.5152C4.18936 27.7891 4.29302 27.2004 4.45449 26.8338C4.53539 26.6501 4.62755 26.5297 4.72137 26.4708C4.81478 26.4122 4.89875 26.4205 4.96988 26.4615C5.04101 26.5026 5.12499 26.5913 5.21839 26.7578C5.31221 26.925 5.40437 27.1518 5.48528 27.429C5.64675 27.982 5.7504 28.6903 5.7504 29.4164Z" stroke="black" stroke-width="0.383967"/>
<path d="M0.00408936 16.9392L17.0873 26.5932V45.1883L0.00408936 35.5343V16.9392Z" fill="#EF3124"/>
<path d="M33.9572 16.9392L17.0858 26.5932V45.1883L33.9572 35.5343V16.9392Z" fill="#D22B1F"/>
<path d="M16.8882 7.19591L33.9572 16.9391L17.0843 26.5967L0.0409191 16.9772L16.8882 7.19591Z" fill="black"/>
<path d="M7.03243 27.4312C7.2172 26.8827 7.9871 27.3824 8.10446 28.1269L9.03298 34.0173C9.10961 34.5035 8.82121 34.7482 8.45318 34.5094L6.06284 32.958C5.69481 32.7191 5.44996 32.1283 5.57061 31.7702L7.03243 27.4312Z" fill="#FE34C6"/>
<path d="M7.03243 27.4312C7.2172 26.8827 7.9871 27.3824 8.10446 28.1269L9.03298 34.0173C9.10961 34.5035 8.82121 34.7482 8.45318 34.5094L6.06284 32.958C5.69481 32.7191 5.44996 32.1283 5.57061 31.7702L7.03243 27.4312Z" fill="#8FFF00"/>
<path d="M3.07562 29.449C4.24257 30.0569 5.13723 29.4761 5.07391 28.1516C5.01058 26.8271 4.01324 25.2605 2.84629 24.6525C1.67934 24.0445 0.784674 24.6254 0.848001 25.9499C0.911327 27.2744 1.90867 28.841 3.07562 29.449Z" fill="white"/>
<path d="M12.5943 34.6591C13.7613 35.2671 14.6559 34.6862 14.5926 33.3617C14.5293 32.0372 13.532 30.4706 12.365 29.8627C11.198 29.2547 10.3034 29.8356 10.3667 31.1601C10.43 32.4846 11.4274 34.0511 12.5943 34.6591Z" fill="white"/>
<path d="M3.50214 27.5953C3.52913 28.1596 3.4711 28.619 3.3616 28.907C3.30669 29.0514 3.24173 29.1451 3.17534 29.1917C3.10931 29.2381 3.05294 29.2315 3.0104 29.2094C2.96786 29.1872 2.90926 29.1339 2.83531 29.0146C2.76096 28.8946 2.68349 28.7267 2.61161 28.5162C2.46827 28.0965 2.36223 27.5517 2.33525 26.9874C2.30827 26.423 2.36629 25.9637 2.4758 25.6757C2.53071 25.5313 2.59567 25.4376 2.66206 25.3909C2.72808 25.3445 2.78445 25.3511 2.82699 25.3733C2.86954 25.3955 2.92814 25.4487 3.00209 25.5681C3.07644 25.688 3.15391 25.8559 3.22579 26.0664C3.36913 26.4862 3.47516 27.031 3.50214 27.5953Z" stroke="black" stroke-width="0.383967"/>
<path d="M13.0563 32.7596C13.0833 33.3239 13.0252 33.7832 12.9157 34.0713C12.8608 34.2157 12.7959 34.3094 12.7295 34.356C12.6635 34.4024 12.6071 34.3958 12.5645 34.3736C12.522 34.3515 12.4634 34.2982 12.3894 34.1789C12.3151 34.0589 12.2376 33.891 12.1657 33.6805C12.0224 33.2608 11.9164 32.716 11.8894 32.1516C11.8624 31.5873 11.9204 31.128 12.0299 30.84C12.0848 30.6955 12.1498 30.6018 12.2162 30.5552C12.2822 30.5088 12.3386 30.5154 12.3811 30.5376C12.4237 30.5597 12.4823 30.613 12.5562 30.7323C12.6306 30.8523 12.708 31.0202 12.7799 31.2307C12.9233 31.6504 13.0293 32.1952 13.0563 32.7596Z" stroke="black" stroke-width="0.383967"/>
<path d="M3.40567 32.7979C4.22699 35.2619 7.61054 38.1802 10.6942 36.4422" stroke="black" stroke-width="1.1239" stroke-linecap="round"/>
<path d="M-1.21403e-07 17.3645C-5.43542e-08 14.321 2.13668 13.0874 4.7724 14.6091L12.3106 18.9613C14.9463 20.4831 17.083 24.1839 17.083 27.2274L17.083 29.153L-1.63826e-07 19.2901L-1.21403e-07 17.3645Z" fill="#2A2929"/>
<rect width="0.991508" height="7.43631" transform="matrix(0.866025 0.5 -2.20305e-08 1 4.72263 14.5805)" fill="#8FFF00"/>
<rect width="0.991508" height="7.43631" transform="matrix(0.866025 0.5 -2.20305e-08 1 8.32904 16.6626)" fill="#8FFF00"/>
<rect width="0.991508" height="7.43631" transform="matrix(0.866025 0.5 -2.20305e-08 1 6.52606 15.6216)" fill="#8FFF00"/>
<rect width="0.991508" height="7.43631" transform="matrix(0.866025 0.5 -2.20305e-08 1 10.1325 17.7037)" fill="#8FFF00"/>
<rect width="0.991508" height="7.43631" transform="matrix(0.866025 0.5 -2.20305e-08 1 11.9355 18.7448)" fill="#8FFF00"/>
<path d="M16.7852 7.72589C16.7852 4.68242 18.9219 3.44881 21.5576 4.97054L29.0959 9.32273C31.7316 10.8445 33.8683 14.5453 33.8683 17.5888L33.8683 19.5144L16.7852 9.65151L16.7852 7.72589Z" fill="#2A2929"/>
<rect width="0.991508" height="7.43631" transform="matrix(0.866025 0.5 -2.20305e-08 1 21.508 4.94183)" fill="#8FFF00"/>
<rect width="0.991508" height="7.43631" transform="matrix(0.866025 0.5 -2.20305e-08 1 25.1139 7.02397)" fill="#8FFF00"/>
<rect width="0.991508" height="7.43631" transform="matrix(0.866025 0.5 -2.20305e-08 1 23.3109 5.98297)" fill="#8FFF00"/>
<rect width="0.991508" height="7.43631" transform="matrix(0.866025 0.5 -2.20305e-08 1 26.9176 8.06511)" fill="#8FFF00"/>
<rect width="0.991508" height="7.43631" transform="matrix(0.866025 0.5 -2.20305e-08 1 28.7206 9.10611)" fill="#8FFF00"/>
<path d="M17.0887 29.1391C17.4455 23.1697 14.2025 20.326 12.8126 19.2823L29.5761 9.60124C33.5806 12.349 34.1717 15.0968 33.964 19.5007L17.0887 29.1391Z" fill="url(#paint0_linear_1_13758)"/>
<rect width="9.37324" height="19.363" transform="matrix(0.866025 0.5 -0.866025 0.5 21.4649 4.91377)" fill="#2A2929"/>
<path d="M28.7202 9.08464L29.579 9.58044L12.7942 19.2711L11.9354 18.7753L28.7202 9.08464Z" fill="#8FFF00"/>
<path d="M26.9173 8.04315L27.776 8.53895L10.9909 18.2298L10.1322 17.734L26.9173 8.04315Z" fill="#8FFF00"/>
<path d="M25.1136 7.00299L25.9723 7.49879L9.18723 17.1897L8.32849 16.6939L25.1136 7.00299Z" fill="#8FFF00"/>
<path d="M23.3111 5.96113L24.1698 6.45693L7.38478 16.1478L6.52603 15.652L23.3111 5.96113Z" fill="#8FFF00"/>
<path d="M21.5071 4.92036L22.3659 5.41616L5.58082 15.107L4.72207 14.6112L21.5071 4.92036Z" fill="#8FFF00"/>
<path d="M18.0575 4.70745L1.35254 14.3033C2.40159 14.0637 3.97605 14.0974 4.72867 14.5962L21.4922 4.90981C20.5055 4.38694 18.7052 4.62264 18.0765 4.70496L18.0575 4.70745Z" fill="#2A2929"/>
<defs>
<linearGradient id="paint0_linear_1_13758" x1="22.3073" y1="14.1223" x2="30.1566" y2="25.976" gradientUnits="userSpaceOnUse">
<stop offset="0.02" stop-color="#2A2929"/>
<stop offset="1"/>
</linearGradient>
</defs>
</svg>
