<svg width="34" height="54" viewBox="0 0 34 54" fill="none" xmlns="http://www.w3.org/2000/svg">
<path d="M14.7224 33.4308L10.5875 36.3625V44.9493L14.7224 42.0176V33.4308Z" fill="#C91C99"/>
<path d="M14.7224 42.0176L10.5875 44.9493V49.1948L14.7224 46.3713V42.0176Z" fill="#C91C99"/>
<path d="M6.30475 42.0166L10.5873 44.9493V49.1948L6.30475 46.3713V42.0166Z" fill="#FE34C6"/>
<path d="M6.30423 33.4308L10.5868 36.3624V44.9493L6.30423 42.0176V33.4308Z" fill="#FE34C6"/>
<path d="M23.4433 37.7914L19.3084 40.7231V49.3099L23.4433 46.3782V37.7914Z" fill="#C91C99"/>
<path d="M23.4433 46.3782L19.3084 49.3099V53.5554L23.4433 50.7318V46.3782Z" fill="#C91C99"/>
<path d="M15.0259 46.3772L19.3084 49.3099V53.5554L15.0259 50.7318V46.3772Z" fill="#FE34C6"/>
<path d="M15.0259 37.7914L19.3084 40.7231V49.3099L15.0259 46.3782V37.7914Z" fill="#FE34C6"/>
<path d="M9.13342 34.7609L13.3421 37.6395L9.13342 40.5174L4.92473 37.6395L9.13342 34.7609Z" fill="#8FFF00"/>
<path d="M3.67733 31.1996C5.139 32.0435 6.32393 31.3594 6.32393 29.6716C6.32393 27.9838 5.139 25.9315 3.67733 25.0876C2.21565 24.2437 1.03073 24.9278 1.03073 26.6156C1.03073 28.3034 2.21565 30.3557 3.67733 31.1996Z" fill="white"/>
<path d="M5.73519 29.3323C5.73519 30.0563 5.63183 30.6432 5.47083 31.0088C5.39015 31.1919 5.29826 31.3121 5.20471 31.3707C5.11157 31.4292 5.02783 31.4209 4.95691 31.38C4.88599 31.3391 4.80225 31.2506 4.70911 31.0846C4.61556 30.9179 4.52367 30.6917 4.44299 30.4153C4.28199 29.8639 4.17863 29.1576 4.17863 28.4336C4.17863 27.7096 4.28199 27.1227 4.44299 26.7571C4.52367 26.5739 4.61556 26.4538 4.70911 26.3951C4.80225 26.3367 4.88599 26.3449 4.95691 26.3859C5.02783 26.4268 5.11157 26.5153 5.20471 26.6813C5.29826 26.848 5.39015 27.0742 5.47083 27.3505C5.63183 27.902 5.73519 28.6083 5.73519 29.3323Z" stroke="black" stroke-width="0.382864"/>
<path d="M0.00402832 16.8907L17.0384 26.5171V45.059L0.00402832 35.4326V16.8907Z" fill="#8FFF00"/>
<path d="M33.8614 16.8907L17.0383 26.5171V45.059L33.8614 35.4326V16.8907Z" fill="#74CA08"/>
<path d="M16.8416 7.17534L33.8617 16.8907L17.0371 26.5206L0.0424824 16.9286L16.8416 7.17534Z" fill="black"/>
<path d="M7.0142 27.3526C7.19843 26.8057 7.96613 27.304 8.08315 28.0463L9.009 33.9198C9.08541 34.4046 8.79783 34.6486 8.43086 34.4104L6.04738 32.8635C5.68041 32.6253 5.43627 32.0362 5.55657 31.6791L7.0142 27.3526Z" fill="#FE34C6"/>
<path d="M7.0142 27.3526C7.19843 26.8057 7.96613 27.304 8.08315 28.0463L9.009 33.9198C9.08541 34.4046 8.79783 34.6486 8.43086 34.4104L6.04738 32.8635C5.68041 32.6253 5.43627 32.0362 5.55657 31.6791L7.0142 27.3526Z" fill="#FE34C6"/>
<path d="M3.06654 29.3642C4.23008 29.9704 5.12212 29.3913 5.05898 28.0706C4.99584 26.75 4.00142 25.188 2.83788 24.5818C1.67434 23.9756 0.782296 24.5548 0.845437 25.8754C0.908579 27.196 1.903 28.758 3.06654 29.3642Z" fill="white"/>
<path d="M12.5597 34.5596C13.7232 35.1658 14.6153 34.5867 14.5521 33.266C14.489 31.9454 13.4946 30.3834 12.331 29.7772C11.1675 29.171 10.2754 29.7502 10.3386 31.0708C10.4017 32.3914 11.3961 33.9534 12.5597 34.5596Z" fill="white"/>
<path d="M3.49356 27.5161C3.52047 28.0788 3.46261 28.5368 3.35343 28.8239C3.29868 28.9679 3.23391 29.0614 3.16772 29.1079C3.10189 29.1541 3.04568 29.1475 3.00327 29.1254C2.96086 29.1033 2.90243 29.0502 2.8287 28.9312C2.75456 28.8116 2.67732 28.6442 2.60565 28.4343C2.46273 28.0158 2.35701 27.4726 2.3301 26.9099C2.3032 26.3473 2.36106 25.8893 2.47024 25.6021C2.52499 25.4581 2.58976 25.3647 2.65595 25.3182C2.72178 25.2719 2.77798 25.2785 2.8204 25.3006C2.86281 25.3227 2.92124 25.3758 2.99497 25.4948C3.06911 25.6144 3.14635 25.7818 3.21802 25.9917C3.36094 26.4102 3.46666 26.9534 3.49356 27.5161Z" stroke="black" stroke-width="0.382864"/>
<path d="M13.0202 32.6657C13.0471 33.2283 12.9893 33.6863 12.8801 33.9735C12.8254 34.1175 12.7606 34.2109 12.6944 34.2574C12.6286 34.3037 12.5724 34.2971 12.5299 34.275C12.4875 34.2529 12.4291 34.1998 12.3554 34.0808C12.2812 33.9612 12.204 33.7938 12.1323 33.5839C11.9894 33.1654 11.8837 32.6222 11.8568 32.0595C11.8299 31.4968 11.8877 31.0388 11.9969 30.7517C12.0517 30.6077 12.1164 30.5142 12.1826 30.4677C12.2485 30.4215 12.3047 30.4281 12.3471 30.4502C12.3895 30.4723 12.4479 30.5254 12.5216 30.6444C12.5958 30.764 12.673 30.9314 12.7447 31.1413C12.8876 31.5598 12.9933 32.103 13.0202 32.6657Z" stroke="black" stroke-width="0.382864"/>
<path d="M3.39743 32.7041C4.21639 35.161 7.59024 38.0709 10.665 36.3379" stroke="#EF3124" stroke-width="1.12067" stroke-linecap="round"/>
<rect width="19.4372" height="8.59751" transform="matrix(0.866025 -0.5 2.20305e-08 1 17.0372 19.7178)" fill="black"/>
<path d="M0.00201357 9.84303L16.8245 0.687139L16.833 7.22636L8.4867 12.1956L0.025393 16.9302L0.00201357 9.84303Z" fill="black"/>
<path d="M-9.15531e-05 9.84629L-8.74078e-05 18.5724L17.037 28.3134L17.037 19.6676L12.7873 21.5369L8.5376 14.7604L4.28788 16.6298L-9.15531e-05 9.84629Z" fill="#2A2929"/>
<path d="M16.8248 0.686805L16.795 7.21215L33.8661 16.991L33.8661 9.99545L29.6079 11.0347L25.3497 5.07851L21.0915 6.1178L16.8248 0.686805Z" fill="black"/>
</svg>
